%FSLAX25Y25*%
%MOIN*%
G70*
G01*
G75*
G04 Layer_Color=32896*
%ADD10R,0.04331X0.03937*%
%ADD11R,0.05000X0.04000*%
%ADD12R,0.03937X0.02756*%
%ADD13R,0.04000X0.03500*%
%ADD14R,0.04000X0.05000*%
%ADD15R,0.02756X0.03937*%
%ADD16R,0.03500X0.04000*%
%ADD17R,0.05906X0.04724*%
%ADD18R,0.06496X0.06299*%
%ADD19O,0.07874X0.02362*%
%ADD20O,0.06693X0.01378*%
%ADD21R,0.03543X0.02559*%
%ADD22C,0.06063*%
%ADD23R,0.06299X0.06496*%
%ADD24R,0.03347X0.02362*%
%ADD25R,0.02362X0.03347*%
%ADD26R,0.18504X0.07874*%
%ADD27R,0.01575X0.03937*%
%ADD28R,0.01181X0.04724*%
%ADD29R,0.03937X0.04331*%
%ADD30R,0.10827X0.03937*%
%ADD31C,0.01000*%
%ADD32C,0.00700*%
%ADD33C,0.01200*%
%ADD34C,0.06000*%
%ADD35C,0.02000*%
%ADD36C,0.04000*%
%ADD37C,0.03000*%
%ADD38R,0.18110X0.12598*%
%ADD39R,0.27559X0.09055*%
%ADD40R,0.27953X0.09449*%
%ADD41R,0.11417X0.12992*%
%ADD42R,0.05906X0.07874*%
%ADD43R,0.05906X0.05906*%
%ADD44C,0.05906*%
%ADD45C,0.11811*%
%ADD46C,0.07874*%
%ADD47C,0.02400*%
%ADD48C,0.06693*%
%ADD49C,0.04724*%
%ADD50C,0.05512*%
%ADD51C,0.03937*%
%ADD52C,0.04000*%
%ADD53R,0.05000X0.12000*%
%ADD54O,0.09843X0.05906*%
%ADD55R,0.07677X0.05512*%
%ADD56R,0.03150X0.06299*%
%ADD57R,0.03347X0.06299*%
%ADD58R,0.06299X0.13780*%
%ADD59R,0.05906X0.12205*%
%ADD60R,0.05512X0.13780*%
%ADD61R,0.04724X0.12205*%
%ADD62O,0.01378X0.06693*%
%ADD63R,0.02559X0.04331*%
%ADD64R,0.14567X0.05906*%
%ADD65R,0.07087X0.09449*%
%ADD66R,0.07087X0.07480*%
%ADD67R,0.01575X0.05906*%
%ADD68R,0.00984X0.02756*%
%ADD69R,0.05512X0.00984*%
%ADD70R,0.02756X0.00984*%
G04:AMPARAMS|DCode=71|XSize=27.56mil|YSize=9.84mil|CornerRadius=3.69mil|HoleSize=0mil|Usage=FLASHONLY|Rotation=0.000|XOffset=0mil|YOffset=0mil|HoleType=Round|Shape=RoundedRectangle|*
%AMROUNDEDRECTD71*
21,1,0.02756,0.00246,0,0,0.0*
21,1,0.02018,0.00984,0,0,0.0*
1,1,0.00738,0.01009,-0.00123*
1,1,0.00738,-0.01009,-0.00123*
1,1,0.00738,-0.01009,0.00123*
1,1,0.00738,0.01009,0.00123*
%
%ADD71ROUNDEDRECTD71*%
%ADD72R,0.04724X0.02362*%
%ADD73R,0.13780X0.04724*%
%ADD74R,0.13386X0.07874*%
%ADD75R,0.01378X0.11811*%
%ADD76R,0.11811X0.12598*%
%ADD77R,0.07874X0.18504*%
%ADD78R,0.07874X0.05512*%
%ADD79R,0.05512X0.02362*%
%ADD80R,0.05512X0.02953*%
%ADD81R,0.03150X0.05118*%
%ADD82R,0.02362X0.04724*%
%ADD83R,0.06071X0.06000*%
%ADD84R,0.06000X0.06000*%
%ADD85C,0.01258*%
%ADD86C,0.00787*%
%ADD87C,0.00500*%
%ADD88C,0.00984*%
%ADD89C,0.02362*%
%ADD90C,0.00780*%
%ADD91C,0.00600*%
%ADD92C,0.00800*%
%ADD93R,0.12050X0.04000*%
%ADD94R,0.04000X0.12050*%
%ADD95R,0.07480X0.11811*%
%ADD96R,0.11811X0.07480*%
%ADD97R,0.05131X0.04737*%
%ADD98R,0.05800X0.04800*%
%ADD99R,0.04737X0.03556*%
%ADD100R,0.04800X0.04300*%
%ADD101R,0.04800X0.05800*%
%ADD102R,0.03556X0.04737*%
%ADD103R,0.04300X0.04800*%
%ADD104R,0.06706X0.05524*%
%ADD105R,0.07296X0.07099*%
%ADD106O,0.08674X0.03162*%
%ADD107O,0.07493X0.02178*%
%ADD108R,0.04343X0.03359*%
%ADD109C,0.06863*%
%ADD110R,0.07099X0.07296*%
%ADD111R,0.04147X0.03162*%
%ADD112R,0.03162X0.04147*%
%ADD113R,0.19304X0.08674*%
%ADD114R,0.02375X0.04737*%
%ADD115R,0.01981X0.05524*%
%ADD116R,0.04737X0.05131*%
%ADD117R,0.11627X0.04737*%
%ADD118R,0.06706X0.08674*%
%ADD119R,0.06706X0.06706*%
%ADD120C,0.06706*%
%ADD121C,0.12611*%
%ADD122C,0.08674*%
%ADD123R,0.05800X0.12800*%
%ADD124O,0.10642X0.06706*%
%ADD125R,0.08477X0.06312*%
%ADD126R,0.03950X0.07099*%
%ADD127R,0.04147X0.07099*%
%ADD128R,0.07099X0.14579*%
%ADD129R,0.06706X0.13005*%
%ADD130R,0.06312X0.14579*%
%ADD131R,0.05524X0.13005*%
%ADD132O,0.02178X0.07493*%
%ADD133R,0.03359X0.05131*%
%ADD134R,0.15367X0.06706*%
%ADD135R,0.07887X0.10249*%
%ADD136R,0.07887X0.08280*%
%ADD137R,0.02375X0.06706*%
%ADD138R,0.01784X0.03556*%
%ADD139R,0.06312X0.01784*%
%ADD140R,0.03556X0.01784*%
G04:AMPARAMS|DCode=141|XSize=35.56mil|YSize=17.84mil|CornerRadius=7.69mil|HoleSize=0mil|Usage=FLASHONLY|Rotation=0.000|XOffset=0mil|YOffset=0mil|HoleType=Round|Shape=RoundedRectangle|*
%AMROUNDEDRECTD141*
21,1,0.03556,0.00246,0,0,0.0*
21,1,0.02018,0.01784,0,0,0.0*
1,1,0.01538,0.01009,-0.00123*
1,1,0.01538,-0.01009,-0.00123*
1,1,0.01538,-0.01009,0.00123*
1,1,0.01538,0.01009,0.00123*
%
%ADD141ROUNDEDRECTD141*%
%ADD142R,0.05524X0.03162*%
%ADD143R,0.14579X0.05524*%
%ADD144R,0.14186X0.08674*%
%ADD145R,0.02178X0.12611*%
%ADD146R,0.12611X0.13398*%
%ADD147R,0.08674X0.19304*%
%ADD148R,0.08674X0.06312*%
%ADD149R,0.06312X0.03162*%
%ADD150R,0.06312X0.03753*%
%ADD151R,0.03950X0.05918*%
%ADD152R,0.03162X0.05524*%
%ADD153R,0.06871X0.06800*%
%ADD154R,0.06800X0.06800*%
%ADD155C,0.00598*%
%ADD156C,0.01969*%
%ADD157R,0.04724X0.07874*%
G36*
X220500Y26310D02*
X220559D01*
X220598Y26300D01*
X220637Y26290D01*
X220656D01*
X220666Y26281D01*
X220676D01*
X220725Y26242D01*
X220754Y26203D01*
X220764Y26173D01*
Y26164D01*
Y25734D01*
X222706D01*
X222823Y25724D01*
X222921Y25715D01*
X222999Y25705D01*
X223067Y25695D01*
X223126Y25685D01*
X223155Y25676D01*
X223165D01*
X223321Y25617D01*
X223389Y25578D01*
X223448Y25539D01*
X223497Y25510D01*
X223526Y25480D01*
X223545Y25471D01*
X223555Y25461D01*
X223653Y25344D01*
X223721Y25227D01*
X223750Y25178D01*
X223770Y25139D01*
X223780Y25109D01*
Y25100D01*
X223828Y24924D01*
X223838Y24836D01*
X223848Y24748D01*
X223858Y24680D01*
Y24622D01*
Y24582D01*
Y24573D01*
Y24495D01*
X223848Y24426D01*
X223838Y24377D01*
Y24358D01*
X223828Y24280D01*
X223819Y24212D01*
X223809Y24172D01*
Y24153D01*
X223789Y24085D01*
X223780Y24036D01*
X223760Y23997D01*
Y23987D01*
X223741Y23938D01*
X223721Y23899D01*
X223702Y23889D01*
Y23880D01*
X223662Y23851D01*
X223623Y23831D01*
X223584Y23821D01*
X223575D01*
X223487Y23802D01*
X223399Y23792D01*
X223223D01*
X223165Y23802D01*
X223126Y23811D01*
X223116D01*
X223067Y23821D01*
X223038D01*
X223018Y23831D01*
X223008D01*
X222979Y23841D01*
X222960Y23851D01*
X222950Y23860D01*
Y23870D01*
X222930Y23899D01*
Y23909D01*
X222940Y23958D01*
X222950Y23968D01*
Y23977D01*
X222970Y24026D01*
X222979Y24046D01*
Y24055D01*
X222999Y24134D01*
X223008Y24163D01*
Y24172D01*
X223018Y24221D01*
Y24260D01*
Y24299D01*
Y24309D01*
X223008Y24397D01*
X222999Y24465D01*
X222979Y24524D01*
X222950Y24563D01*
X222921Y24602D01*
X222901Y24622D01*
X222891Y24641D01*
X222882D01*
X222823Y24670D01*
X222755Y24690D01*
X222608Y24719D01*
X222540D01*
X222491Y24729D01*
X220764D01*
Y23948D01*
X220754Y23899D01*
X220715Y23870D01*
X220686Y23851D01*
X220676Y23841D01*
X220637Y23821D01*
X220588Y23811D01*
X220481Y23802D01*
X220432Y23792D01*
X220276D01*
X220217Y23802D01*
X220178Y23811D01*
X220168D01*
X220110Y23821D01*
X220071Y23831D01*
X220051Y23841D01*
X220041D01*
X220012Y23860D01*
X219993Y23870D01*
X219973Y23880D01*
Y23889D01*
X219954Y23909D01*
X219944Y23938D01*
Y23948D01*
Y23958D01*
Y24729D01*
X219124D01*
X219105Y24739D01*
X219085Y24748D01*
Y24758D01*
X219056Y24778D01*
X219036Y24807D01*
X219026Y24826D01*
Y24836D01*
X219017Y24885D01*
X219007Y24934D01*
X218997Y24973D01*
Y24992D01*
X218987Y25070D01*
X218978Y25148D01*
Y25207D01*
Y25227D01*
Y25236D01*
Y25334D01*
X218987Y25412D01*
X218997Y25461D01*
Y25480D01*
X219007Y25549D01*
X219017Y25598D01*
X219026Y25627D01*
Y25637D01*
X219046Y25676D01*
X219065Y25695D01*
X219075Y25715D01*
X219085D01*
X219134Y25734D01*
X219944D01*
Y26164D01*
Y26193D01*
X219954Y26212D01*
X219963Y26222D01*
X219973Y26232D01*
X219993Y26251D01*
X220012Y26271D01*
X220032Y26281D01*
X220041D01*
X220080Y26290D01*
X220120Y26300D01*
X220149Y26310D01*
X220168D01*
X220227Y26320D01*
X220432D01*
X220500Y26310D01*
D02*
G37*
G36*
X222081Y30224D02*
X222247Y30214D01*
X222403Y30195D01*
X222530Y30175D01*
X222628Y30155D01*
X222706Y30136D01*
X222755Y30116D01*
X222774D01*
X222911Y30068D01*
X223028Y30009D01*
X223135Y29950D01*
X223223Y29892D01*
X223291Y29843D01*
X223340Y29804D01*
X223379Y29775D01*
X223389Y29765D01*
X223477Y29667D01*
X223545Y29570D01*
X223614Y29472D01*
X223662Y29375D01*
X223702Y29296D01*
X223731Y29228D01*
X223741Y29189D01*
X223750Y29170D01*
X223789Y29033D01*
X223819Y28887D01*
X223838Y28740D01*
X223848Y28613D01*
X223858Y28496D01*
X223867Y28408D01*
Y28350D01*
Y28340D01*
Y28330D01*
X223858Y28145D01*
Y28057D01*
X223848Y27979D01*
X223838Y27920D01*
Y27872D01*
X223828Y27842D01*
Y27832D01*
X223809Y27667D01*
X223789Y27598D01*
X223780Y27540D01*
X223770Y27491D01*
Y27452D01*
X223760Y27432D01*
Y27423D01*
X223721Y27296D01*
X223692Y27208D01*
X223672Y27149D01*
X223662Y27130D01*
X223633Y27062D01*
X223614Y27013D01*
X223594Y26993D01*
Y26983D01*
X223555Y26954D01*
X223535Y26944D01*
X223487Y26925D01*
X223467Y26915D01*
X223458D01*
X223389Y26905D01*
X223350D01*
X223301Y26896D01*
X223077D01*
X223047Y26905D01*
X223038D01*
X222989Y26915D01*
X222960Y26925D01*
X222940Y26935D01*
X222930D01*
X222901Y26944D01*
X222891Y26954D01*
X222882Y26964D01*
Y26974D01*
X222862Y27013D01*
Y27022D01*
Y27032D01*
X222872Y27081D01*
X222882Y27130D01*
X222891Y27169D01*
X222901Y27188D01*
X222930Y27266D01*
X222960Y27335D01*
X222979Y27393D01*
X222989Y27413D01*
Y27423D01*
X223018Y27540D01*
X223047Y27657D01*
X223057Y27706D01*
X223067Y27735D01*
X223077Y27764D01*
Y27774D01*
X223096Y27930D01*
X223106Y28076D01*
Y28135D01*
Y28184D01*
Y28223D01*
Y28233D01*
Y28330D01*
X223096Y28418D01*
X223087Y28486D01*
X223077Y28555D01*
X223067Y28613D01*
X223057Y28652D01*
X223047Y28672D01*
Y28682D01*
X222989Y28809D01*
X222921Y28906D01*
X222891Y28935D01*
X222872Y28965D01*
X222862Y28975D01*
X222852Y28984D01*
X222745Y29062D01*
X222638Y29111D01*
X222599Y29131D01*
X222559Y29150D01*
X222540Y29160D01*
X222530D01*
X222384Y29189D01*
X222247Y29199D01*
X222198Y29209D01*
X222111D01*
Y27042D01*
X222101Y26944D01*
X222062Y26876D01*
X222032Y26827D01*
X222023Y26818D01*
X221945Y26769D01*
X221857Y26739D01*
X221818Y26730D01*
X221457D01*
X221330Y26749D01*
X221213Y26759D01*
X221105Y26778D01*
X221018Y26798D01*
X220959Y26808D01*
X220910Y26827D01*
X220900D01*
X220783Y26866D01*
X220676Y26915D01*
X220578Y26964D01*
X220500Y27013D01*
X220432Y27062D01*
X220383Y27101D01*
X220354Y27120D01*
X220344Y27130D01*
X220256Y27208D01*
X220188Y27296D01*
X220129Y27384D01*
X220071Y27471D01*
X220032Y27540D01*
X220002Y27598D01*
X219993Y27647D01*
X219983Y27657D01*
X219934Y27784D01*
X219905Y27911D01*
X219876Y28038D01*
X219866Y28155D01*
X219856Y28262D01*
X219846Y28340D01*
Y28399D01*
Y28408D01*
Y28418D01*
X219856Y28574D01*
X219866Y28711D01*
X219895Y28848D01*
X219915Y28955D01*
X219944Y29052D01*
X219973Y29121D01*
X219983Y29160D01*
X219993Y29179D01*
X220051Y29306D01*
X220110Y29414D01*
X220178Y29511D01*
X220246Y29599D01*
X220305Y29667D01*
X220354Y29716D01*
X220393Y29746D01*
X220403Y29755D01*
X220510Y29833D01*
X220617Y29911D01*
X220725Y29970D01*
X220822Y30019D01*
X220910Y30068D01*
X220978Y30097D01*
X221027Y30107D01*
X221047Y30116D01*
X221193Y30155D01*
X221340Y30185D01*
X221486Y30204D01*
X221623Y30214D01*
X221730Y30224D01*
X221828Y30233D01*
X221906D01*
X222081Y30224D01*
D02*
G37*
G36*
X223692Y23050D02*
X223702Y23040D01*
X223711D01*
X223731Y23021D01*
X223750Y22992D01*
X223760Y22972D01*
Y22962D01*
X223770Y22914D01*
X223780Y22865D01*
X223789Y22826D01*
Y22806D01*
X223799Y22728D01*
Y22650D01*
Y22582D01*
Y22572D01*
Y22562D01*
Y22465D01*
X223789Y22386D01*
Y22338D01*
Y22318D01*
X223780Y22250D01*
X223770Y22201D01*
X223760Y22172D01*
Y22162D01*
X223741Y22123D01*
X223731Y22103D01*
X223711Y22084D01*
X223692Y22064D01*
X223662Y22055D01*
X221418D01*
X221301Y21976D01*
X221213Y21908D01*
X221154Y21869D01*
X221144Y21850D01*
X221135D01*
X221047Y21781D01*
X220988Y21723D01*
X220949Y21684D01*
X220939Y21664D01*
X220891Y21596D01*
X220851Y21537D01*
X220842Y21498D01*
X220832Y21488D01*
X220813Y21420D01*
X220793Y21371D01*
Y21332D01*
Y21313D01*
Y21264D01*
X220803Y21225D01*
X220813Y21196D01*
Y21186D01*
X220822Y21147D01*
X220832Y21108D01*
X220842Y21088D01*
Y21079D01*
X220851Y21040D01*
X220861Y21010D01*
X220871Y20991D01*
Y20981D01*
X220881Y20932D01*
Y20913D01*
X220871Y20864D01*
X220861Y20844D01*
X220842Y20825D01*
X220822Y20815D01*
X220803Y20805D01*
X220793D01*
X220754Y20796D01*
X220705Y20786D01*
X220666Y20776D01*
X220656D01*
X220578Y20766D01*
X220246D01*
X220198Y20776D01*
X220090D01*
X220071Y20786D01*
X220061D01*
X220032Y20796D01*
X220012D01*
X219993Y20805D01*
X219954Y20825D01*
X219944Y20835D01*
Y20844D01*
X219934Y20864D01*
X219924Y20883D01*
X219915Y20903D01*
Y20913D01*
X219905Y20942D01*
X219895Y20981D01*
X219885Y21010D01*
Y21020D01*
X219876Y21069D01*
X219866Y21108D01*
X219856Y21137D01*
Y21147D01*
X219846Y21186D01*
Y21225D01*
Y21245D01*
Y21254D01*
X219856Y21342D01*
X219866Y21410D01*
X219876Y21469D01*
X219885Y21479D01*
Y21488D01*
X219915Y21567D01*
X219954Y21645D01*
X219983Y21693D01*
X219993Y21703D01*
Y21713D01*
X220051Y21791D01*
X220120Y21869D01*
X220178Y21928D01*
X220188Y21937D01*
X220198Y21947D01*
X220305Y22035D01*
X220403Y22123D01*
X220451Y22162D01*
X220490Y22182D01*
X220510Y22201D01*
X220520Y22211D01*
X220080D01*
X220032Y22220D01*
X220012Y22230D01*
X219993Y22250D01*
X219973Y22269D01*
X219963Y22289D01*
Y22299D01*
X219954Y22338D01*
X219944Y22377D01*
X219934Y22406D01*
Y22425D01*
X219924Y22494D01*
X219915Y22552D01*
Y22611D01*
Y22621D01*
Y22630D01*
Y22718D01*
X219924Y22787D01*
X219934Y22826D01*
Y22845D01*
X219944Y22894D01*
X219954Y22933D01*
X219963Y22962D01*
Y22972D01*
X219983Y23001D01*
X219993Y23021D01*
X220002Y23040D01*
X220012D01*
X220061Y23060D01*
X223643D01*
X223692Y23050D01*
D02*
G37*
G36*
X223682Y15681D02*
X223702Y15672D01*
X223711D01*
X223731Y15652D01*
X223750Y15623D01*
X223760Y15603D01*
Y15594D01*
X223770Y15535D01*
X223780Y15486D01*
X223789Y15447D01*
Y15428D01*
X223799Y15340D01*
Y15262D01*
Y15193D01*
Y15184D01*
Y15174D01*
Y15067D01*
X223789Y14988D01*
Y14940D01*
Y14920D01*
X223780Y14852D01*
X223770Y14793D01*
X223760Y14764D01*
Y14754D01*
X223741Y14715D01*
X223731Y14686D01*
X223711Y14676D01*
Y14666D01*
X223682Y14647D01*
X223653Y14637D01*
X221984D01*
Y14208D01*
X221974Y14022D01*
X221964Y13856D01*
X221945Y13710D01*
X221925Y13573D01*
X221906Y13476D01*
X221886Y13397D01*
X221867Y13349D01*
Y13329D01*
X221818Y13193D01*
X221759Y13066D01*
X221710Y12958D01*
X221652Y12861D01*
X221603Y12792D01*
X221564Y12734D01*
X221535Y12695D01*
X221525Y12685D01*
X221437Y12587D01*
X221340Y12509D01*
X221242Y12441D01*
X221154Y12382D01*
X221076Y12343D01*
X221018Y12314D01*
X220969Y12295D01*
X220959Y12285D01*
X220822Y12236D01*
X220695Y12207D01*
X220559Y12178D01*
X220442Y12168D01*
X220334Y12158D01*
X220256Y12148D01*
X220061D01*
X219954Y12168D01*
X219866Y12178D01*
X219778Y12197D01*
X219710Y12217D01*
X219661Y12226D01*
X219622Y12246D01*
X219612D01*
X219436Y12324D01*
X219358Y12363D01*
X219300Y12402D01*
X219241Y12441D01*
X219202Y12470D01*
X219183Y12490D01*
X219173Y12500D01*
X219046Y12636D01*
X218939Y12763D01*
X218909Y12822D01*
X218880Y12870D01*
X218870Y12900D01*
X218861Y12910D01*
X218782Y13085D01*
X218753Y13163D01*
X218724Y13232D01*
X218704Y13290D01*
X218695Y13339D01*
X218685Y13368D01*
Y13378D01*
X218655Y13534D01*
X218646Y13602D01*
X218636Y13661D01*
Y13700D01*
X218626Y13739D01*
Y13759D01*
Y13768D01*
X218617Y13895D01*
X218607Y14003D01*
Y14051D01*
Y14090D01*
Y14110D01*
Y14120D01*
Y15340D01*
X218626Y15447D01*
X218655Y15525D01*
X218685Y15574D01*
X218704Y15594D01*
X218792Y15652D01*
X218880Y15681D01*
X218919D01*
X218958Y15691D01*
X223633D01*
X223682Y15681D01*
D02*
G37*
G36*
X222072Y20356D02*
X222228Y20347D01*
X222374Y20327D01*
X222501Y20308D01*
X222599Y20288D01*
X222677Y20278D01*
X222726Y20259D01*
X222745D01*
X222872Y20210D01*
X222989Y20161D01*
X223096Y20103D01*
X223184Y20044D01*
X223262Y19995D01*
X223311Y19956D01*
X223350Y19927D01*
X223360Y19917D01*
X223448Y19820D01*
X223526Y19722D01*
X223584Y19624D01*
X223643Y19536D01*
X223682Y19458D01*
X223711Y19390D01*
X223731Y19351D01*
X223741Y19332D01*
X223780Y19195D01*
X223809Y19049D01*
X223838Y18912D01*
X223848Y18785D01*
X223858Y18668D01*
X223867Y18580D01*
Y18521D01*
Y18512D01*
Y18502D01*
X223858Y18326D01*
X223848Y18160D01*
X223819Y18014D01*
X223789Y17887D01*
X223770Y17789D01*
X223741Y17711D01*
X223731Y17663D01*
X223721Y17643D01*
X223662Y17506D01*
X223594Y17389D01*
X223526Y17282D01*
X223458Y17194D01*
X223399Y17126D01*
X223350Y17067D01*
X223311Y17038D01*
X223301Y17028D01*
X223194Y16940D01*
X223087Y16872D01*
X222979Y16804D01*
X222872Y16755D01*
X222784Y16716D01*
X222716Y16687D01*
X222677Y16677D01*
X222657Y16667D01*
X222511Y16628D01*
X222364Y16589D01*
X222228Y16569D01*
X222101Y16560D01*
X221993Y16550D01*
X221906Y16540D01*
X221652D01*
X221496Y16560D01*
X221349Y16579D01*
X221232Y16599D01*
X221125Y16618D01*
X221057Y16638D01*
X221008Y16648D01*
X220988Y16657D01*
X220851Y16706D01*
X220734Y16755D01*
X220627Y16814D01*
X220539Y16872D01*
X220461Y16921D01*
X220412Y16960D01*
X220373Y16989D01*
X220363Y16999D01*
X220276Y17087D01*
X220198Y17184D01*
X220129Y17282D01*
X220080Y17380D01*
X220032Y17458D01*
X220002Y17526D01*
X219993Y17565D01*
X219983Y17584D01*
X219934Y17721D01*
X219905Y17858D01*
X219876Y18004D01*
X219866Y18131D01*
X219856Y18248D01*
X219846Y18336D01*
Y18395D01*
Y18404D01*
Y18414D01*
X219856Y18590D01*
X219866Y18756D01*
X219895Y18902D01*
X219924Y19029D01*
X219954Y19127D01*
X219973Y19205D01*
X219993Y19253D01*
X220002Y19273D01*
X220061Y19400D01*
X220129Y19517D01*
X220198Y19624D01*
X220266Y19712D01*
X220324Y19781D01*
X220373Y19829D01*
X220412Y19868D01*
X220422Y19878D01*
X220529Y19966D01*
X220637Y20034D01*
X220744Y20103D01*
X220842Y20151D01*
X220930Y20200D01*
X220998Y20230D01*
X221047Y20239D01*
X221066Y20249D01*
X221213Y20288D01*
X221349Y20317D01*
X221496Y20337D01*
X221623Y20347D01*
X221730Y20356D01*
X221818Y20366D01*
X221896D01*
X222072Y20356D01*
D02*
G37*
G36*
X215191Y-16546D02*
X215203Y-16710D01*
X215215Y-16874D01*
X215238Y-17003D01*
X215262Y-17120D01*
X215285Y-17214D01*
X215308Y-17284D01*
X215320Y-17331D01*
X215332Y-17343D01*
X215402Y-17518D01*
X215484Y-17717D01*
X215578Y-17916D01*
X215671Y-18104D01*
X215765Y-18268D01*
X215835Y-18408D01*
X215870Y-18455D01*
X215882Y-18490D01*
X215905Y-18514D01*
Y-18525D01*
X215753Y-18736D01*
X215683Y-18818D01*
X215624Y-18912D01*
X215578Y-18970D01*
X215543Y-19029D01*
X215531Y-19064D01*
X215519Y-19076D01*
X215460Y-19193D01*
X215390Y-19345D01*
X215320Y-19521D01*
X215238Y-19696D01*
X215179Y-19849D01*
X215121Y-19989D01*
X215097Y-20036D01*
X215086Y-20071D01*
X215074Y-20094D01*
Y-20106D01*
X211421D01*
X211315Y-19731D01*
X211198Y-19380D01*
X211081Y-19087D01*
X211022Y-18947D01*
X210964Y-18830D01*
X210905Y-18713D01*
X210858Y-18619D01*
X210812Y-18537D01*
X210776Y-18467D01*
X210741Y-18408D01*
X210718Y-18373D01*
X210695Y-18350D01*
Y-18338D01*
X210882Y-18080D01*
X211058Y-17811D01*
X211198Y-17553D01*
X211315Y-17308D01*
X211409Y-17085D01*
X211456Y-17003D01*
X211479Y-16921D01*
X211503Y-16862D01*
X211526Y-16804D01*
X211538Y-16781D01*
Y-16769D01*
X214325D01*
X214418Y-16757D01*
X214500D01*
X214571Y-16745D01*
X214606Y-16734D01*
X214641D01*
X214664Y-16722D01*
X214723Y-16699D01*
X214770Y-16652D01*
X214875Y-16570D01*
X214922Y-16535D01*
X214957Y-16499D01*
X214980Y-16476D01*
X214992Y-16464D01*
X215191Y-16546D01*
D02*
G37*
G36*
X210191Y-6921D02*
X210027Y-6944D01*
X209898Y-6979D01*
X209793Y-7003D01*
X209711Y-7038D01*
X209652Y-7061D01*
X209617Y-7085D01*
X209594Y-7096D01*
X209547Y-7131D01*
X209524Y-7178D01*
X209477Y-7249D01*
X209465Y-7307D01*
Y-7331D01*
X209488Y-7448D01*
X209535Y-7541D01*
X209594Y-7635D01*
X209676Y-7717D01*
X209758Y-7787D01*
X209816Y-7834D01*
X209863Y-7869D01*
X209887Y-7881D01*
X210062Y-7975D01*
X210250Y-8057D01*
X210636Y-8197D01*
X211046Y-8291D01*
X211444Y-8361D01*
X211631Y-8384D01*
X211795Y-8408D01*
X211947Y-8420D01*
X212088Y-8431D01*
X212193D01*
X212275Y-8443D01*
X212346D01*
X212287Y-8420D01*
X212240Y-8384D01*
X212158Y-8303D01*
X212111Y-8232D01*
X212088Y-8209D01*
Y-8197D01*
X212030Y-8045D01*
X211994Y-7916D01*
X211983Y-7858D01*
Y-7822D01*
Y-7799D01*
Y-7787D01*
X211994Y-7682D01*
X212018Y-7576D01*
X212041Y-7483D01*
X212088Y-7389D01*
X212205Y-7237D01*
X212322Y-7108D01*
X212451Y-7014D01*
X212568Y-6944D01*
X212615Y-6921D01*
X212638Y-6897D01*
X212662Y-6886D01*
X212673D01*
X212826Y-7108D01*
X212767Y-7202D01*
X212732Y-7272D01*
X212685Y-7401D01*
X212673Y-7448D01*
X212662Y-7495D01*
Y-7506D01*
Y-7518D01*
X212673Y-7623D01*
X212709Y-7717D01*
X212744Y-7811D01*
X212791Y-7893D01*
X212849Y-7951D01*
X212884Y-7998D01*
X212919Y-8033D01*
X212931Y-8045D01*
X213037Y-8127D01*
X213154Y-8197D01*
X213271Y-8244D01*
X213376Y-8267D01*
X213470Y-8291D01*
X213552Y-8303D01*
X213622D01*
X213774Y-8291D01*
X213927Y-8267D01*
X214102Y-8232D01*
X214278Y-8185D01*
X214629Y-8068D01*
X214969Y-7928D01*
X215121Y-7858D01*
X215273Y-7787D01*
X215402Y-7729D01*
X215519Y-7670D01*
X215613Y-7623D01*
X215683Y-7588D01*
X215730Y-7565D01*
X215742Y-7553D01*
X215905Y-7775D01*
X215812Y-7951D01*
X215730Y-8103D01*
X215671Y-8244D01*
X215624Y-8361D01*
X215589Y-8455D01*
X215566Y-8513D01*
X215543Y-8560D01*
Y-8572D01*
X215484Y-8806D01*
X215460Y-8911D01*
X215449Y-9005D01*
X215437Y-9087D01*
Y-9157D01*
Y-9204D01*
Y-9216D01*
Y-9345D01*
X215460Y-9462D01*
X215472Y-9555D01*
X215496Y-9649D01*
X215519Y-9719D01*
X215531Y-9766D01*
X215554Y-9801D01*
Y-9813D01*
X215589Y-9883D01*
X215648Y-9954D01*
X215765Y-10094D01*
X215812Y-10153D01*
X215859Y-10199D01*
X215894Y-10235D01*
X215905Y-10246D01*
X215800Y-10481D01*
X215718Y-10680D01*
X215660Y-10843D01*
X215601Y-10984D01*
X215566Y-11089D01*
X215543Y-11171D01*
X215519Y-11218D01*
Y-11230D01*
X215460Y-11464D01*
X215437Y-11570D01*
X215425Y-11663D01*
X215414Y-11745D01*
Y-11804D01*
Y-11839D01*
Y-11851D01*
X215437Y-12003D01*
X215472Y-12143D01*
X215496Y-12202D01*
X215507Y-12249D01*
X215531Y-12272D01*
Y-12284D01*
X215578Y-12377D01*
X215636Y-12460D01*
X215753Y-12635D01*
X215812Y-12694D01*
X215859Y-12752D01*
X215894Y-12787D01*
X215905Y-12799D01*
X215706Y-13022D01*
X215519Y-13232D01*
X215343Y-13431D01*
X215168Y-13607D01*
X215016Y-13771D01*
X214863Y-13923D01*
X214723Y-14052D01*
X214594Y-14181D01*
X214489Y-14286D01*
X214383Y-14380D01*
X214301Y-14462D01*
X214219Y-14521D01*
X214161Y-14579D01*
X214126Y-14614D01*
X214102Y-14626D01*
X214090Y-14638D01*
X213798Y-14848D01*
X213517Y-15036D01*
X213247Y-15200D01*
X213001Y-15340D01*
X212779Y-15434D01*
X212697Y-15481D01*
X212615Y-15516D01*
X212556Y-15539D01*
X212510Y-15563D01*
X212486Y-15574D01*
X212474D01*
X212275Y-15645D01*
X212076Y-15691D01*
X211877Y-15738D01*
X211702Y-15762D01*
X211549Y-15773D01*
X211432Y-15785D01*
X211327D01*
X211093Y-15773D01*
X210870Y-15750D01*
X210659Y-15703D01*
X210460Y-15668D01*
X210296Y-15621D01*
X210168Y-15574D01*
X210121Y-15563D01*
X210086Y-15551D01*
X210074Y-15539D01*
X210062D01*
X209816Y-15434D01*
X209559Y-15305D01*
X209313Y-15165D01*
X209079Y-15036D01*
X208879Y-14907D01*
X208786Y-14848D01*
X208716Y-14790D01*
X208657Y-14755D01*
X208610Y-14720D01*
X208587Y-14708D01*
X208575Y-14696D01*
X210109Y-12424D01*
X209781Y-12284D01*
X209488Y-12143D01*
X209231Y-12003D01*
X209008Y-11862D01*
X208821Y-11733D01*
X208751Y-11687D01*
X208692Y-11640D01*
X208634Y-11593D01*
X208598Y-11570D01*
X208587Y-11558D01*
X208575Y-11546D01*
X210109Y-9309D01*
X209840Y-9204D01*
X209606Y-9099D01*
X209406Y-8982D01*
X209254Y-8876D01*
X209125Y-8771D01*
X209032Y-8689D01*
X208985Y-8642D01*
X208962Y-8619D01*
X208833Y-8455D01*
X208739Y-8291D01*
X208669Y-8127D01*
X208622Y-7986D01*
X208598Y-7869D01*
X208575Y-7775D01*
Y-7717D01*
Y-7694D01*
X208587Y-7506D01*
X208634Y-7354D01*
X208704Y-7213D01*
X208774Y-7096D01*
X208844Y-7003D01*
X208915Y-6932D01*
X208962Y-6886D01*
X208973Y-6874D01*
X209137Y-6780D01*
X209325Y-6698D01*
X209524Y-6651D01*
X209711Y-6605D01*
X209887Y-6581D01*
X210027Y-6569D01*
X210086Y-6558D01*
X210156D01*
X210191Y-6921D01*
D02*
G37*
G36*
X209406Y-20996D02*
X209453Y-21066D01*
X209500Y-21125D01*
X209535Y-21172D01*
X209594Y-21230D01*
X209617Y-21242D01*
X209664Y-21277D01*
X209711Y-21301D01*
X209828Y-21347D01*
X209887Y-21359D01*
X209933Y-21371D01*
X209957Y-21383D01*
X209968D01*
X210027Y-21394D01*
X210097Y-21406D01*
X210273Y-21418D01*
X214126D01*
X214289Y-21406D01*
X214430Y-21394D01*
X214524D01*
X214594Y-21383D01*
X214641Y-21371D01*
X214664Y-21359D01*
X214676D01*
X214723Y-21336D01*
X214770Y-21289D01*
X214863Y-21195D01*
X214898Y-21148D01*
X214934Y-21113D01*
X214945Y-21090D01*
X214957Y-21078D01*
X215168D01*
X215226Y-21230D01*
X215285Y-21371D01*
X215332Y-21488D01*
X215379Y-21582D01*
X215414Y-21664D01*
X215449Y-21722D01*
X215460Y-21757D01*
X215472Y-21769D01*
X215531Y-21874D01*
X215601Y-21980D01*
X215671Y-22085D01*
X215742Y-22179D01*
X215812Y-22261D01*
X215859Y-22319D01*
X215894Y-22366D01*
X215905Y-22378D01*
X214852Y-23643D01*
X214980Y-23654D01*
X215086Y-23678D01*
X215191Y-23701D01*
X215273Y-23724D01*
X215343Y-23736D01*
X215390Y-23760D01*
X215425Y-23771D01*
X215437D01*
X215519Y-23818D01*
X215613Y-23877D01*
X215753Y-23994D01*
X215824Y-24052D01*
X215870Y-24099D01*
X215894Y-24134D01*
X215905Y-24146D01*
X215039Y-25364D01*
X214781Y-25200D01*
X214852Y-25095D01*
X214898Y-25013D01*
X214934Y-24954D01*
X214957Y-24907D01*
X214969Y-24884D01*
X214980Y-24872D01*
Y-24860D01*
X214969Y-24849D01*
X214945Y-24837D01*
X214922Y-24825D01*
X214910Y-24814D01*
X214887Y-24802D01*
X214863D01*
X214781Y-24778D01*
X214676Y-24755D01*
X214559Y-24732D01*
X214442Y-24708D01*
X214348Y-24685D01*
X214278Y-24673D01*
X214254D01*
X214044Y-24626D01*
X213856Y-24579D01*
X213704Y-24532D01*
X213563Y-24486D01*
X213470Y-24439D01*
X213388Y-24404D01*
X213341Y-24380D01*
X213329Y-24369D01*
X213212Y-24287D01*
X213107Y-24205D01*
X213013Y-24111D01*
X212931Y-24017D01*
X212873Y-23935D01*
X212826Y-23877D01*
X212802Y-23830D01*
X212791Y-23818D01*
X211842Y-24919D01*
X210695Y-23865D01*
X212065Y-22554D01*
X210332D01*
X210168Y-22565D01*
X210027Y-22589D01*
X209910Y-22612D01*
X209828Y-22624D01*
X209770Y-22647D01*
X209734Y-22659D01*
X209723D01*
X209629Y-22717D01*
X209547Y-22788D01*
X209383Y-22952D01*
X209325Y-23034D01*
X209278Y-23104D01*
X209243Y-23151D01*
X209231Y-23163D01*
X208962D01*
X208985Y-22987D01*
X209008Y-22835D01*
X209043Y-22694D01*
X209067Y-22589D01*
X209102Y-22495D01*
X209125Y-22436D01*
X209137Y-22390D01*
X209149Y-22378D01*
X209207Y-22273D01*
X209266Y-22167D01*
X209336Y-22073D01*
X209406Y-22003D01*
X209465Y-21933D01*
X209512Y-21886D01*
X209547Y-21851D01*
X209559Y-21839D01*
X209453Y-21734D01*
X209371Y-21640D01*
X209313Y-21570D01*
X209301Y-21558D01*
Y-21546D01*
X209266Y-21488D01*
X209231Y-21406D01*
X209149Y-21242D01*
X209125Y-21160D01*
X209102Y-21090D01*
X209079Y-21043D01*
Y-21031D01*
X209360Y-20914D01*
X209406Y-20996D01*
D02*
G37*
G36*
X223682Y34557D02*
X223702Y34547D01*
X223711D01*
X223731Y34528D01*
X223750Y34499D01*
X223760Y34479D01*
Y34469D01*
X223770Y34411D01*
X223780Y34362D01*
X223789Y34323D01*
Y34303D01*
X223799Y34216D01*
Y34137D01*
Y34069D01*
Y34059D01*
Y34050D01*
Y33942D01*
X223789Y33864D01*
Y33815D01*
Y33796D01*
X223780Y33728D01*
X223770Y33669D01*
X223760Y33640D01*
Y33630D01*
X223741Y33591D01*
X223731Y33562D01*
X223711Y33552D01*
Y33542D01*
X223682Y33523D01*
X223653Y33513D01*
X221662D01*
Y33191D01*
X221671Y33074D01*
X221691Y32986D01*
X221701Y32947D01*
X221710Y32917D01*
X221720Y32908D01*
Y32898D01*
X221769Y32810D01*
X221818Y32742D01*
X221857Y32693D01*
X221867Y32673D01*
X221876D01*
X221954Y32605D01*
X222042Y32547D01*
X222101Y32508D01*
X222120Y32498D01*
X222130D01*
X222247Y32439D01*
X222355Y32381D01*
X222403Y32361D01*
X222442Y32342D01*
X222462Y32332D01*
X222472D01*
X223623Y31863D01*
X223682Y31844D01*
X223702Y31834D01*
X223711D01*
X223731Y31805D01*
X223750Y31776D01*
X223760Y31756D01*
Y31746D01*
X223770Y31697D01*
X223780Y31649D01*
X223789Y31610D01*
Y31590D01*
X223799Y31502D01*
Y31414D01*
Y31375D01*
Y31346D01*
Y31327D01*
Y31317D01*
Y31190D01*
X223789Y31083D01*
Y31053D01*
Y31024D01*
Y31014D01*
Y31005D01*
X223780Y30926D01*
Y30868D01*
X223770Y30839D01*
Y30829D01*
X223750Y30790D01*
X223741Y30770D01*
X223721Y30751D01*
X223672Y30731D01*
X223614D01*
X223575Y30741D01*
X223545Y30751D01*
X223535Y30760D01*
X223467Y30780D01*
X223399Y30809D01*
X223340Y30829D01*
X223321Y30839D01*
X223311D01*
X222296Y31268D01*
X222169Y31327D01*
X222062Y31375D01*
X222023Y31395D01*
X221993Y31414D01*
X221974Y31424D01*
X221964D01*
X221867Y31483D01*
X221779Y31541D01*
X221730Y31580D01*
X221710Y31600D01*
X221632Y31668D01*
X221564Y31727D01*
X221525Y31766D01*
X221515Y31785D01*
X221457Y31863D01*
X221408Y31932D01*
X221379Y31980D01*
X221369Y31990D01*
Y32000D01*
X221310Y31834D01*
X221281Y31766D01*
X221242Y31697D01*
X221213Y31649D01*
X221193Y31610D01*
X221183Y31590D01*
X221174Y31580D01*
X221076Y31444D01*
X220978Y31346D01*
X220939Y31307D01*
X220910Y31278D01*
X220891Y31268D01*
X220881Y31258D01*
X220754Y31170D01*
X220627Y31112D01*
X220578Y31092D01*
X220539Y31073D01*
X220510Y31063D01*
X220500D01*
X220334Y31024D01*
X220256Y31014D01*
X220188Y31005D01*
X220120Y30995D01*
X219915D01*
X219817Y31014D01*
X219719Y31024D01*
X219641Y31044D01*
X219573Y31063D01*
X219524Y31073D01*
X219495Y31092D01*
X219485D01*
X219319Y31170D01*
X219251Y31209D01*
X219192Y31258D01*
X219144Y31297D01*
X219105Y31327D01*
X219085Y31346D01*
X219075Y31356D01*
X218958Y31492D01*
X218870Y31639D01*
X218831Y31697D01*
X218812Y31746D01*
X218792Y31776D01*
Y31785D01*
X218724Y31971D01*
X218695Y32068D01*
X218675Y32156D01*
X218655Y32234D01*
X218646Y32293D01*
X218636Y32332D01*
Y32342D01*
X218626Y32430D01*
Y32508D01*
X218617Y32566D01*
Y32576D01*
Y32586D01*
X218607Y32693D01*
Y32800D01*
Y32849D01*
Y32878D01*
Y32908D01*
Y32917D01*
Y34264D01*
X218617Y34352D01*
X218646Y34420D01*
X218675Y34460D01*
X218685Y34479D01*
X218753Y34528D01*
X218841Y34557D01*
X218880D01*
X218909Y34567D01*
X223633D01*
X223682Y34557D01*
D02*
G37*
G36*
X211877Y-25891D02*
X211807Y-25973D01*
X211760Y-26031D01*
X211725Y-26090D01*
X211702Y-26125D01*
X211678Y-26172D01*
Y-26184D01*
X211690Y-26219D01*
X211725Y-26242D01*
X211760Y-26266D01*
X211772Y-26277D01*
X211819Y-26301D01*
X211877Y-26324D01*
X212018Y-26336D01*
X212088Y-26348D01*
X214266D01*
X214383Y-26336D01*
X214477Y-26324D01*
X214547D01*
X214606Y-26313D01*
X214641Y-26301D01*
X214652Y-26289D01*
X214664D01*
X214711Y-26266D01*
X214758Y-26219D01*
X214852Y-26125D01*
X214887Y-26078D01*
X214922Y-26043D01*
X214934Y-26020D01*
X214945Y-26008D01*
X215168D01*
X215203Y-26137D01*
X215250Y-26254D01*
X215285Y-26359D01*
X215320Y-26453D01*
X215355Y-26523D01*
X215390Y-26582D01*
X215402Y-26617D01*
X215414Y-26629D01*
X215472Y-26734D01*
X215554Y-26851D01*
X215636Y-26968D01*
X215706Y-27074D01*
X215788Y-27179D01*
X215847Y-27261D01*
X215894Y-27308D01*
X215905Y-27331D01*
X214875Y-28655D01*
X214617Y-28444D01*
X214980Y-27952D01*
X214652Y-27507D01*
X211983D01*
X211631Y-27847D01*
X212357Y-28444D01*
X211655Y-29275D01*
X210695Y-28467D01*
X211620Y-27507D01*
X211491Y-27483D01*
X211385Y-27448D01*
X211339Y-27425D01*
X211303Y-27413D01*
X211292Y-27390D01*
X211280D01*
X211186Y-27319D01*
X211081Y-27226D01*
X210987Y-27120D01*
X210894Y-27015D01*
X210812Y-26921D01*
X210753Y-26839D01*
X210706Y-26781D01*
X210695Y-26757D01*
X211643Y-25692D01*
X211877Y-25891D01*
D02*
G37*
G36*
X223692Y11377D02*
X223702Y11367D01*
X223711D01*
X223731Y11348D01*
X223750Y11319D01*
X223760Y11299D01*
Y11289D01*
X223770Y11241D01*
X223780Y11192D01*
X223789Y11153D01*
Y11133D01*
X223799Y11055D01*
Y10977D01*
Y10909D01*
Y10899D01*
Y10889D01*
Y10792D01*
X223789Y10713D01*
Y10665D01*
Y10645D01*
X223780Y10577D01*
X223770Y10528D01*
X223760Y10499D01*
Y10489D01*
X223741Y10450D01*
X223731Y10430D01*
X223711Y10411D01*
X223692Y10391D01*
X223662Y10382D01*
X220061D01*
X220041Y10391D01*
X220022Y10401D01*
Y10411D01*
X219993Y10430D01*
X219973Y10460D01*
X219963Y10479D01*
Y10489D01*
X219954Y10538D01*
X219944Y10587D01*
X219934Y10626D01*
Y10645D01*
X219924Y10723D01*
X219915Y10801D01*
Y10860D01*
Y10879D01*
Y10889D01*
Y10987D01*
X219924Y11065D01*
X219934Y11114D01*
Y11133D01*
X219944Y11202D01*
X219954Y11250D01*
X219963Y11280D01*
Y11289D01*
X219983Y11328D01*
X220002Y11348D01*
X220012Y11367D01*
X220022D01*
X220071Y11387D01*
X223643D01*
X223692Y11377D01*
D02*
G37*
G36*
X220188Y-14321D02*
X220227D01*
X220276Y-14340D01*
X220315Y-14350D01*
X220354Y-14370D01*
X220363D01*
X223584Y-15443D01*
X223633Y-15463D01*
X223672Y-15473D01*
X223692Y-15492D01*
X223702D01*
X223731Y-15521D01*
X223741Y-15560D01*
X223760Y-15590D01*
Y-15599D01*
X223770Y-15668D01*
X223780Y-15736D01*
X223789Y-15795D01*
Y-15804D01*
Y-15814D01*
X223799Y-15931D01*
Y-16039D01*
Y-16087D01*
Y-16127D01*
Y-16156D01*
Y-16165D01*
Y-16312D01*
Y-16371D01*
X223789Y-16419D01*
Y-16458D01*
Y-16488D01*
Y-16497D01*
Y-16507D01*
X223780Y-16595D01*
X223770Y-16663D01*
X223760Y-16712D01*
Y-16722D01*
X223741Y-16771D01*
X223721Y-16810D01*
X223711Y-16819D01*
X223702Y-16829D01*
X223623Y-16878D01*
X223594Y-16888D01*
X223584D01*
X220363Y-17961D01*
X220324Y-17971D01*
X220295D01*
X220276Y-17981D01*
X220266D01*
X220207Y-17991D01*
X220198Y-18000D01*
X220188D01*
X220139Y-18010D01*
X220071D01*
X220022Y-18000D01*
X220002Y-17991D01*
X219983Y-17971D01*
X219963Y-17942D01*
X219954Y-17922D01*
Y-17913D01*
X219944Y-17874D01*
X219934Y-17825D01*
X219924Y-17786D01*
Y-17766D01*
X219915Y-17688D01*
Y-17620D01*
Y-17561D01*
Y-17542D01*
Y-17532D01*
Y-17425D01*
X219924Y-17346D01*
X219934Y-17298D01*
Y-17278D01*
X219944Y-17220D01*
X219954Y-17171D01*
X219963Y-17142D01*
Y-17132D01*
X219973Y-17102D01*
X219993Y-17073D01*
X220002Y-17063D01*
X220012Y-17054D01*
X220061Y-17024D01*
X220080Y-17015D01*
X220090D01*
X222706Y-16214D01*
X222813Y-16195D01*
X222706Y-16175D01*
X220090Y-15356D01*
X220032Y-15326D01*
X220022Y-15316D01*
X220012Y-15307D01*
X219983Y-15287D01*
X219973Y-15258D01*
X219963Y-15238D01*
Y-15229D01*
X219954Y-15180D01*
X219944Y-15131D01*
X219934Y-15092D01*
Y-15082D01*
Y-15072D01*
X219924Y-14994D01*
X219915Y-14907D01*
Y-14867D01*
Y-14838D01*
Y-14819D01*
Y-14809D01*
Y-14711D01*
Y-14633D01*
X219924Y-14584D01*
Y-14565D01*
X219934Y-14497D01*
X219944Y-14448D01*
X219954Y-14419D01*
Y-14409D01*
X219983Y-14350D01*
X219993Y-14340D01*
X220002Y-14331D01*
X220051Y-14311D01*
X220159D01*
X220188Y-14321D01*
D02*
G37*
G36*
X223291Y-8582D02*
X223331D01*
X223360Y-8592D01*
X223370D01*
X223428Y-8611D01*
X223448Y-8621D01*
X223458D01*
X223506Y-8660D01*
X223516Y-8670D01*
X223526Y-8680D01*
X223555Y-8719D01*
X223584Y-8767D01*
X223614Y-8806D01*
X223623Y-8826D01*
X223662Y-8924D01*
X223702Y-9021D01*
X223721Y-9060D01*
X223731Y-9089D01*
X223741Y-9109D01*
Y-9119D01*
X223770Y-9265D01*
X223799Y-9392D01*
X223809Y-9451D01*
X223819Y-9490D01*
X223828Y-9519D01*
Y-9529D01*
X223848Y-9704D01*
X223858Y-9792D01*
Y-9870D01*
X223867Y-9929D01*
Y-9978D01*
Y-10017D01*
Y-10026D01*
Y-10183D01*
X223848Y-10339D01*
X223838Y-10475D01*
X223819Y-10593D01*
X223799Y-10690D01*
X223789Y-10768D01*
X223770Y-10807D01*
Y-10827D01*
X223721Y-10964D01*
X223672Y-11081D01*
X223623Y-11188D01*
X223575Y-11286D01*
X223526Y-11354D01*
X223487Y-11412D01*
X223467Y-11451D01*
X223458Y-11461D01*
X223379Y-11559D01*
X223291Y-11637D01*
X223204Y-11705D01*
X223126Y-11764D01*
X223057Y-11813D01*
X222999Y-11842D01*
X222960Y-11861D01*
X222950Y-11871D01*
X222833Y-11920D01*
X222716Y-11959D01*
X222599Y-11988D01*
X222491Y-12008D01*
X222403Y-12017D01*
X222335Y-12027D01*
X222267D01*
X222101Y-12017D01*
X222023Y-11998D01*
X221954Y-11988D01*
X221906Y-11969D01*
X221867Y-11949D01*
X221837Y-11940D01*
X221828D01*
X221681Y-11871D01*
X221574Y-11803D01*
X221525Y-11764D01*
X221496Y-11744D01*
X221476Y-11725D01*
X221466Y-11715D01*
X221359Y-11598D01*
X221271Y-11471D01*
X221242Y-11422D01*
X221222Y-11383D01*
X221203Y-11354D01*
Y-11344D01*
X221135Y-11178D01*
X221105Y-11100D01*
X221086Y-11022D01*
X221076Y-10964D01*
X221066Y-10915D01*
X221057Y-10876D01*
Y-10866D01*
X221047D01*
X220998Y-11022D01*
X220969Y-11090D01*
X220939Y-11149D01*
X220920Y-11198D01*
X220900Y-11237D01*
X220881Y-11256D01*
Y-11266D01*
X220793Y-11383D01*
X220705Y-11471D01*
X220676Y-11510D01*
X220647Y-11530D01*
X220627Y-11549D01*
X220617D01*
X220490Y-11627D01*
X220373Y-11686D01*
X220324Y-11705D01*
X220285Y-11715D01*
X220256Y-11725D01*
X220246D01*
X220090Y-11764D01*
X219954Y-11783D01*
X219895Y-11793D01*
X219700D01*
X219592Y-11774D01*
X219505Y-11764D01*
X219417Y-11744D01*
X219358Y-11725D01*
X219300Y-11705D01*
X219270Y-11695D01*
X219261Y-11686D01*
X219173Y-11647D01*
X219095Y-11598D01*
X219026Y-11549D01*
X218968Y-11500D01*
X218919Y-11451D01*
X218880Y-11412D01*
X218861Y-11393D01*
X218851Y-11383D01*
X218743Y-11227D01*
X218665Y-11071D01*
X218636Y-11003D01*
X218617Y-10944D01*
X218597Y-10905D01*
Y-10895D01*
X218548Y-10671D01*
X218529Y-10563D01*
X218519Y-10456D01*
X218509Y-10368D01*
Y-10300D01*
Y-10251D01*
Y-10232D01*
X218519Y-10026D01*
X218529Y-9939D01*
X218538Y-9861D01*
X218548Y-9792D01*
X218558Y-9743D01*
X218568Y-9704D01*
Y-9695D01*
X218607Y-9529D01*
X218626Y-9451D01*
X218646Y-9392D01*
X218665Y-9334D01*
X218685Y-9295D01*
X218695Y-9275D01*
Y-9265D01*
X218743Y-9138D01*
X218792Y-9041D01*
X218812Y-9002D01*
X218831Y-8972D01*
X218841Y-8963D01*
Y-8953D01*
X218890Y-8875D01*
X218919Y-8826D01*
X218939Y-8797D01*
X218948Y-8787D01*
X218997Y-8748D01*
X219017Y-8728D01*
X219026D01*
X219075Y-8709D01*
X219095Y-8699D01*
X219105D01*
X219134Y-8689D01*
X219573D01*
X219622Y-8699D01*
X219661D01*
X219680Y-8709D01*
X219690D01*
X219710Y-8728D01*
X219729Y-8738D01*
X219739Y-8748D01*
X219749Y-8797D01*
Y-8806D01*
Y-8816D01*
X219739Y-8855D01*
X219719Y-8904D01*
X219700Y-8943D01*
X219690Y-8963D01*
X219641Y-9041D01*
X219592Y-9119D01*
X219563Y-9187D01*
X219553Y-9197D01*
Y-9207D01*
X219495Y-9324D01*
X219456Y-9431D01*
X219436Y-9470D01*
X219427Y-9509D01*
X219417Y-9529D01*
Y-9539D01*
X219378Y-9675D01*
X219358Y-9802D01*
X219349Y-9851D01*
Y-9890D01*
Y-9919D01*
Y-9929D01*
X219358Y-10056D01*
X219378Y-10163D01*
X219388Y-10202D01*
X219397Y-10232D01*
X219407Y-10241D01*
Y-10251D01*
X219446Y-10349D01*
X219495Y-10417D01*
X219524Y-10456D01*
X219544Y-10475D01*
X219602Y-10534D01*
X219671Y-10573D01*
X219719Y-10593D01*
X219729Y-10602D01*
X219739D01*
X219827Y-10632D01*
X219905Y-10641D01*
X219973Y-10651D01*
X219993D01*
X220110Y-10641D01*
X220207Y-10622D01*
X220246Y-10602D01*
X220276Y-10593D01*
X220295Y-10583D01*
X220305D01*
X220403Y-10524D01*
X220471Y-10466D01*
X220520Y-10417D01*
X220539Y-10407D01*
Y-10397D01*
X220607Y-10300D01*
X220656Y-10202D01*
X220676Y-10163D01*
X220686Y-10124D01*
X220695Y-10105D01*
Y-10095D01*
X220725Y-9958D01*
X220734Y-9822D01*
X220744Y-9773D01*
Y-9724D01*
Y-9695D01*
Y-9685D01*
Y-9236D01*
X220754Y-9177D01*
X220764Y-9158D01*
Y-9148D01*
X220803Y-9109D01*
X220813Y-9099D01*
X220822D01*
X220861Y-9089D01*
X220891Y-9080D01*
X220930Y-9070D01*
X220939D01*
X220998Y-9060D01*
X221213D01*
X221271Y-9070D01*
X221330D01*
X221379Y-9080D01*
X221418Y-9089D01*
X221447Y-9099D01*
X221457D01*
X221476Y-9119D01*
X221496Y-9138D01*
X221505Y-9148D01*
Y-9158D01*
X221515Y-9216D01*
Y-9236D01*
Y-9246D01*
Y-9695D01*
X221525Y-9890D01*
X221535Y-9968D01*
X221545Y-10036D01*
X221554Y-10095D01*
X221564Y-10134D01*
X221574Y-10163D01*
Y-10173D01*
X221623Y-10319D01*
X221652Y-10378D01*
X221681Y-10427D01*
X221701Y-10466D01*
X221720Y-10505D01*
X221730Y-10514D01*
X221740Y-10524D01*
X221818Y-10612D01*
X221896Y-10680D01*
X221954Y-10719D01*
X221974Y-10729D01*
X221984D01*
X222091Y-10778D01*
X222198Y-10797D01*
X222237Y-10807D01*
X222306D01*
X222423Y-10797D01*
X222520Y-10778D01*
X222559Y-10768D01*
X222589Y-10758D01*
X222599Y-10749D01*
X222608D01*
X222696Y-10700D01*
X222764Y-10641D01*
X222813Y-10593D01*
X222833Y-10583D01*
Y-10573D01*
X222901Y-10475D01*
X222940Y-10388D01*
X222960Y-10339D01*
X222970Y-10310D01*
X222979Y-10290D01*
Y-10280D01*
X223008Y-10153D01*
X223018Y-10026D01*
X223028Y-9978D01*
Y-9939D01*
Y-9909D01*
Y-9900D01*
X223018Y-9714D01*
X223008Y-9636D01*
X222999Y-9568D01*
Y-9509D01*
X222989Y-9470D01*
X222979Y-9441D01*
Y-9431D01*
X222940Y-9295D01*
X222901Y-9187D01*
X222882Y-9138D01*
X222872Y-9109D01*
X222862Y-9089D01*
Y-9080D01*
X222823Y-8982D01*
X222784Y-8904D01*
X222755Y-8855D01*
X222745Y-8836D01*
X222706Y-8777D01*
X222696Y-8728D01*
X222686Y-8709D01*
Y-8699D01*
X222696Y-8660D01*
X222726Y-8621D01*
X222755Y-8611D01*
X222764Y-8602D01*
X222794Y-8592D01*
X222843Y-8582D01*
X222921Y-8572D01*
X223233D01*
X223291Y-8582D01*
D02*
G37*
G36*
X222423Y-18264D02*
X222491D01*
X222550Y-18274D01*
X222599Y-18283D01*
X222628Y-18303D01*
X222638D01*
X222667Y-18323D01*
X222686Y-18352D01*
X222696Y-18361D01*
Y-18371D01*
X222706Y-18440D01*
Y-18469D01*
Y-18479D01*
Y-20460D01*
X223643D01*
X223692Y-20470D01*
X223702Y-20480D01*
X223711D01*
X223731Y-20499D01*
X223750Y-20528D01*
X223760Y-20548D01*
Y-20558D01*
X223770Y-20606D01*
X223780Y-20655D01*
X223789Y-20694D01*
Y-20714D01*
X223799Y-20792D01*
Y-20870D01*
Y-20938D01*
Y-20948D01*
Y-20958D01*
Y-21065D01*
X223789Y-21143D01*
Y-21182D01*
Y-21202D01*
X223780Y-21270D01*
X223770Y-21319D01*
X223760Y-21348D01*
Y-21358D01*
X223741Y-21397D01*
X223731Y-21426D01*
X223711Y-21446D01*
X223692Y-21465D01*
X223662Y-21475D01*
X222706D01*
Y-21934D01*
X222686Y-21982D01*
X222657Y-22012D01*
X222628Y-22031D01*
X222608Y-22041D01*
X222511Y-22070D01*
X222413Y-22080D01*
X222364Y-22090D01*
X222218D01*
X222150Y-22080D01*
X222091Y-22070D01*
X222052D01*
X222013Y-22061D01*
X221993Y-22051D01*
X221974Y-22041D01*
X221935Y-22021D01*
X221915Y-22002D01*
X221876Y-21973D01*
X221867Y-21944D01*
Y-21934D01*
Y-21475D01*
X218753D01*
X218724Y-21465D01*
X218704Y-21455D01*
X218685Y-21436D01*
Y-21426D01*
X218655Y-21387D01*
X218636Y-21348D01*
X218626Y-21319D01*
Y-21299D01*
X218617Y-21231D01*
X218607Y-21163D01*
X218597Y-21104D01*
Y-21085D01*
Y-21075D01*
X218587Y-20958D01*
X218577Y-20841D01*
Y-20792D01*
Y-20763D01*
Y-20733D01*
Y-20723D01*
Y-20597D01*
Y-20489D01*
X218587Y-20450D01*
Y-20431D01*
Y-20411D01*
Y-20401D01*
X218597Y-20314D01*
X218607Y-20245D01*
X218617Y-20206D01*
Y-20187D01*
X218636Y-20128D01*
X218646Y-20089D01*
X218655Y-20060D01*
X218665Y-20050D01*
X218685Y-20021D01*
X218704Y-20001D01*
X218714Y-19982D01*
X218724D01*
X221564Y-18381D01*
X221613Y-18352D01*
X221662Y-18332D01*
X221691Y-18323D01*
X221701Y-18313D01*
X221749Y-18303D01*
X221798Y-18283D01*
X221837Y-18274D01*
X221847D01*
X221906Y-18264D01*
X221964D01*
X222003Y-18254D01*
X222345D01*
X222423Y-18264D01*
D02*
G37*
G36*
X223516Y-24803D02*
X223575D01*
X223633Y-24823D01*
X223672Y-24842D01*
X223702Y-24852D01*
X223711Y-24862D01*
X223741Y-24891D01*
X223750Y-24930D01*
X223770Y-24959D01*
Y-24969D01*
X223780Y-25018D01*
Y-25076D01*
Y-25115D01*
Y-25125D01*
Y-28102D01*
X223770Y-28151D01*
X223760Y-28170D01*
X223741Y-28190D01*
X223721Y-28209D01*
X223702Y-28219D01*
X223692D01*
X223643Y-28229D01*
X223604Y-28239D01*
X223565Y-28248D01*
X223555D01*
X223487Y-28258D01*
X223428Y-28268D01*
X223282D01*
X223214Y-28258D01*
X223174Y-28248D01*
X223165D01*
X223116Y-28239D01*
X223067Y-28229D01*
X223047Y-28219D01*
X223038Y-28209D01*
X222999Y-28190D01*
X222979Y-28170D01*
X222960Y-28161D01*
Y-28151D01*
X222940Y-28131D01*
X222930Y-28102D01*
Y-28092D01*
Y-28082D01*
Y-26043D01*
X222316Y-26648D01*
X222150Y-26814D01*
X221993Y-26960D01*
X221857Y-27077D01*
X221740Y-27185D01*
X221652Y-27272D01*
X221574Y-27331D01*
X221535Y-27370D01*
X221515Y-27380D01*
X221388Y-27477D01*
X221271Y-27565D01*
X221164Y-27634D01*
X221076Y-27702D01*
X220998Y-27741D01*
X220939Y-27780D01*
X220900Y-27799D01*
X220891Y-27809D01*
X220783Y-27868D01*
X220686Y-27907D01*
X220598Y-27946D01*
X220520Y-27975D01*
X220451Y-27995D01*
X220403Y-28004D01*
X220373Y-28014D01*
X220363D01*
X220178Y-28043D01*
X220100Y-28053D01*
X220022D01*
X219963Y-28063D01*
X219758D01*
X219661Y-28043D01*
X219573Y-28034D01*
X219495Y-28014D01*
X219427Y-27995D01*
X219378Y-27975D01*
X219349Y-27965D01*
X219339Y-27956D01*
X219251Y-27917D01*
X219163Y-27868D01*
X219085Y-27819D01*
X219026Y-27770D01*
X218968Y-27721D01*
X218929Y-27682D01*
X218909Y-27663D01*
X218899Y-27653D01*
X218831Y-27575D01*
X218773Y-27497D01*
X218685Y-27331D01*
X218655Y-27263D01*
X218636Y-27204D01*
X218617Y-27165D01*
Y-27155D01*
X218577Y-27038D01*
X218558Y-26921D01*
X218538Y-26804D01*
X218519Y-26687D01*
Y-26599D01*
X218509Y-26521D01*
Y-26472D01*
Y-26453D01*
X218519Y-26267D01*
X218529Y-26179D01*
Y-26111D01*
X218538Y-26043D01*
X218548Y-25994D01*
X218558Y-25965D01*
Y-25955D01*
X218597Y-25789D01*
X218617Y-25721D01*
X218636Y-25652D01*
X218646Y-25604D01*
X218665Y-25564D01*
X218675Y-25535D01*
Y-25525D01*
X218724Y-25389D01*
X218773Y-25291D01*
X218792Y-25252D01*
X218812Y-25223D01*
X218822Y-25203D01*
Y-25194D01*
X218870Y-25115D01*
X218909Y-25057D01*
X218929Y-25018D01*
X218939Y-25008D01*
X218968Y-24979D01*
X218997Y-24959D01*
X219017Y-24940D01*
X219026D01*
X219075Y-24920D01*
X219095Y-24911D01*
X219105D01*
X219173Y-24901D01*
X219202Y-24891D01*
X219466D01*
X219534Y-24901D01*
X219602D01*
X219661Y-24911D01*
X219710D01*
X219739Y-24920D01*
X219749D01*
X219788Y-24940D01*
X219807Y-24949D01*
X219827Y-24959D01*
X219846Y-25008D01*
Y-25018D01*
Y-25028D01*
X219836Y-25067D01*
X219817Y-25115D01*
X219797Y-25155D01*
X219788Y-25164D01*
X219739Y-25242D01*
X219700Y-25320D01*
X219671Y-25379D01*
X219661Y-25389D01*
Y-25398D01*
X219602Y-25516D01*
X219563Y-25613D01*
X219544Y-25662D01*
X219534Y-25691D01*
X219524Y-25711D01*
Y-25721D01*
X219485Y-25867D01*
X219466Y-26004D01*
X219456Y-26052D01*
Y-26101D01*
Y-26131D01*
Y-26140D01*
X219466Y-26257D01*
X219485Y-26355D01*
X219505Y-26414D01*
X219514Y-26423D01*
Y-26433D01*
X219553Y-26521D01*
X219602Y-26579D01*
X219632Y-26628D01*
X219651Y-26638D01*
X219719Y-26697D01*
X219788Y-26736D01*
X219836Y-26755D01*
X219846Y-26765D01*
X219856D01*
X219944Y-26794D01*
X220022Y-26804D01*
X220090Y-26814D01*
X220110D01*
X220217Y-26804D01*
X220315Y-26794D01*
X220354Y-26784D01*
X220383D01*
X220403Y-26775D01*
X220412D01*
X220529Y-26745D01*
X220647Y-26697D01*
X220695Y-26677D01*
X220734Y-26667D01*
X220754Y-26648D01*
X220764D01*
X220910Y-26570D01*
X221047Y-26492D01*
X221095Y-26453D01*
X221144Y-26423D01*
X221174Y-26404D01*
X221183Y-26394D01*
X221271Y-26326D01*
X221359Y-26257D01*
X221447Y-26179D01*
X221525Y-26111D01*
X221593Y-26052D01*
X221642Y-26004D01*
X221681Y-25965D01*
X221691Y-25955D01*
X222657Y-25057D01*
X222716Y-25008D01*
X222764Y-24969D01*
X222803Y-24940D01*
X222813Y-24930D01*
X222862Y-24901D01*
X222911Y-24871D01*
X222950Y-24852D01*
X222960Y-24842D01*
X223018Y-24823D01*
X223067Y-24813D01*
X223106Y-24803D01*
X223126D01*
X223194Y-24793D01*
X223438D01*
X223516Y-24803D01*
D02*
G37*
G36*
X223350Y-22763D02*
X223448Y-22773D01*
X223535Y-22793D01*
X223604Y-22822D01*
X223653Y-22841D01*
X223682Y-22861D01*
X223702Y-22871D01*
X223711Y-22880D01*
X223750Y-22939D01*
X223780Y-23007D01*
X223809Y-23154D01*
X223819Y-23232D01*
X223828Y-23290D01*
Y-23329D01*
Y-23339D01*
X223819Y-23456D01*
X223809Y-23554D01*
X223789Y-23642D01*
X223760Y-23700D01*
X223741Y-23749D01*
X223721Y-23778D01*
X223711Y-23798D01*
X223702Y-23808D01*
X223643Y-23847D01*
X223575Y-23886D01*
X223409Y-23915D01*
X223331Y-23925D01*
X223262Y-23934D01*
X223204D01*
X223077Y-23925D01*
X222979Y-23915D01*
X222891Y-23896D01*
X222823Y-23876D01*
X222774Y-23847D01*
X222745Y-23827D01*
X222726Y-23817D01*
X222716Y-23808D01*
X222677Y-23749D01*
X222638Y-23681D01*
X222608Y-23534D01*
X222599Y-23456D01*
X222589Y-23407D01*
Y-23368D01*
Y-23349D01*
X222599Y-23232D01*
X222608Y-23134D01*
X222628Y-23046D01*
X222657Y-22988D01*
X222686Y-22939D01*
X222706Y-22910D01*
X222716Y-22890D01*
X222726Y-22880D01*
X222784Y-22841D01*
X222852Y-22812D01*
X223018Y-22773D01*
X223096Y-22763D01*
X223165Y-22754D01*
X223223D01*
X223350Y-22763D01*
D02*
G37*
G36*
X222081Y9581D02*
X222247Y9572D01*
X222403Y9552D01*
X222530Y9533D01*
X222628Y9513D01*
X222706Y9493D01*
X222755Y9474D01*
X222774D01*
X222911Y9425D01*
X223028Y9367D01*
X223135Y9308D01*
X223223Y9250D01*
X223291Y9201D01*
X223340Y9162D01*
X223379Y9132D01*
X223389Y9123D01*
X223477Y9025D01*
X223545Y8927D01*
X223614Y8830D01*
X223662Y8732D01*
X223702Y8654D01*
X223731Y8586D01*
X223741Y8547D01*
X223750Y8527D01*
X223789Y8391D01*
X223819Y8244D01*
X223838Y8098D01*
X223848Y7971D01*
X223858Y7854D01*
X223867Y7766D01*
Y7707D01*
Y7698D01*
Y7688D01*
X223858Y7502D01*
Y7415D01*
X223848Y7337D01*
X223838Y7278D01*
Y7229D01*
X223828Y7200D01*
Y7190D01*
X223809Y7024D01*
X223789Y6956D01*
X223780Y6897D01*
X223770Y6848D01*
Y6809D01*
X223760Y6790D01*
Y6780D01*
X223721Y6653D01*
X223692Y6566D01*
X223672Y6507D01*
X223662Y6487D01*
X223633Y6419D01*
X223614Y6370D01*
X223594Y6351D01*
Y6341D01*
X223555Y6312D01*
X223535Y6302D01*
X223487Y6283D01*
X223467Y6273D01*
X223458D01*
X223389Y6263D01*
X223350D01*
X223301Y6253D01*
X223077D01*
X223047Y6263D01*
X223038D01*
X222989Y6273D01*
X222960Y6283D01*
X222940Y6292D01*
X222930D01*
X222901Y6302D01*
X222891Y6312D01*
X222882Y6322D01*
Y6331D01*
X222862Y6370D01*
Y6380D01*
Y6390D01*
X222872Y6439D01*
X222882Y6487D01*
X222891Y6526D01*
X222901Y6546D01*
X222930Y6624D01*
X222960Y6692D01*
X222979Y6751D01*
X222989Y6770D01*
Y6780D01*
X223018Y6897D01*
X223047Y7014D01*
X223057Y7063D01*
X223067Y7092D01*
X223077Y7122D01*
Y7132D01*
X223096Y7288D01*
X223106Y7434D01*
Y7493D01*
Y7542D01*
Y7581D01*
Y7590D01*
Y7688D01*
X223096Y7776D01*
X223087Y7844D01*
X223077Y7912D01*
X223067Y7971D01*
X223057Y8010D01*
X223047Y8029D01*
Y8039D01*
X222989Y8166D01*
X222921Y8264D01*
X222891Y8293D01*
X222872Y8322D01*
X222862Y8332D01*
X222852Y8342D01*
X222745Y8420D01*
X222638Y8469D01*
X222599Y8488D01*
X222559Y8508D01*
X222540Y8518D01*
X222530D01*
X222384Y8547D01*
X222247Y8557D01*
X222198Y8566D01*
X222111D01*
Y6400D01*
X222101Y6302D01*
X222062Y6234D01*
X222032Y6185D01*
X222023Y6175D01*
X221945Y6126D01*
X221857Y6097D01*
X221818Y6087D01*
X221457D01*
X221330Y6107D01*
X221213Y6117D01*
X221105Y6136D01*
X221018Y6156D01*
X220959Y6165D01*
X220910Y6185D01*
X220900D01*
X220783Y6224D01*
X220676Y6273D01*
X220578Y6322D01*
X220500Y6370D01*
X220432Y6419D01*
X220383Y6458D01*
X220354Y6478D01*
X220344Y6487D01*
X220256Y6566D01*
X220188Y6653D01*
X220129Y6741D01*
X220071Y6829D01*
X220032Y6897D01*
X220002Y6956D01*
X219993Y7005D01*
X219983Y7014D01*
X219934Y7141D01*
X219905Y7268D01*
X219876Y7395D01*
X219866Y7512D01*
X219856Y7620D01*
X219846Y7698D01*
Y7756D01*
Y7766D01*
Y7776D01*
X219856Y7932D01*
X219866Y8068D01*
X219895Y8205D01*
X219915Y8313D01*
X219944Y8410D01*
X219973Y8478D01*
X219983Y8518D01*
X219993Y8537D01*
X220051Y8664D01*
X220110Y8771D01*
X220178Y8869D01*
X220246Y8957D01*
X220305Y9025D01*
X220354Y9074D01*
X220393Y9103D01*
X220403Y9113D01*
X220510Y9191D01*
X220617Y9269D01*
X220725Y9328D01*
X220822Y9376D01*
X220910Y9425D01*
X220978Y9454D01*
X221027Y9464D01*
X221047Y9474D01*
X221193Y9513D01*
X221340Y9542D01*
X221486Y9562D01*
X221623Y9572D01*
X221730Y9581D01*
X221828Y9591D01*
X221906D01*
X222081Y9581D01*
D02*
G37*
G36*
X218997Y11455D02*
X219085Y11445D01*
X219153Y11426D01*
X219212Y11406D01*
X219251Y11387D01*
X219280Y11367D01*
X219290Y11348D01*
X219300D01*
X219339Y11299D01*
X219358Y11231D01*
X219397Y11075D01*
Y11006D01*
X219407Y10948D01*
Y10899D01*
Y10889D01*
X219397Y10772D01*
X219388Y10674D01*
X219368Y10596D01*
X219349Y10538D01*
X219329Y10489D01*
X219319Y10460D01*
X219300Y10440D01*
Y10430D01*
X219251Y10391D01*
X219183Y10352D01*
X219046Y10323D01*
X218978Y10313D01*
X218929Y10304D01*
X218880D01*
X218782Y10313D01*
X218695Y10323D01*
X218617Y10343D01*
X218568Y10362D01*
X218519Y10391D01*
X218490Y10411D01*
X218480Y10421D01*
X218470Y10430D01*
X218431Y10479D01*
X218402Y10548D01*
X218363Y10704D01*
Y10772D01*
X218353Y10831D01*
Y10870D01*
Y10889D01*
X218363Y11006D01*
X218373Y11104D01*
X218392Y11182D01*
X218411Y11241D01*
X218441Y11289D01*
X218460Y11319D01*
X218470Y11338D01*
X218480Y11348D01*
X218529Y11387D01*
X218597Y11416D01*
X218734Y11445D01*
X218802Y11455D01*
X218851Y11465D01*
X218899D01*
X218997Y11455D01*
D02*
G37*
G36*
X221925Y5521D02*
X221984D01*
X222023Y5511D01*
X222062Y5502D01*
X222081D01*
X222091Y5492D01*
X222101D01*
X222150Y5453D01*
X222179Y5404D01*
X222189Y5365D01*
Y5345D01*
Y3677D01*
X222179Y3618D01*
X222140Y3579D01*
X222111Y3550D01*
X222101Y3540D01*
X222062Y3520D01*
X222013Y3511D01*
X221906Y3501D01*
X221857Y3491D01*
X221701D01*
X221642Y3501D01*
X221603Y3511D01*
X221593D01*
X221535Y3520D01*
X221496Y3530D01*
X221476Y3540D01*
X221466D01*
X221437Y3559D01*
X221418Y3579D01*
X221398Y3589D01*
Y3598D01*
X221379Y3618D01*
X221369Y3647D01*
Y3667D01*
Y3677D01*
Y5345D01*
X221388Y5414D01*
X221418Y5453D01*
X221447Y5482D01*
X221466Y5492D01*
X221505Y5502D01*
X221554Y5511D01*
X221652Y5521D01*
X221701Y5531D01*
X221857D01*
X221925Y5521D01*
D02*
G37*
G36*
X223682Y-1652D02*
X223702Y-1662D01*
X223711D01*
X223731Y-1682D01*
X223750Y-1711D01*
X223760Y-1730D01*
Y-1740D01*
X223770Y-1789D01*
X223780Y-1838D01*
X223789Y-1877D01*
Y-1896D01*
X223799Y-1974D01*
Y-2053D01*
Y-2111D01*
Y-2121D01*
Y-2131D01*
Y-2228D01*
X223789Y-2306D01*
Y-2355D01*
Y-2375D01*
X223780Y-2443D01*
X223770Y-2492D01*
X223760Y-2521D01*
Y-2531D01*
X223741Y-2570D01*
X223731Y-2589D01*
X223711Y-2609D01*
X223682Y-2628D01*
X223653Y-2638D01*
X219427D01*
X223633Y-4092D01*
X223682Y-4112D01*
X223702Y-4132D01*
X223711D01*
X223750Y-4200D01*
X223760Y-4219D01*
Y-4229D01*
X223770Y-4288D01*
X223780Y-4336D01*
X223789Y-4375D01*
Y-4395D01*
X223799Y-4473D01*
Y-4551D01*
Y-4610D01*
Y-4620D01*
Y-4629D01*
Y-4727D01*
X223789Y-4795D01*
Y-4834D01*
Y-4854D01*
X223780Y-4922D01*
Y-4971D01*
X223770Y-5000D01*
Y-5010D01*
X223750Y-5059D01*
X223741Y-5088D01*
X223721Y-5098D01*
Y-5108D01*
X223662Y-5156D01*
X223643Y-5166D01*
X223633D01*
X219427Y-6669D01*
Y-6679D01*
X223633D01*
X223682Y-6689D01*
X223702Y-6698D01*
X223711D01*
X223731Y-6718D01*
X223750Y-6747D01*
X223760Y-6767D01*
Y-6776D01*
X223770Y-6825D01*
X223780Y-6874D01*
X223789Y-6913D01*
Y-6933D01*
X223799Y-7011D01*
Y-7089D01*
Y-7147D01*
Y-7157D01*
Y-7167D01*
Y-7264D01*
X223789Y-7343D01*
Y-7391D01*
Y-7411D01*
X223780Y-7479D01*
X223770Y-7528D01*
X223760Y-7557D01*
Y-7567D01*
X223741Y-7606D01*
X223731Y-7626D01*
X223711Y-7645D01*
X223682Y-7665D01*
X223653Y-7674D01*
X218958D01*
X218899Y-7665D01*
X218861Y-7655D01*
X218851Y-7645D01*
X218802Y-7626D01*
X218753Y-7596D01*
X218734Y-7577D01*
X218724Y-7567D01*
X218685Y-7528D01*
X218655Y-7489D01*
X218646Y-7450D01*
X218636Y-7440D01*
X218617Y-7382D01*
X218607Y-7323D01*
Y-7274D01*
Y-7264D01*
Y-7255D01*
Y-6542D01*
X218617Y-6435D01*
X218626Y-6357D01*
X218636Y-6298D01*
X218646Y-6288D01*
Y-6279D01*
X218675Y-6201D01*
X218704Y-6142D01*
X218734Y-6103D01*
X218743Y-6093D01*
X218802Y-6035D01*
X218861Y-5996D01*
X218909Y-5957D01*
X218919Y-5947D01*
X218929D01*
X219026Y-5908D01*
X219114Y-5869D01*
X219153Y-5849D01*
X219183Y-5839D01*
X219202Y-5830D01*
X219212D01*
X222286Y-4678D01*
Y-4659D01*
X219202Y-3536D01*
X219085Y-3497D01*
X219007Y-3458D01*
X218948Y-3429D01*
X218929Y-3419D01*
X218851Y-3370D01*
X218792Y-3321D01*
X218753Y-3282D01*
X218743Y-3263D01*
X218695Y-3185D01*
X218665Y-3107D01*
X218655Y-3048D01*
X218646Y-3038D01*
Y-3029D01*
X218626Y-2931D01*
X218607Y-2833D01*
Y-2785D01*
Y-2755D01*
Y-2736D01*
Y-2726D01*
Y-2033D01*
Y-1974D01*
X218626Y-1916D01*
X218665Y-1828D01*
X218704Y-1770D01*
X218714Y-1760D01*
X218724Y-1750D01*
X218763Y-1711D01*
X218812Y-1691D01*
X218919Y-1652D01*
X218958D01*
X218997Y-1643D01*
X223633D01*
X223682Y-1652D01*
D02*
G37*
G36*
X221496Y2935D02*
X221720Y2915D01*
X221906Y2896D01*
X222081Y2867D01*
X222218Y2837D01*
X222316Y2808D01*
X222355Y2798D01*
X222384D01*
X222394Y2788D01*
X222403D01*
X222579Y2720D01*
X222735Y2652D01*
X222882Y2574D01*
X222999Y2496D01*
X223096Y2437D01*
X223165Y2379D01*
X223204Y2339D01*
X223223Y2330D01*
X223340Y2213D01*
X223438Y2086D01*
X223516Y1969D01*
X223584Y1851D01*
X223643Y1754D01*
X223682Y1676D01*
X223702Y1627D01*
X223711Y1607D01*
X223760Y1441D01*
X223799Y1276D01*
X223828Y1110D01*
X223848Y963D01*
X223858Y836D01*
X223867Y729D01*
Y690D01*
Y661D01*
Y651D01*
Y641D01*
X223858Y446D01*
X223848Y358D01*
X223838Y280D01*
Y222D01*
X223828Y173D01*
X223819Y143D01*
Y134D01*
X223789Y-32D01*
X223770Y-101D01*
X223750Y-159D01*
X223741Y-208D01*
X223731Y-247D01*
X223721Y-267D01*
Y-276D01*
X223672Y-403D01*
X223623Y-501D01*
X223614Y-540D01*
X223594Y-569D01*
X223584Y-579D01*
Y-589D01*
X223535Y-667D01*
X223497Y-716D01*
X223477Y-745D01*
X223467Y-754D01*
X223438Y-784D01*
X223409Y-803D01*
X223399Y-823D01*
X223389D01*
X223331Y-842D01*
X223311Y-852D01*
X223301D01*
X223223Y-862D01*
X223194Y-872D01*
X223184D01*
X223126Y-881D01*
X222843D01*
X222794Y-872D01*
X222784D01*
X222726Y-862D01*
X222686Y-852D01*
X222657Y-842D01*
X222647D01*
X222618Y-833D01*
X222599Y-823D01*
X222579Y-813D01*
Y-803D01*
X222559Y-764D01*
Y-754D01*
Y-745D01*
X222569Y-696D01*
X222589Y-647D01*
X222618Y-608D01*
X222628Y-589D01*
X222677Y-510D01*
X222726Y-442D01*
X222764Y-384D01*
X222774Y-364D01*
Y-354D01*
X222833Y-237D01*
X222872Y-120D01*
X222891Y-71D01*
X222911Y-42D01*
X222921Y-13D01*
Y-3D01*
X222950Y163D01*
X222970Y319D01*
X222979Y387D01*
Y436D01*
Y475D01*
Y485D01*
X222960Y700D01*
X222950Y797D01*
X222930Y875D01*
X222911Y944D01*
X222901Y993D01*
X222882Y1032D01*
Y1041D01*
X222833Y1129D01*
X222784Y1207D01*
X222735Y1285D01*
X222677Y1344D01*
X222638Y1393D01*
X222599Y1432D01*
X222569Y1451D01*
X222559Y1461D01*
X222472Y1520D01*
X222374Y1568D01*
X222286Y1617D01*
X222198Y1656D01*
X222120Y1685D01*
X222062Y1705D01*
X222013Y1725D01*
X222003D01*
X221876Y1754D01*
X221740Y1773D01*
X221603Y1793D01*
X221486Y1803D01*
X221379D01*
X221291Y1812D01*
X221057D01*
X220920Y1803D01*
X220793Y1783D01*
X220676Y1764D01*
X220588Y1754D01*
X220520Y1734D01*
X220481Y1725D01*
X220461D01*
X220344Y1685D01*
X220237Y1647D01*
X220139Y1607D01*
X220051Y1568D01*
X219983Y1529D01*
X219934Y1500D01*
X219905Y1481D01*
X219895Y1471D01*
X219807Y1402D01*
X219739Y1334D01*
X219680Y1266D01*
X219622Y1207D01*
X219583Y1149D01*
X219553Y1100D01*
X219544Y1071D01*
X219534Y1061D01*
X219495Y963D01*
X219456Y875D01*
X219436Y778D01*
X219427Y700D01*
X219417Y622D01*
X219407Y563D01*
Y524D01*
Y514D01*
Y417D01*
X219417Y319D01*
X219427Y241D01*
X219446Y173D01*
X219456Y114D01*
X219475Y75D01*
X219485Y46D01*
Y36D01*
X219534Y-110D01*
X219592Y-218D01*
X219612Y-257D01*
X219622Y-286D01*
X219641Y-305D01*
Y-315D01*
X219700Y-413D01*
X219739Y-491D01*
X219778Y-530D01*
X219788Y-550D01*
X219827Y-618D01*
X219846Y-667D01*
X219856Y-696D01*
Y-706D01*
X219846Y-754D01*
X219836Y-774D01*
X219817Y-794D01*
X219797Y-813D01*
X219778Y-823D01*
X219768D01*
X219719Y-833D01*
X219680Y-842D01*
X219641Y-852D01*
X219632D01*
X219563Y-862D01*
X219280D01*
X219241Y-852D01*
X219231D01*
X219183Y-842D01*
X219134D01*
X219114Y-833D01*
X219105D01*
X219065Y-823D01*
X219036Y-813D01*
X219017Y-803D01*
X219007D01*
X218978Y-784D01*
X218948Y-754D01*
X218929Y-735D01*
X218919Y-725D01*
X218870Y-676D01*
X218831Y-618D01*
X218802Y-559D01*
X218792Y-550D01*
Y-540D01*
X218734Y-432D01*
X218695Y-335D01*
X218675Y-286D01*
X218665Y-257D01*
X218655Y-237D01*
Y-228D01*
X218617Y-101D01*
X218587Y17D01*
X218577Y65D01*
X218568Y104D01*
X218558Y134D01*
Y143D01*
X218538Y290D01*
X218519Y417D01*
Y475D01*
Y514D01*
Y544D01*
Y553D01*
X218529Y748D01*
X218548Y924D01*
X218577Y1090D01*
X218607Y1237D01*
X218646Y1363D01*
X218675Y1451D01*
X218695Y1510D01*
X218704Y1520D01*
Y1529D01*
X218773Y1685D01*
X218861Y1832D01*
X218948Y1959D01*
X219036Y2066D01*
X219114Y2154D01*
X219173Y2222D01*
X219212Y2271D01*
X219231Y2281D01*
X219368Y2388D01*
X219514Y2486D01*
X219661Y2574D01*
X219797Y2642D01*
X219915Y2701D01*
X220012Y2740D01*
X220051Y2749D01*
X220080Y2759D01*
X220090Y2769D01*
X220100D01*
X220295Y2827D01*
X220490Y2867D01*
X220686Y2905D01*
X220871Y2925D01*
X221027Y2935D01*
X221095D01*
X221154Y2944D01*
X221262D01*
X221496Y2935D01*
D02*
G37*
G36*
X211936Y8127D02*
X211889Y8045D01*
X211842Y7974D01*
X211819Y7928D01*
X211807Y7881D01*
X211784Y7834D01*
Y7822D01*
X211795Y7764D01*
X211830Y7728D01*
X211866Y7705D01*
X211877Y7693D01*
X211901Y7682D01*
X211947Y7670D01*
X212030Y7658D01*
X214477D01*
X214641Y7647D01*
X214793Y7635D01*
X214922Y7611D01*
X215027Y7576D01*
X215121Y7553D01*
X215179Y7529D01*
X215226Y7518D01*
X215238Y7506D01*
X215343Y7436D01*
X215460Y7330D01*
X215578Y7225D01*
X215671Y7108D01*
X215765Y6991D01*
X215835Y6897D01*
X215894Y6839D01*
X215905Y6815D01*
X215660Y6522D01*
X215437Y6253D01*
X215250Y6019D01*
X215086Y5820D01*
X214945Y5656D01*
X214852Y5539D01*
X214816Y5492D01*
X214793Y5457D01*
X214770Y5445D01*
Y5433D01*
X214910Y5422D01*
X215039Y5410D01*
X215144Y5387D01*
X215238Y5363D01*
X215308Y5340D01*
X215355Y5328D01*
X215390Y5305D01*
X215402D01*
X215484Y5246D01*
X215578Y5164D01*
X215660Y5059D01*
X215742Y4965D01*
X215800Y4871D01*
X215859Y4789D01*
X215894Y4743D01*
X215905Y4719D01*
X215062Y3618D01*
X214805Y3817D01*
X214852Y3899D01*
X214887Y3970D01*
X214922Y4016D01*
X214934Y4052D01*
X214957Y4087D01*
Y4098D01*
X214945Y4122D01*
X214910Y4157D01*
X214887Y4169D01*
X214875Y4180D01*
X214805Y4216D01*
X214723Y4239D01*
X214535Y4262D01*
X214454Y4274D01*
X211877D01*
X211491Y3888D01*
X210695Y4860D01*
X211479Y5773D01*
X211877Y5433D01*
X214360D01*
X214957Y6194D01*
X214898Y6253D01*
X214840Y6312D01*
X214758Y6382D01*
X214711Y6429D01*
X214688Y6440D01*
X214641Y6464D01*
X214582Y6476D01*
X214454Y6487D01*
X214395Y6499D01*
X211854D01*
X211491Y6148D01*
X210695Y7120D01*
X211690Y8314D01*
X211936Y8127D01*
D02*
G37*
G36*
X209406Y12658D02*
X209477Y12565D01*
X209547Y12494D01*
X209606Y12436D01*
X209664Y12401D01*
X209699Y12377D01*
X209723Y12354D01*
X209734D01*
X209816Y12319D01*
X209933Y12295D01*
X210051Y12284D01*
X210179Y12272D01*
X210296Y12260D01*
X214735D01*
X215156Y12635D01*
X215905Y11710D01*
X215156Y10761D01*
X214770Y11101D01*
X212217D01*
X211631Y10398D01*
X211737Y10281D01*
X211830Y10199D01*
X211901Y10141D01*
X211912Y10129D01*
X211924D01*
X211971Y10106D01*
X212030Y10094D01*
X212170Y10082D01*
X212229Y10070D01*
X214664D01*
X214828Y10082D01*
X214957D01*
X215086Y10094D01*
X215191D01*
X215285Y10106D01*
X215367D01*
X215437Y10117D01*
X215484Y10129D01*
X215566Y10141D01*
X215613Y10153D01*
X215624D01*
X215742Y10199D01*
X215847Y10270D01*
X215952Y10340D01*
X216034Y10410D01*
X216116Y10480D01*
X216175Y10539D01*
X216210Y10586D01*
X216222Y10598D01*
X216280Y10668D01*
X216339Y10750D01*
X216456Y10937D01*
X216573Y11136D01*
X216678Y11347D01*
X216772Y11546D01*
X216807Y11640D01*
X216842Y11710D01*
X216877Y11768D01*
X216889Y11815D01*
X216913Y11850D01*
Y11862D01*
X217241Y11757D01*
X217159Y11534D01*
X217076Y11323D01*
X216995Y11124D01*
X216924Y10949D01*
X216842Y10773D01*
X216760Y10609D01*
X216678Y10469D01*
X216608Y10340D01*
X216550Y10223D01*
X216479Y10117D01*
X216432Y10024D01*
X216386Y9953D01*
X216339Y9895D01*
X216315Y9860D01*
X216292Y9836D01*
Y9825D01*
X216140Y9625D01*
X215987Y9473D01*
X215847Y9345D01*
X215718Y9239D01*
X215613Y9169D01*
X215519Y9110D01*
X215472Y9087D01*
X215449Y9075D01*
X215308Y9017D01*
X215144Y8981D01*
X214980Y8946D01*
X214828Y8935D01*
X214688Y8923D01*
X214571Y8911D01*
X212334D01*
X212088Y8923D01*
X211889Y8935D01*
X211713Y8958D01*
X211573Y8981D01*
X211467Y9017D01*
X211397Y9040D01*
X211350Y9052D01*
X211339Y9064D01*
X211222Y9134D01*
X211104Y9239D01*
X210999Y9356D01*
X210905Y9473D01*
X210823Y9579D01*
X210753Y9672D01*
X210706Y9743D01*
X210695Y9754D01*
Y9766D01*
X211854Y11101D01*
X210238D01*
X210086Y11089D01*
X209957Y11066D01*
X209863Y11042D01*
X209781Y11031D01*
X209734Y11007D01*
X209699Y10996D01*
X209687D01*
X209606Y10937D01*
X209512Y10867D01*
X209360Y10715D01*
X209301Y10633D01*
X209254Y10574D01*
X209231Y10527D01*
X209219Y10515D01*
X208962Y10586D01*
X208985Y10750D01*
X209020Y10890D01*
X209055Y11019D01*
X209079Y11124D01*
X209114Y11206D01*
X209137Y11277D01*
X209149Y11312D01*
X209161Y11323D01*
X209278Y11523D01*
X209336Y11604D01*
X209395Y11687D01*
X209453Y11745D01*
X209500Y11792D01*
X209524Y11827D01*
X209535Y11839D01*
X209406Y11968D01*
X209325Y12073D01*
X209289Y12120D01*
X209266Y12155D01*
X209254Y12167D01*
Y12178D01*
X209219Y12249D01*
X209184Y12331D01*
X209125Y12494D01*
X209114Y12565D01*
X209090Y12623D01*
X209079Y12670D01*
Y12682D01*
X209336Y12764D01*
X209406Y12658D01*
D02*
G37*
G36*
X215730Y609D02*
X215777Y585D01*
X215824Y562D01*
X215835Y550D01*
X215870Y492D01*
X215894Y433D01*
X215905Y386D01*
Y375D01*
X215894Y293D01*
X215847Y211D01*
X215812Y152D01*
X215800Y140D01*
Y129D01*
X215718Y12D01*
X215648Y-117D01*
X215601Y-246D01*
X215578Y-351D01*
X215554Y-457D01*
X215543Y-527D01*
Y-574D01*
Y-597D01*
X215554Y-796D01*
X215566Y-878D01*
X215578Y-960D01*
X215601Y-1019D01*
X215613Y-1066D01*
X215624Y-1101D01*
Y-1113D01*
X215660Y-1206D01*
X215695Y-1312D01*
X215788Y-1522D01*
X215835Y-1616D01*
X215870Y-1686D01*
X215894Y-1745D01*
X215905Y-1757D01*
X215777Y-1921D01*
X215660Y-2073D01*
X215566Y-2202D01*
X215496Y-2307D01*
X215449Y-2401D01*
X215402Y-2459D01*
X215390Y-2506D01*
X215379Y-2518D01*
X215332Y-2635D01*
X215285Y-2764D01*
X215250Y-2892D01*
X215226Y-3021D01*
X215203Y-3127D01*
X215191Y-3209D01*
X215179Y-3267D01*
Y-3291D01*
X213060D01*
X212498Y-2190D01*
X211421Y-3080D01*
X211303Y-3162D01*
X211210Y-3232D01*
X211116Y-3291D01*
X211046Y-3337D01*
X210987Y-3373D01*
X210941Y-3396D01*
X210917Y-3419D01*
X210905D01*
X210753Y-3478D01*
X210613Y-3501D01*
X210554Y-3513D01*
X210390D01*
X210308Y-3490D01*
X210191Y-3443D01*
X210144Y-3419D01*
X210109Y-3396D01*
X210097Y-3384D01*
X210086Y-3373D01*
X210039Y-3314D01*
X209992Y-3267D01*
X209957Y-3162D01*
X209933Y-3091D01*
Y-3068D01*
Y-3056D01*
X209957Y-2963D01*
X209992Y-2881D01*
X210027Y-2834D01*
X210051Y-2811D01*
X210144Y-2752D01*
X210250Y-2717D01*
X210320Y-2705D01*
X210355D01*
X210425Y-2717D01*
X210495Y-2740D01*
X210624Y-2811D01*
X210671Y-2846D01*
X210706Y-2881D01*
X210730Y-2904D01*
X210741Y-2916D01*
X210776Y-2963D01*
X210812Y-2974D01*
X210835Y-2986D01*
X210847D01*
X210905Y-2963D01*
X210964Y-2928D01*
X211011Y-2892D01*
X211022Y-2869D01*
X211069Y-2764D01*
X211093Y-2647D01*
X211104Y-2600D01*
Y-2553D01*
Y-2529D01*
Y-2518D01*
X211093Y-2342D01*
X211069Y-2155D01*
Y-2084D01*
X211058Y-2026D01*
X211046Y-1979D01*
Y-1967D01*
X210999Y-1850D01*
X210952Y-1698D01*
X210894Y-1546D01*
X210835Y-1382D01*
X210776Y-1241D01*
X210741Y-1113D01*
X210718Y-1077D01*
X210706Y-1042D01*
X210695Y-1019D01*
Y-1007D01*
X210823Y-902D01*
X210929Y-808D01*
X211011Y-714D01*
X211093Y-632D01*
X211151Y-562D01*
X211186Y-504D01*
X211210Y-469D01*
X211222Y-457D01*
X211292Y-351D01*
X211350Y-223D01*
X211409Y-94D01*
X211467Y35D01*
X211503Y152D01*
X211538Y246D01*
X211561Y304D01*
X211573Y316D01*
Y328D01*
X213446D01*
X213985Y-703D01*
X214723Y-94D01*
X215238Y304D01*
X215343Y398D01*
X215402Y445D01*
X215437Y480D01*
X215449Y492D01*
X215496Y539D01*
X215531Y562D01*
X215601Y609D01*
X215648Y620D01*
X215660D01*
X215730Y609D01*
D02*
G37*
G36*
X210378Y2752D02*
X210531Y2740D01*
X210683Y2728D01*
X210800Y2717D01*
X210835D01*
X210870Y2705D01*
X210905D01*
X211175Y2658D01*
X211444Y2599D01*
X211713Y2518D01*
X211971Y2447D01*
X212193Y2377D01*
X212287Y2342D01*
X212369Y2318D01*
X212428Y2295D01*
X212474Y2272D01*
X212510Y2260D01*
X212521D01*
Y1897D01*
X212170Y1792D01*
X211854Y1698D01*
X211584Y1628D01*
X211339Y1581D01*
X211233Y1557D01*
X211151Y1546D01*
X211069Y1522D01*
X210999Y1510D01*
X210952D01*
X210917Y1499D01*
X210882D01*
X210648Y1475D01*
X210449Y1452D01*
X210296Y1440D01*
X210179Y1429D01*
X210086Y1417D01*
X209196D01*
Y2764D01*
X210226D01*
X210378Y2752D01*
D02*
G37*
G36*
X214641Y29310D02*
X214770Y29287D01*
X214898Y29240D01*
X215016Y29181D01*
X215262Y29041D01*
X215472Y28877D01*
X215648Y28713D01*
X215718Y28643D01*
X215788Y28572D01*
X215835Y28514D01*
X215870Y28467D01*
X215894Y28444D01*
X215905Y28432D01*
X214770Y27085D01*
X214887Y27073D01*
X215004Y27062D01*
X215109Y27038D01*
X215191Y27015D01*
X215262Y26992D01*
X215308Y26968D01*
X215343Y26945D01*
X215355D01*
X215449Y26886D01*
X215543Y26804D01*
X215718Y26617D01*
X215800Y26523D01*
X215859Y26453D01*
X215894Y26406D01*
X215905Y26382D01*
X214957Y25270D01*
X214711Y25469D01*
X214770Y25551D01*
X214805Y25610D01*
X214840Y25657D01*
X214863Y25692D01*
X214887Y25727D01*
X214898Y25738D01*
Y25774D01*
Y25785D01*
Y25797D01*
X214887Y25820D01*
X214852Y25856D01*
X214828Y25867D01*
X214816Y25879D01*
X214770Y25891D01*
X214688Y25902D01*
X214594Y25914D01*
X214500D01*
X214407Y25926D01*
X212111D01*
X212006Y25914D01*
X211912Y25902D01*
X211842Y25891D01*
X211784D01*
X211737Y25879D01*
X211713Y25867D01*
X211702D01*
X211620Y25832D01*
X211514Y25785D01*
X211292Y25680D01*
X211186Y25633D01*
X211104Y25586D01*
X211046Y25551D01*
X211022Y25539D01*
X210894Y25844D01*
X210964Y25902D01*
X211011Y25949D01*
X211046Y25973D01*
X211081Y26008D01*
X211104Y26031D01*
X211116Y26043D01*
X211128Y26066D01*
Y26101D01*
Y26125D01*
Y26137D01*
Y26219D01*
X211116Y26324D01*
X211069Y26511D01*
X211058Y26605D01*
X211034Y26675D01*
X211022Y26722D01*
Y26734D01*
X210917Y27027D01*
X210870Y27155D01*
X210812Y27272D01*
X210765Y27378D01*
X210730Y27460D01*
X210706Y27507D01*
X210695Y27530D01*
X210835Y27694D01*
X210941Y27870D01*
X211011Y28034D01*
X211058Y28174D01*
X211093Y28303D01*
X211104Y28397D01*
X211116Y28467D01*
Y28479D01*
Y28490D01*
Y28584D01*
X211104Y28689D01*
Y28736D01*
Y28783D01*
Y28806D01*
Y28818D01*
X211327Y28924D01*
X212533Y28350D01*
X212755Y28549D01*
X212966Y28713D01*
X213165Y28853D01*
X213329Y28959D01*
X213470Y29041D01*
X213575Y29099D01*
X213646Y29134D01*
X213657Y29146D01*
X213669D01*
X213821Y29205D01*
X213962Y29252D01*
X214102Y29275D01*
X214231Y29298D01*
X214348Y29310D01*
X214430Y29322D01*
X214512D01*
X214641Y29310D01*
D02*
G37*
G36*
X211854Y24767D02*
X211795Y24685D01*
X211749Y24614D01*
X211725Y24567D01*
X211702Y24532D01*
X211678Y24486D01*
Y24474D01*
X211690Y24450D01*
X211713Y24415D01*
X211749Y24404D01*
X211760Y24392D01*
X211830Y24357D01*
X211924Y24333D01*
X212147Y24310D01*
X212240Y24298D01*
X214758D01*
X215156Y24649D01*
X215905Y23724D01*
X215156Y22788D01*
X214770Y23139D01*
X212217D01*
X211631Y22460D01*
X212018Y22120D01*
X214746D01*
X214910Y22097D01*
X215039Y22085D01*
X215156Y22062D01*
X215238Y22038D01*
X215297Y22026D01*
X215332Y22003D01*
X215343D01*
X215437Y21945D01*
X215531Y21862D01*
X215624Y21769D01*
X215718Y21663D01*
X215788Y21570D01*
X215847Y21488D01*
X215894Y21441D01*
X215905Y21418D01*
X215004Y20305D01*
X214746Y20504D01*
X214805Y20598D01*
X214852Y20680D01*
X214875Y20738D01*
X214898Y20774D01*
X214910Y20809D01*
X214922Y20820D01*
Y20832D01*
X214910Y20844D01*
X214898Y20855D01*
X214887Y20867D01*
X214828Y20902D01*
X214758Y20926D01*
X214617Y20949D01*
X214559Y20961D01*
X212088D01*
X211983Y20949D01*
X211889Y20937D01*
X211819Y20914D01*
X211760Y20902D01*
X211713Y20891D01*
X211690Y20879D01*
X211678D01*
X211620Y20844D01*
X211538Y20785D01*
X211374Y20645D01*
X211303Y20574D01*
X211245Y20516D01*
X211198Y20469D01*
X211186Y20457D01*
X210952Y20703D01*
X211397Y21160D01*
X210695Y21804D01*
X211854Y23139D01*
X211666D01*
X211561Y23162D01*
X211467Y23174D01*
X211385Y23197D01*
X211327Y23221D01*
X211280Y23233D01*
X211257Y23256D01*
X211245D01*
X211163Y23314D01*
X211069Y23396D01*
X210987Y23502D01*
X210894Y23607D01*
X210812Y23713D01*
X210753Y23795D01*
X210706Y23853D01*
X210695Y23865D01*
Y23877D01*
X211608Y24954D01*
X211854Y24767D01*
D02*
G37*
G36*
X212908Y19556D02*
X213212Y19509D01*
X213493Y19439D01*
X213739Y19356D01*
X213856Y19310D01*
X213950Y19275D01*
X214044Y19239D01*
X214114Y19204D01*
X214172Y19169D01*
X214219Y19158D01*
X214243Y19134D01*
X214254D01*
X214535Y18958D01*
X214781Y18759D01*
X214992Y18549D01*
X215168Y18350D01*
X215308Y18174D01*
X215355Y18104D01*
X215402Y18033D01*
X215437Y17975D01*
X215460Y17940D01*
X215484Y17916D01*
Y17905D01*
X215624Y17612D01*
X215730Y17307D01*
X215800Y17026D01*
X215847Y16769D01*
X215870Y16651D01*
X215882Y16546D01*
X215894Y16453D01*
Y16371D01*
X215905Y16312D01*
Y16253D01*
Y16230D01*
Y16218D01*
X215894Y15996D01*
X215870Y15773D01*
X215847Y15574D01*
X215800Y15387D01*
X215765Y15235D01*
X215742Y15118D01*
X215730Y15071D01*
X215718Y15036D01*
X215706Y15024D01*
Y15012D01*
X215624Y14790D01*
X215531Y14591D01*
X215437Y14403D01*
X215355Y14251D01*
X215273Y14122D01*
X215215Y14040D01*
X215168Y13982D01*
X215156Y13958D01*
X215016Y13794D01*
X214852Y13630D01*
X214676Y13478D01*
X214512Y13349D01*
X214360Y13232D01*
X214231Y13138D01*
X214196Y13103D01*
X214161Y13080D01*
X214137Y13057D01*
X214126D01*
X213903Y13314D01*
X214090Y13548D01*
X214254Y13771D01*
X214383Y13970D01*
X214489Y14146D01*
X214571Y14298D01*
X214617Y14403D01*
X214652Y14473D01*
X214664Y14485D01*
Y14497D01*
X214735Y14708D01*
X214793Y14919D01*
X214828Y15129D01*
X214863Y15328D01*
X214875Y15492D01*
X214887Y15633D01*
Y15680D01*
Y15715D01*
Y15738D01*
Y15750D01*
Y15773D01*
X209699Y15820D01*
X209863Y15504D01*
X209992Y15188D01*
X210086Y14907D01*
X210156Y14649D01*
X210191Y14532D01*
X210214Y14427D01*
X210226Y14333D01*
X210238Y14263D01*
X210250Y14192D01*
X210261Y14146D01*
Y14122D01*
Y14110D01*
X209465Y13267D01*
X209172Y13385D01*
Y13560D01*
Y13759D01*
X209161Y13935D01*
X209149Y14087D01*
X209137Y14228D01*
X209125Y14345D01*
X209114Y14427D01*
X209102Y14473D01*
Y14497D01*
X209067Y14661D01*
X209008Y14837D01*
X208950Y15024D01*
X208879Y15211D01*
X208821Y15375D01*
X208774Y15504D01*
X208751Y15563D01*
X208739Y15598D01*
X208727Y15621D01*
Y15633D01*
X210460Y17729D01*
X212849D01*
X213037Y17741D01*
X213177Y17752D01*
X213294D01*
X213364Y17764D01*
X213411Y17776D01*
X213435Y17787D01*
X213446D01*
X213505Y17811D01*
X213552Y17846D01*
X213657Y17916D01*
X213704Y17963D01*
X213739Y17987D01*
X213763Y18010D01*
X213774Y18022D01*
X213622Y18115D01*
X213481Y18209D01*
X213177Y18350D01*
X212884Y18443D01*
X212615Y18513D01*
X212486Y18537D01*
X212381Y18549D01*
X212275Y18572D01*
X212193D01*
X212123Y18584D01*
X212030D01*
X211737Y18560D01*
X211467Y18513D01*
X211222Y18455D01*
X210999Y18373D01*
X210823Y18291D01*
X210741Y18256D01*
X210683Y18232D01*
X210636Y18197D01*
X210601Y18186D01*
X210578Y18162D01*
X210566D01*
X210367Y18022D01*
X210168Y17858D01*
X209992Y17670D01*
X209840Y17506D01*
X209699Y17342D01*
X209606Y17214D01*
X209559Y17167D01*
X209535Y17132D01*
X209512Y17108D01*
Y17097D01*
X209266Y17296D01*
X209395Y17506D01*
X209524Y17705D01*
X209641Y17881D01*
X209770Y18045D01*
X209887Y18197D01*
X209992Y18338D01*
X210109Y18455D01*
X210203Y18560D01*
X210296Y18666D01*
X210378Y18736D01*
X210460Y18806D01*
X210519Y18865D01*
X210566Y18900D01*
X210601Y18935D01*
X210624Y18947D01*
X210636Y18958D01*
X210812Y19064D01*
X210976Y19158D01*
X211151Y19251D01*
X211327Y19321D01*
X211655Y19427D01*
X211947Y19497D01*
X212088Y19532D01*
X212205Y19544D01*
X212322Y19556D01*
X212416Y19567D01*
X212486Y19579D01*
X212592D01*
X212908Y19556D01*
D02*
G37*
G36*
X215355Y32905D02*
X215402Y32718D01*
X215437Y32565D01*
X215484Y32437D01*
X215507Y32343D01*
X215531Y32273D01*
X215554Y32226D01*
Y32214D01*
X215601Y32085D01*
X215648Y31956D01*
X215706Y31816D01*
X215765Y31687D01*
X215824Y31570D01*
X215870Y31465D01*
X215894Y31406D01*
X215905Y31383D01*
X214781Y29767D01*
X214512Y29966D01*
X215016Y30739D01*
X214617Y31699D01*
X213868D01*
X212357Y29591D01*
X210695Y30996D01*
X210765Y31148D01*
X210835Y31289D01*
X210894Y31418D01*
X210952Y31535D01*
X210999Y31640D01*
X211046Y31722D01*
X211104Y31863D01*
X211163Y31968D01*
X211186Y32027D01*
X211210Y32062D01*
Y32074D01*
X211257Y32191D01*
X211315Y32320D01*
X211362Y32448D01*
X211421Y32565D01*
X211456Y32682D01*
X211491Y32776D01*
X211514Y32835D01*
X211526Y32847D01*
Y32858D01*
X214430D01*
X214547Y32870D01*
X214652D01*
X214723Y32882D01*
X214781Y32893D01*
X214816D01*
X214828Y32905D01*
X214840D01*
X214887Y32928D01*
X214922Y32964D01*
X214992Y33034D01*
X215039Y33104D01*
X215062Y33116D01*
Y33127D01*
X215308D01*
X215355Y32905D01*
D02*
G37*
G36*
X215554Y51091D02*
X215671Y51044D01*
X215718Y51032D01*
X215753Y51009D01*
X215765Y50997D01*
X215777D01*
X215824Y50950D01*
X215847Y50915D01*
X215894Y50821D01*
X215905Y50751D01*
Y50739D01*
Y50728D01*
X215894Y50634D01*
X215859Y50552D01*
X215835Y50505D01*
X215824Y50493D01*
X215753Y50435D01*
X215671Y50400D01*
X215624Y50388D01*
X215566D01*
X215519Y50411D01*
X215437Y50447D01*
X215367Y50493D01*
X215343Y50505D01*
X215332Y50517D01*
X215226Y50564D01*
X215144Y50587D01*
X215086Y50599D01*
X215074D01*
X215027Y50587D01*
X214992Y50575D01*
X214969Y50564D01*
X214922Y50505D01*
X214910Y50458D01*
X214898Y50411D01*
Y50400D01*
X214910Y50294D01*
X214945Y50166D01*
X214992Y50013D01*
X215051Y49861D01*
X215133Y49685D01*
X215215Y49510D01*
X215402Y49158D01*
X215496Y48995D01*
X215589Y48842D01*
X215671Y48690D01*
X215753Y48573D01*
X215812Y48468D01*
X215859Y48386D01*
X215894Y48327D01*
X215905Y48315D01*
X214524Y46617D01*
X214723Y46606D01*
X214910Y46582D01*
X215062Y46547D01*
X215179Y46524D01*
X215285Y46489D01*
X215355Y46453D01*
X215402Y46442D01*
X215414Y46430D01*
X215519Y46348D01*
X215613Y46243D01*
X215706Y46137D01*
X215777Y46032D01*
X215835Y45926D01*
X215870Y45845D01*
X215894Y45798D01*
X215905Y45774D01*
X215648Y45435D01*
X214828Y44521D01*
X214547Y44756D01*
X214641Y44873D01*
X214699Y44966D01*
X214746Y45037D01*
X214781Y45095D01*
X214805Y45142D01*
X214816Y45165D01*
Y45189D01*
X214805Y45224D01*
X214781Y45259D01*
X214758Y45283D01*
X214746Y45294D01*
X214664Y45329D01*
X214571Y45353D01*
X214454Y45364D01*
X214325Y45376D01*
X214219Y45388D01*
X214126Y45400D01*
X214032D01*
X210519Y45470D01*
X210039D01*
X209933Y45458D01*
X209828Y45446D01*
X209758Y45435D01*
X209687D01*
X209652Y45423D01*
X209629Y45411D01*
X209617D01*
X209488Y45353D01*
X209371Y45294D01*
X209301Y45236D01*
X209289Y45212D01*
X209278D01*
X209219Y45142D01*
X209161Y45060D01*
X209043Y44896D01*
X208997Y44814D01*
X208962Y44744D01*
X208938Y44697D01*
X208926Y44685D01*
X208575Y44826D01*
X208645Y44990D01*
X208716Y45130D01*
X208774Y45259D01*
X208833Y45353D01*
X208879Y45435D01*
X208915Y45493D01*
X208938Y45528D01*
X208950Y45540D01*
X209090Y45716D01*
X209219Y45856D01*
X209278Y45903D01*
X209325Y45950D01*
X209348Y45973D01*
X209360Y45985D01*
X209219Y46172D01*
X209102Y46371D01*
X208997Y46559D01*
X208903Y46746D01*
X208833Y46934D01*
X208762Y47109D01*
X208716Y47285D01*
X208669Y47449D01*
X208645Y47589D01*
X208622Y47730D01*
X208598Y47847D01*
X208587Y47952D01*
X208575Y48034D01*
Y48105D01*
Y48140D01*
Y48151D01*
X208587Y48432D01*
X208634Y48702D01*
X208680Y48948D01*
X208751Y49170D01*
X208809Y49358D01*
X208844Y49439D01*
X208868Y49498D01*
X208891Y49557D01*
X208915Y49592D01*
X208926Y49615D01*
Y49627D01*
X209067Y49873D01*
X209219Y50095D01*
X209383Y50283D01*
X209535Y50435D01*
X209676Y50552D01*
X209781Y50634D01*
X209828Y50669D01*
X209863Y50692D01*
X209875Y50704D01*
X209887D01*
X210109Y50821D01*
X210343Y50903D01*
X210566Y50974D01*
X210765Y51009D01*
X210929Y51032D01*
X210999Y51044D01*
X211069D01*
X211116Y51056D01*
X211186D01*
X211409Y51044D01*
X211620Y51009D01*
X211807Y50962D01*
X211959Y50915D01*
X212100Y50868D01*
X212205Y50821D01*
X212264Y50786D01*
X212287Y50775D01*
X212463Y50657D01*
X212638Y50505D01*
X212802Y50353D01*
X212943Y50189D01*
X213072Y50049D01*
X213165Y49931D01*
X213200Y49885D01*
X213224Y49849D01*
X213236Y49838D01*
X213247Y49826D01*
X214102Y50493D01*
X214172Y50552D01*
X214208Y50564D01*
X214219Y50575D01*
X214348Y50669D01*
X214465Y50751D01*
X214571Y50821D01*
X214664Y50880D01*
X214746Y50915D01*
X214805Y50950D01*
X214840Y50962D01*
X214852Y50974D01*
X214957Y51020D01*
X215062Y51044D01*
X215156Y51067D01*
X215226Y51091D01*
X215297D01*
X215343Y51102D01*
X215390D01*
X215554Y51091D01*
D02*
G37*
G36*
X213716Y41395D02*
X213634Y41313D01*
X213563Y41243D01*
X213517Y41184D01*
X213470Y41137D01*
X213423Y41079D01*
X213411Y41067D01*
X213376Y40997D01*
X213364Y40938D01*
X213353Y40891D01*
Y40879D01*
X213364Y40809D01*
X213388Y40739D01*
X213458Y40610D01*
X213493Y40563D01*
X213528Y40528D01*
X213552Y40505D01*
X213563Y40493D01*
X213646Y40435D01*
X213727Y40388D01*
X213798Y40353D01*
X213880Y40329D01*
X213938Y40317D01*
X213997Y40306D01*
X214044D01*
X214172Y40317D01*
X214289Y40341D01*
X214407Y40376D01*
X214500Y40423D01*
X214594Y40470D01*
X214652Y40505D01*
X214699Y40528D01*
X214711Y40540D01*
X214770Y40587D01*
X214840Y40645D01*
X214992Y40798D01*
X215144Y40962D01*
X215285Y41137D01*
X215414Y41301D01*
X215519Y41430D01*
X215554Y41489D01*
X215589Y41524D01*
X215601Y41547D01*
X215613Y41559D01*
X215905Y41360D01*
X215718Y41067D01*
X215543Y40809D01*
X215379Y40563D01*
X215226Y40353D01*
X215086Y40165D01*
X214957Y40001D01*
X214840Y39849D01*
X214735Y39732D01*
X214641Y39627D01*
X214559Y39533D01*
X214500Y39463D01*
X214442Y39416D01*
X214395Y39369D01*
X214360Y39345D01*
X214348Y39322D01*
X214336D01*
X214126Y39182D01*
X213927Y39076D01*
X213727Y39006D01*
X213552Y38947D01*
X213400Y38924D01*
X213282Y38912D01*
X213236Y38901D01*
X213177D01*
X211503Y38936D01*
X211339Y38924D01*
X211198Y38912D01*
X211069Y38877D01*
X210964Y38842D01*
X210894Y38819D01*
X210835Y38783D01*
X210800Y38772D01*
X210788Y38760D01*
X210695Y38678D01*
X210589Y38573D01*
X210495Y38456D01*
X210414Y38339D01*
X210332Y38233D01*
X210273Y38139D01*
X210238Y38081D01*
X210226Y38057D01*
X210320Y38128D01*
X210414Y38198D01*
X210507Y38245D01*
X210589Y38292D01*
X210659Y38315D01*
X210718Y38339D01*
X210753Y38350D01*
X210765D01*
X210882Y38374D01*
X211034Y38385D01*
X211175Y38397D01*
X211327D01*
X211456Y38409D01*
X212018D01*
X212123Y38397D01*
X212486D01*
X212615Y38385D01*
X213001D01*
X213224Y38397D01*
X213411Y38420D01*
X213587Y38456D01*
X213727Y38491D01*
X213844Y38537D01*
X213938Y38573D01*
X213985Y38596D01*
X214008Y38608D01*
X214079Y38655D01*
X214161Y38713D01*
X214313Y38854D01*
X214465Y39006D01*
X214606Y39170D01*
X214723Y39322D01*
X214828Y39451D01*
X214863Y39498D01*
X214887Y39533D01*
X214898Y39556D01*
X214910Y39568D01*
X215097Y39849D01*
X215285Y40142D01*
X215460Y40435D01*
X215624Y40704D01*
X215695Y40821D01*
X215753Y40938D01*
X215812Y41032D01*
X215859Y41125D01*
X215905Y41196D01*
X215929Y41243D01*
X215941Y41278D01*
X215952Y41289D01*
X216268Y41090D01*
X216128Y40798D01*
X215999Y40516D01*
X215894Y40271D01*
X215812Y40060D01*
X215753Y39873D01*
X215730Y39802D01*
X215706Y39744D01*
X215695Y39697D01*
X215683Y39662D01*
X215671Y39638D01*
Y39627D01*
X215613Y39381D01*
X215566Y39123D01*
X215531Y38889D01*
X215507Y38666D01*
X215496Y38479D01*
X215484Y38409D01*
Y38339D01*
Y38280D01*
Y38245D01*
Y38221D01*
Y38210D01*
X215507Y37776D01*
X215554Y37320D01*
X215613Y36875D01*
X215660Y36652D01*
X215695Y36453D01*
X215730Y36266D01*
X215777Y36090D01*
X215812Y35938D01*
X215835Y35797D01*
X215870Y35692D01*
X215882Y35610D01*
X215905Y35552D01*
Y35540D01*
X215742Y35329D01*
X215554Y35083D01*
X215390Y34837D01*
X215226Y34603D01*
X215074Y34380D01*
X215016Y34287D01*
X214969Y34205D01*
X214922Y34146D01*
X214887Y34099D01*
X214875Y34064D01*
X214863Y34053D01*
X214430Y34064D01*
X214044Y34076D01*
X213692Y34088D01*
X213376Y34099D01*
X213095Y34111D01*
X212838Y34123D01*
X212627Y34135D01*
X212428Y34146D01*
X212275Y34158D01*
X212135D01*
X212030Y34170D01*
X211936Y34181D01*
X211877D01*
X211830Y34193D01*
X211795D01*
X211444Y34240D01*
X211139Y34310D01*
X210870Y34392D01*
X210648Y34462D01*
X210554Y34509D01*
X210472Y34544D01*
X210402Y34580D01*
X210343Y34603D01*
X210296Y34626D01*
X210261Y34650D01*
X210250Y34661D01*
X210238D01*
X210027Y34802D01*
X209851Y34954D01*
X209711Y35107D01*
X209582Y35259D01*
X209488Y35388D01*
X209418Y35493D01*
X209383Y35563D01*
X209371Y35575D01*
Y35587D01*
X209278Y35809D01*
X209207Y36043D01*
X209161Y36277D01*
X209125Y36488D01*
X209102Y36687D01*
Y36758D01*
X209090Y36828D01*
Y36886D01*
Y36933D01*
Y36957D01*
Y36968D01*
Y37027D01*
Y37097D01*
Y37179D01*
X209102Y37273D01*
Y37495D01*
X209114Y37718D01*
X209125Y37929D01*
Y38034D01*
Y38116D01*
X209137Y38186D01*
Y38245D01*
Y38280D01*
Y38292D01*
X209149Y38596D01*
X209161Y38865D01*
X209172Y39111D01*
Y39322D01*
X209184Y39521D01*
X209196Y39685D01*
Y39826D01*
Y39954D01*
Y40060D01*
X209207Y40142D01*
Y40212D01*
Y40259D01*
Y40294D01*
Y40317D01*
Y40341D01*
Y40505D01*
X209184Y40645D01*
X209172Y40774D01*
X209149Y40868D01*
X209125Y40938D01*
X209114Y40997D01*
X209090Y41020D01*
Y41032D01*
X209055Y41079D01*
X208997Y41125D01*
X208879Y41196D01*
X208821Y41219D01*
X208774Y41243D01*
X208739Y41254D01*
X208727D01*
Y41641D01*
X208950Y41629D01*
X209137Y41605D01*
X209301Y41570D01*
X209442Y41535D01*
X209547Y41512D01*
X209617Y41477D01*
X209664Y41465D01*
X209676Y41453D01*
X209781Y41383D01*
X209875Y41313D01*
X209957Y41231D01*
X210015Y41149D01*
X210062Y41079D01*
X210097Y41020D01*
X210109Y40985D01*
X210121Y40973D01*
X210179Y40786D01*
X210226Y40598D01*
X210261Y40411D01*
X210285Y40247D01*
X210296Y40095D01*
X210308Y39978D01*
Y39931D01*
Y39896D01*
Y39884D01*
Y39873D01*
X210296Y39439D01*
X210285Y39228D01*
X210273Y39041D01*
X210261Y38877D01*
X210250Y38748D01*
Y38702D01*
X210238Y38666D01*
Y38643D01*
Y38631D01*
X210367Y38912D01*
X210507Y39146D01*
X210648Y39345D01*
X210776Y39498D01*
X210882Y39615D01*
X210976Y39697D01*
X211034Y39744D01*
X211058Y39755D01*
X211245Y39861D01*
X211456Y39931D01*
X211666Y39990D01*
X211854Y40025D01*
X212030Y40048D01*
X212111D01*
X212170Y40060D01*
X212451D01*
X212568Y40048D01*
X212685D01*
X212650Y40095D01*
X212627Y40154D01*
X212615Y40212D01*
Y40224D01*
Y40235D01*
X212592Y40329D01*
X212580Y40411D01*
Y40458D01*
Y40481D01*
X212592Y40622D01*
X212615Y40762D01*
X212650Y40879D01*
X212685Y40973D01*
X212732Y41055D01*
X212767Y41125D01*
X212791Y41161D01*
X212802Y41172D01*
X212896Y41278D01*
X213001Y41371D01*
X213119Y41453D01*
X213236Y41512D01*
X213341Y41570D01*
X213423Y41605D01*
X213481Y41629D01*
X213505Y41641D01*
X213716Y41395D01*
D02*
G37*
%LPC*%
G36*
X212592Y48971D02*
X209980Y47004D01*
X210051Y46934D01*
X210097Y46898D01*
X210109Y46875D01*
X210121D01*
X210168Y46828D01*
X210226Y46770D01*
X210273Y46723D01*
X210285Y46699D01*
X210296D01*
X212592Y46641D01*
Y48971D01*
D02*
G37*
G36*
X221867Y-19094D02*
X219485Y-20450D01*
Y-20460D01*
X221867D01*
Y-19094D01*
D02*
G37*
G36*
X213833Y28291D02*
X213763D01*
X213610Y28280D01*
X213446Y28256D01*
X213294Y28221D01*
X213154Y28186D01*
X213025Y28151D01*
X212931Y28116D01*
X212873Y28092D01*
X212849Y28080D01*
X213341Y27085D01*
X214418D01*
X214934Y27718D01*
X214852Y27823D01*
X214758Y27905D01*
X214664Y27987D01*
X214559Y28045D01*
X214371Y28151D01*
X214184Y28221D01*
X214020Y28256D01*
X213880Y28280D01*
X213833Y28291D01*
D02*
G37*
G36*
X221174Y14637D02*
X219417D01*
Y14198D01*
Y14081D01*
X219427Y13983D01*
X219436Y13944D01*
Y13915D01*
X219446Y13895D01*
Y13885D01*
X219475Y13778D01*
X219505Y13680D01*
X219524Y13642D01*
X219544Y13612D01*
X219553Y13602D01*
Y13593D01*
X219622Y13495D01*
X219710Y13417D01*
X219749Y13388D01*
X219778Y13368D01*
X219797Y13349D01*
X219807D01*
X219954Y13290D01*
X220100Y13261D01*
X220159Y13251D01*
X220256D01*
X220403Y13261D01*
X220520Y13280D01*
X220568Y13290D01*
X220607Y13300D01*
X220627Y13310D01*
X220637D01*
X220754Y13358D01*
X220842Y13417D01*
X220881Y13437D01*
X220910Y13456D01*
X220920Y13466D01*
X220930Y13476D01*
X221008Y13563D01*
X221066Y13661D01*
X221086Y13700D01*
X221105Y13729D01*
X221115Y13749D01*
Y13759D01*
X221144Y13895D01*
X221164Y14022D01*
X221174Y14081D01*
Y14130D01*
Y14159D01*
Y14168D01*
Y14637D01*
D02*
G37*
G36*
X211385Y50564D02*
X211350D01*
X211186Y50552D01*
X211034Y50529D01*
X210894Y50482D01*
X210765Y50435D01*
X210659Y50388D01*
X210578Y50341D01*
X210531Y50318D01*
X210507Y50306D01*
X210355Y50201D01*
X210226Y50072D01*
X210109Y49943D01*
X210015Y49814D01*
X209933Y49697D01*
X209875Y49604D01*
X209840Y49545D01*
X209828Y49521D01*
X209734Y49322D01*
X209676Y49123D01*
X209629Y48936D01*
X209594Y48760D01*
X209570Y48608D01*
X209559Y48503D01*
Y48456D01*
Y48421D01*
Y48409D01*
Y48397D01*
X209570Y48187D01*
X209594Y47987D01*
X209641Y47812D01*
X209676Y47648D01*
X209723Y47507D01*
X209770Y47414D01*
X209793Y47344D01*
X209805Y47320D01*
X210144Y47589D01*
X210086Y47730D01*
X210051Y47859D01*
X210015Y47987D01*
X210004Y48093D01*
X209992Y48187D01*
X209980Y48257D01*
Y48304D01*
Y48315D01*
X209992Y48444D01*
X210004Y48561D01*
X210039Y48667D01*
X210062Y48772D01*
X210097Y48854D01*
X210133Y48913D01*
X210144Y48959D01*
X210156Y48971D01*
X210226Y49077D01*
X210296Y49170D01*
X210378Y49252D01*
X210449Y49322D01*
X210519Y49369D01*
X210566Y49404D01*
X210601Y49428D01*
X210613Y49439D01*
X210718Y49486D01*
X210800Y49521D01*
X210882Y49557D01*
X210941Y49568D01*
X210999Y49580D01*
X211034Y49592D01*
X211069D01*
X211128Y49580D01*
X211175Y49568D01*
X211198Y49557D01*
X211210Y49545D01*
X211233Y49510D01*
X211245Y49463D01*
X211257Y49439D01*
Y49428D01*
X211245Y49358D01*
X211198Y49299D01*
X211163Y49264D01*
X211151Y49252D01*
X211034Y49158D01*
X210952Y49065D01*
X210894Y48971D01*
X210858Y48889D01*
X210823Y48807D01*
X210812Y48749D01*
Y48702D01*
Y48690D01*
Y48596D01*
X210835Y48491D01*
X210847Y48409D01*
X210870Y48327D01*
X210894Y48257D01*
X210917Y48198D01*
X210929Y48163D01*
X210941Y48151D01*
X212966Y49639D01*
X212838Y49803D01*
X212697Y49943D01*
X212556Y50072D01*
X212428Y50177D01*
X212287Y50259D01*
X212147Y50341D01*
X212018Y50400D01*
X211901Y50447D01*
X211678Y50517D01*
X211584Y50540D01*
X211503Y50552D01*
X211444D01*
X211385Y50564D01*
D02*
G37*
G36*
X213423Y31699D02*
X211507D01*
X212615Y30657D01*
X213423Y31699D01*
D02*
G37*
G36*
X214547Y38655D02*
X214454Y38526D01*
X214348Y38420D01*
X214266Y38339D01*
X214184Y38268D01*
X214114Y38210D01*
X214055Y38175D01*
X214020Y38163D01*
X214008Y38151D01*
X213868Y38081D01*
X213727Y38034D01*
X213610Y37999D01*
X213517Y37975D01*
X213435Y37964D01*
X213364Y37952D01*
X213318D01*
X211467Y37987D01*
X211198Y37975D01*
X211081Y37964D01*
X210976Y37940D01*
X210894Y37929D01*
X210823Y37917D01*
X210776Y37905D01*
X210765D01*
X210578Y37835D01*
X210402Y37765D01*
X210332Y37729D01*
X210273Y37694D01*
X210238Y37683D01*
X210226Y37671D01*
Y37519D01*
X214442D01*
Y37694D01*
Y37847D01*
X214454Y38011D01*
X214465Y38163D01*
X214489Y38315D01*
X214512Y38456D01*
X214524Y38561D01*
X214547Y38631D01*
Y38643D01*
Y38655D01*
D02*
G37*
G36*
X213400Y37074D02*
X212287D01*
X212346Y37039D01*
X212392Y36992D01*
X212463Y36875D01*
X212486Y36828D01*
X212510Y36781D01*
X212521Y36758D01*
Y36746D01*
X212556Y36558D01*
X212580Y36465D01*
Y36383D01*
X212592Y36313D01*
Y36266D01*
Y36231D01*
Y36219D01*
X212580Y36020D01*
X212568Y35938D01*
X212556Y35856D01*
Y35797D01*
X212545Y35750D01*
X212533Y35727D01*
Y35715D01*
X212463Y35552D01*
X212381Y35423D01*
X212346Y35376D01*
X212311Y35341D01*
X212299Y35317D01*
X212287Y35306D01*
X213376Y35235D01*
X213282Y35376D01*
X213212Y35505D01*
X213189Y35563D01*
X213177Y35610D01*
X213165Y35633D01*
Y35645D01*
X213119Y35821D01*
X213107Y35985D01*
X213095Y36055D01*
Y36102D01*
Y36137D01*
Y36149D01*
X213107Y36348D01*
X213119Y36441D01*
X213130Y36512D01*
X213142Y36582D01*
X213154Y36629D01*
X213165Y36664D01*
Y36676D01*
X213236Y36840D01*
X213306Y36957D01*
X213341Y37003D01*
X213376Y37039D01*
X213388Y37062D01*
X213400Y37074D01*
D02*
G37*
G36*
X211901D02*
X210226D01*
X210238Y36793D01*
X210285Y36558D01*
X210332Y36348D01*
X210402Y36172D01*
X210460Y36043D01*
X210519Y35950D01*
X210566Y35891D01*
X210578Y35868D01*
X210648Y35786D01*
X210730Y35715D01*
X210929Y35598D01*
X211151Y35505D01*
X211374Y35446D01*
X211573Y35388D01*
X211666Y35376D01*
X211749Y35364D01*
X211807Y35352D01*
X211854Y35341D01*
X211901D01*
X211994Y35516D01*
X212065Y35657D01*
X212088Y35715D01*
X212111Y35762D01*
X212123Y35786D01*
Y35797D01*
X212158Y35950D01*
X212182Y36078D01*
X212193Y36137D01*
Y36184D01*
Y36207D01*
Y36219D01*
X212182Y36383D01*
X212158Y36523D01*
Y36582D01*
X212147Y36617D01*
X212135Y36641D01*
Y36652D01*
X212065Y36805D01*
X211994Y36933D01*
X211959Y36992D01*
X211924Y37039D01*
X211912Y37062D01*
X211901Y37074D01*
D02*
G37*
G36*
X213927Y49896D02*
X213470Y49521D01*
Y46617D01*
X214102Y46594D01*
X214910Y47636D01*
X213927Y49896D01*
D02*
G37*
G36*
X221466Y8566D02*
X221330Y8557D01*
X221222Y8537D01*
X221174D01*
X221144Y8527D01*
X221125Y8518D01*
X221115D01*
X220998Y8469D01*
X220910Y8420D01*
X220851Y8381D01*
X220842Y8371D01*
X220832D01*
X220744Y8293D01*
X220686Y8215D01*
X220647Y8156D01*
X220637Y8147D01*
Y8137D01*
X220588Y8020D01*
X220568Y7912D01*
X220559Y7864D01*
Y7824D01*
Y7805D01*
Y7795D01*
X220568Y7668D01*
X220598Y7551D01*
X220637Y7454D01*
X220676Y7376D01*
X220725Y7317D01*
X220764Y7278D01*
X220793Y7249D01*
X220803Y7239D01*
X220900Y7180D01*
X221008Y7132D01*
X221115Y7102D01*
X221222Y7083D01*
X221320Y7073D01*
X221398Y7063D01*
X221466D01*
Y8566D01*
D02*
G37*
G36*
X214465Y37074D02*
X213809D01*
X213704Y36910D01*
X213634Y36758D01*
X213610Y36711D01*
X213587Y36664D01*
X213575Y36641D01*
Y36629D01*
X213528Y36465D01*
X213505Y36313D01*
X213493Y36254D01*
Y36207D01*
Y36172D01*
Y36160D01*
X213505Y35973D01*
X213517Y35903D01*
X213528Y35833D01*
X213552Y35774D01*
X213563Y35727D01*
X213575Y35704D01*
Y35692D01*
X213646Y35528D01*
X213727Y35376D01*
X213763Y35317D01*
X213798Y35270D01*
X213809Y35235D01*
X213821Y35224D01*
X214852D01*
X214781Y35446D01*
X214723Y35657D01*
X214676Y35833D01*
X214641Y35973D01*
X214617Y36090D01*
X214594Y36172D01*
X214582Y36219D01*
Y36242D01*
X214535Y36523D01*
X214512Y36664D01*
X214500Y36793D01*
X214489Y36910D01*
X214477Y36992D01*
X214465Y37050D01*
Y37074D01*
D02*
G37*
G36*
X215191Y-10715D02*
X215004Y-10937D01*
X214828Y-11125D01*
X214664Y-11288D01*
X214524Y-11417D01*
X214418Y-11523D01*
X214325Y-11605D01*
X214278Y-11652D01*
X214254Y-11663D01*
X214090Y-11780D01*
X213938Y-11897D01*
X213798Y-11991D01*
X213669Y-12073D01*
X213563Y-12132D01*
X213481Y-12190D01*
X213435Y-12214D01*
X213411Y-12225D01*
X213353Y-12377D01*
X213306Y-12518D01*
X213294Y-12577D01*
X213282Y-12623D01*
X213271Y-12647D01*
Y-12659D01*
X213236Y-12822D01*
X213224Y-12963D01*
X213212Y-13022D01*
Y-13057D01*
Y-13080D01*
Y-13092D01*
X213224Y-13303D01*
X213236Y-13396D01*
X213259Y-13478D01*
X213271Y-13537D01*
X213294Y-13595D01*
X213306Y-13619D01*
Y-13631D01*
X213388Y-13818D01*
X213481Y-13970D01*
X213517Y-14040D01*
X213552Y-14087D01*
X213575Y-14122D01*
X213587Y-14134D01*
X213786Y-14017D01*
X213985Y-13900D01*
X214172Y-13783D01*
X214336Y-13677D01*
X214465Y-13584D01*
X214571Y-13513D01*
X214641Y-13467D01*
X214652Y-13443D01*
X214664D01*
X214606Y-13314D01*
X214571Y-13185D01*
X214535Y-13057D01*
X214524Y-12951D01*
X214512Y-12869D01*
X214500Y-12799D01*
Y-12752D01*
Y-12741D01*
X214512Y-12577D01*
X214524Y-12413D01*
X214547Y-12249D01*
X214571Y-12108D01*
X214606Y-11979D01*
X214629Y-11886D01*
X214641Y-11827D01*
X214652Y-11804D01*
X214723Y-11616D01*
X214805Y-11429D01*
X214887Y-11242D01*
X214980Y-11078D01*
X215062Y-10926D01*
X215133Y-10820D01*
X215156Y-10773D01*
X215179Y-10738D01*
X215191Y-10726D01*
Y-10715D01*
D02*
G37*
G36*
X213037Y-9333D02*
X212791Y-9415D01*
X212568Y-9473D01*
X212346Y-9520D01*
X212158Y-9544D01*
X211994Y-9567D01*
X211866Y-9579D01*
X211725D01*
X211772Y-9637D01*
X211819Y-9696D01*
X211877Y-9825D01*
X211901Y-9872D01*
X211924Y-9918D01*
X211936Y-9954D01*
Y-9965D01*
X211971Y-10164D01*
X211994Y-10246D01*
Y-10328D01*
X212006Y-10387D01*
Y-10434D01*
Y-10469D01*
Y-10481D01*
X211994Y-10680D01*
X211983Y-10773D01*
X211971Y-10855D01*
Y-10914D01*
X211959Y-10961D01*
X211947Y-10996D01*
Y-11007D01*
X211877Y-11195D01*
X211795Y-11347D01*
X211749Y-11417D01*
X211725Y-11464D01*
X211702Y-11499D01*
X211690Y-11511D01*
X211760Y-11523D01*
X211877D01*
X212123Y-11511D01*
X212369Y-11488D01*
X212592Y-11464D01*
X212791Y-11429D01*
X212966Y-11382D01*
X213083Y-11359D01*
X213142Y-11347D01*
X213165Y-11335D01*
X213189Y-11324D01*
X213200D01*
X213119Y-11230D01*
X213060Y-11136D01*
X213001Y-11043D01*
X212955Y-10961D01*
X212931Y-10890D01*
X212908Y-10832D01*
X212884Y-10797D01*
Y-10785D01*
X212826Y-10574D01*
X212802Y-10481D01*
X212791Y-10387D01*
X212779Y-10305D01*
Y-10246D01*
Y-10199D01*
Y-10188D01*
X212791Y-10024D01*
X212814Y-9872D01*
X212826Y-9813D01*
X212838Y-9766D01*
X212849Y-9731D01*
Y-9719D01*
X212908Y-9555D01*
X212966Y-9438D01*
X212990Y-9392D01*
X213013Y-9356D01*
X213037Y-9345D01*
Y-9333D01*
D02*
G37*
G36*
X212966Y-12401D02*
X212744Y-12506D01*
X212638Y-12553D01*
X212545Y-12588D01*
X212474Y-12612D01*
X212416Y-12623D01*
X212381Y-12635D01*
X212369D01*
X212147Y-12682D01*
X212041Y-12694D01*
X211936Y-12705D01*
X211854D01*
X211784Y-12717D01*
X211725D01*
X211807Y-12834D01*
X211854Y-12963D01*
X211877Y-13022D01*
X211889Y-13068D01*
X211901Y-13092D01*
Y-13104D01*
X211936Y-13291D01*
X211947Y-13385D01*
Y-13455D01*
X211959Y-13525D01*
Y-13572D01*
Y-13607D01*
Y-13619D01*
X211947Y-13806D01*
Y-13888D01*
X211936Y-13958D01*
X211924Y-14017D01*
Y-14064D01*
X211912Y-14087D01*
Y-14099D01*
X211866Y-14263D01*
X211795Y-14415D01*
X211772Y-14474D01*
X211749Y-14521D01*
X211725Y-14556D01*
Y-14567D01*
X211760D01*
X212006Y-14556D01*
X212264Y-14521D01*
X212510Y-14474D01*
X212732Y-14427D01*
X212931Y-14380D01*
X213013Y-14356D01*
X213083Y-14333D01*
X213142Y-14310D01*
X213189Y-14298D01*
X213212Y-14286D01*
X213224D01*
X213095Y-14099D01*
X213001Y-13935D01*
X212966Y-13853D01*
X212943Y-13794D01*
X212919Y-13759D01*
Y-13748D01*
X212861Y-13513D01*
X212838Y-13408D01*
X212826Y-13303D01*
X212814Y-13209D01*
Y-13139D01*
Y-13092D01*
Y-13080D01*
X212826Y-12940D01*
X212838Y-12811D01*
X212849Y-12764D01*
Y-12717D01*
X212861Y-12694D01*
Y-12682D01*
X212873Y-12612D01*
X212896Y-12553D01*
X212931Y-12460D01*
X212955Y-12413D01*
X212966Y-12401D01*
D02*
G37*
G36*
X210437Y-12530D02*
X210425D01*
X209488Y-13912D01*
X209887Y-14099D01*
X210074Y-14181D01*
X210238Y-14251D01*
X210378Y-14310D01*
X210495Y-14345D01*
X210566Y-14368D01*
X210578Y-14380D01*
X210589D01*
X210847Y-14450D01*
X210976Y-14485D01*
X211093Y-14509D01*
X211186Y-14521D01*
X211257Y-14532D01*
X211303Y-14544D01*
X211327D01*
X211409Y-14356D01*
X211444Y-14275D01*
X211467Y-14204D01*
X211491Y-14146D01*
X211503Y-14099D01*
X211514Y-14075D01*
Y-14064D01*
X211538Y-13912D01*
X211549Y-13771D01*
X211561Y-13713D01*
Y-13666D01*
Y-13631D01*
Y-13619D01*
X211549Y-13455D01*
X211538Y-13314D01*
X211526Y-13256D01*
Y-13221D01*
X211514Y-13197D01*
Y-13185D01*
X211467Y-13022D01*
X211397Y-12869D01*
X211374Y-12811D01*
X211350Y-12752D01*
X211327Y-12717D01*
Y-12705D01*
X211186Y-12694D01*
X211069Y-12682D01*
X210976Y-12670D01*
X210894Y-12659D01*
X210835Y-12647D01*
X210788D01*
X210765Y-12635D01*
X210753D01*
X210624Y-12612D01*
X210519Y-12577D01*
X210449Y-12541D01*
X210437Y-12530D01*
D02*
G37*
G36*
X212802Y-831D02*
X211620D01*
X211749Y-984D01*
X211830Y-1159D01*
X211901Y-1323D01*
X211947Y-1487D01*
X211971Y-1628D01*
X211983Y-1733D01*
X211994Y-1780D01*
Y-1815D01*
Y-1827D01*
Y-1839D01*
X211983Y-2014D01*
X211947Y-2155D01*
X211936Y-2213D01*
X211924Y-2260D01*
X211912Y-2283D01*
Y-2295D01*
X213095Y-1323D01*
X212802Y-831D01*
D02*
G37*
G36*
X214723Y-504D02*
X213388Y-1558D01*
X213727Y-2131D01*
X214945D01*
X214828Y-1956D01*
X214735Y-1780D01*
X214676Y-1604D01*
X214629Y-1440D01*
X214606Y-1312D01*
X214582Y-1194D01*
Y-1124D01*
Y-1113D01*
Y-1101D01*
X214594Y-984D01*
X214606Y-878D01*
X214617Y-831D01*
Y-796D01*
X214629Y-773D01*
Y-761D01*
X214652Y-644D01*
X214688Y-562D01*
X214711Y-515D01*
X214723Y-504D01*
D02*
G37*
G36*
X210484Y-9415D02*
X210472D01*
X209488Y-10808D01*
X209676Y-10914D01*
X209851Y-10996D01*
X210015Y-11078D01*
X210144Y-11136D01*
X210261Y-11183D01*
X210343Y-11218D01*
X210390Y-11230D01*
X210414Y-11242D01*
X210718Y-11347D01*
X210882Y-11394D01*
X211022Y-11429D01*
X211139Y-11452D01*
X211245Y-11476D01*
X211303Y-11499D01*
X211327D01*
X211432Y-11300D01*
X211467Y-11207D01*
X211503Y-11136D01*
X211526Y-11066D01*
X211538Y-11019D01*
X211549Y-10996D01*
Y-10984D01*
X211584Y-10820D01*
X211596Y-10668D01*
X211608Y-10609D01*
Y-10563D01*
Y-10527D01*
Y-10516D01*
X211596Y-10340D01*
X211584Y-10258D01*
X211573Y-10188D01*
Y-10129D01*
X211561Y-10082D01*
X211549Y-10059D01*
Y-10047D01*
X211491Y-9883D01*
X211421Y-9719D01*
X211385Y-9661D01*
X211350Y-9602D01*
X211339Y-9567D01*
X211327Y-9555D01*
X211151Y-9544D01*
X210987Y-9520D01*
X210847Y-9497D01*
X210718Y-9473D01*
X210613Y-9450D01*
X210542Y-9427D01*
X210484Y-9415D01*
D02*
G37*
G36*
X215226Y-8197D02*
X215086Y-8326D01*
X214945Y-8443D01*
X214805Y-8537D01*
X214688Y-8630D01*
X214582Y-8689D01*
X214500Y-8748D01*
X214454Y-8771D01*
X214430Y-8783D01*
X214102Y-8946D01*
X213950Y-9017D01*
X213798Y-9075D01*
X213681Y-9134D01*
X213575Y-9169D01*
X213517Y-9192D01*
X213493Y-9204D01*
X213400Y-9403D01*
X213364Y-9497D01*
X213329Y-9579D01*
X213306Y-9649D01*
X213294Y-9696D01*
X213282Y-9731D01*
Y-9743D01*
X213236Y-9930D01*
X213224Y-10012D01*
X213212Y-10094D01*
X213200Y-10153D01*
Y-10199D01*
Y-10223D01*
Y-10235D01*
X213212Y-10410D01*
X213247Y-10551D01*
X213259Y-10609D01*
X213282Y-10656D01*
X213294Y-10680D01*
Y-10691D01*
X213376Y-10867D01*
X213470Y-11031D01*
X213505Y-11101D01*
X213540Y-11160D01*
X213563Y-11195D01*
X213575Y-11207D01*
X213774Y-11113D01*
X213962Y-11019D01*
X214137Y-10926D01*
X214289Y-10843D01*
X214418Y-10762D01*
X214524Y-10703D01*
X214582Y-10656D01*
X214594Y-10644D01*
X214606D01*
X214582Y-10481D01*
X214559Y-10340D01*
Y-10282D01*
Y-10235D01*
Y-10211D01*
Y-10199D01*
X214571Y-10024D01*
X214582Y-9860D01*
X214606Y-9696D01*
X214629Y-9555D01*
X214664Y-9427D01*
X214688Y-9333D01*
X214699Y-9274D01*
X214711Y-9251D01*
X214781Y-9064D01*
X214852Y-8888D01*
X214945Y-8712D01*
X215027Y-8548D01*
X215097Y-8408D01*
X215168Y-8291D01*
X215215Y-8220D01*
X215226Y-8209D01*
Y-8197D01*
D02*
G37*
G36*
X214032Y17811D02*
X213868Y17600D01*
X213704Y17413D01*
X213552Y17249D01*
X213423Y17120D01*
X213318Y17015D01*
X213236Y16933D01*
X213189Y16886D01*
X213165Y16874D01*
X213083Y16804D01*
X213013Y16757D01*
X212884Y16675D01*
X212826Y16651D01*
X212791Y16640D01*
X212767Y16628D01*
X212755D01*
X212697Y16616D01*
X212615Y16605D01*
X212428Y16581D01*
X210086D01*
X209676Y16230D01*
X214863Y16183D01*
X214828Y16347D01*
X214793Y16511D01*
X214746Y16663D01*
X214699Y16792D01*
X214652Y16909D01*
X214617Y16991D01*
X214594Y17038D01*
X214582Y17061D01*
X214500Y17214D01*
X214407Y17354D01*
X214313Y17483D01*
X214231Y17588D01*
X214149Y17682D01*
X214090Y17752D01*
X214044Y17799D01*
X214032Y17811D01*
D02*
G37*
G36*
X221466Y29209D02*
X221330Y29199D01*
X221222Y29179D01*
X221174D01*
X221144Y29170D01*
X221125Y29160D01*
X221115D01*
X220998Y29111D01*
X220910Y29062D01*
X220851Y29023D01*
X220842Y29013D01*
X220832D01*
X220744Y28935D01*
X220686Y28857D01*
X220647Y28799D01*
X220637Y28789D01*
Y28779D01*
X220588Y28662D01*
X220568Y28555D01*
X220559Y28506D01*
Y28467D01*
Y28447D01*
Y28438D01*
X220568Y28311D01*
X220598Y28194D01*
X220637Y28096D01*
X220676Y28018D01*
X220725Y27959D01*
X220764Y27920D01*
X220793Y27891D01*
X220803Y27881D01*
X220900Y27823D01*
X221008Y27774D01*
X221115Y27745D01*
X221222Y27725D01*
X221320Y27715D01*
X221398Y27706D01*
X221466D01*
Y29209D01*
D02*
G37*
G36*
X221954Y19332D02*
X221749D01*
X221662Y19322D01*
X221574Y19312D01*
X221505Y19302D01*
X221437D01*
X221398Y19293D01*
X221369Y19283D01*
X221359D01*
X221203Y19234D01*
X221144Y19205D01*
X221086Y19175D01*
X221037Y19156D01*
X221008Y19136D01*
X220988Y19117D01*
X220978D01*
X220871Y19029D01*
X220793Y18941D01*
X220764Y18902D01*
X220744Y18873D01*
X220734Y18853D01*
Y18844D01*
X220686Y18717D01*
X220656Y18590D01*
X220647Y18531D01*
Y18492D01*
Y18463D01*
Y18453D01*
Y18365D01*
X220666Y18278D01*
X220676Y18209D01*
X220695Y18151D01*
X220715Y18102D01*
X220725Y18063D01*
X220744Y18043D01*
Y18034D01*
X220822Y17926D01*
X220900Y17838D01*
X220939Y17809D01*
X220969Y17789D01*
X220988Y17770D01*
X220998D01*
X221125Y17702D01*
X221252Y17653D01*
X221310Y17643D01*
X221349Y17633D01*
X221379Y17624D01*
X221388D01*
X221554Y17594D01*
X221632Y17584D01*
X221710D01*
X221769Y17575D01*
X221867D01*
X222062Y17584D01*
X222150Y17594D01*
X222228Y17604D01*
X222286Y17614D01*
X222335Y17624D01*
X222364Y17633D01*
X222374D01*
X222530Y17682D01*
X222589Y17702D01*
X222647Y17731D01*
X222696Y17751D01*
X222726Y17770D01*
X222745Y17780D01*
X222755Y17789D01*
X222852Y17877D01*
X222930Y17975D01*
X222960Y18014D01*
X222970Y18043D01*
X222989Y18063D01*
Y18072D01*
X223038Y18199D01*
X223057Y18326D01*
X223067Y18385D01*
Y18424D01*
Y18453D01*
Y18463D01*
Y18551D01*
X223057Y18639D01*
X223038Y18707D01*
X223018Y18766D01*
X223008Y18814D01*
X222989Y18853D01*
X222979Y18873D01*
Y18883D01*
X222901Y18990D01*
X222823Y19078D01*
X222764Y19127D01*
X222745Y19146D01*
X222735D01*
X222608Y19214D01*
X222481Y19253D01*
X222423Y19273D01*
X222384Y19283D01*
X222355Y19293D01*
X222345D01*
X222169Y19312D01*
X222091Y19322D01*
X222013D01*
X221954Y19332D01*
D02*
G37*
G36*
X211479Y28502D02*
X211947Y27085D01*
X212990D01*
X212545Y27952D01*
X211479Y28502D01*
D02*
G37*
G36*
X214676Y-22554D02*
X213927D01*
X213481Y-23010D01*
X213610Y-23174D01*
X213774Y-23303D01*
X213938Y-23397D01*
X214114Y-23479D01*
X214266Y-23537D01*
X214383Y-23572D01*
X214430Y-23584D01*
X214465Y-23596D01*
X214500D01*
X215004Y-22998D01*
X214676Y-22554D01*
D02*
G37*
G36*
X214489Y-17928D02*
X211690D01*
X211725Y-18010D01*
X211760Y-18092D01*
X211784Y-18162D01*
X211795Y-18174D01*
Y-18186D01*
X211830Y-18291D01*
X211877Y-18408D01*
X211994Y-18654D01*
X212041Y-18771D01*
X212088Y-18865D01*
X212111Y-18923D01*
X212123Y-18947D01*
X214957D01*
X214489Y-17928D01*
D02*
G37*
G36*
X220871Y33513D02*
X219407D01*
Y33044D01*
Y32927D01*
X219417Y32839D01*
X219427Y32791D01*
Y32771D01*
X219436Y32693D01*
X219446Y32634D01*
X219456Y32595D01*
Y32576D01*
X219485Y32488D01*
X219524Y32400D01*
X219563Y32342D01*
X219602Y32283D01*
X219641Y32244D01*
X219671Y32215D01*
X219690Y32205D01*
X219700Y32195D01*
X219768Y32156D01*
X219836Y32127D01*
X219983Y32088D01*
X220041D01*
X220090Y32078D01*
X220129D01*
X220256Y32088D01*
X220354Y32107D01*
X220393Y32117D01*
X220412Y32127D01*
X220432Y32137D01*
X220442D01*
X220529Y32186D01*
X220598Y32244D01*
X220647Y32293D01*
X220666Y32303D01*
Y32312D01*
X220734Y32400D01*
X220783Y32488D01*
X220803Y32527D01*
X220813Y32556D01*
X220822Y32576D01*
Y32586D01*
X220851Y32713D01*
X220861Y32839D01*
X220871Y32898D01*
Y32937D01*
Y32966D01*
Y32976D01*
Y33513D01*
D02*
G37*
G36*
X213563Y-22554D02*
X212428D01*
X211666Y-23303D01*
X212322Y-23900D01*
X213563Y-22554D01*
D02*
G37*
%LPD*%
D31*
X37075Y-87205D02*
G03*
X37075Y-87205I-500J0D01*
G01*
X100215Y-39953D02*
G03*
X100215Y-39953I-707J0D01*
G01*
X-269919Y25000D02*
G03*
X-269919Y25000I-707J0D01*
G01*
X-211232Y24051D02*
Y29169D01*
Y-1933D02*
Y5153D01*
X-259264Y19721D02*
Y49248D01*
Y-1933D02*
Y2791D01*
Y-1933D02*
X-211232D01*
X-259264Y49248D02*
X-211232D01*
X-73328Y-102409D02*
Y-90598D01*
X-90501Y-102409D02*
Y-90598D01*
X1750Y-74000D02*
X9250D01*
X-13250Y-63000D02*
X-5250D01*
X1750D02*
X9250D01*
X-13250Y-74000D02*
Y-63000D01*
Y-74000D02*
X-5250D01*
X36764Y-96862D02*
X79122D01*
X80709Y-95276D01*
X105118D01*
X40551Y-75748D02*
Y-74410D01*
X41417D01*
X51496Y-90158D02*
X52362D01*
Y-88819D01*
X40551Y-90158D02*
Y-88819D01*
Y-90158D02*
X41417D01*
X51496Y-74410D02*
X52362D01*
Y-75748D02*
Y-74410D01*
X104010Y-44894D02*
X111510D01*
X118510Y-55894D02*
X126510D01*
X104010D02*
X111510D01*
X126510D02*
Y-44894D01*
X118510D02*
X126510D01*
X126760Y-98961D02*
Y-70961D01*
X38583Y-67642D02*
X54331D01*
X38583Y-46532D02*
X54331D01*
X131500Y-59000D02*
X168000D01*
Y-108500D02*
Y-59000D01*
X131500Y-108500D02*
X168000D01*
X-281260Y29000D02*
Y58000D01*
X-272992Y29000D02*
Y58000D01*
D32*
X-151048Y-54445D02*
G03*
X-151048Y-61453I3504J-3504D01*
G01*
X-137151D02*
G03*
X-137230Y-54445I-3543J3465D01*
G01*
X21545Y-70948D02*
G03*
X28553Y-70948I3504J3504D01*
G01*
Y-57051D02*
G03*
X21545Y-57130I-3465J-3543D01*
G01*
X27027Y-81408D02*
G03*
X27027Y-74400I-3504J3504D01*
G01*
X13129D02*
G03*
X13208Y-81408I3543J-3465D01*
G01*
X62293Y-74660D02*
G03*
X69301Y-74660I3504J3504D01*
G01*
Y-60762D02*
G03*
X62293Y-60841I-3465J-3543D01*
G01*
X77471Y-80453D02*
G03*
X70463Y-80453I-3504J-3504D01*
G01*
Y-94351D02*
G03*
X77471Y-94272I3465J3543D01*
G01*
X-151048Y-61453D02*
X-137151D01*
X-151048Y-54445D02*
X-137230D01*
X28553Y-70948D02*
Y-57051D01*
X21545Y-70948D02*
Y-57130D01*
X13129Y-74400D02*
X27027D01*
X13208Y-81408D02*
X27027D01*
X69301Y-74660D02*
Y-60762D01*
X62293Y-74660D02*
Y-60841D01*
X70463Y-94351D02*
Y-80453D01*
X77471Y-94272D02*
Y-80453D01*
D86*
X-157108Y-78299D02*
Y-65701D01*
X-183092Y-78299D02*
Y-65701D01*
Y-78299D02*
X-157108D01*
X-183092Y-65701D02*
X-157108D01*
X-138306Y-91195D02*
Y-87258D01*
Y-91195D02*
X-135157D01*
X-126495D02*
Y-87258D01*
X-129645Y-91195D02*
X-126495D01*
X-94621Y-98509D02*
Y-96540D01*
X-106825Y-98509D02*
Y-96540D01*
Y-98509D02*
X-94621D01*
X-106825Y-96540D02*
X-94621D01*
X-66009Y-107951D02*
X-59316D01*
X-67781Y-106179D02*
X-66009Y-107951D01*
X-59316D02*
X-57545Y-106179D01*
X-67781Y-88660D02*
Y-78030D01*
X-57545Y-88660D02*
Y-78030D01*
X-67781D02*
X-57545D01*
X-67781Y-106179D02*
Y-96140D01*
X-57545Y-106179D02*
Y-96140D01*
X77559Y-61417D02*
X81496D01*
X77559Y-64567D02*
Y-61417D01*
Y-73228D02*
X81496D01*
X77559D02*
Y-70079D01*
X79528Y-49213D02*
Y-46063D01*
X77165D02*
X79528D01*
Y-57874D02*
Y-54724D01*
X77165Y-57874D02*
X79528D01*
X94488Y-49213D02*
Y-46063D01*
X92126D02*
X94488D01*
Y-57874D02*
Y-54724D01*
X92126Y-57874D02*
X94488D01*
X-284528Y-89803D02*
X-274528D01*
Y-49803D01*
X-284528Y-89803D02*
Y-49803D01*
X-274528D01*
X-229646Y57412D02*
Y61349D01*
Y57412D02*
X-226496D01*
X-217835D02*
Y61349D01*
X-220984Y57412D02*
X-217835D01*
X-197404Y57401D02*
X-194254D01*
Y59763D01*
X-206065Y57401D02*
X-202916D01*
X-206065D02*
Y59763D01*
D87*
X-208747Y63344D02*
G03*
X-214653Y63344I-2953J-2953D01*
G01*
Y54144D02*
G03*
X-208747Y54144I2953J2953D01*
G01*
X-273579Y400D02*
G03*
X-267673Y400I2953J2953D01*
G01*
Y9600D02*
G03*
X-273579Y9600I-2953J-2953D01*
G01*
X-280079Y400D02*
G03*
X-274173Y400I2953J2953D01*
G01*
Y9600D02*
G03*
X-280079Y9600I-2953J-2953D01*
G01*
X-218529Y-109310D02*
G03*
X-263602Y-109310I-22536J-115940D01*
G01*
X-193898Y-82946D02*
G03*
X-187992Y-82946I2953J2953D01*
G01*
Y-73747D02*
G03*
X-193898Y-73747I-2953J-2953D01*
G01*
X-175000Y-50269D02*
G03*
X-169094Y-50269I2953J2953D01*
G01*
Y-41069D02*
G03*
X-175000Y-41069I-2953J-2953D01*
G01*
X-161353Y-50600D02*
G03*
X-155447Y-50600I2953J2953D01*
G01*
Y-41400D02*
G03*
X-161353Y-41400I-2953J-2953D01*
G01*
X-107750Y-82874D02*
G03*
X-107750Y-88780I2953J-2953D01*
G01*
X-98550D02*
G03*
X-98550Y-82874I-2953J2953D01*
G01*
X21850Y-93576D02*
G03*
X27756Y-93576I2953J2953D01*
G01*
Y-84376D02*
G03*
X21850Y-84376I-2953J-2953D01*
G01*
X34843Y-84376D02*
G03*
X28937Y-84376I-2953J-2953D01*
G01*
Y-93576D02*
G03*
X34843Y-93576I2953J2953D01*
G01*
X49409Y-97762D02*
G03*
X43504Y-97762I-2953J-2953D01*
G01*
Y-106962D02*
G03*
X49409Y-106962I2953J2953D01*
G01*
X46975Y13976D02*
G03*
X46975Y8071I2953J-2953D01*
G01*
X56175D02*
G03*
X56175Y13976I-2953J2953D01*
G01*
X34770D02*
G03*
X34770Y8071I2953J-2953D01*
G01*
X43970D02*
G03*
X43970Y13976I-2953J2953D01*
G01*
X-213700Y58244D02*
X-209700D01*
X-213700Y59244D02*
X-209700D01*
X-214653Y54144D02*
Y63344D01*
X-208747Y54144D02*
Y63344D01*
X-272626Y5500D02*
X-268626D01*
X-272626Y4500D02*
X-268626D01*
X-267673Y400D02*
Y9600D01*
X-273579Y400D02*
Y9600D01*
X-279126Y5500D02*
X-275126D01*
X-279126Y4500D02*
X-275126D01*
X-274173Y400D02*
Y9600D01*
X-280079Y400D02*
Y9600D01*
X-218556Y-109435D02*
X-213556D01*
X-266056D02*
X-261895D01*
X-226706Y-52954D02*
X-215978D01*
X-214304D01*
X-268556Y-95435D02*
Y-93435D01*
Y-86435D02*
Y-63435D01*
X-213576Y-109454D02*
X-213556Y-109435D01*
X-208556Y-92935D02*
Y-66935D01*
X-192945Y-77846D02*
X-188945D01*
X-192945Y-78847D02*
X-188945D01*
X-187992Y-82946D02*
Y-73747D01*
X-193898Y-82946D02*
Y-73747D01*
X-174047Y-45169D02*
X-170047D01*
X-174047Y-46169D02*
X-170047D01*
X-169094Y-50269D02*
Y-41069D01*
X-175000Y-50269D02*
Y-41069D01*
X-160400Y-45500D02*
X-156400D01*
X-160400Y-46500D02*
X-156400D01*
X-155447Y-50600D02*
Y-41400D01*
X-161353Y-50600D02*
Y-41400D01*
X-102650Y-87827D02*
Y-83827D01*
X-103650Y-87827D02*
Y-83827D01*
X-107750Y-88780D02*
X-98550D01*
X-107750Y-82874D02*
X-98550D01*
X22803Y-88476D02*
X26803D01*
X22803Y-89476D02*
X26803D01*
X27756Y-93576D02*
Y-84376D01*
X21850Y-93576D02*
Y-84376D01*
X29890Y-89476D02*
X33890D01*
X29890Y-88476D02*
X33890D01*
X28937Y-93576D02*
Y-84376D01*
X34843Y-93576D02*
Y-84376D01*
X44457Y-102862D02*
X48457D01*
X44457Y-101862D02*
X48457D01*
X43504Y-106962D02*
Y-97762D01*
X49409Y-106962D02*
Y-97762D01*
X52075Y9024D02*
Y13024D01*
X51075Y9024D02*
Y13024D01*
X46975Y8071D02*
X56175D01*
X46975Y13976D02*
X56175D01*
X39870Y9024D02*
Y13024D01*
X38870Y9024D02*
Y13024D01*
X34770Y8071D02*
X43970D01*
X34770Y13976D02*
X43970D01*
D88*
X-183978Y-60780D02*
G03*
X-183978Y-60780I-492J0D01*
G01*
X-138995Y-84207D02*
G03*
X-138995Y-84207I-492J0D01*
G01*
X-93046Y-102249D02*
G03*
X-93046Y-102249I-492J0D01*
G01*
X85039Y-60236D02*
G03*
X85039Y-60236I-492J0D01*
G01*
X73721Y-59055D02*
G03*
X73721Y-59055I-492J0D01*
G01*
X88681D02*
G03*
X88681Y-59055I-492J0D01*
G01*
X-230335Y64400D02*
G03*
X-230335Y64400I-492J0D01*
G01*
X-206754Y63700D02*
G03*
X-206754Y63700I-492J0D01*
G01*
D89*
X-177974Y-69638D02*
G03*
X-177974Y-69638I-1181J0D01*
G01*
D91*
X-144894Y-60300D02*
Y-55570D01*
X-143494Y-60400D02*
Y-55570D01*
X22670Y-64794D02*
X27400D01*
X22670Y-63394D02*
X27500D01*
X20873Y-80283D02*
Y-75553D01*
X19473Y-80283D02*
Y-75453D01*
X63418Y-68505D02*
X68148D01*
X63418Y-67105D02*
X68248D01*
X71616Y-86608D02*
X76346D01*
X71516Y-88008D02*
X76346D01*
D92*
X119685Y2756D02*
X123622D01*
X121653Y787D02*
Y4724D01*
X-272376Y18500D02*
X-268126D01*
Y12500D02*
Y18500D01*
X-272376Y12500D02*
X-268126D01*
X-279126D02*
X-274876D01*
X-279126D02*
Y18500D01*
X-274876D01*
X-162354Y-51563D02*
Y-47313D01*
X-168354Y-51563D02*
X-162354D01*
X-168354D02*
Y-47313D01*
Y-44813D02*
Y-40563D01*
X-162354D01*
Y-44813D02*
Y-40563D01*
X-131427Y-74559D02*
X-127177D01*
Y-80559D02*
Y-74559D01*
X-131427Y-80559D02*
X-127177D01*
X-138178D02*
X-133927D01*
X-138178D02*
Y-74559D01*
X-133927D01*
X-122430Y-106937D02*
X-118179D01*
X-122430D02*
Y-100937D01*
X-118179D01*
X-115679D02*
X-111429D01*
Y-106937D02*
Y-100937D01*
X-115679Y-106937D02*
X-111429D01*
X-139359Y-107331D02*
X-135108D01*
X-139359D02*
Y-101331D01*
X-135108D01*
X-132608D02*
X-128358D01*
Y-107331D02*
Y-101331D01*
X-132608Y-107331D02*
X-128358D01*
X-122036Y-99457D02*
X-117785D01*
X-122036D02*
Y-93457D01*
X-117785D01*
X-115285D02*
X-111035D01*
Y-99457D02*
Y-93457D01*
X-115285Y-99457D02*
X-111035D01*
X24421Y-108118D02*
X28671D01*
X24421D02*
Y-102118D01*
X28671D01*
X31171D02*
X35422D01*
Y-108118D02*
Y-102118D01*
X31171Y-108118D02*
X35422D01*
X42764Y-107863D02*
Y-103612D01*
X36764Y-107863D02*
X42764D01*
X36764D02*
Y-103612D01*
Y-101112D02*
Y-96862D01*
X42764D01*
Y-101112D02*
Y-96862D01*
X56150Y-107863D02*
Y-103612D01*
X50150Y-107863D02*
X56150D01*
X50150D02*
Y-103612D01*
Y-101112D02*
Y-96862D01*
X56150D01*
Y-101112D02*
Y-96862D01*
X56842Y-101112D02*
Y-96862D01*
X62843D01*
Y-101112D02*
Y-96862D01*
Y-107863D02*
Y-103612D01*
X56842Y-107863D02*
X62843D01*
X56842D02*
Y-103612D01*
X63535Y-101112D02*
Y-96862D01*
X69535D01*
Y-101112D02*
Y-96862D01*
Y-107863D02*
Y-103612D01*
X63535Y-107863D02*
X69535D01*
X63535D02*
Y-103612D01*
X70228Y-101118D02*
Y-96868D01*
X76228D01*
Y-101118D02*
Y-96868D01*
Y-107869D02*
Y-103618D01*
X70228Y-107869D02*
X76228D01*
X70228D02*
Y-103618D01*
X57104Y-95126D02*
X61354D01*
X57104D02*
Y-89126D01*
X61354D01*
X63854D02*
X68105D01*
Y-95126D02*
Y-89126D01*
X63854Y-95126D02*
X68105D01*
X62354Y-49931D02*
Y-45681D01*
X68354D01*
Y-49931D02*
Y-45681D01*
Y-56682D02*
Y-52431D01*
X62354Y-56682D02*
X68354D01*
X62354D02*
Y-52431D01*
X94339Y-72430D02*
Y-68179D01*
X88339Y-72430D02*
X94339D01*
X88339D02*
Y-68179D01*
Y-65679D02*
Y-61429D01*
X94339D01*
Y-65679D02*
Y-61429D01*
X-232800Y56300D02*
Y60550D01*
X-238800Y56300D02*
X-232800D01*
X-238800D02*
Y60550D01*
Y63050D02*
Y67300D01*
X-232800D01*
Y63050D02*
Y67300D01*
X-190700Y62100D02*
Y66350D01*
X-184700D01*
Y62100D02*
Y66350D01*
Y55350D02*
Y59600D01*
X-190700Y55350D02*
X-184700D01*
X-190700D02*
Y59600D01*
X-5400Y-83500D02*
X-1150D01*
X-5400D02*
Y-77500D01*
X-1150D01*
X1350D02*
X5600D01*
Y-83500D02*
Y-77500D01*
X1350Y-83500D02*
X5600D01*
X-270260Y68350D02*
Y70350D01*
X-271259Y71349D01*
X-272259Y70350D01*
Y68350D01*
Y69850D01*
X-270260D01*
X-273259Y68350D02*
X-274259D01*
X-273759D01*
Y71349D01*
X-273259Y70850D01*
X125984Y-58025D02*
Y-61024D01*
X124485D01*
X123985Y-60524D01*
Y-60024D01*
X124485Y-59524D01*
X125984D01*
X124485D01*
X123985Y-59024D01*
Y-58524D01*
X124485Y-58025D01*
X125984D01*
X122985D02*
X120986D01*
X121985D01*
Y-61024D01*
X119986D02*
X118986D01*
X119486D01*
Y-58025D01*
X119986Y-58524D01*
X-218530Y62256D02*
X-219030Y62756D01*
Y63756D01*
X-218530Y64256D01*
X-216530D01*
X-216031Y63756D01*
Y62756D01*
X-216530Y62256D01*
X-218530Y61257D02*
X-219030Y60757D01*
Y59757D01*
X-218530Y59257D01*
X-218030D01*
X-217530Y59757D01*
Y60257D01*
Y59757D01*
X-217030Y59257D01*
X-216530D01*
X-216031Y59757D01*
Y60757D01*
X-216530Y61257D01*
X-173653Y-36477D02*
X-173153Y-35977D01*
X-172153D01*
X-171653Y-36477D01*
Y-38476D01*
X-172153Y-38976D01*
X-173153D01*
X-173653Y-38476D01*
X-174653Y-35977D02*
X-176652D01*
Y-36477D01*
X-174653Y-38476D01*
Y-38976D01*
X-156724Y-36871D02*
X-156224Y-36371D01*
X-155224D01*
X-154724Y-36871D01*
Y-38870D01*
X-155224Y-39370D01*
X-156224D01*
X-156724Y-38870D01*
X-157723D02*
X-158223Y-39370D01*
X-159223D01*
X-159723Y-38870D01*
Y-36871D01*
X-159223Y-36371D01*
X-158223D01*
X-157723Y-36871D01*
Y-37371D01*
X-158223Y-37871D01*
X-159723D01*
X-197775Y-76409D02*
X-198275Y-75909D01*
Y-74909D01*
X-197775Y-74410D01*
X-195775D01*
X-195276Y-74909D01*
Y-75909D01*
X-195775Y-76409D01*
X-195276Y-77408D02*
Y-78408D01*
Y-77908D01*
X-198275D01*
X-197775Y-77408D01*
Y-79908D02*
X-198275Y-80408D01*
Y-81407D01*
X-197775Y-81907D01*
X-195775D01*
X-195276Y-81407D01*
Y-80408D01*
X-195775Y-79908D01*
X-197775D01*
X-268929Y-1832D02*
X-268429Y-1332D01*
X-267429D01*
X-266929Y-1832D01*
Y-3831D01*
X-267429Y-4331D01*
X-268429D01*
X-268929Y-3831D01*
X-269928Y-4331D02*
X-270928D01*
X-270428D01*
Y-1332D01*
X-269928Y-1832D01*
X-272427Y-4331D02*
X-273427D01*
X-272927D01*
Y-1332D01*
X-272427Y-1832D01*
X18367Y-86645D02*
X17867Y-86145D01*
Y-85145D01*
X18367Y-84646D01*
X20366D01*
X20866Y-85145D01*
Y-86145D01*
X20366Y-86645D01*
X20866Y-87645D02*
Y-88644D01*
Y-88144D01*
X17867D01*
X18367Y-87645D01*
Y-90144D02*
X17867Y-90644D01*
Y-91643D01*
X18367Y-92143D01*
X18867D01*
X19367Y-91643D01*
X19866Y-92143D01*
X20366D01*
X20866Y-91643D01*
Y-90644D01*
X20366Y-90144D01*
X19866D01*
X19367Y-90644D01*
X18867Y-90144D01*
X18367D01*
X19367Y-90644D02*
Y-91643D01*
X86477Y-98456D02*
X85977Y-97956D01*
Y-96956D01*
X86477Y-96457D01*
X88477D01*
X88976Y-96956D01*
Y-97956D01*
X88477Y-98456D01*
X88976Y-99456D02*
Y-100455D01*
Y-99956D01*
X85977D01*
X86477Y-99456D01*
X88477Y-101955D02*
X88976Y-102455D01*
Y-103454D01*
X88477Y-103954D01*
X86477D01*
X85977Y-103454D01*
Y-102455D01*
X86477Y-101955D01*
X86977D01*
X87477Y-102455D01*
Y-103954D01*
X78997Y-81921D02*
X78497Y-81421D01*
Y-80421D01*
X78997Y-79921D01*
X80996D01*
X81496Y-80421D01*
Y-81421D01*
X80996Y-81921D01*
X81496Y-84920D02*
Y-82920D01*
X79497Y-84920D01*
X78997D01*
X78497Y-84420D01*
Y-83420D01*
X78997Y-82920D01*
Y-85919D02*
X78497Y-86419D01*
Y-87419D01*
X78997Y-87919D01*
X80996D01*
X81496Y-87419D01*
Y-86419D01*
X80996Y-85919D01*
X78997D01*
X70729Y-63023D02*
X70229Y-62523D01*
Y-61523D01*
X70729Y-61024D01*
X72729D01*
X73228Y-61523D01*
Y-62523D01*
X72729Y-63023D01*
X73228Y-66022D02*
Y-64023D01*
X71229Y-66022D01*
X70729D01*
X70229Y-65522D01*
Y-64522D01*
X70729Y-64023D01*
X73228Y-69021D02*
Y-67022D01*
X71229Y-69021D01*
X70729D01*
X70229Y-68521D01*
Y-67522D01*
X70729Y-67022D01*
X-285964Y6662D02*
X-286464Y7162D01*
Y8162D01*
X-285964Y8661D01*
X-283964D01*
X-283465Y8162D01*
Y7162D01*
X-283964Y6662D01*
X-283465Y3663D02*
Y5662D01*
X-285464Y3663D01*
X-285964D01*
X-286464Y4163D01*
Y5163D01*
X-285964Y5662D01*
Y2663D02*
X-286464Y2163D01*
Y1164D01*
X-285964Y664D01*
X-285464D01*
X-284964Y1164D01*
Y1664D01*
Y1164D01*
X-284464Y664D01*
X-283964D01*
X-283465Y1164D01*
Y2163D01*
X-283964Y2663D01*
X-90188Y-83328D02*
X-89688Y-82828D01*
X-88689D01*
X-88189Y-83328D01*
Y-85327D01*
X-88689Y-85827D01*
X-89688D01*
X-90188Y-85327D01*
X-93187Y-85827D02*
X-91188D01*
X-93187Y-83827D01*
Y-83328D01*
X-92687Y-82828D01*
X-91688D01*
X-91188Y-83328D01*
X-96186Y-82828D02*
X-94187D01*
Y-84327D01*
X-95187Y-83827D01*
X-95687D01*
X-96186Y-84327D01*
Y-85327D01*
X-95687Y-85827D01*
X-94687D01*
X-94187Y-85327D01*
X8131Y-78377D02*
X7631Y-77877D01*
Y-76878D01*
X8131Y-76378D01*
X10130D01*
X10630Y-76878D01*
Y-77877D01*
X10130Y-78377D01*
X10630Y-81376D02*
Y-79377D01*
X8631Y-81376D01*
X8131D01*
X7631Y-80876D01*
Y-79877D01*
X8131Y-79377D01*
X7631Y-82376D02*
Y-84375D01*
X8131D01*
X10130Y-82376D01*
X10630D01*
X54842Y19529D02*
X55342Y20029D01*
X56342D01*
X56842Y19529D01*
Y17530D01*
X56342Y17030D01*
X55342D01*
X54842Y17530D01*
X53843Y19529D02*
X53343Y20029D01*
X52343D01*
X51843Y19529D01*
Y19029D01*
X52343Y18529D01*
X52843D01*
X52343D01*
X51843Y18030D01*
Y17530D01*
X52343Y17030D01*
X53343D01*
X53843Y17530D01*
X50844Y19529D02*
X50344Y20029D01*
X49344D01*
X48844Y19529D01*
Y17530D01*
X49344Y17030D01*
X50344D01*
X50844Y17530D01*
Y19529D01*
X30572Y-77590D02*
X30072Y-77090D01*
Y-76090D01*
X30572Y-75590D01*
X32571D01*
X33071Y-76090D01*
Y-77090D01*
X32571Y-77590D01*
X30572Y-78590D02*
X30072Y-79089D01*
Y-80089D01*
X30572Y-80589D01*
X31071D01*
X31571Y-80089D01*
Y-79589D01*
Y-80089D01*
X32071Y-80589D01*
X32571D01*
X33071Y-80089D01*
Y-79089D01*
X32571Y-78590D01*
X33071Y-81589D02*
Y-82588D01*
Y-82089D01*
X30072D01*
X30572Y-81589D01*
X42667Y19548D02*
X43167Y20048D01*
X44166D01*
X44666Y19548D01*
Y17549D01*
X44166Y17049D01*
X43167D01*
X42667Y17549D01*
X41667Y19548D02*
X41167Y20048D01*
X40168D01*
X39668Y19548D01*
Y19048D01*
X40168Y18548D01*
X40667D01*
X40168D01*
X39668Y18048D01*
Y17549D01*
X40168Y17049D01*
X41167D01*
X41667Y17549D01*
X36669Y20048D02*
X38668D01*
Y18548D01*
X37668Y19048D01*
X37169D01*
X36669Y18548D01*
Y17549D01*
X37169Y17049D01*
X38168D01*
X38668Y17549D01*
X123985Y-40808D02*
X124485Y-40308D01*
X125484D01*
X125984Y-40808D01*
Y-42807D01*
X125484Y-43307D01*
X124485D01*
X123985Y-42807D01*
X122985Y-40808D02*
X122485Y-40308D01*
X121486D01*
X120986Y-40808D01*
Y-41308D01*
X121486Y-41808D01*
X121985D01*
X121486D01*
X120986Y-42307D01*
Y-42807D01*
X121486Y-43307D01*
X122485D01*
X122985Y-42807D01*
X119986Y-40308D02*
X117987D01*
Y-40808D01*
X119986Y-42807D01*
Y-43307D01*
X10599Y-58918D02*
X11099Y-58418D01*
X12099D01*
X12598Y-58918D01*
Y-60918D01*
X12099Y-61417D01*
X11099D01*
X10599Y-60918D01*
X9599Y-58918D02*
X9100Y-58418D01*
X8100D01*
X7600Y-58918D01*
Y-59418D01*
X8100Y-59918D01*
X8600D01*
X8100D01*
X7600Y-60418D01*
Y-60918D01*
X8100Y-61417D01*
X9100D01*
X9599Y-60918D01*
X6600D02*
X6101Y-61417D01*
X5101D01*
X4601Y-60918D01*
Y-58918D01*
X5101Y-58418D01*
X6101D01*
X6600Y-58918D01*
Y-59418D01*
X6101Y-59918D01*
X4601D01*
X27134Y-52225D02*
X27634Y-51725D01*
X28634D01*
X29134Y-52225D01*
Y-54225D01*
X28634Y-54724D01*
X27634D01*
X27134Y-54225D01*
X24635Y-54724D02*
Y-51725D01*
X26135Y-53225D01*
X24136D01*
X21136Y-54724D02*
X23136D01*
X21136Y-52725D01*
Y-52225D01*
X21636Y-51725D01*
X22636D01*
X23136Y-52225D01*
X-139401Y-62855D02*
X-138901Y-62355D01*
X-137901D01*
X-137402Y-62855D01*
Y-64855D01*
X-137901Y-65354D01*
X-138901D01*
X-139401Y-64855D01*
X-142400Y-62355D02*
X-140401D01*
Y-63855D01*
X-141400Y-63355D01*
X-141900D01*
X-142400Y-63855D01*
Y-64855D01*
X-141900Y-65354D01*
X-140900D01*
X-140401Y-64855D01*
X-143400Y-62855D02*
X-143900Y-62355D01*
X-144899D01*
X-145399Y-62855D01*
Y-64855D01*
X-144899Y-65354D01*
X-143900D01*
X-143400Y-64855D01*
Y-62855D01*
X-209480Y-46320D02*
X-208980Y-45820D01*
X-207980D01*
X-207480Y-46320D01*
Y-48319D01*
X-207980Y-48819D01*
X-208980D01*
X-209480Y-48319D01*
X-210479Y-48819D02*
Y-45820D01*
X-212479Y-48819D01*
Y-45820D01*
X-213478Y-48819D02*
X-214478D01*
X-213978D01*
Y-45820D01*
X-213478Y-46320D01*
X-56149Y-78740D02*
X-53150D01*
Y-80240D01*
X-53649Y-80739D01*
X-55649D01*
X-56149Y-80240D01*
Y-78740D01*
Y-83738D02*
X-55649Y-82739D01*
X-54649Y-81739D01*
X-53649D01*
X-53150Y-82239D01*
Y-83239D01*
X-53649Y-83738D01*
X-54149D01*
X-54649Y-83239D01*
Y-81739D01*
X19048Y-104755D02*
Y-103756D01*
Y-104255D01*
X21547D01*
X22047Y-103756D01*
Y-103256D01*
X21547Y-102756D01*
X22047Y-107754D02*
Y-105755D01*
X20048Y-107754D01*
X19548D01*
X19048Y-107255D01*
Y-106255D01*
X19548Y-105755D01*
X-72835Y-83221D02*
Y-86221D01*
X-74834D01*
X-75834D02*
X-76833D01*
X-76333D01*
Y-83221D01*
X-75834Y-83721D01*
X58130Y-40194D02*
Y-43193D01*
X56131D01*
X53132D02*
X55131D01*
X53132Y-41194D01*
Y-40694D01*
X53631Y-40194D01*
X54631D01*
X55131Y-40694D01*
X127710Y8268D02*
X130709D01*
Y6268D01*
X128209Y3269D02*
X127710Y3769D01*
Y4769D01*
X128209Y5269D01*
X128709D01*
X129209Y4769D01*
Y3769D01*
X129709Y3269D01*
X130209D01*
X130709Y3769D01*
Y4769D01*
X130209Y5269D01*
X130709Y2270D02*
Y1270D01*
Y1770D01*
X127710D01*
X128209Y2270D01*
X-274961Y-46654D02*
Y-43655D01*
X-276461D01*
X-276961Y-44155D01*
Y-45155D01*
X-276461Y-45655D01*
X-274961D01*
X-277960Y-46654D02*
X-278960D01*
X-278460D01*
Y-43655D01*
X-277960Y-44155D01*
X-272099Y-12048D02*
Y-9049D01*
X-273599D01*
X-274099Y-9549D01*
Y-10548D01*
X-273599Y-11048D01*
X-272099D01*
X-275098Y-9049D02*
Y-12048D01*
X-276098Y-11048D01*
X-277098Y-12048D01*
Y-9049D01*
X-278097Y-12048D02*
Y-9049D01*
X-279597D01*
X-280097Y-9549D01*
Y-10548D01*
X-279597Y-11048D01*
X-278097D01*
X-279097D02*
X-280097Y-12048D01*
X78709Y-42807D02*
Y-40808D01*
X79209Y-40308D01*
X80209D01*
X80709Y-40808D01*
Y-42807D01*
X80209Y-43307D01*
X79209D01*
X79709Y-42307D02*
X78709Y-43307D01*
X79209D02*
X78709Y-42807D01*
X75710Y-43307D02*
X77710D01*
X75710Y-41308D01*
Y-40808D01*
X76210Y-40308D01*
X77210D01*
X77710Y-40808D01*
X-122472Y-85327D02*
Y-83328D01*
X-121972Y-82828D01*
X-120972D01*
X-120472Y-83328D01*
Y-85327D01*
X-120972Y-85827D01*
X-121972D01*
X-121472Y-84827D02*
X-122472Y-85827D01*
X-121972D02*
X-122472Y-85327D01*
X-124971Y-85827D02*
Y-82828D01*
X-123471Y-84327D01*
X-125471D01*
X81072Y-76666D02*
Y-74666D01*
X81571Y-74166D01*
X82571D01*
X83071Y-74666D01*
Y-76666D01*
X82571Y-77165D01*
X81571D01*
X82071Y-76166D02*
X81072Y-77165D01*
X81571D02*
X81072Y-76666D01*
X78073Y-74166D02*
X80072D01*
Y-75666D01*
X79072Y-75166D01*
X78572D01*
X78073Y-75666D01*
Y-76666D01*
X78572Y-77165D01*
X79572D01*
X80072Y-76666D01*
X92489Y-42807D02*
Y-40808D01*
X92989Y-40308D01*
X93988D01*
X94488Y-40808D01*
Y-42807D01*
X93988Y-43307D01*
X92989D01*
X93489Y-42307D02*
X92489Y-43307D01*
X92989D02*
X92489Y-42807D01*
X89490Y-40308D02*
X90490Y-40808D01*
X91489Y-41808D01*
Y-42807D01*
X90989Y-43307D01*
X89990D01*
X89490Y-42807D01*
Y-42307D01*
X89990Y-41808D01*
X91489D01*
X-265748Y19685D02*
Y22684D01*
X-267248D01*
X-267747Y22184D01*
Y21185D01*
X-267248Y20685D01*
X-265748D01*
X-266748D02*
X-267747Y19685D01*
X-268747D02*
X-269747D01*
X-269247D01*
Y22684D01*
X-268747Y22184D01*
X70079Y-43701D02*
Y-40702D01*
X68579D01*
X68079Y-41202D01*
Y-42201D01*
X68579Y-42701D01*
X70079D01*
X69079D02*
X68079Y-43701D01*
X67080D02*
X66080D01*
X66580D01*
Y-40702D01*
X67080Y-41202D01*
X62581Y-43701D02*
X64581D01*
X62581Y-41701D01*
Y-41202D01*
X63081Y-40702D01*
X64081D01*
X64581Y-41202D01*
X-161811Y-39370D02*
Y-36371D01*
X-163311D01*
X-163810Y-36871D01*
Y-37871D01*
X-163311Y-38370D01*
X-161811D01*
X-162811D02*
X-163810Y-39370D01*
X-164810D02*
X-165810D01*
X-165310D01*
Y-36371D01*
X-164810Y-36871D01*
X-167309D02*
X-167809Y-36371D01*
X-168809D01*
X-169309Y-36871D01*
Y-37371D01*
X-168809Y-37871D01*
X-168309D01*
X-168809D01*
X-169309Y-38370D01*
Y-38870D01*
X-168809Y-39370D01*
X-167809D01*
X-167309Y-38870D01*
X-112205Y-92520D02*
Y-89521D01*
X-113704D01*
X-114204Y-90021D01*
Y-91020D01*
X-113704Y-91520D01*
X-112205D01*
X-113204D02*
X-114204Y-92520D01*
X-117203D02*
X-115204D01*
X-117203Y-90520D01*
Y-90021D01*
X-116703Y-89521D01*
X-115704D01*
X-115204Y-90021D01*
X-118203D02*
X-118703Y-89521D01*
X-119702D01*
X-120202Y-90021D01*
Y-92020D01*
X-119702Y-92520D01*
X-118703D01*
X-118203Y-92020D01*
Y-90021D01*
X96457Y-76772D02*
Y-73773D01*
X94957D01*
X94457Y-74273D01*
Y-75272D01*
X94957Y-75772D01*
X96457D01*
X95457D02*
X94457Y-76772D01*
X91458D02*
X93458D01*
X91458Y-74772D01*
Y-74273D01*
X91958Y-73773D01*
X92958D01*
X93458Y-74273D01*
X90459D02*
X89959Y-73773D01*
X88959D01*
X88459Y-74273D01*
Y-74772D01*
X88959Y-75272D01*
X89459D01*
X88959D01*
X88459Y-75772D01*
Y-76272D01*
X88959Y-76772D01*
X89959D01*
X90459Y-76272D01*
X32677Y-101181D02*
Y-98182D01*
X31178D01*
X30678Y-98682D01*
Y-99682D01*
X31178Y-100181D01*
X32677D01*
X31677D02*
X30678Y-101181D01*
X27679D02*
X29678D01*
X27679Y-99182D01*
Y-98682D01*
X28179Y-98182D01*
X29178D01*
X29678Y-98682D01*
X24680Y-98182D02*
X25679Y-98682D01*
X26679Y-99682D01*
Y-100681D01*
X26179Y-101181D01*
X25180D01*
X24680Y-100681D01*
Y-100181D01*
X25180Y-99682D01*
X26679D01*
X85039Y-96850D02*
X82040D01*
Y-98350D01*
X82540Y-98850D01*
X83540D01*
X84040Y-98350D01*
Y-96850D01*
Y-97850D02*
X85039Y-98850D01*
Y-101849D02*
Y-99849D01*
X83040Y-101849D01*
X82540D01*
X82040Y-101349D01*
Y-100349D01*
X82540Y-99849D01*
X82040Y-102848D02*
Y-104848D01*
X82540D01*
X84540Y-102848D01*
X85039D01*
X105118Y-96457D02*
X102119D01*
Y-97956D01*
X102619Y-98456D01*
X103619D01*
X104118Y-97956D01*
Y-96457D01*
Y-97456D02*
X105118Y-98456D01*
Y-101455D02*
Y-99456D01*
X103119Y-101455D01*
X102619D01*
X102119Y-100955D01*
Y-99956D01*
X102619Y-99456D01*
X104618Y-102455D02*
X105118Y-102955D01*
Y-103954D01*
X104618Y-104454D01*
X102619D01*
X102119Y-103954D01*
Y-102955D01*
X102619Y-102455D01*
X103119D01*
X103619Y-102955D01*
Y-104454D01*
X-140945Y-106299D02*
Y-103300D01*
X-142444D01*
X-142944Y-103800D01*
Y-104800D01*
X-142444Y-105299D01*
X-140945D01*
X-141945D02*
X-142944Y-106299D01*
X-143944Y-103800D02*
X-144444Y-103300D01*
X-145443D01*
X-145943Y-103800D01*
Y-104300D01*
X-145443Y-104800D01*
X-144944D01*
X-145443D01*
X-145943Y-105299D01*
Y-105799D01*
X-145443Y-106299D01*
X-144444D01*
X-143944Y-105799D01*
X-146943Y-103800D02*
X-147443Y-103300D01*
X-148442D01*
X-148942Y-103800D01*
Y-105799D01*
X-148442Y-106299D01*
X-147443D01*
X-146943Y-105799D01*
Y-103800D01*
X101181Y-96457D02*
X98182D01*
Y-97956D01*
X98682Y-98456D01*
X99682D01*
X100181Y-97956D01*
Y-96457D01*
Y-97456D02*
X101181Y-98456D01*
X98682Y-99456D02*
X98182Y-99956D01*
Y-100955D01*
X98682Y-101455D01*
X99182D01*
X99682Y-100955D01*
Y-100455D01*
Y-100955D01*
X100181Y-101455D01*
X100681D01*
X101181Y-100955D01*
Y-99956D01*
X100681Y-99456D01*
X101181Y-102455D02*
Y-103454D01*
Y-102955D01*
X98182D01*
X98682Y-102455D01*
X92913Y-96457D02*
X89914D01*
Y-97956D01*
X90414Y-98456D01*
X91414D01*
X91914Y-97956D01*
Y-96457D01*
Y-97456D02*
X92913Y-98456D01*
X90414Y-99456D02*
X89914Y-99956D01*
Y-100955D01*
X90414Y-101455D01*
X90914D01*
X91414Y-100955D01*
Y-100455D01*
Y-100955D01*
X91914Y-101455D01*
X92414D01*
X92913Y-100955D01*
Y-99956D01*
X92414Y-99456D01*
X92913Y-104454D02*
Y-102455D01*
X90914Y-104454D01*
X90414D01*
X89914Y-103954D01*
Y-102955D01*
X90414Y-102455D01*
X68110Y-87795D02*
Y-84796D01*
X66611D01*
X66111Y-85296D01*
Y-86296D01*
X66611Y-86796D01*
X68110D01*
X67111D02*
X66111Y-87795D01*
X65111Y-85296D02*
X64611Y-84796D01*
X63612D01*
X63112Y-85296D01*
Y-85796D01*
X63612Y-86296D01*
X64112D01*
X63612D01*
X63112Y-86796D01*
Y-87295D01*
X63612Y-87795D01*
X64611D01*
X65111Y-87295D01*
X62112Y-85296D02*
X61612Y-84796D01*
X60613D01*
X60113Y-85296D01*
Y-85796D01*
X60613Y-86296D01*
X61112D01*
X60613D01*
X60113Y-86796D01*
Y-87295D01*
X60613Y-87795D01*
X61612D01*
X62112Y-87295D01*
X-123622Y-98425D02*
X-126621D01*
Y-99925D01*
X-126121Y-100425D01*
X-125122D01*
X-124622Y-99925D01*
Y-98425D01*
Y-99425D02*
X-123622Y-100425D01*
X-126121Y-101424D02*
X-126621Y-101924D01*
Y-102924D01*
X-126121Y-103424D01*
X-125621D01*
X-125122Y-102924D01*
Y-102424D01*
Y-102924D01*
X-124622Y-103424D01*
X-124122D01*
X-123622Y-102924D01*
Y-101924D01*
X-124122Y-101424D01*
X-126121Y-104423D02*
X-126621Y-104923D01*
Y-105923D01*
X-126121Y-106423D01*
X-125621D01*
X-125122Y-105923D01*
X-124622Y-106423D01*
X-124122D01*
X-123622Y-105923D01*
Y-104923D01*
X-124122Y-104423D01*
X-124622D01*
X-125122Y-104923D01*
X-125621Y-104423D01*
X-126121D01*
X-125122Y-104923D02*
Y-105923D01*
X-130709Y-72835D02*
Y-69836D01*
X-132208D01*
X-132708Y-70336D01*
Y-71335D01*
X-132208Y-71835D01*
X-130709D01*
X-131708D02*
X-132708Y-72835D01*
X-133708Y-70336D02*
X-134207Y-69836D01*
X-135207D01*
X-135707Y-70336D01*
Y-70835D01*
X-135207Y-71335D01*
X-134707D01*
X-135207D01*
X-135707Y-71835D01*
Y-72335D01*
X-135207Y-72835D01*
X-134207D01*
X-133708Y-72335D01*
X-136707D02*
X-137207Y-72835D01*
X-138206D01*
X-138706Y-72335D01*
Y-70336D01*
X-138206Y-69836D01*
X-137207D01*
X-136707Y-70336D01*
Y-70835D01*
X-137207Y-71335D01*
X-138706D01*
X97244Y-96457D02*
X94245D01*
Y-97956D01*
X94745Y-98456D01*
X95745D01*
X96244Y-97956D01*
Y-96457D01*
Y-97456D02*
X97244Y-98456D01*
Y-100955D02*
X94245D01*
X95745Y-99456D01*
Y-101455D01*
X94745Y-102455D02*
X94245Y-102955D01*
Y-103954D01*
X94745Y-104454D01*
X96744D01*
X97244Y-103954D01*
Y-102955D01*
X96744Y-102455D01*
X94745D01*
X-154967Y-66142D02*
X-152468D01*
X-151969Y-66642D01*
Y-67641D01*
X-152468Y-68141D01*
X-154967D01*
X-151969Y-69141D02*
Y-70140D01*
Y-69641D01*
X-154967D01*
X-154468Y-69141D01*
X-251969Y54180D02*
Y51681D01*
X-252468Y51181D01*
X-253468D01*
X-253968Y51681D01*
Y54180D01*
X-256967Y51181D02*
X-254967D01*
X-256967Y53180D01*
Y53680D01*
X-256467Y54180D01*
X-255467D01*
X-254967Y53680D01*
X33615Y-69685D02*
X36114D01*
X36614Y-70185D01*
Y-71185D01*
X36114Y-71684D01*
X33615D01*
X34115Y-72684D02*
X33615Y-73184D01*
Y-74184D01*
X34115Y-74683D01*
X34615D01*
X35115Y-74184D01*
X35614Y-74683D01*
X36114D01*
X36614Y-74184D01*
Y-73184D01*
X36114Y-72684D01*
X35614D01*
X35115Y-73184D01*
X34615Y-72684D01*
X34115D01*
X35115Y-73184D02*
Y-74184D01*
X-91732Y-106056D02*
Y-108555D01*
X-92232Y-109055D01*
X-93232D01*
X-93732Y-108555D01*
Y-106056D01*
X-94731Y-108555D02*
X-95231Y-109055D01*
X-96231D01*
X-96731Y-108555D01*
Y-106556D01*
X-96231Y-106056D01*
X-95231D01*
X-94731Y-106556D01*
Y-107056D01*
X-95231Y-107556D01*
X-96731D01*
X131890Y107330D02*
Y104831D01*
X131390Y104331D01*
X130390D01*
X129890Y104831D01*
Y107330D01*
X128891Y104331D02*
X127891D01*
X128391D01*
Y107330D01*
X128891Y106830D01*
X126391Y104331D02*
X125392D01*
X125892D01*
Y107330D01*
X126391Y106830D01*
X232283Y92520D02*
Y95519D01*
X230784D01*
X230284Y95019D01*
Y94019D01*
X230784Y93519D01*
X232283D01*
X231284D02*
X230284Y92520D01*
X-192913Y94731D02*
Y91732D01*
X-194913D01*
X-196493Y69905D02*
Y71905D01*
X-195993Y72404D01*
X-194993D01*
X-194494Y71905D01*
Y69905D01*
X-194993Y69406D01*
X-195993D01*
X-195493Y70405D02*
X-196493Y69406D01*
X-195993D02*
X-196493Y69905D01*
X-197493Y71905D02*
X-197993Y72404D01*
X-198992D01*
X-199492Y71905D01*
Y71405D01*
X-198992Y70905D01*
X-198492D01*
X-198992D01*
X-199492Y70405D01*
Y69905D01*
X-198992Y69406D01*
X-197993D01*
X-197493Y69905D01*
X-220013Y69949D02*
Y71948D01*
X-219514Y72448D01*
X-218514D01*
X-218014Y71948D01*
Y69949D01*
X-218514Y69449D01*
X-219514D01*
X-219014Y70448D02*
X-220013Y69449D01*
X-219514D02*
X-220013Y69949D01*
X-221013Y72448D02*
X-223013D01*
Y71948D01*
X-221013Y69949D01*
Y69449D01*
X5166Y-74251D02*
Y-71252D01*
X3667D01*
X3167Y-71752D01*
Y-72752D01*
X3667Y-73251D01*
X5166D01*
X4166D02*
X3167Y-74251D01*
X2167Y-73751D02*
X1667Y-74251D01*
X668D01*
X168Y-73751D01*
Y-71752D01*
X668Y-71252D01*
X1667D01*
X2167Y-71752D01*
Y-72252D01*
X1667Y-72752D01*
X168D01*
X-233197Y70520D02*
Y73519D01*
X-234697D01*
X-235197Y73019D01*
Y72019D01*
X-234697Y71519D01*
X-233197D01*
X-234197D02*
X-235197Y70520D01*
X-238196D02*
X-236196D01*
X-238196Y72519D01*
Y73019D01*
X-237696Y73519D01*
X-236696D01*
X-236196Y73019D01*
X-241195Y70520D02*
X-239195D01*
X-241195Y72519D01*
Y73019D01*
X-240695Y73519D01*
X-239695D01*
X-239195Y73019D01*
X-185134Y69549D02*
Y72548D01*
X-186633D01*
X-187133Y72048D01*
Y71048D01*
X-186633Y70548D01*
X-185134D01*
X-186134D02*
X-187133Y69549D01*
X-189632D02*
Y72548D01*
X-188133Y71048D01*
X-190132D01*
X-191132Y69549D02*
X-192132D01*
X-191632D01*
Y72548D01*
X-191132Y72048D01*
X133827Y-50650D02*
X134327Y-50151D01*
X135327D01*
X135827Y-50650D01*
Y-51150D01*
X135327Y-51650D01*
X134327D01*
X133827Y-52150D01*
Y-52650D01*
X134327Y-53150D01*
X135327D01*
X135827Y-52650D01*
X132828Y-50151D02*
Y-50650D01*
X131828Y-51650D01*
X130828Y-50650D01*
Y-50151D01*
X131828Y-51650D02*
Y-53150D01*
X127829Y-50650D02*
X128329Y-50151D01*
X129329D01*
X129829Y-50650D01*
Y-51150D01*
X129329Y-51650D01*
X128329D01*
X127829Y-52150D01*
Y-52650D01*
X128329Y-53150D01*
X129329D01*
X129829Y-52650D01*
D94*
X11250Y-68475D02*
D03*
X102009Y-50419D02*
D03*
D155*
X-17520Y-112370D02*
X17520D01*
Y-90323D01*
X-17520Y-112370D02*
Y-90126D01*
D156*
X-172047Y26772D02*
Y109055D01*
Y26772D02*
X-164173Y18898D01*
Y-34646D02*
Y18898D01*
X103543Y-34646D02*
X115354D01*
Y18898D01*
X123228Y26772D01*
Y109055D01*
X-164173Y-34646D02*
X-152362D01*
X-172047Y109055D02*
X123228D01*
X-221654Y78835D02*
X-203543D01*
X-219291Y98716D02*
Y112299D01*
X-205906Y99110D02*
Y112299D01*
X-224409Y92614D02*
Y98716D01*
X-200787Y92614D02*
Y98716D01*
X-224409D02*
X-200787D01*
X-219291Y108362D02*
X-205906D01*
X-219291Y112299D02*
X-205906D01*
X205906D02*
X219291D01*
X205906Y108362D02*
X219291D01*
X200787Y98716D02*
X224409D01*
Y92614D02*
Y98716D01*
X200787Y92614D02*
Y98716D01*
X219291Y99110D02*
Y112299D01*
X205906Y98716D02*
Y112299D01*
X203543Y78835D02*
X221654D01*
D157*
X-283465Y-25197D02*
D03*
M02*
