%FSLAX25Y25*%
%MOIN*%
G70*
G01*
G75*
G04 Layer_Color=2752767*
%ADD10R,0.04331X0.03937*%
%ADD11R,0.05000X0.04000*%
%ADD12R,0.03937X0.02756*%
%ADD13R,0.04000X0.03500*%
%ADD14R,0.04000X0.05000*%
%ADD15R,0.02756X0.03937*%
%ADD16R,0.03500X0.04000*%
%ADD17R,0.05906X0.04724*%
%ADD18R,0.06496X0.06299*%
%ADD19O,0.07874X0.02362*%
%ADD20O,0.06693X0.01378*%
%ADD21R,0.03543X0.02559*%
%ADD22C,0.06063*%
%ADD23R,0.06299X0.06496*%
%ADD24R,0.03347X0.02362*%
%ADD25R,0.02362X0.03347*%
%ADD26R,0.18504X0.07874*%
%ADD27R,0.01575X0.03937*%
%ADD28R,0.01181X0.04724*%
%ADD29R,0.03937X0.04331*%
%ADD30R,0.10827X0.03937*%
%ADD31C,0.01000*%
%ADD32C,0.00700*%
%ADD33C,0.01200*%
%ADD34C,0.06000*%
%ADD35C,0.02000*%
%ADD36C,0.04000*%
%ADD37C,0.03000*%
%ADD38R,0.18110X0.12598*%
%ADD39R,0.27559X0.09055*%
%ADD40R,0.27953X0.09449*%
%ADD41R,0.11417X0.12992*%
%ADD42R,0.05906X0.07874*%
%ADD43R,0.05906X0.05906*%
%ADD44C,0.05906*%
%ADD45C,0.11811*%
%ADD46C,0.07874*%
%ADD47C,0.02400*%
%ADD48C,0.06693*%
%ADD49C,0.04724*%
%ADD50C,0.05512*%
%ADD51C,0.03937*%
%ADD52C,0.04000*%
%ADD53R,0.05000X0.12000*%
%ADD54O,0.09843X0.05906*%
%ADD55R,0.07677X0.05512*%
%ADD56R,0.03150X0.06299*%
%ADD57R,0.03347X0.06299*%
%ADD58R,0.06299X0.13780*%
%ADD59R,0.05906X0.12205*%
%ADD60R,0.05512X0.13780*%
%ADD61R,0.04724X0.12205*%
%ADD62O,0.01378X0.06693*%
%ADD63R,0.02559X0.04331*%
%ADD64R,0.14567X0.05906*%
%ADD65R,0.07087X0.09449*%
%ADD66R,0.07087X0.07480*%
%ADD67R,0.01575X0.05906*%
%ADD68R,0.00984X0.02756*%
%ADD69R,0.05512X0.00984*%
%ADD70R,0.02756X0.00984*%
G04:AMPARAMS|DCode=71|XSize=27.56mil|YSize=9.84mil|CornerRadius=3.69mil|HoleSize=0mil|Usage=FLASHONLY|Rotation=0.000|XOffset=0mil|YOffset=0mil|HoleType=Round|Shape=RoundedRectangle|*
%AMROUNDEDRECTD71*
21,1,0.02756,0.00246,0,0,0.0*
21,1,0.02018,0.00984,0,0,0.0*
1,1,0.00738,0.01009,-0.00123*
1,1,0.00738,-0.01009,-0.00123*
1,1,0.00738,-0.01009,0.00123*
1,1,0.00738,0.01009,0.00123*
%
%ADD71ROUNDEDRECTD71*%
%ADD72R,0.04724X0.02362*%
%ADD73R,0.13780X0.04724*%
%ADD74R,0.13386X0.07874*%
%ADD75R,0.01378X0.11811*%
%ADD76R,0.11811X0.12598*%
%ADD77R,0.07874X0.18504*%
%ADD78R,0.07874X0.05512*%
%ADD79R,0.05512X0.02362*%
%ADD80R,0.05512X0.02953*%
%ADD81R,0.03150X0.05118*%
%ADD82R,0.02362X0.04724*%
%ADD83R,0.06071X0.06000*%
%ADD84R,0.06000X0.06000*%
%ADD85C,0.01258*%
%ADD86C,0.00787*%
%ADD87C,0.00500*%
%ADD88C,0.00984*%
%ADD89C,0.02362*%
%ADD90C,0.00780*%
%ADD91C,0.00600*%
%ADD92C,0.00800*%
%ADD93R,0.12050X0.04000*%
%ADD94R,0.04000X0.12050*%
%ADD95R,0.07480X0.11811*%
%ADD96R,0.11811X0.07480*%
%ADD97R,0.05131X0.04737*%
%ADD98R,0.05800X0.04800*%
%ADD99R,0.04737X0.03556*%
%ADD100R,0.04800X0.04300*%
%ADD101R,0.04800X0.05800*%
%ADD102R,0.03556X0.04737*%
%ADD103R,0.04300X0.04800*%
%ADD104R,0.06706X0.05524*%
%ADD105R,0.07296X0.07099*%
%ADD106O,0.08674X0.03162*%
%ADD107O,0.07493X0.02178*%
%ADD108R,0.04343X0.03359*%
%ADD109C,0.06863*%
%ADD110R,0.07099X0.07296*%
%ADD111R,0.04147X0.03162*%
%ADD112R,0.03162X0.04147*%
%ADD113R,0.19304X0.08674*%
%ADD114R,0.02375X0.04737*%
%ADD115R,0.01981X0.05524*%
%ADD116R,0.04737X0.05131*%
%ADD117R,0.11627X0.04737*%
%ADD118R,0.06706X0.08674*%
%ADD119R,0.06706X0.06706*%
%ADD120C,0.06706*%
%ADD121C,0.12611*%
%ADD122C,0.08674*%
%ADD123R,0.05800X0.12800*%
%ADD124O,0.10642X0.06706*%
%ADD125R,0.08477X0.06312*%
%ADD126R,0.03950X0.07099*%
%ADD127R,0.04147X0.07099*%
%ADD128R,0.07099X0.14579*%
%ADD129R,0.06706X0.13005*%
%ADD130R,0.06312X0.14579*%
%ADD131R,0.05524X0.13005*%
%ADD132O,0.02178X0.07493*%
%ADD133R,0.03359X0.05131*%
%ADD134R,0.15367X0.06706*%
%ADD135R,0.07887X0.10249*%
%ADD136R,0.07887X0.08280*%
%ADD137R,0.02375X0.06706*%
%ADD138R,0.01784X0.03556*%
%ADD139R,0.06312X0.01784*%
%ADD140R,0.03556X0.01784*%
G04:AMPARAMS|DCode=141|XSize=35.56mil|YSize=17.84mil|CornerRadius=7.69mil|HoleSize=0mil|Usage=FLASHONLY|Rotation=0.000|XOffset=0mil|YOffset=0mil|HoleType=Round|Shape=RoundedRectangle|*
%AMROUNDEDRECTD141*
21,1,0.03556,0.00246,0,0,0.0*
21,1,0.02018,0.01784,0,0,0.0*
1,1,0.01538,0.01009,-0.00123*
1,1,0.01538,-0.01009,-0.00123*
1,1,0.01538,-0.01009,0.00123*
1,1,0.01538,0.01009,0.00123*
%
%ADD141ROUNDEDRECTD141*%
%ADD142R,0.05524X0.03162*%
%ADD143R,0.14579X0.05524*%
%ADD144R,0.14186X0.08674*%
%ADD145R,0.02178X0.12611*%
%ADD146R,0.12611X0.13398*%
%ADD147R,0.08674X0.19304*%
%ADD148R,0.08674X0.06312*%
%ADD149R,0.06312X0.03162*%
%ADD150R,0.06312X0.03753*%
%ADD151R,0.03950X0.05918*%
%ADD152R,0.03162X0.05524*%
%ADD153R,0.06871X0.06800*%
%ADD154R,0.06800X0.06800*%
%ADD155C,0.00598*%
%ADD156C,0.01969*%
%ADD157R,0.04724X0.07874*%
%ADD158C,0.00394*%
%ADD159C,0.00492*%
%ADD160C,0.00667*%
%ADD161C,0.00400*%
%ADD162C,0.01600*%
%ADD163C,0.00467*%
D31*
X377388Y17998D02*
X378387Y18998D01*
X380387D01*
X381386Y17998D01*
Y16999D01*
X380387Y15999D01*
X379387D01*
X380387D01*
X381386Y14999D01*
Y14000D01*
X380387Y13000D01*
X378387D01*
X377388Y14000D01*
X383386Y17998D02*
X384385Y18998D01*
X386385D01*
X387384Y17998D01*
Y16999D01*
X386385Y15999D01*
X385385D01*
X386385D01*
X387384Y14999D01*
Y14000D01*
X386385Y13000D01*
X384385D01*
X383386Y14000D01*
X389384Y18998D02*
X393382D01*
Y17998D01*
X389384Y14000D01*
Y13000D01*
X446969D02*
X448968D01*
X447969D01*
Y18998D01*
X446969Y17998D01*
X455966Y13000D02*
X451967D01*
X455966Y16999D01*
Y17998D01*
X454966Y18998D01*
X452967D01*
X451967Y17998D01*
X457965Y13000D02*
Y16999D01*
X458965D01*
X459965Y15999D01*
Y13000D01*
Y15999D01*
X460964Y16999D01*
X461964Y15999D01*
Y13000D01*
X463963D02*
X465963D01*
X464963D01*
Y16999D01*
X463963D01*
X468962Y13000D02*
X470961D01*
X469962D01*
Y18998D01*
X468962D01*
X481958Y13000D02*
X479958Y14999D01*
Y16999D01*
X481958Y18998D01*
X484957Y17998D02*
X485956Y18998D01*
X487956D01*
X488955Y17998D01*
Y14000D01*
X487956Y13000D01*
X485956D01*
X484957Y14000D01*
Y17998D01*
X490955Y13000D02*
Y14000D01*
X491954D01*
Y13000D01*
X490955D01*
X495953Y17998D02*
X496953Y18998D01*
X498952D01*
X499952Y17998D01*
Y16999D01*
X498952Y15999D01*
X497952D01*
X498952D01*
X499952Y14999D01*
Y14000D01*
X498952Y13000D01*
X496953D01*
X495953Y14000D01*
X501951Y17998D02*
X502951Y18998D01*
X504950D01*
X505950Y17998D01*
Y14000D01*
X504950Y13000D01*
X502951D01*
X501951Y14000D01*
Y17998D01*
X510948Y13000D02*
Y18998D01*
X507949Y15999D01*
X511948D01*
X513947Y17998D02*
X514947Y18998D01*
X516946D01*
X517946Y17998D01*
Y16999D01*
X516946Y15999D01*
X517946Y14999D01*
Y14000D01*
X516946Y13000D01*
X514947D01*
X513947Y14000D01*
Y14999D01*
X514947Y15999D01*
X513947Y16999D01*
Y17998D01*
X514947Y15999D02*
X516946D01*
X519945Y13000D02*
Y16999D01*
X520945D01*
X521945Y15999D01*
Y13000D01*
Y15999D01*
X522944Y16999D01*
X523944Y15999D01*
Y13000D01*
X525943D02*
Y16999D01*
X526943D01*
X527943Y15999D01*
Y13000D01*
Y15999D01*
X528942Y16999D01*
X529942Y15999D01*
Y13000D01*
X531941D02*
X533941Y14999D01*
Y16999D01*
X531941Y18998D01*
X581329Y13000D02*
Y18998D01*
X584328D01*
X585328Y17998D01*
Y15999D01*
X584328Y14999D01*
X581329D01*
X587327Y18998D02*
X591326D01*
X589327D01*
Y13000D01*
X593326Y18998D02*
Y13000D01*
Y15999D01*
X597324D01*
Y18998D01*
Y13000D01*
X631717D02*
Y18998D01*
X634716D01*
X635716Y17998D01*
Y15999D01*
X634716Y14999D01*
X631717D01*
X633716D02*
X635716Y13000D01*
X638715D02*
X640714D01*
X641714Y14000D01*
Y15999D01*
X640714Y16999D01*
X638715D01*
X637715Y15999D01*
Y14000D01*
X638715Y13000D01*
X643713Y16999D02*
Y14000D01*
X644713Y13000D01*
X647712D01*
Y16999D01*
X649711Y13000D02*
Y16999D01*
X652710D01*
X653710Y15999D01*
Y13000D01*
X659708Y18998D02*
Y13000D01*
X656709D01*
X655709Y14000D01*
Y15999D01*
X656709Y16999D01*
X659708D01*
X377388Y1000D02*
X379387D01*
X378387D01*
Y6998D01*
X377388Y5998D01*
X382386D02*
X383386Y6998D01*
X385385D01*
X386385Y5998D01*
Y2000D01*
X385385Y1000D01*
X383386D01*
X382386Y2000D01*
Y5998D01*
X450968Y1000D02*
X446969D01*
X450968Y4999D01*
Y5998D01*
X449968Y6998D01*
X447969D01*
X446969Y5998D01*
X455966Y1000D02*
Y6998D01*
X452967Y3999D01*
X456966D01*
X458965Y1000D02*
Y4999D01*
X459965D01*
X460964Y3999D01*
Y1000D01*
Y3999D01*
X461964Y4999D01*
X462964Y3999D01*
Y1000D01*
X464963D02*
X466962D01*
X465963D01*
Y4999D01*
X464963D01*
X469962Y1000D02*
X471961D01*
X470961D01*
Y6998D01*
X469962D01*
X482957Y1000D02*
X480958Y2999D01*
Y4999D01*
X482957Y6998D01*
X485956Y5998D02*
X486956Y6998D01*
X488955D01*
X489955Y5998D01*
Y2000D01*
X488955Y1000D01*
X486956D01*
X485956Y2000D01*
Y5998D01*
X491954Y1000D02*
Y2000D01*
X492954D01*
Y1000D01*
X491954D01*
X500951Y6998D02*
X498952Y5998D01*
X496953Y3999D01*
Y2000D01*
X497952Y1000D01*
X499952D01*
X500951Y2000D01*
Y2999D01*
X499952Y3999D01*
X496953D01*
X502951Y5998D02*
X503951Y6998D01*
X505950D01*
X506950Y5998D01*
Y2000D01*
X505950Y1000D01*
X503951D01*
X502951Y2000D01*
Y5998D01*
X508949Y2000D02*
X509948Y1000D01*
X511948D01*
X512948Y2000D01*
Y5998D01*
X511948Y6998D01*
X509948D01*
X508949Y5998D01*
Y4999D01*
X509948Y3999D01*
X512948D01*
X518946Y6998D02*
X516946Y5998D01*
X514947Y3999D01*
Y2000D01*
X515947Y1000D01*
X517946D01*
X518946Y2000D01*
Y2999D01*
X517946Y3999D01*
X514947D01*
X520945Y1000D02*
Y4999D01*
X521945D01*
X522944Y3999D01*
Y1000D01*
Y3999D01*
X523944Y4999D01*
X524944Y3999D01*
Y1000D01*
X526943D02*
Y4999D01*
X527943D01*
X528942Y3999D01*
Y1000D01*
Y3999D01*
X529942Y4999D01*
X530942Y3999D01*
Y1000D01*
X532941D02*
X534940Y2999D01*
Y4999D01*
X532941Y6998D01*
X581329Y1000D02*
Y6998D01*
X584328D01*
X585328Y5998D01*
Y3999D01*
X584328Y2999D01*
X581329D01*
X587327Y6998D02*
X591326D01*
X589327D01*
Y1000D01*
X593326Y6998D02*
Y1000D01*
Y3999D01*
X597324D01*
Y6998D01*
Y1000D01*
X631717D02*
Y6998D01*
X634716D01*
X635716Y5998D01*
Y3999D01*
X634716Y2999D01*
X631717D01*
X633716D02*
X635716Y1000D01*
X638715D02*
X640714D01*
X641714Y2000D01*
Y3999D01*
X640714Y4999D01*
X638715D01*
X637715Y3999D01*
Y2000D01*
X638715Y1000D01*
X643713Y4999D02*
Y2000D01*
X644713Y1000D01*
X647712D01*
Y4999D01*
X649711Y1000D02*
Y4999D01*
X652710D01*
X653710Y3999D01*
Y1000D01*
X659708Y6998D02*
Y1000D01*
X656709D01*
X655709Y2000D01*
Y3999D01*
X656709Y4999D01*
X659708D01*
X381386Y-11000D02*
X377388D01*
X381386Y-7001D01*
Y-6002D01*
X380387Y-5002D01*
X378387D01*
X377388Y-6002D01*
X446969D02*
X447969Y-5002D01*
X449968D01*
X450968Y-6002D01*
Y-7001D01*
X449968Y-8001D01*
X448968D01*
X449968D01*
X450968Y-9001D01*
Y-10000D01*
X449968Y-11000D01*
X447969D01*
X446969Y-10000D01*
X452967Y-11000D02*
X454966D01*
X453967D01*
Y-5002D01*
X452967Y-6002D01*
X457965Y-11000D02*
Y-10000D01*
X458965D01*
Y-11000D01*
X457965D01*
X465963D02*
Y-5002D01*
X462964Y-8001D01*
X466962D01*
X468962Y-10000D02*
X469962Y-11000D01*
X471961D01*
X472961Y-10000D01*
Y-6002D01*
X471961Y-5002D01*
X469962D01*
X468962Y-6002D01*
Y-7001D01*
X469962Y-8001D01*
X472961D01*
X478959Y-5002D02*
X476959Y-6002D01*
X474960Y-8001D01*
Y-10000D01*
X475960Y-11000D01*
X477959D01*
X478959Y-10000D01*
Y-9001D01*
X477959Y-8001D01*
X474960D01*
X480958Y-11000D02*
Y-7001D01*
X481958D01*
X482957Y-8001D01*
Y-11000D01*
Y-8001D01*
X483957Y-7001D01*
X484957Y-8001D01*
Y-11000D01*
X486956D02*
X488955D01*
X487956D01*
Y-7001D01*
X486956D01*
X491954Y-11000D02*
X493954D01*
X492954D01*
Y-5002D01*
X491954D01*
X504950Y-11000D02*
X502951Y-9001D01*
Y-7001D01*
X504950Y-5002D01*
X507949Y-6002D02*
X508949Y-5002D01*
X510948D01*
X511948Y-6002D01*
Y-10000D01*
X510948Y-11000D01*
X508949D01*
X507949Y-10000D01*
Y-6002D01*
X513947Y-11000D02*
Y-10000D01*
X514947D01*
Y-11000D01*
X513947D01*
X518946Y-6002D02*
X519945Y-5002D01*
X521945D01*
X522944Y-6002D01*
Y-7001D01*
X521945Y-8001D01*
X522944Y-9001D01*
Y-10000D01*
X521945Y-11000D01*
X519945D01*
X518946Y-10000D01*
Y-9001D01*
X519945Y-8001D01*
X518946Y-7001D01*
Y-6002D01*
X519945Y-8001D02*
X521945D01*
X524944Y-11000D02*
Y-7001D01*
X525943D01*
X526943Y-8001D01*
Y-11000D01*
Y-8001D01*
X527943Y-7001D01*
X528942Y-8001D01*
Y-11000D01*
X530942D02*
Y-7001D01*
X531941D01*
X532941Y-8001D01*
Y-11000D01*
Y-8001D01*
X533941Y-7001D01*
X534940Y-8001D01*
Y-11000D01*
X536940D02*
X538939Y-9001D01*
Y-7001D01*
X536940Y-5002D01*
X581329Y-11000D02*
Y-5002D01*
X584328D01*
X585328Y-6002D01*
Y-8001D01*
X584328Y-9001D01*
X581329D01*
X587327Y-5002D02*
X591326D01*
X589327D01*
Y-11000D01*
X593326Y-5002D02*
Y-11000D01*
Y-8001D01*
X597324D01*
Y-5002D01*
Y-11000D01*
X631717D02*
Y-5002D01*
X634716D01*
X635716Y-6002D01*
Y-8001D01*
X634716Y-9001D01*
X631717D01*
X633716D02*
X635716Y-11000D01*
X638715D02*
X640714D01*
X641714Y-10000D01*
Y-8001D01*
X640714Y-7001D01*
X638715D01*
X637715Y-8001D01*
Y-10000D01*
X638715Y-11000D01*
X643713Y-7001D02*
Y-10000D01*
X644713Y-11000D01*
X647712D01*
Y-7001D01*
X649711Y-11000D02*
Y-7001D01*
X652710D01*
X653710Y-8001D01*
Y-11000D01*
X659708Y-5002D02*
Y-11000D01*
X656709D01*
X655709Y-10000D01*
Y-8001D01*
X656709Y-7001D01*
X659708D01*
X381386Y-17002D02*
X379387Y-18002D01*
X377388Y-20001D01*
Y-22000D01*
X378387Y-23000D01*
X380387D01*
X381386Y-22000D01*
Y-21001D01*
X380387Y-20001D01*
X377388D01*
X446969Y-18002D02*
X447969Y-17002D01*
X449968D01*
X450968Y-18002D01*
Y-19001D01*
X449968Y-20001D01*
X448968D01*
X449968D01*
X450968Y-21001D01*
Y-22000D01*
X449968Y-23000D01*
X447969D01*
X446969Y-22000D01*
X456966Y-17002D02*
X452967D01*
Y-20001D01*
X454966Y-19001D01*
X455966D01*
X456966Y-20001D01*
Y-22000D01*
X455966Y-23000D01*
X453967D01*
X452967Y-22000D01*
X458965Y-23000D02*
Y-22000D01*
X459965D01*
Y-23000D01*
X458965D01*
X466962D02*
Y-17002D01*
X463963Y-20001D01*
X467962D01*
X469962Y-18002D02*
X470961Y-17002D01*
X472961D01*
X473960Y-18002D01*
Y-19001D01*
X472961Y-20001D01*
X471961D01*
X472961D01*
X473960Y-21001D01*
Y-22000D01*
X472961Y-23000D01*
X470961D01*
X469962Y-22000D01*
X475960Y-18002D02*
X476959Y-17002D01*
X478959D01*
X479958Y-18002D01*
Y-19001D01*
X478959Y-20001D01*
X477959D01*
X478959D01*
X479958Y-21001D01*
Y-22000D01*
X478959Y-23000D01*
X476959D01*
X475960Y-22000D01*
X481958Y-23000D02*
Y-19001D01*
X482957D01*
X483957Y-20001D01*
Y-23000D01*
Y-20001D01*
X484957Y-19001D01*
X485956Y-20001D01*
Y-23000D01*
X487956D02*
X489955D01*
X488955D01*
Y-19001D01*
X487956D01*
X492954Y-23000D02*
X494953D01*
X493954D01*
Y-17002D01*
X492954D01*
X505950Y-23000D02*
X503951Y-21001D01*
Y-19001D01*
X505950Y-17002D01*
X508949Y-18002D02*
X509948Y-17002D01*
X511948D01*
X512948Y-18002D01*
Y-22000D01*
X511948Y-23000D01*
X509948D01*
X508949Y-22000D01*
Y-18002D01*
X514947Y-23000D02*
Y-22000D01*
X515947D01*
Y-23000D01*
X514947D01*
X519945Y-22000D02*
X520945Y-23000D01*
X522944D01*
X523944Y-22000D01*
Y-18002D01*
X522944Y-17002D01*
X520945D01*
X519945Y-18002D01*
Y-19001D01*
X520945Y-20001D01*
X523944D01*
X525943Y-23000D02*
Y-19001D01*
X526943D01*
X527943Y-20001D01*
Y-23000D01*
Y-20001D01*
X528942Y-19001D01*
X529942Y-20001D01*
Y-23000D01*
X531941D02*
Y-19001D01*
X532941D01*
X533941Y-20001D01*
Y-23000D01*
Y-20001D01*
X534940Y-19001D01*
X535940Y-20001D01*
Y-23000D01*
X537940D02*
X539939Y-21001D01*
Y-19001D01*
X537940Y-17002D01*
X581329Y-23000D02*
Y-17002D01*
X584328D01*
X585328Y-18002D01*
Y-20001D01*
X584328Y-21001D01*
X581329D01*
X587327Y-17002D02*
X591326D01*
X589327D01*
Y-23000D01*
X593326Y-17002D02*
Y-23000D01*
Y-20001D01*
X597324D01*
Y-17002D01*
Y-23000D01*
X631717D02*
Y-17002D01*
X634716D01*
X635716Y-18002D01*
Y-20001D01*
X634716Y-21001D01*
X631717D01*
X633716D02*
X635716Y-23000D01*
X638715D02*
X640714D01*
X641714Y-22000D01*
Y-20001D01*
X640714Y-19001D01*
X638715D01*
X637715Y-20001D01*
Y-22000D01*
X638715Y-23000D01*
X643713Y-19001D02*
Y-22000D01*
X644713Y-23000D01*
X647712D01*
Y-19001D01*
X649711Y-23000D02*
Y-19001D01*
X652710D01*
X653710Y-20001D01*
Y-23000D01*
X659708Y-17002D02*
Y-23000D01*
X656709D01*
X655709Y-22000D01*
Y-20001D01*
X656709Y-19001D01*
X659708D01*
X380387Y-35000D02*
Y-29002D01*
X377388Y-32001D01*
X381386D01*
X446969Y-30002D02*
X447969Y-29002D01*
X449968D01*
X450968Y-30002D01*
Y-31001D01*
X449968Y-32001D01*
X448968D01*
X449968D01*
X450968Y-33001D01*
Y-34000D01*
X449968Y-35000D01*
X447969D01*
X446969Y-34000D01*
X452967D02*
X453967Y-35000D01*
X455966D01*
X456966Y-34000D01*
Y-30002D01*
X455966Y-29002D01*
X453967D01*
X452967Y-30002D01*
Y-31001D01*
X453967Y-32001D01*
X456966D01*
X458965Y-35000D02*
Y-34000D01*
X459965D01*
Y-35000D01*
X458965D01*
X463963Y-30002D02*
X464963Y-29002D01*
X466962D01*
X467962Y-30002D01*
Y-31001D01*
X466962Y-32001D01*
X465963D01*
X466962D01*
X467962Y-33001D01*
Y-34000D01*
X466962Y-35000D01*
X464963D01*
X463963Y-34000D01*
X469962Y-29002D02*
X473960D01*
Y-30002D01*
X469962Y-34000D01*
Y-35000D01*
X475960D02*
Y-31001D01*
X476959D01*
X477959Y-32001D01*
Y-35000D01*
Y-32001D01*
X478959Y-31001D01*
X479958Y-32001D01*
Y-35000D01*
X481958D02*
X483957D01*
X482957D01*
Y-31001D01*
X481958D01*
X486956Y-35000D02*
X488955D01*
X487956D01*
Y-29002D01*
X486956D01*
X499952Y-35000D02*
X497952Y-33001D01*
Y-31001D01*
X499952Y-29002D01*
X502951Y-35000D02*
X504950D01*
X503951D01*
Y-29002D01*
X502951Y-30002D01*
X507949Y-35000D02*
Y-31001D01*
X508949D01*
X509948Y-32001D01*
Y-35000D01*
Y-32001D01*
X510948Y-31001D01*
X511948Y-32001D01*
Y-35000D01*
X513947D02*
Y-31001D01*
X514947D01*
X515947Y-32001D01*
Y-35000D01*
Y-32001D01*
X516946Y-31001D01*
X517946Y-32001D01*
Y-35000D01*
X519945D02*
X521945Y-33001D01*
Y-31001D01*
X519945Y-29002D01*
X581329Y-35000D02*
Y-29002D01*
X584328D01*
X585328Y-30002D01*
Y-32001D01*
X584328Y-33001D01*
X581329D01*
X587327Y-29002D02*
X591326D01*
X589327D01*
Y-35000D01*
X593326Y-29002D02*
Y-35000D01*
Y-32001D01*
X597324D01*
Y-29002D01*
Y-35000D01*
X631717D02*
Y-29002D01*
X634716D01*
X635716Y-30002D01*
Y-32001D01*
X634716Y-33001D01*
X631717D01*
X633716D02*
X635716Y-35000D01*
X638715D02*
X640714D01*
X641714Y-34000D01*
Y-32001D01*
X640714Y-31001D01*
X638715D01*
X637715Y-32001D01*
Y-34000D01*
X638715Y-35000D01*
X643713Y-31001D02*
Y-34000D01*
X644713Y-35000D01*
X647712D01*
Y-31001D01*
X649711Y-35000D02*
Y-31001D01*
X652710D01*
X653710Y-32001D01*
Y-35000D01*
X659708Y-29002D02*
Y-35000D01*
X656709D01*
X655709Y-34000D01*
Y-32001D01*
X656709Y-31001D01*
X659708D01*
X377388Y-42002D02*
X378387Y-41002D01*
X380387D01*
X381386Y-42002D01*
Y-43001D01*
X380387Y-44001D01*
X379387D01*
X380387D01*
X381386Y-45001D01*
Y-46000D01*
X380387Y-47000D01*
X378387D01*
X377388Y-46000D01*
X449968Y-47000D02*
Y-41002D01*
X446969Y-44001D01*
X450968D01*
X452967Y-42002D02*
X453967Y-41002D01*
X455966D01*
X456966Y-42002D01*
Y-43001D01*
X455966Y-44001D01*
X454966D01*
X455966D01*
X456966Y-45001D01*
Y-46000D01*
X455966Y-47000D01*
X453967D01*
X452967Y-46000D01*
X458965Y-47000D02*
Y-46000D01*
X459965D01*
Y-47000D01*
X458965D01*
X463963Y-42002D02*
X464963Y-41002D01*
X466962D01*
X467962Y-42002D01*
Y-43001D01*
X466962Y-44001D01*
X465963D01*
X466962D01*
X467962Y-45001D01*
Y-46000D01*
X466962Y-47000D01*
X464963D01*
X463963Y-46000D01*
X469962Y-42002D02*
X470961Y-41002D01*
X472961D01*
X473960Y-42002D01*
Y-46000D01*
X472961Y-47000D01*
X470961D01*
X469962Y-46000D01*
Y-42002D01*
X475960Y-41002D02*
X479958D01*
Y-42002D01*
X475960Y-46000D01*
Y-47000D01*
X481958D02*
Y-43001D01*
X482957D01*
X483957Y-44001D01*
Y-47000D01*
Y-44001D01*
X484957Y-43001D01*
X485956Y-44001D01*
Y-47000D01*
X487956D02*
X489955D01*
X488955D01*
Y-43001D01*
X487956D01*
X492954Y-47000D02*
X494953D01*
X493954D01*
Y-41002D01*
X492954D01*
X505950Y-47000D02*
X503951Y-45001D01*
Y-43001D01*
X505950Y-41002D01*
X508949Y-47000D02*
X510948D01*
X509948D01*
Y-41002D01*
X508949Y-42002D01*
X513947Y-47000D02*
Y-46000D01*
X514947D01*
Y-47000D01*
X513947D01*
X518946D02*
X520945D01*
X519945D01*
Y-41002D01*
X518946Y-42002D01*
X523944Y-47000D02*
Y-43001D01*
X524944D01*
X525943Y-44001D01*
Y-47000D01*
Y-44001D01*
X526943Y-43001D01*
X527943Y-44001D01*
Y-47000D01*
X529942D02*
Y-43001D01*
X530942D01*
X531941Y-44001D01*
Y-47000D01*
Y-44001D01*
X532941Y-43001D01*
X533941Y-44001D01*
Y-47000D01*
X535940D02*
X537940Y-45001D01*
Y-43001D01*
X535940Y-41002D01*
X581329Y-47000D02*
Y-41002D01*
X584328D01*
X585328Y-42002D01*
Y-44001D01*
X584328Y-45001D01*
X581329D01*
X587327Y-41002D02*
X591326D01*
X589327D01*
Y-47000D01*
X593326Y-41002D02*
Y-47000D01*
Y-44001D01*
X597324D01*
Y-41002D01*
Y-47000D01*
X631717D02*
Y-41002D01*
X634716D01*
X635716Y-42002D01*
Y-44001D01*
X634716Y-45001D01*
X631717D01*
X633716D02*
X635716Y-47000D01*
X638715D02*
X640714D01*
X641714Y-46000D01*
Y-44001D01*
X640714Y-43001D01*
X638715D01*
X637715Y-44001D01*
Y-46000D01*
X638715Y-47000D01*
X643713Y-43001D02*
Y-46000D01*
X644713Y-47000D01*
X647712D01*
Y-43001D01*
X649711Y-47000D02*
Y-43001D01*
X652710D01*
X653710Y-44001D01*
Y-47000D01*
X659708Y-41002D02*
Y-47000D01*
X656709D01*
X655709Y-46000D01*
Y-44001D01*
X656709Y-43001D01*
X659708D01*
X377388Y-54002D02*
X378387Y-53002D01*
X380387D01*
X381386Y-54002D01*
Y-55001D01*
X380387Y-56001D01*
X379387D01*
X380387D01*
X381386Y-57001D01*
Y-58000D01*
X380387Y-59000D01*
X378387D01*
X377388Y-58000D01*
X449968Y-59000D02*
Y-53002D01*
X446969Y-56001D01*
X450968D01*
X452967Y-53002D02*
X456966D01*
Y-54002D01*
X452967Y-58000D01*
Y-59000D01*
X458965D02*
Y-58000D01*
X459965D01*
Y-59000D01*
X458965D01*
X467962D02*
X463963D01*
X467962Y-55001D01*
Y-54002D01*
X466962Y-53002D01*
X464963D01*
X463963Y-54002D01*
X472961Y-59000D02*
Y-53002D01*
X469962Y-56001D01*
X473960D01*
X478959Y-59000D02*
Y-53002D01*
X475960Y-56001D01*
X479958D01*
X481958Y-59000D02*
Y-55001D01*
X482957D01*
X483957Y-56001D01*
Y-59000D01*
Y-56001D01*
X484957Y-55001D01*
X485956Y-56001D01*
Y-59000D01*
X487956D02*
X489955D01*
X488955D01*
Y-55001D01*
X487956D01*
X492954Y-59000D02*
X494953D01*
X493954D01*
Y-53002D01*
X492954D01*
X505950Y-59000D02*
X503951Y-57001D01*
Y-55001D01*
X505950Y-53002D01*
X508949Y-59000D02*
X510948D01*
X509948D01*
Y-53002D01*
X508949Y-54002D01*
X513947Y-59000D02*
Y-58000D01*
X514947D01*
Y-59000D01*
X513947D01*
X522944D02*
X518946D01*
X522944Y-55001D01*
Y-54002D01*
X521945Y-53002D01*
X519945D01*
X518946Y-54002D01*
X524944Y-59000D02*
Y-55001D01*
X525943D01*
X526943Y-56001D01*
Y-59000D01*
Y-56001D01*
X527943Y-55001D01*
X528942Y-56001D01*
Y-59000D01*
X530942D02*
Y-55001D01*
X531941D01*
X532941Y-56001D01*
Y-59000D01*
Y-56001D01*
X533941Y-55001D01*
X534940Y-56001D01*
Y-59000D01*
X536940D02*
X538939Y-57001D01*
Y-55001D01*
X536940Y-53002D01*
X581329Y-59000D02*
Y-53002D01*
X584328D01*
X585328Y-54002D01*
Y-56001D01*
X584328Y-57001D01*
X581329D01*
X587327Y-53002D02*
X591326D01*
X589327D01*
Y-59000D01*
X593326Y-53002D02*
Y-59000D01*
Y-56001D01*
X597324D01*
Y-53002D01*
Y-59000D01*
X631717D02*
Y-53002D01*
X634716D01*
X635716Y-54002D01*
Y-56001D01*
X634716Y-57001D01*
X631717D01*
X633716D02*
X635716Y-59000D01*
X638715D02*
X640714D01*
X641714Y-58000D01*
Y-56001D01*
X640714Y-55001D01*
X638715D01*
X637715Y-56001D01*
Y-58000D01*
X638715Y-59000D01*
X643713Y-55001D02*
Y-58000D01*
X644713Y-59000D01*
X647712D01*
Y-55001D01*
X649711Y-59000D02*
Y-55001D01*
X652710D01*
X653710Y-56001D01*
Y-59000D01*
X659708Y-53002D02*
Y-59000D01*
X656709D01*
X655709Y-58000D01*
Y-56001D01*
X656709Y-55001D01*
X659708D01*
X380387Y-71000D02*
Y-65002D01*
X377388Y-68001D01*
X381386D01*
X450968Y-65002D02*
X446969D01*
Y-68001D01*
X448968Y-67001D01*
X449968D01*
X450968Y-68001D01*
Y-70000D01*
X449968Y-71000D01*
X447969D01*
X446969Y-70000D01*
X452967D02*
X453967Y-71000D01*
X455966D01*
X456966Y-70000D01*
Y-66002D01*
X455966Y-65002D01*
X453967D01*
X452967Y-66002D01*
Y-67001D01*
X453967Y-68001D01*
X456966D01*
X458965Y-71000D02*
Y-70000D01*
X459965D01*
Y-71000D01*
X458965D01*
X463963Y-66002D02*
X464963Y-65002D01*
X466962D01*
X467962Y-66002D01*
Y-70000D01*
X466962Y-71000D01*
X464963D01*
X463963Y-70000D01*
Y-66002D01*
X473960Y-65002D02*
X469962D01*
Y-68001D01*
X471961Y-67001D01*
X472961D01*
X473960Y-68001D01*
Y-70000D01*
X472961Y-71000D01*
X470961D01*
X469962Y-70000D01*
X479958Y-65002D02*
X475960D01*
Y-68001D01*
X477959Y-67001D01*
X478959D01*
X479958Y-68001D01*
Y-70000D01*
X478959Y-71000D01*
X476959D01*
X475960Y-70000D01*
X481958Y-71000D02*
Y-67001D01*
X482957D01*
X483957Y-68001D01*
Y-71000D01*
Y-68001D01*
X484957Y-67001D01*
X485956Y-68001D01*
Y-71000D01*
X487956D02*
X489955D01*
X488955D01*
Y-67001D01*
X487956D01*
X492954Y-71000D02*
X494953D01*
X493954D01*
Y-65002D01*
X492954D01*
X505950Y-71000D02*
X503951Y-69001D01*
Y-67001D01*
X505950Y-65002D01*
X508949Y-71000D02*
X510948D01*
X509948D01*
Y-65002D01*
X508949Y-66002D01*
X513947Y-71000D02*
Y-70000D01*
X514947D01*
Y-71000D01*
X513947D01*
X522944Y-65002D02*
X518946D01*
Y-68001D01*
X520945Y-67001D01*
X521945D01*
X522944Y-68001D01*
Y-70000D01*
X521945Y-71000D01*
X519945D01*
X518946Y-70000D01*
X524944Y-71000D02*
Y-67001D01*
X525943D01*
X526943Y-68001D01*
Y-71000D01*
Y-68001D01*
X527943Y-67001D01*
X528942Y-68001D01*
Y-71000D01*
X530942D02*
Y-67001D01*
X531941D01*
X532941Y-68001D01*
Y-71000D01*
Y-68001D01*
X533941Y-67001D01*
X534940Y-68001D01*
Y-71000D01*
X536940D02*
X538939Y-69001D01*
Y-67001D01*
X536940Y-65002D01*
X581329Y-71000D02*
Y-65002D01*
X584328D01*
X585328Y-66002D01*
Y-68001D01*
X584328Y-69001D01*
X581329D01*
X587327Y-65002D02*
X591326D01*
X589327D01*
Y-71000D01*
X593326Y-65002D02*
Y-71000D01*
Y-68001D01*
X597324D01*
Y-65002D01*
Y-71000D01*
X631717D02*
Y-65002D01*
X634716D01*
X635716Y-66002D01*
Y-68001D01*
X634716Y-69001D01*
X631717D01*
X633716D02*
X635716Y-71000D01*
X638715D02*
X640714D01*
X641714Y-70000D01*
Y-68001D01*
X640714Y-67001D01*
X638715D01*
X637715Y-68001D01*
Y-70000D01*
X638715Y-71000D01*
X643713Y-67001D02*
Y-70000D01*
X644713Y-71000D01*
X647712D01*
Y-67001D01*
X649711Y-71000D02*
Y-67001D01*
X652710D01*
X653710Y-68001D01*
Y-71000D01*
X659708Y-65002D02*
Y-71000D01*
X656709D01*
X655709Y-70000D01*
Y-68001D01*
X656709Y-67001D01*
X659708D01*
X377388Y-83000D02*
X379387D01*
X378387D01*
Y-77002D01*
X377388Y-78002D01*
X450968Y-77002D02*
X448968Y-78002D01*
X446969Y-80001D01*
Y-82000D01*
X447969Y-83000D01*
X449968D01*
X450968Y-82000D01*
Y-81001D01*
X449968Y-80001D01*
X446969D01*
X456966Y-83000D02*
X452967D01*
X456966Y-79001D01*
Y-78002D01*
X455966Y-77002D01*
X453967D01*
X452967Y-78002D01*
X458965Y-83000D02*
Y-82000D01*
X459965D01*
Y-83000D01*
X458965D01*
X463963Y-82000D02*
X464963Y-83000D01*
X466962D01*
X467962Y-82000D01*
Y-78002D01*
X466962Y-77002D01*
X464963D01*
X463963Y-78002D01*
Y-79001D01*
X464963Y-80001D01*
X467962D01*
X469962Y-82000D02*
X470961Y-83000D01*
X472961D01*
X473960Y-82000D01*
Y-78002D01*
X472961Y-77002D01*
X470961D01*
X469962Y-78002D01*
Y-79001D01*
X470961Y-80001D01*
X473960D01*
X479958Y-83000D02*
X475960D01*
X479958Y-79001D01*
Y-78002D01*
X478959Y-77002D01*
X476959D01*
X475960Y-78002D01*
X481958Y-83000D02*
Y-79001D01*
X482957D01*
X483957Y-80001D01*
Y-83000D01*
Y-80001D01*
X484957Y-79001D01*
X485956Y-80001D01*
Y-83000D01*
X487956D02*
X489955D01*
X488955D01*
Y-79001D01*
X487956D01*
X492954Y-83000D02*
X494953D01*
X493954D01*
Y-77002D01*
X492954D01*
X505950Y-83000D02*
X503951Y-81001D01*
Y-79001D01*
X505950Y-77002D01*
X508949Y-83000D02*
X510948D01*
X509948D01*
Y-77002D01*
X508949Y-78002D01*
X513947Y-83000D02*
Y-82000D01*
X514947D01*
Y-83000D01*
X513947D01*
X522944Y-77002D02*
X520945Y-78002D01*
X518946Y-80001D01*
Y-82000D01*
X519945Y-83000D01*
X521945D01*
X522944Y-82000D01*
Y-81001D01*
X521945Y-80001D01*
X518946D01*
X524944Y-83000D02*
Y-79001D01*
X525943D01*
X526943Y-80001D01*
Y-83000D01*
Y-80001D01*
X527943Y-79001D01*
X528942Y-80001D01*
Y-83000D01*
X530942D02*
Y-79001D01*
X531941D01*
X532941Y-80001D01*
Y-83000D01*
Y-80001D01*
X533941Y-79001D01*
X534940Y-80001D01*
Y-83000D01*
X536940D02*
X538939Y-81001D01*
Y-79001D01*
X536940Y-77002D01*
X581329Y-83000D02*
Y-77002D01*
X584328D01*
X585328Y-78002D01*
Y-80001D01*
X584328Y-81001D01*
X581329D01*
X587327Y-77002D02*
X591326D01*
X589327D01*
Y-83000D01*
X593326Y-77002D02*
Y-83000D01*
Y-80001D01*
X597324D01*
Y-77002D01*
Y-83000D01*
X631717D02*
Y-77002D01*
X634716D01*
X635716Y-78002D01*
Y-80001D01*
X634716Y-81001D01*
X631717D01*
X633716D02*
X635716Y-83000D01*
X638715D02*
X640714D01*
X641714Y-82000D01*
Y-80001D01*
X640714Y-79001D01*
X638715D01*
X637715Y-80001D01*
Y-82000D01*
X638715Y-83000D01*
X643713Y-79001D02*
Y-82000D01*
X644713Y-83000D01*
X647712D01*
Y-79001D01*
X649711Y-83000D02*
Y-79001D01*
X652710D01*
X653710Y-80001D01*
Y-83000D01*
X659708Y-77002D02*
Y-83000D01*
X656709D01*
X655709Y-82000D01*
Y-80001D01*
X656709Y-79001D01*
X659708D01*
X380387Y-95000D02*
Y-89002D01*
X377388Y-92001D01*
X381386D01*
X446969Y-95000D02*
X448968D01*
X447969D01*
Y-89002D01*
X446969Y-90002D01*
X451967D02*
X452967Y-89002D01*
X454966D01*
X455966Y-90002D01*
Y-94000D01*
X454966Y-95000D01*
X452967D01*
X451967Y-94000D01*
Y-90002D01*
X461964Y-89002D02*
X459965Y-90002D01*
X457965Y-92001D01*
Y-94000D01*
X458965Y-95000D01*
X460964D01*
X461964Y-94000D01*
Y-93001D01*
X460964Y-92001D01*
X457965D01*
X463963Y-95000D02*
Y-94000D01*
X464963D01*
Y-95000D01*
X463963D01*
X472961D02*
X468962D01*
X472961Y-91001D01*
Y-90002D01*
X471961Y-89002D01*
X469962D01*
X468962Y-90002D01*
X474960Y-94000D02*
X475960Y-95000D01*
X477959D01*
X478959Y-94000D01*
Y-90002D01*
X477959Y-89002D01*
X475960D01*
X474960Y-90002D01*
Y-91001D01*
X475960Y-92001D01*
X478959D01*
X480958Y-94000D02*
X481958Y-95000D01*
X483957D01*
X484957Y-94000D01*
Y-90002D01*
X483957Y-89002D01*
X481958D01*
X480958Y-90002D01*
Y-91001D01*
X481958Y-92001D01*
X484957D01*
X486956Y-95000D02*
Y-91001D01*
X487956D01*
X488955Y-92001D01*
Y-95000D01*
Y-92001D01*
X489955Y-91001D01*
X490955Y-92001D01*
Y-95000D01*
X492954D02*
X494953D01*
X493954D01*
Y-91001D01*
X492954D01*
X497952Y-95000D02*
X499952D01*
X498952D01*
Y-89002D01*
X497952D01*
X510948Y-95000D02*
X508949Y-93001D01*
Y-91001D01*
X510948Y-89002D01*
X517946Y-95000D02*
X513947D01*
X517946Y-91001D01*
Y-90002D01*
X516946Y-89002D01*
X514947D01*
X513947Y-90002D01*
X519945Y-95000D02*
Y-94000D01*
X520945D01*
Y-95000D01*
X519945D01*
X524944Y-89002D02*
X528942D01*
Y-90002D01*
X524944Y-94000D01*
Y-95000D01*
X530942D02*
Y-91001D01*
X531941D01*
X532941Y-92001D01*
Y-95000D01*
Y-92001D01*
X533941Y-91001D01*
X534940Y-92001D01*
Y-95000D01*
X536940D02*
Y-91001D01*
X537940D01*
X538939Y-92001D01*
Y-95000D01*
Y-92001D01*
X539939Y-91001D01*
X540939Y-92001D01*
Y-95000D01*
X542938D02*
X544937Y-93001D01*
Y-91001D01*
X542938Y-89002D01*
X581329Y-95000D02*
Y-89002D01*
X584328D01*
X585328Y-90002D01*
Y-92001D01*
X584328Y-93001D01*
X581329D01*
X587327Y-89002D02*
X591326D01*
X589327D01*
Y-95000D01*
X593326Y-89002D02*
Y-95000D01*
Y-92001D01*
X597324D01*
Y-89002D01*
Y-95000D01*
X631717D02*
Y-89002D01*
X634716D01*
X635716Y-90002D01*
Y-92001D01*
X634716Y-93001D01*
X631717D01*
X633716D02*
X635716Y-95000D01*
X638715D02*
X640714D01*
X641714Y-94000D01*
Y-92001D01*
X640714Y-91001D01*
X638715D01*
X637715Y-92001D01*
Y-94000D01*
X638715Y-95000D01*
X643713Y-91001D02*
Y-94000D01*
X644713Y-95000D01*
X647712D01*
Y-91001D01*
X649711Y-95000D02*
Y-91001D01*
X652710D01*
X653710Y-92001D01*
Y-95000D01*
X659708Y-89002D02*
Y-95000D01*
X656709D01*
X655709Y-94000D01*
Y-92001D01*
X656709Y-91001D01*
X659708D01*
X377388Y-102002D02*
X378387Y-101002D01*
X380387D01*
X381386Y-102002D01*
Y-103001D01*
X380387Y-104001D01*
X379387D01*
X380387D01*
X381386Y-105001D01*
Y-106000D01*
X380387Y-107000D01*
X378387D01*
X377388Y-106000D01*
X383386Y-101002D02*
X387384D01*
Y-102002D01*
X383386Y-106000D01*
Y-107000D01*
X392383D02*
Y-101002D01*
X389384Y-104001D01*
X393382D01*
X404182Y-101002D02*
X408181D01*
X406182D01*
Y-107000D01*
X411180D02*
X413179D01*
X414179Y-106000D01*
Y-104001D01*
X413179Y-103001D01*
X411180D01*
X410181Y-104001D01*
Y-106000D01*
X411180Y-107000D01*
X417178Y-102002D02*
Y-103001D01*
X416179D01*
X418178D01*
X417178D01*
Y-106000D01*
X418178Y-107000D01*
X422177Y-103001D02*
X424176D01*
X425176Y-104001D01*
Y-107000D01*
X422177D01*
X421177Y-106000D01*
X422177Y-105001D01*
X425176D01*
X427175Y-107000D02*
X429174D01*
X428175D01*
Y-101002D01*
X427175D01*
D87*
X12173Y-105512D02*
Y-101512D01*
X16173D01*
Y-105512D01*
X12173D01*
X-16173D02*
Y-101512D01*
X-12173D01*
Y-105512D01*
X-16173D01*
X-279528Y-56803D02*
X-281528Y-52803D01*
X-277528D01*
X-279528Y-56803D01*
Y-66803D02*
X-281528Y-62803D01*
X-277528D01*
X-279528Y-66803D01*
Y-76803D02*
X-281528Y-72803D01*
X-277528D01*
X-279528Y-76803D01*
Y-86803D02*
X-281528Y-82803D01*
X-277528D01*
X-279528Y-86803D01*
X-188150Y40835D02*
X-187150Y41835D01*
X-186150D01*
X-187150Y42835D01*
X-186150Y43835D01*
X-187150D01*
X-188150Y44835D01*
X-189150Y43835D01*
X-190150D01*
X-189150Y42835D01*
X-190150Y41835D01*
X-189150D01*
X-188150Y40835D01*
X-255079Y-26094D02*
X-254079Y-25095D01*
X-253079D01*
X-254079Y-24094D01*
X-253079Y-23095D01*
X-254079D01*
X-255079Y-22095D01*
X-256079Y-23095D01*
X-257079D01*
X-256079Y-24094D01*
X-257079Y-25095D01*
X-256079D01*
X-255079Y-26094D01*
X260984Y-32000D02*
X261984Y-31000D01*
X262984D01*
X261984Y-30000D01*
X262984Y-29000D01*
X261984D01*
X260984Y-28000D01*
X259984Y-29000D01*
X258984D01*
X259984Y-30000D01*
X258984Y-31000D01*
X259984D01*
X260984Y-32000D01*
X182244Y46740D02*
X183244Y47740D01*
X184244D01*
X183244Y48740D01*
X184244Y49740D01*
X183244D01*
X182244Y50740D01*
X181244Y49740D01*
X180244D01*
X181244Y48740D01*
X180244Y47740D01*
X181244D01*
X182244Y46740D01*
X-200819Y76835D02*
X-199819Y78835D01*
X-200819Y80835D01*
X-198819Y79835D01*
X-196819Y80835D01*
X-197819Y78835D01*
X-196819Y76835D01*
X-198819Y77835D01*
X-200819Y76835D01*
X-228378D02*
X-227378Y78835D01*
X-228378Y80835D01*
X-226378Y79835D01*
X-224378Y80835D01*
X-225378Y78835D01*
X-224378Y76835D01*
X-226378Y77835D01*
X-228378Y76835D01*
X-204740Y87677D02*
Y86677D01*
X-202740D01*
Y87677D01*
X-201740D01*
Y89677D01*
X-202740D01*
Y90677D01*
X-204740D01*
Y89677D01*
X-205740D01*
Y87677D01*
X-204740D01*
X-222457D02*
Y86677D01*
X-220457D01*
Y87677D01*
X-219457D01*
Y89677D01*
X-220457D01*
Y90677D01*
X-222457D01*
Y89677D01*
X-223457D01*
Y87677D01*
X-222457D01*
X202740D02*
Y86677D01*
X204740D01*
Y87677D01*
X205740D01*
Y89677D01*
X204740D01*
Y90677D01*
X202740D01*
Y89677D01*
X201740D01*
Y87677D01*
X202740D01*
X220457D02*
Y86677D01*
X222457D01*
Y87677D01*
X223457D01*
Y89677D01*
X222457D01*
Y90677D01*
X220457D01*
Y89677D01*
X219457D01*
Y87677D01*
X220457D01*
X196819Y76835D02*
X197819Y78835D01*
X196819Y80835D01*
X198819Y79835D01*
X200819Y80835D01*
X199819Y78835D01*
X200819Y76835D01*
X198819Y77835D01*
X196819Y76835D01*
X224378D02*
X225378Y78835D01*
X224378Y80835D01*
X226378Y79835D01*
X228378Y80835D01*
X227378Y78835D01*
X228378Y76835D01*
X226378Y77835D01*
X224378Y76835D01*
X-69323Y-69008D02*
X-68323D01*
X-67323Y-68008D01*
X-66323Y-69008D01*
X-65323D01*
Y-68008D01*
X-66323Y-67008D01*
X-65323Y-66008D01*
Y-65008D01*
X-66323D01*
X-67323Y-66008D01*
X-68323Y-65008D01*
X-69323D01*
Y-66008D01*
X-68323Y-67008D01*
X-69323Y-68008D01*
Y-69008D01*
X104693Y-16535D02*
X106693Y-14535D01*
X108693Y-16535D01*
X106693Y-18535D01*
X104693Y-16535D01*
X-158299Y-18535D02*
Y-14535D01*
X-154299D01*
Y-18535D01*
X-158299D01*
X-151606Y78236D02*
Y82236D01*
X-147606D01*
Y78236D01*
X-151606D01*
X-150806Y79036D02*
Y81436D01*
X-148406D01*
Y79036D01*
X-150806D01*
X135795Y90047D02*
Y94047D01*
X139795D01*
Y90047D01*
X135795D01*
X136595Y90847D02*
Y93247D01*
X138995D01*
Y90847D01*
X136595D01*
X135795Y-94992D02*
Y-90992D01*
X139795D01*
Y-94992D01*
X135795D01*
X136595Y-94192D02*
Y-91792D01*
X138995D01*
Y-94192D01*
X136595D01*
X81071Y-24316D02*
X82071D01*
X83071Y-23316D01*
X84071Y-24316D01*
X85071D01*
Y-23316D01*
X84071Y-22316D01*
X85071Y-21316D01*
Y-20316D01*
X84071D01*
X83071Y-21316D01*
X82071Y-20316D01*
X81071D01*
Y-21316D01*
X82071Y-22316D01*
X81071Y-23316D01*
Y-24316D01*
X-106291Y-72200D02*
X-105291D01*
X-104291Y-71200D01*
X-103291Y-72200D01*
X-102291D01*
Y-71200D01*
X-103291Y-70200D01*
X-102291Y-69200D01*
Y-68200D01*
X-103291D01*
X-104291Y-69200D01*
X-105291Y-68200D01*
X-106291D01*
Y-69200D01*
X-105291Y-70200D01*
X-106291Y-71200D01*
Y-72200D01*
X-101567D02*
X-100567D01*
X-99567Y-71200D01*
X-98567Y-72200D01*
X-97567D01*
Y-71200D01*
X-98567Y-70200D01*
X-97567Y-69200D01*
Y-68200D01*
X-98567D01*
X-99567Y-69200D01*
X-100567Y-68200D01*
X-101567D01*
Y-69200D01*
X-100567Y-70200D01*
X-101567Y-71200D01*
Y-72200D01*
X-94480D02*
X-93480D01*
X-92480Y-71200D01*
X-91480Y-72200D01*
X-90480D01*
Y-71200D01*
X-91480Y-70200D01*
X-90480Y-69200D01*
Y-68200D01*
X-91480D01*
X-92480Y-69200D01*
X-93480Y-68200D01*
X-94480D01*
Y-69200D01*
X-93480Y-70200D01*
X-94480Y-71200D01*
Y-72200D01*
X-89756D02*
X-88756D01*
X-87756Y-71200D01*
X-86756Y-72200D01*
X-85756D01*
Y-71200D01*
X-86756Y-70200D01*
X-85756Y-69200D01*
Y-68200D01*
X-86756D01*
X-87756Y-69200D01*
X-88756Y-68200D01*
X-89756D01*
Y-69200D01*
X-88756Y-70200D01*
X-89756Y-71200D01*
Y-72200D01*
X-103929Y-80700D02*
X-102929D01*
X-101929Y-79700D01*
X-100929Y-80700D01*
X-99929D01*
Y-79700D01*
X-100929Y-78700D01*
X-99929Y-77700D01*
Y-76700D01*
X-100929D01*
X-101929Y-77700D01*
X-102929Y-76700D01*
X-103929D01*
Y-77700D01*
X-102929Y-78700D01*
X-103929Y-79700D01*
Y-80700D01*
X-99205D02*
X-98205D01*
X-97205Y-79700D01*
X-96205Y-80700D01*
X-95205D01*
Y-79700D01*
X-96205Y-78700D01*
X-95205Y-77700D01*
Y-76700D01*
X-96205D01*
X-97205Y-77700D01*
X-98205Y-76700D01*
X-99205D01*
Y-77700D01*
X-98205Y-78700D01*
X-99205Y-79700D01*
Y-80700D01*
X-92118D02*
X-91118D01*
X-90118Y-79700D01*
X-89118Y-80700D01*
X-88118D01*
Y-79700D01*
X-89118Y-78700D01*
X-88118Y-77700D01*
Y-76700D01*
X-89118D01*
X-90118Y-77700D01*
X-91118Y-76700D01*
X-92118D01*
Y-77700D01*
X-91118Y-78700D01*
X-92118Y-79700D01*
Y-80700D01*
X-87394D02*
X-86394D01*
X-85394Y-79700D01*
X-84394Y-80700D01*
X-83394D01*
Y-79700D01*
X-84394Y-78700D01*
X-83394Y-77700D01*
Y-76700D01*
X-84394D01*
X-85394Y-77700D01*
X-86394Y-76700D01*
X-87394D01*
Y-77700D01*
X-86394Y-78700D01*
X-87394Y-79700D01*
Y-80700D01*
X-80307Y-72200D02*
X-79307D01*
X-78307Y-71200D01*
X-77307Y-72200D01*
X-76307D01*
Y-71200D01*
X-77307Y-70200D01*
X-76307Y-69200D01*
Y-68200D01*
X-77307D01*
X-78307Y-69200D01*
X-79307Y-68200D01*
X-80307D01*
Y-69200D01*
X-79307Y-70200D01*
X-80307Y-71200D01*
Y-72200D01*
X-77945Y-80700D02*
X-76945D01*
X-75945Y-79700D01*
X-74945Y-80700D01*
X-73945D01*
Y-79700D01*
X-74945Y-78700D01*
X-73945Y-77700D01*
Y-76700D01*
X-74945D01*
X-75945Y-77700D01*
X-76945Y-76700D01*
X-77945D01*
Y-77700D01*
X-76945Y-78700D01*
X-77945Y-79700D01*
Y-80700D01*
X-82669D02*
X-81669D01*
X-80669Y-79700D01*
X-79669Y-80700D01*
X-78669D01*
Y-79700D01*
X-79669Y-78700D01*
X-78669Y-77700D01*
Y-76700D01*
X-79669D01*
X-80669Y-77700D01*
X-81669Y-76700D01*
X-82669D01*
Y-77700D01*
X-81669Y-78700D01*
X-82669Y-79700D01*
Y-80700D01*
X-85031Y-72200D02*
X-84031D01*
X-83031Y-71200D01*
X-82032Y-72200D01*
X-81032D01*
Y-71200D01*
X-82032Y-70200D01*
X-81032Y-69200D01*
Y-68200D01*
X-82032D01*
X-83031Y-69200D01*
X-84031Y-68200D01*
X-85031D01*
Y-69200D01*
X-84031Y-70200D01*
X-85031Y-71200D01*
Y-72200D01*
X85795Y-24316D02*
X86795D01*
X87795Y-23316D01*
X88795Y-24316D01*
X89795D01*
Y-23316D01*
X88795Y-22316D01*
X89795Y-21316D01*
Y-20316D01*
X88795D01*
X87795Y-21316D01*
X86795Y-20316D01*
X85795D01*
Y-21316D01*
X86795Y-22316D01*
X85795Y-23316D01*
Y-24316D01*
X92882D02*
X93882D01*
X94882Y-23316D01*
X95882Y-24316D01*
X96882D01*
Y-23316D01*
X95882Y-22316D01*
X96882Y-21316D01*
Y-20316D01*
X95882D01*
X94882Y-21316D01*
X93882Y-20316D01*
X92882D01*
Y-21316D01*
X93882Y-22316D01*
X92882Y-23316D01*
Y-24316D01*
X95244Y-41889D02*
X96244D01*
X97244Y-40889D01*
X98244Y-41889D01*
X99244D01*
Y-40889D01*
X98244Y-39889D01*
X99244Y-38889D01*
Y-37889D01*
X98244D01*
X97244Y-38889D01*
X96244Y-37889D01*
X95244D01*
Y-38889D01*
X96244Y-39889D01*
X95244Y-40889D01*
Y-41889D01*
X-111000Y-72200D02*
X-110000D01*
X-109000Y-71200D01*
X-108000Y-72200D01*
X-107000D01*
Y-71200D01*
X-108000Y-70200D01*
X-107000Y-69200D01*
Y-68200D01*
X-108000D01*
X-109000Y-69200D01*
X-110000Y-68200D01*
X-111000D01*
Y-69200D01*
X-110000Y-70200D01*
X-111000Y-71200D01*
Y-72200D01*
X-113500Y-81000D02*
X-112500D01*
X-111500Y-80000D01*
X-110500Y-81000D01*
X-109500D01*
Y-80000D01*
X-110500Y-79000D01*
X-109500Y-78000D01*
Y-77000D01*
X-110500D01*
X-111500Y-78000D01*
X-112500Y-77000D01*
X-113500D01*
Y-78000D01*
X-112500Y-79000D01*
X-113500Y-80000D01*
Y-81000D01*
X-108700Y-80800D02*
X-107700D01*
X-106700Y-79800D01*
X-105700Y-80800D01*
X-104700D01*
Y-79800D01*
X-105700Y-78800D01*
X-104700Y-77800D01*
Y-76800D01*
X-105700D01*
X-106700Y-77800D01*
X-107700Y-76800D01*
X-108700D01*
Y-77800D01*
X-107700Y-78800D01*
X-108700Y-79800D01*
Y-80800D01*
X-112200Y-58300D02*
X-111200D01*
X-110200Y-57300D01*
X-109200Y-58300D01*
X-108200D01*
Y-57300D01*
X-109200Y-56300D01*
X-108200Y-55300D01*
Y-54300D01*
X-109200D01*
X-110200Y-55300D01*
X-111200Y-54300D01*
X-112200D01*
Y-55300D01*
X-111200Y-56300D01*
X-112200Y-57300D01*
Y-58300D01*
X-227795Y-50700D02*
X-226795D01*
X-225795Y-49700D01*
X-224795Y-50700D01*
X-223795D01*
Y-49700D01*
X-224795Y-48700D01*
X-223795Y-47700D01*
Y-46700D01*
X-224795D01*
X-225795Y-47700D01*
X-226795Y-46700D01*
X-227795D01*
Y-47700D01*
X-226795Y-48700D01*
X-227795Y-49700D01*
Y-50700D01*
X-235395Y-57500D02*
X-234395D01*
X-233395Y-56500D01*
X-232395Y-57500D01*
X-231395D01*
Y-56500D01*
X-232395Y-55500D01*
X-231395Y-54500D01*
Y-53500D01*
X-232395D01*
X-233395Y-54500D01*
X-234395Y-53500D01*
X-235395D01*
Y-54500D01*
X-234395Y-55500D01*
X-235395Y-56500D01*
Y-57500D01*
X-279921Y-18831D02*
X-281921Y-14831D01*
X-277921D01*
X-279921Y-18831D01*
Y-35563D02*
X-281921Y-31563D01*
X-277921D01*
X-279921Y-35563D01*
X29200Y-23260D02*
X30200D01*
X31200Y-22260D01*
X32200Y-23260D01*
X33200D01*
Y-22260D01*
X32200Y-21260D01*
X33200Y-20260D01*
Y-19260D01*
X32200D01*
X31200Y-20260D01*
X30200Y-19260D01*
X29200D01*
Y-20260D01*
X30200Y-21260D01*
X29200Y-22260D01*
Y-23260D01*
X-28800Y-43700D02*
X-27800D01*
X-26800Y-42700D01*
X-25800Y-43700D01*
X-24800D01*
Y-42700D01*
X-25800Y-41700D01*
X-24800Y-40700D01*
Y-39700D01*
X-25800D01*
X-26800Y-40700D01*
X-27800Y-39700D01*
X-28800D01*
Y-40700D01*
X-27800Y-41700D01*
X-28800Y-42700D01*
Y-43700D01*
X-28700Y-48300D02*
X-27700D01*
X-26700Y-47300D01*
X-25700Y-48300D01*
X-24700D01*
Y-47300D01*
X-25700Y-46300D01*
X-24700Y-45300D01*
Y-44300D01*
X-25700D01*
X-26700Y-45300D01*
X-27700Y-44300D01*
X-28700D01*
Y-45300D01*
X-27700Y-46300D01*
X-28700Y-47300D01*
Y-48300D01*
X-26300Y-46000D02*
X-25300D01*
X-24300Y-45000D01*
X-23300Y-46000D01*
X-22300D01*
Y-45000D01*
X-23300Y-44000D01*
X-22300Y-43000D01*
Y-42000D01*
X-23300D01*
X-24300Y-43000D01*
X-25300Y-42000D01*
X-26300D01*
Y-43000D01*
X-25300Y-44000D01*
X-26300Y-45000D01*
Y-46000D01*
X-190976Y26065D02*
X-189976D01*
X-188976Y27065D01*
X-187976Y26065D01*
X-186976D01*
Y27065D01*
X-187976Y28065D01*
X-186976Y29065D01*
Y30065D01*
X-187976D01*
X-188976Y29065D01*
X-189976Y30065D01*
X-190976D01*
Y29065D01*
X-189976Y28065D01*
X-190976Y27065D01*
Y26065D01*
X-222079Y-59087D02*
X-221079D01*
X-220079Y-58087D01*
X-219079Y-59087D01*
X-218079D01*
Y-58087D01*
X-219079Y-57087D01*
X-218079Y-56087D01*
Y-55087D01*
X-219079D01*
X-220079Y-56087D01*
X-221079Y-55087D01*
X-222079D01*
Y-56087D01*
X-221079Y-57087D01*
X-222079Y-58087D01*
Y-59087D01*
X38551Y-92158D02*
X39551D01*
X40551Y-91158D01*
X41551Y-92158D01*
X42551D01*
Y-91158D01*
X41551Y-90158D01*
X42551Y-89157D01*
Y-88157D01*
X41551D01*
X40551Y-89157D01*
X39551Y-88157D01*
X38551D01*
Y-89157D01*
X39551Y-90158D01*
X38551Y-91158D01*
Y-92158D01*
X95244Y-73654D02*
X96244D01*
X97244Y-72654D01*
X98244Y-73654D01*
X99244D01*
Y-72654D01*
X98244Y-71653D01*
X99244Y-70653D01*
Y-69653D01*
X98244D01*
X97244Y-70653D01*
X96244Y-69653D01*
X95244D01*
Y-70653D01*
X96244Y-71653D01*
X95244Y-72654D01*
Y-73654D01*
X86189Y-46095D02*
X87189D01*
X88189Y-45094D01*
X89189Y-46095D01*
X90189D01*
Y-45094D01*
X89189Y-44094D01*
X90189Y-43095D01*
Y-42094D01*
X89189D01*
X88189Y-43095D01*
X87189Y-42094D01*
X86189D01*
Y-43095D01*
X87189Y-44094D01*
X86189Y-45094D01*
Y-46095D01*
X-128771Y-23260D02*
X-127771D01*
X-126771Y-22260D01*
X-125771Y-23260D01*
X-124771D01*
Y-22260D01*
X-125771Y-21260D01*
X-124771Y-20260D01*
Y-19260D01*
X-125771D01*
X-126771Y-20260D01*
X-127771Y-19260D01*
X-128771D01*
Y-20260D01*
X-127771Y-21260D01*
X-128771Y-22260D01*
Y-23260D01*
X-61843Y57842D02*
X-60843D01*
X-59842Y58842D01*
X-58842Y57842D01*
X-57842D01*
Y58842D01*
X-58842Y59842D01*
X-57842Y60843D01*
Y61843D01*
X-58842D01*
X-59842Y60843D01*
X-60843Y61843D01*
X-61843D01*
Y60843D01*
X-60843Y59842D01*
X-61843Y58842D01*
Y57842D01*
X-35465Y54693D02*
X-34465D01*
X-33465Y55693D01*
X-32465Y54693D01*
X-31465D01*
Y55693D01*
X-32465Y56693D01*
X-31465Y57693D01*
Y58693D01*
X-32465D01*
X-33465Y57693D01*
X-34465Y58693D01*
X-35465D01*
Y57693D01*
X-34465Y56693D01*
X-35465Y55693D01*
Y54693D01*
X92882Y4693D02*
X93882D01*
X94882Y5693D01*
X95882Y4693D01*
X96882D01*
Y5693D01*
X95882Y6693D01*
X96882Y7693D01*
Y8693D01*
X95882D01*
X94882Y7693D01*
X93882Y8693D01*
X92882D01*
Y7693D01*
X93882Y6693D01*
X92882Y5693D01*
Y4693D01*
X101543Y1150D02*
X102543D01*
X103543Y2150D01*
X104543Y1150D01*
X105543D01*
Y2150D01*
X104543Y3150D01*
X105543Y4150D01*
Y5150D01*
X104543D01*
X103543Y4150D01*
X102543Y5150D01*
X101543D01*
Y4150D01*
X102543Y3150D01*
X101543Y2150D01*
Y1150D01*
X65716Y4693D02*
X66716D01*
X67716Y5693D01*
X68717Y4693D01*
X69717D01*
Y5693D01*
X68717Y6693D01*
X69717Y7693D01*
Y8693D01*
X68717D01*
X67716Y7693D01*
X66716Y8693D01*
X65716D01*
Y7693D01*
X66716Y6693D01*
X65716Y5693D01*
Y4693D01*
X-113805Y4687D02*
X-112805D01*
X-111805Y5687D01*
X-110805Y4687D01*
X-109805D01*
Y5687D01*
X-110805Y6687D01*
X-109805Y7687D01*
Y8687D01*
X-110805D01*
X-111805Y7687D01*
X-112805Y8687D01*
X-113805D01*
Y7687D01*
X-112805Y6687D01*
X-113805Y5687D01*
Y4687D01*
X-219994Y-50700D02*
X-218994D01*
X-217994Y-49700D01*
X-216995Y-50700D01*
X-215995D01*
Y-49700D01*
X-216995Y-48700D01*
X-215995Y-47700D01*
Y-46700D01*
X-216995D01*
X-217994Y-47700D01*
X-218994Y-46700D01*
X-219994D01*
Y-47700D01*
X-218994Y-48700D01*
X-219994Y-49700D01*
Y-50700D01*
X-203181Y-37433D02*
X-202181D01*
X-201181Y-36433D01*
X-200181Y-37433D01*
X-199181D01*
Y-36433D01*
X-200181Y-35433D01*
X-199181Y-34433D01*
Y-33433D01*
X-200181D01*
X-201181Y-34433D01*
X-202181Y-33433D01*
X-203181D01*
Y-34433D01*
X-202181Y-35433D01*
X-203181Y-36433D01*
Y-37433D01*
X-243732Y-57906D02*
X-242732D01*
X-241732Y-56906D01*
X-240732Y-57906D01*
X-239732D01*
Y-56906D01*
X-240732Y-55905D01*
X-239732Y-54905D01*
Y-53905D01*
X-240732D01*
X-241732Y-54905D01*
X-242732Y-53905D01*
X-243732D01*
Y-54905D01*
X-242732Y-55905D01*
X-243732Y-56906D01*
Y-57906D01*
X-68535Y40913D02*
X-67535D01*
X-66535Y41913D01*
X-65535Y40913D01*
X-64535D01*
Y41913D01*
X-65535Y42913D01*
X-64535Y43913D01*
Y44913D01*
X-65535D01*
X-66535Y43913D01*
X-67535Y44913D01*
X-68535D01*
Y43913D01*
X-67535Y42913D01*
X-68535Y41913D01*
Y40913D01*
X-124047Y-68142D02*
X-123047D01*
X-122047Y-67142D01*
X-121047Y-68142D01*
X-120047D01*
Y-67142D01*
X-121047Y-66142D01*
X-120047Y-65142D01*
Y-64142D01*
X-121047D01*
X-122047Y-65142D01*
X-123047Y-64142D01*
X-124047D01*
Y-65142D01*
X-123047Y-66142D01*
X-124047Y-67142D01*
Y-68142D01*
X-120898Y-57906D02*
X-119898D01*
X-118898Y-56906D01*
X-117898Y-57906D01*
X-116898D01*
Y-56906D01*
X-117898Y-55905D01*
X-116898Y-54905D01*
Y-53905D01*
X-117898D01*
X-118898Y-54905D01*
X-119898Y-53905D01*
X-120898D01*
Y-54905D01*
X-119898Y-55905D01*
X-120898Y-56906D01*
Y-57906D01*
X-127197Y-63024D02*
X-126197D01*
X-125197Y-62024D01*
X-124197Y-63024D01*
X-123197D01*
Y-62024D01*
X-124197Y-61024D01*
X-123197Y-60024D01*
Y-59024D01*
X-124197D01*
X-125197Y-60024D01*
X-126197Y-59024D01*
X-127197D01*
Y-60024D01*
X-126197Y-61024D01*
X-127197Y-62024D01*
Y-63024D01*
X-127154Y-68132D02*
X-126154D01*
X-125154Y-67132D01*
X-124154Y-68132D01*
X-123154D01*
Y-67132D01*
X-124154Y-66132D01*
X-123154Y-65131D01*
Y-64131D01*
X-124154D01*
X-125154Y-65131D01*
X-126154Y-64131D01*
X-127154D01*
Y-65131D01*
X-126154Y-66132D01*
X-127154Y-67132D01*
Y-68132D01*
X-129165Y-70504D02*
X-128165D01*
X-127165Y-69504D01*
X-126165Y-70504D01*
X-125165D01*
Y-69504D01*
X-126165Y-68504D01*
X-125165Y-67504D01*
Y-66504D01*
X-126165D01*
X-127165Y-67504D01*
X-128165Y-66504D01*
X-129165D01*
Y-67504D01*
X-128165Y-68504D01*
X-129165Y-69504D01*
Y-70504D01*
X-128772Y-109480D02*
X-127772D01*
X-126772Y-108480D01*
X-125772Y-109480D01*
X-124772D01*
Y-108480D01*
X-125772Y-107480D01*
X-124772Y-106480D01*
Y-105480D01*
X-125772D01*
X-126772Y-106480D01*
X-127772Y-105480D01*
X-128772D01*
Y-106480D01*
X-127772Y-107480D01*
X-128772Y-108480D01*
Y-109480D01*
X-115386D02*
X-114386D01*
X-113386Y-108480D01*
X-112386Y-109480D01*
X-111386D01*
Y-108480D01*
X-112386Y-107480D01*
X-111386Y-106480D01*
Y-105480D01*
X-112386D01*
X-113386Y-106480D01*
X-114386Y-105480D01*
X-115386D01*
Y-106480D01*
X-114386Y-107480D01*
X-115386Y-108480D01*
Y-109480D01*
X-225150Y-87354D02*
X-224150D01*
X-223150Y-86354D01*
X-222150Y-87354D01*
X-221150D01*
Y-86354D01*
X-222150Y-85354D01*
X-221150Y-84354D01*
Y-83354D01*
X-222150D01*
X-223150Y-84354D01*
X-224150Y-83354D01*
X-225150D01*
Y-84354D01*
X-224150Y-85354D01*
X-225150Y-86354D01*
Y-87354D01*
X-165702Y-56408D02*
X-164702D01*
X-163702Y-55408D01*
X-162702Y-56408D01*
X-161702D01*
Y-55408D01*
X-162702Y-54408D01*
X-161702Y-53408D01*
Y-52408D01*
X-162702D01*
X-163702Y-53408D01*
X-164702Y-52408D01*
X-165702D01*
Y-53408D01*
X-164702Y-54408D01*
X-165702Y-55408D01*
Y-56408D01*
X-155937Y-59874D02*
X-154937D01*
X-153937Y-58874D01*
X-152937Y-59874D01*
X-151937D01*
Y-58874D01*
X-152937Y-57874D01*
X-151937Y-56874D01*
Y-55874D01*
X-152937D01*
X-153937Y-56874D01*
X-154937Y-55874D01*
X-155937D01*
Y-56874D01*
X-154937Y-57874D01*
X-155937Y-58874D01*
Y-59874D01*
X-164205Y-77984D02*
X-163205D01*
X-162205Y-76984D01*
X-161205Y-77984D01*
X-160205D01*
Y-76984D01*
X-161205Y-75984D01*
X-160205Y-74984D01*
Y-73984D01*
X-161205D01*
X-162205Y-74984D01*
X-163205Y-73984D01*
X-164205D01*
Y-74984D01*
X-163205Y-75984D01*
X-164205Y-76984D01*
Y-77984D01*
X-137827Y-100819D02*
X-136827D01*
X-135827Y-99819D01*
X-134827Y-100819D01*
X-133827D01*
Y-99819D01*
X-134827Y-98819D01*
X-133827Y-97819D01*
Y-96819D01*
X-134827D01*
X-135827Y-97819D01*
X-136827Y-96819D01*
X-137827D01*
Y-97819D01*
X-136827Y-98819D01*
X-137827Y-99819D01*
Y-100819D01*
X-157118Y-76410D02*
X-156118D01*
X-155118Y-75410D01*
X-154118Y-76410D01*
X-153118D01*
Y-75410D01*
X-154118Y-74410D01*
X-153118Y-73409D01*
Y-72409D01*
X-154118D01*
X-155118Y-73409D01*
X-156118Y-72409D01*
X-157118D01*
Y-73409D01*
X-156118Y-74410D01*
X-157118Y-75410D01*
Y-76410D01*
X-271685Y-27197D02*
X-270685D01*
X-269685Y-26197D01*
X-268685Y-27197D01*
X-267685D01*
Y-26197D01*
X-268685Y-25197D01*
X-267685Y-24197D01*
Y-23197D01*
X-268685D01*
X-269685Y-24197D01*
X-270685Y-23197D01*
X-271685D01*
Y-24197D01*
X-270685Y-25197D01*
X-271685Y-26197D01*
Y-27197D01*
Y-32315D02*
X-270685D01*
X-269685Y-31315D01*
X-268685Y-32315D01*
X-267685D01*
Y-31315D01*
X-268685Y-30315D01*
X-267685Y-29315D01*
Y-28315D01*
X-268685D01*
X-269685Y-29315D01*
X-270685Y-28315D01*
X-271685D01*
Y-29315D01*
X-270685Y-30315D01*
X-271685Y-31315D01*
Y-32315D01*
X-98850Y-87039D02*
X-97850D01*
X-96850Y-86039D01*
X-95850Y-87039D01*
X-94850D01*
Y-86039D01*
X-95850Y-85039D01*
X-94850Y-84039D01*
Y-83039D01*
X-95850D01*
X-96850Y-84039D01*
X-97850Y-83039D01*
X-98850D01*
Y-84039D01*
X-97850Y-85039D01*
X-98850Y-86039D01*
Y-87039D01*
X-157118Y-63024D02*
X-156118D01*
X-155118Y-62024D01*
X-154118Y-63024D01*
X-153118D01*
Y-62024D01*
X-154118Y-61024D01*
X-153118Y-60024D01*
Y-59024D01*
X-154118D01*
X-155118Y-60024D01*
X-156118Y-59024D01*
X-157118D01*
Y-60024D01*
X-156118Y-61024D01*
X-157118Y-62024D01*
Y-63024D01*
X176859Y-90858D02*
X177859D01*
X178859Y-89858D01*
X179859Y-90858D01*
X180859D01*
Y-89858D01*
X179859Y-88858D01*
X180859Y-87858D01*
Y-86858D01*
X179859D01*
X178859Y-87858D01*
X177859Y-86858D01*
X176859D01*
Y-87858D01*
X177859Y-88858D01*
X176859Y-89858D01*
Y-90858D01*
X202830Y-87145D02*
X203830D01*
X204830Y-86145D01*
X205830Y-87145D01*
X206830D01*
Y-86145D01*
X205830Y-85145D01*
X206830Y-84145D01*
Y-83145D01*
X205830D01*
X204830Y-84145D01*
X203830Y-83145D01*
X202830D01*
Y-84145D01*
X203830Y-85145D01*
X202830Y-86145D01*
Y-87145D01*
X166504Y-45701D02*
X167504D01*
X168504Y-44701D01*
X169504Y-45701D01*
X170504D01*
Y-44701D01*
X169504Y-43701D01*
X170504Y-42701D01*
Y-41701D01*
X169504D01*
X168504Y-42701D01*
X167504Y-41701D01*
X166504D01*
Y-42701D01*
X167504Y-43701D01*
X166504Y-44701D01*
Y-45701D01*
X120047Y-18142D02*
X121047D01*
X122047Y-17142D01*
X123047Y-18142D01*
X124047D01*
Y-17142D01*
X123047Y-16142D01*
X124047Y-15142D01*
Y-14142D01*
X123047D01*
X122047Y-15142D01*
X121047Y-14142D01*
X120047D01*
Y-15142D01*
X121047Y-16142D01*
X120047Y-17142D01*
Y-18142D01*
X179102Y-71685D02*
X180102D01*
X181102Y-70685D01*
X182102Y-71685D01*
X183102D01*
Y-70685D01*
X182102Y-69685D01*
X183102Y-68685D01*
Y-67685D01*
X182102D01*
X181102Y-68685D01*
X180102Y-67685D01*
X179102D01*
Y-68685D01*
X180102Y-69685D01*
X179102Y-70685D01*
Y-71685D01*
X193276Y-69323D02*
X194276D01*
X195276Y-68323D01*
X196276Y-69323D01*
X197276D01*
Y-68323D01*
X196276Y-67323D01*
X197276Y-66323D01*
Y-65323D01*
X196276D01*
X195276Y-66323D01*
X194276Y-65323D01*
X193276D01*
Y-66323D01*
X194276Y-67323D01*
X193276Y-68323D01*
Y-69323D01*
Y-74047D02*
X194276D01*
X195276Y-73047D01*
X196276Y-74047D01*
X197276D01*
Y-73047D01*
X196276Y-72047D01*
X197276Y-71047D01*
Y-70047D01*
X196276D01*
X195276Y-71047D01*
X194276Y-70047D01*
X193276D01*
Y-71047D01*
X194276Y-72047D01*
X193276Y-73047D01*
Y-74047D01*
X-220504Y-90583D02*
X-219504D01*
X-218504Y-89583D01*
X-217504Y-90583D01*
X-216504D01*
Y-89583D01*
X-217504Y-88583D01*
X-216504Y-87583D01*
Y-86583D01*
X-217504D01*
X-218504Y-87583D01*
X-219504Y-86583D01*
X-220504D01*
Y-87583D01*
X-219504Y-88583D01*
X-220504Y-89583D01*
Y-90583D01*
X76346Y-107512D02*
X77346D01*
X78347Y-106512D01*
X79347Y-107512D01*
X80347D01*
Y-106512D01*
X79347Y-105512D01*
X80347Y-104512D01*
Y-103512D01*
X79347D01*
X78347Y-104512D01*
X77346Y-103512D01*
X76346D01*
Y-104512D01*
X77346Y-105512D01*
X76346Y-106512D01*
Y-107512D01*
X-126803Y-81921D02*
X-125803D01*
X-124803Y-80921D01*
X-123803Y-81921D01*
X-122803D01*
Y-80921D01*
X-123803Y-79921D01*
X-122803Y-78921D01*
Y-77921D01*
X-123803D01*
X-124803Y-78921D01*
X-125803Y-77921D01*
X-126803D01*
Y-78921D01*
X-125803Y-79921D01*
X-126803Y-80921D01*
Y-81921D01*
X-178772Y21622D02*
X-177772D01*
X-176772Y22622D01*
X-175772Y21622D01*
X-174772D01*
Y22622D01*
X-175772Y23622D01*
X-174772Y24622D01*
Y25622D01*
X-175772D01*
X-176772Y24622D01*
X-177772Y25622D01*
X-178772D01*
Y24622D01*
X-177772Y23622D01*
X-178772Y22622D01*
Y21622D01*
X-181528Y23984D02*
X-180528D01*
X-179528Y24984D01*
X-178528Y23984D01*
X-177528D01*
Y24984D01*
X-178528Y25984D01*
X-177528Y26984D01*
Y27984D01*
X-178528D01*
X-179528Y26984D01*
X-180528Y27984D01*
X-181528D01*
Y26984D01*
X-180528Y25984D01*
X-181528Y24984D01*
Y23984D01*
X-166961Y55480D02*
X-165961D01*
X-164961Y56480D01*
X-163961Y55480D01*
X-162961D01*
Y56480D01*
X-163961Y57480D01*
X-162961Y58480D01*
Y59480D01*
X-163961D01*
X-164961Y58480D01*
X-165961Y59480D01*
X-166961D01*
Y58480D01*
X-165961Y57480D01*
X-166961Y56480D01*
Y55480D01*
X6661Y21622D02*
X7661D01*
X8661Y22622D01*
X9661Y21622D01*
X10661D01*
Y22622D01*
X9661Y23622D01*
X10661Y24622D01*
Y25622D01*
X9661D01*
X8661Y24622D01*
X7661Y25622D01*
X6661D01*
Y24622D01*
X7661Y23622D01*
X6661Y22622D01*
Y21622D01*
X-5150D02*
X-4150D01*
X-3150Y22622D01*
X-2150Y21622D01*
X-1150D01*
Y22622D01*
X-2150Y23622D01*
X-1150Y24622D01*
Y25622D01*
X-2150D01*
X-3150Y24622D01*
X-4150Y25622D01*
X-5150D01*
Y24622D01*
X-4150Y23622D01*
X-5150Y22622D01*
Y21622D01*
X-171685Y45638D02*
X-170685D01*
X-169685Y46638D01*
X-168685Y45638D01*
X-167685D01*
Y46638D01*
X-168685Y47638D01*
X-167685Y48638D01*
Y49638D01*
X-168685D01*
X-169685Y48638D01*
X-170685Y49638D01*
X-171685D01*
Y48638D01*
X-170685Y47638D01*
X-171685Y46638D01*
Y45638D01*
X-175622Y31858D02*
X-174622D01*
X-173622Y32858D01*
X-172622Y31858D01*
X-171622D01*
Y32858D01*
X-172622Y33858D01*
X-171622Y34858D01*
Y35858D01*
X-172622D01*
X-173622Y34858D01*
X-174622Y35858D01*
X-175622D01*
Y34858D01*
X-174622Y33858D01*
X-175622Y32858D01*
Y31858D01*
X-32Y21622D02*
X969D01*
X1969Y22622D01*
X2968Y21622D01*
X3968D01*
Y22622D01*
X2968Y23622D01*
X3968Y24622D01*
Y25622D01*
X2968D01*
X1969Y24622D01*
X969Y25622D01*
X-32D01*
Y24622D01*
X969Y23622D01*
X-32Y22622D01*
Y21622D01*
X3118D02*
X4118D01*
X5118Y22622D01*
X6118Y21622D01*
X7118D01*
Y22622D01*
X6118Y23622D01*
X7118Y24622D01*
Y25622D01*
X6118D01*
X5118Y24622D01*
X4118Y25622D01*
X3118D01*
Y24622D01*
X4118Y23622D01*
X3118Y22622D01*
Y21622D01*
X-169717Y53118D02*
X-168717D01*
X-167717Y54118D01*
X-166717Y53118D01*
X-165717D01*
Y54118D01*
X-166717Y55118D01*
X-165717Y56118D01*
Y57118D01*
X-166717D01*
X-167717Y56118D01*
X-168717Y57118D01*
X-169717D01*
Y56118D01*
X-168717Y55118D01*
X-169717Y54118D01*
Y53118D01*
X-425Y4693D02*
X575D01*
X1575Y5693D01*
X2575Y4693D01*
X3575D01*
Y5693D01*
X2575Y6693D01*
X3575Y7693D01*
Y8693D01*
X2575D01*
X1575Y7693D01*
X575Y8693D01*
X-425D01*
Y7693D01*
X575Y6693D01*
X-425Y5693D01*
Y4693D01*
X1937Y7449D02*
X2937D01*
X3937Y8449D01*
X4937Y7449D01*
X5937D01*
Y8449D01*
X4937Y9449D01*
X5937Y10449D01*
Y11449D01*
X4937D01*
X3937Y10449D01*
X2937Y11449D01*
X1937D01*
Y10449D01*
X2937Y9449D01*
X1937Y8449D01*
Y7449D01*
X-5150D02*
X-4150D01*
X-3150Y8449D01*
X-2150Y7449D01*
X-1150D01*
Y8449D01*
X-2150Y9449D01*
X-1150Y10449D01*
Y11449D01*
X-2150D01*
X-3150Y10449D01*
X-4150Y11449D01*
X-5150D01*
Y10449D01*
X-4150Y9449D01*
X-5150Y8449D01*
Y7449D01*
X-7512Y4693D02*
X-6512D01*
X-5512Y5693D01*
X-4512Y4693D01*
X-3512D01*
Y5693D01*
X-4512Y6693D01*
X-3512Y7693D01*
Y8693D01*
X-4512D01*
X-5512Y7693D01*
X-6512Y8693D01*
X-7512D01*
Y7693D01*
X-6512Y6693D01*
X-7512Y5693D01*
Y4693D01*
X-14598Y21622D02*
X-13598D01*
X-12598Y22622D01*
X-11598Y21622D01*
X-10598D01*
Y22622D01*
X-11598Y23622D01*
X-10598Y24622D01*
Y25622D01*
X-11598D01*
X-12598Y24622D01*
X-13598Y25622D01*
X-14598D01*
Y24622D01*
X-13598Y23622D01*
X-14598Y22622D01*
Y21622D01*
X6661Y4693D02*
X7661D01*
X8661Y5693D01*
X9661Y4693D01*
X10661D01*
Y5693D01*
X9661Y6693D01*
X10661Y7693D01*
Y8693D01*
X9661D01*
X8661Y7693D01*
X7661Y8693D01*
X6661D01*
Y7693D01*
X7661Y6693D01*
X6661Y5693D01*
Y4693D01*
X-8299Y21622D02*
X-7299D01*
X-6299Y22622D01*
X-5299Y21622D01*
X-4299D01*
Y22622D01*
X-5299Y23622D01*
X-4299Y24622D01*
Y25622D01*
X-5299D01*
X-6299Y24622D01*
X-7299Y25622D01*
X-8299D01*
Y24622D01*
X-7299Y23622D01*
X-8299Y22622D01*
Y21622D01*
X-11449D02*
X-10449D01*
X-9449Y22622D01*
X-8449Y21622D01*
X-7449D01*
Y22622D01*
X-8449Y23622D01*
X-7449Y24622D01*
Y25622D01*
X-8449D01*
X-9449Y24622D01*
X-10449Y25622D01*
X-11449D01*
Y24622D01*
X-10449Y23622D01*
X-11449Y22622D01*
Y21622D01*
X-12236Y4693D02*
X-11236D01*
X-10236Y5693D01*
X-9236Y4693D01*
X-8236D01*
Y5693D01*
X-9236Y6693D01*
X-8236Y7693D01*
Y8693D01*
X-9236D01*
X-10236Y7693D01*
X-11236Y8693D01*
X-12236D01*
Y7693D01*
X-11236Y6693D01*
X-12236Y5693D01*
Y4693D01*
X-14598Y7449D02*
X-13598D01*
X-12598Y8449D01*
X-11598Y7449D01*
X-10598D01*
Y8449D01*
X-11598Y9449D01*
X-10598Y10449D01*
Y11449D01*
X-11598D01*
X-12598Y10449D01*
X-13598Y11449D01*
X-14598D01*
Y10449D01*
X-13598Y9449D01*
X-14598Y8449D01*
Y7449D01*
X9024D02*
X10024D01*
X11024Y8449D01*
X12024Y7449D01*
X13024D01*
Y8449D01*
X12024Y9449D01*
X13024Y10449D01*
Y11449D01*
X12024D01*
X11024Y10449D01*
X10024Y11449D01*
X9024D01*
Y10449D01*
X10024Y9449D01*
X9024Y8449D01*
Y7449D01*
X13748Y4693D02*
X14748D01*
X15748Y5693D01*
X16748Y4693D01*
X17748D01*
Y5693D01*
X16748Y6693D01*
X17748Y7693D01*
Y8693D01*
X16748D01*
X15748Y7693D01*
X14748Y8693D01*
X13748D01*
Y7693D01*
X14748Y6693D01*
X13748Y5693D01*
Y4693D01*
X16110Y7449D02*
X17110D01*
X18110Y8449D01*
X19110Y7449D01*
X20110D01*
Y8449D01*
X19110Y9449D01*
X20110Y10449D01*
Y11449D01*
X19110D01*
X18110Y10449D01*
X17110Y11449D01*
X16110D01*
Y10449D01*
X17110Y9449D01*
X16110Y8449D01*
Y7449D01*
X20835Y4693D02*
X21835D01*
X22835Y5693D01*
X23835Y4693D01*
X24835D01*
Y5693D01*
X23835Y6693D01*
X24835Y7693D01*
Y8693D01*
X23835D01*
X22835Y7693D01*
X21835Y8693D01*
X20835D01*
Y7693D01*
X21835Y6693D01*
X20835Y5693D01*
Y4693D01*
X23197Y7449D02*
X24197D01*
X25197Y8449D01*
X26197Y7449D01*
X27197D01*
Y8449D01*
X26197Y9449D01*
X27197Y10449D01*
Y11449D01*
X26197D01*
X25197Y10449D01*
X24197Y11449D01*
X23197D01*
Y10449D01*
X24197Y9449D01*
X23197Y8449D01*
Y7449D01*
X-157512Y-29953D02*
X-156512D01*
X-155512Y-28953D01*
X-154512Y-29953D01*
X-153512D01*
Y-28953D01*
X-154512Y-27953D01*
X-153512Y-26953D01*
Y-25953D01*
X-154512D01*
X-155512Y-26953D01*
X-156512Y-25953D01*
X-157512D01*
Y-26953D01*
X-156512Y-27953D01*
X-157512Y-28953D01*
Y-29953D01*
X-152787Y-42945D02*
X-151787D01*
X-150787Y-41945D01*
X-149787Y-42945D01*
X-148787D01*
Y-41945D01*
X-149787Y-40945D01*
X-148787Y-39945D01*
Y-38945D01*
X-149787D01*
X-150787Y-39945D01*
X-151787Y-38945D01*
X-152787D01*
Y-39945D01*
X-151787Y-40945D01*
X-152787Y-41945D01*
Y-42945D01*
X-153181Y-51213D02*
X-152181D01*
X-151181Y-50213D01*
X-150181Y-51213D01*
X-149181D01*
Y-50213D01*
X-150181Y-49213D01*
X-149181Y-48213D01*
Y-47213D01*
X-150181D01*
X-151181Y-48213D01*
X-152181Y-47213D01*
X-153181D01*
Y-48213D01*
X-152181Y-49213D01*
X-153181Y-50213D01*
Y-51213D01*
X-144126Y-43339D02*
X-143126D01*
X-142126Y-42339D01*
X-141126Y-43339D01*
X-140126D01*
Y-42339D01*
X-141126Y-41339D01*
X-140126Y-40339D01*
Y-39339D01*
X-141126D01*
X-142126Y-40339D01*
X-143126Y-39339D01*
X-144126D01*
Y-40339D01*
X-143126Y-41339D01*
X-144126Y-42339D01*
Y-43339D01*
X-144520Y-51213D02*
X-143520D01*
X-142520Y-50213D01*
X-141520Y-51213D01*
X-140520D01*
Y-50213D01*
X-141520Y-49213D01*
X-140520Y-48213D01*
Y-47213D01*
X-141520D01*
X-142520Y-48213D01*
X-143520Y-47213D01*
X-144520D01*
Y-48213D01*
X-143520Y-49213D01*
X-144520Y-50213D01*
Y-51213D01*
X30283Y7449D02*
X31284D01*
X32283Y8449D01*
X33283Y7449D01*
X34284D01*
Y8449D01*
X33283Y9449D01*
X34284Y10449D01*
Y11449D01*
X33283D01*
X32283Y10449D01*
X31284Y11449D01*
X30283D01*
Y10449D01*
X31284Y9449D01*
X30283Y8449D01*
Y7449D01*
X27921Y4693D02*
X28921D01*
X29921Y5693D01*
X30921Y4693D01*
X31921D01*
Y5693D01*
X30921Y6693D01*
X31921Y7693D01*
Y8693D01*
X30921D01*
X29921Y7693D01*
X28921Y8693D01*
X27921D01*
Y7693D01*
X28921Y6693D01*
X27921Y5693D01*
Y4693D01*
X-25622Y-96488D02*
X-24622D01*
X-23622Y-95488D01*
X-22622Y-96488D01*
X-21622D01*
Y-95488D01*
X-22622Y-94488D01*
X-21622Y-93488D01*
Y-92488D01*
X-22622D01*
X-23622Y-93488D01*
X-24622Y-92488D01*
X-25622D01*
Y-93488D01*
X-24622Y-94488D01*
X-25622Y-95488D01*
Y-96488D01*
Y-104362D02*
X-24622D01*
X-23622Y-103362D01*
X-22622Y-104362D01*
X-21622D01*
Y-103362D01*
X-22622Y-102362D01*
X-21622Y-101362D01*
Y-100362D01*
X-22622D01*
X-23622Y-101362D01*
X-24622Y-100362D01*
X-25622D01*
Y-101362D01*
X-24622Y-102362D01*
X-25622Y-103362D01*
Y-104362D01*
X-33496D02*
X-32496D01*
X-31496Y-103362D01*
X-30496Y-104362D01*
X-29496D01*
Y-103362D01*
X-30496Y-102362D01*
X-29496Y-101362D01*
Y-100362D01*
X-30496D01*
X-31496Y-101362D01*
X-32496Y-100362D01*
X-33496D01*
Y-101362D01*
X-32496Y-102362D01*
X-33496Y-103362D01*
Y-104362D01*
X-41370D02*
X-40370D01*
X-39370Y-103362D01*
X-38370Y-104362D01*
X-37370D01*
Y-103362D01*
X-38370Y-102362D01*
X-37370Y-101362D01*
Y-100362D01*
X-38370D01*
X-39370Y-101362D01*
X-40370Y-100362D01*
X-41370D01*
Y-101362D01*
X-40370Y-102362D01*
X-41370Y-103362D01*
Y-104362D01*
X-49244D02*
X-48244D01*
X-47244Y-103362D01*
X-46244Y-104362D01*
X-45244D01*
Y-103362D01*
X-46244Y-102362D01*
X-45244Y-101362D01*
Y-100362D01*
X-46244D01*
X-47244Y-101362D01*
X-48244Y-100362D01*
X-49244D01*
Y-101362D01*
X-48244Y-102362D01*
X-49244Y-103362D01*
Y-104362D01*
X-17748Y-72866D02*
X-16748D01*
X-15748Y-71866D01*
X-14748Y-72866D01*
X-13748D01*
Y-71866D01*
X-14748Y-70866D01*
X-13748Y-69866D01*
Y-68866D01*
X-14748D01*
X-15748Y-69866D01*
X-16748Y-68866D01*
X-17748D01*
Y-69866D01*
X-16748Y-70866D01*
X-17748Y-71866D01*
Y-72866D01*
X-33496D02*
X-32496D01*
X-31496Y-71866D01*
X-30496Y-72866D01*
X-29496D01*
Y-71866D01*
X-30496Y-70866D01*
X-29496Y-69866D01*
Y-68866D01*
X-30496D01*
X-31496Y-69866D01*
X-32496Y-68866D01*
X-33496D01*
Y-69866D01*
X-32496Y-70866D01*
X-33496Y-71866D01*
Y-72866D01*
X-49244D02*
X-48244D01*
X-47244Y-71866D01*
X-46244Y-72866D01*
X-45244D01*
Y-71866D01*
X-46244Y-70866D01*
X-45244Y-69866D01*
Y-68866D01*
X-46244D01*
X-47244Y-69866D01*
X-48244Y-68866D01*
X-49244D01*
Y-69866D01*
X-48244Y-70866D01*
X-49244Y-71866D01*
Y-72866D01*
Y-80740D02*
X-48244D01*
X-47244Y-79740D01*
X-46244Y-80740D01*
X-45244D01*
Y-79740D01*
X-46244Y-78740D01*
X-45244Y-77740D01*
Y-76740D01*
X-46244D01*
X-47244Y-77740D01*
X-48244Y-76740D01*
X-49244D01*
Y-77740D01*
X-48244Y-78740D01*
X-49244Y-79740D01*
Y-80740D01*
X-41370D02*
X-40370D01*
X-39370Y-79740D01*
X-38370Y-80740D01*
X-37370D01*
Y-79740D01*
X-38370Y-78740D01*
X-37370Y-77740D01*
Y-76740D01*
X-38370D01*
X-39370Y-77740D01*
X-40370Y-76740D01*
X-41370D01*
Y-77740D01*
X-40370Y-78740D01*
X-41370Y-79740D01*
Y-80740D01*
Y-72866D02*
X-40370D01*
X-39370Y-71866D01*
X-38370Y-72866D01*
X-37370D01*
Y-71866D01*
X-38370Y-70866D01*
X-37370Y-69866D01*
Y-68866D01*
X-38370D01*
X-39370Y-69866D01*
X-40370Y-68866D01*
X-41370D01*
Y-69866D01*
X-40370Y-70866D01*
X-41370Y-71866D01*
Y-72866D01*
X-25622D02*
X-24622D01*
X-23622Y-71866D01*
X-22622Y-72866D01*
X-21622D01*
Y-71866D01*
X-22622Y-70866D01*
X-21622Y-69866D01*
Y-68866D01*
X-22622D01*
X-23622Y-69866D01*
X-24622Y-68866D01*
X-25622D01*
Y-69866D01*
X-24622Y-70866D01*
X-25622Y-71866D01*
Y-72866D01*
X131858Y-104362D02*
X132858D01*
X133858Y-103362D01*
X134858Y-104362D01*
X135858D01*
Y-103362D01*
X134858Y-102362D01*
X135858Y-101362D01*
Y-100362D01*
X134858D01*
X133858Y-101362D01*
X132858Y-100362D01*
X131858D01*
Y-101362D01*
X132858Y-102362D01*
X131858Y-103362D01*
Y-104362D01*
X139732D02*
X140732D01*
X141732Y-103362D01*
X142732Y-104362D01*
X143732D01*
Y-103362D01*
X142732Y-102362D01*
X143732Y-101362D01*
Y-100362D01*
X142732D01*
X141732Y-101362D01*
X140732Y-100362D01*
X139732D01*
Y-101362D01*
X140732Y-102362D01*
X139732Y-103362D01*
Y-104362D01*
X147606D02*
X148606D01*
X149606Y-103362D01*
X150606Y-104362D01*
X151606D01*
Y-103362D01*
X150606Y-102362D01*
X151606Y-101362D01*
Y-100362D01*
X150606D01*
X149606Y-101362D01*
X148606Y-100362D01*
X147606D01*
Y-101362D01*
X148606Y-102362D01*
X147606Y-103362D01*
Y-104362D01*
Y-96488D02*
X148606D01*
X149606Y-95488D01*
X150606Y-96488D01*
X151606D01*
Y-95488D01*
X150606Y-94488D01*
X151606Y-93488D01*
Y-92488D01*
X150606D01*
X149606Y-93488D01*
X148606Y-92488D01*
X147606D01*
Y-93488D01*
X148606Y-94488D01*
X147606Y-95488D01*
Y-96488D01*
X139732Y-80740D02*
X140732D01*
X141732Y-79740D01*
X142732Y-80740D01*
X143732D01*
Y-79740D01*
X142732Y-78740D01*
X143732Y-77740D01*
Y-76740D01*
X142732D01*
X141732Y-77740D01*
X140732Y-76740D01*
X139732D01*
Y-77740D01*
X140732Y-78740D01*
X139732Y-79740D01*
Y-80740D01*
X131858D02*
X132858D01*
X133858Y-79740D01*
X134858Y-80740D01*
X135858D01*
Y-79740D01*
X134858Y-78740D01*
X135858Y-77740D01*
Y-76740D01*
X134858D01*
X133858Y-77740D01*
X132858Y-76740D01*
X131858D01*
Y-77740D01*
X132858Y-78740D01*
X131858Y-79740D01*
Y-80740D01*
X123984D02*
X124984D01*
X125984Y-79740D01*
X126984Y-80740D01*
X127984D01*
Y-79740D01*
X126984Y-78740D01*
X127984Y-77740D01*
Y-76740D01*
X126984D01*
X125984Y-77740D01*
X124984Y-76740D01*
X123984D01*
Y-77740D01*
X124984Y-78740D01*
X123984Y-79740D01*
Y-80740D01*
X116110D02*
X117110D01*
X118110Y-79740D01*
X119110Y-80740D01*
X120110D01*
Y-79740D01*
X119110Y-78740D01*
X120110Y-77740D01*
Y-76740D01*
X119110D01*
X118110Y-77740D01*
X117110Y-76740D01*
X116110D01*
Y-77740D01*
X117110Y-78740D01*
X116110Y-79740D01*
Y-80740D01*
X131858Y-72866D02*
X132858D01*
X133858Y-71866D01*
X134858Y-72866D01*
X135858D01*
Y-71866D01*
X134858Y-70866D01*
X135858Y-69866D01*
Y-68866D01*
X134858D01*
X133858Y-69866D01*
X132858Y-68866D01*
X131858D01*
Y-69866D01*
X132858Y-70866D01*
X131858Y-71866D01*
Y-72866D01*
X139732D02*
X140732D01*
X141732Y-71866D01*
X142732Y-72866D01*
X143732D01*
Y-71866D01*
X142732Y-70866D01*
X143732Y-69866D01*
Y-68866D01*
X142732D01*
X141732Y-69866D01*
X140732Y-68866D01*
X139732D01*
Y-69866D01*
X140732Y-70866D01*
X139732Y-71866D01*
Y-72866D01*
Y-57118D02*
X140732D01*
X141732Y-56118D01*
X142732Y-57118D01*
X143732D01*
Y-56118D01*
X142732Y-55118D01*
X143732Y-54118D01*
Y-53118D01*
X142732D01*
X141732Y-54118D01*
X140732Y-53118D01*
X139732D01*
Y-54118D01*
X140732Y-55118D01*
X139732Y-56118D01*
Y-57118D01*
Y-49244D02*
X140732D01*
X141732Y-48244D01*
X142732Y-49244D01*
X143732D01*
Y-48244D01*
X142732Y-47244D01*
X143732Y-46244D01*
Y-45244D01*
X142732D01*
X141732Y-46244D01*
X140732Y-45244D01*
X139732D01*
Y-46244D01*
X140732Y-47244D01*
X139732Y-48244D01*
Y-49244D01*
X131858D02*
X132858D01*
X133858Y-48244D01*
X134858Y-49244D01*
X135858D01*
Y-48244D01*
X134858Y-47244D01*
X135858Y-46244D01*
Y-45244D01*
X134858D01*
X133858Y-46244D01*
X132858Y-45244D01*
X131858D01*
Y-46244D01*
X132858Y-47244D01*
X131858Y-48244D01*
Y-49244D01*
X218472Y-104362D02*
X219472D01*
X220472Y-103362D01*
X221472Y-104362D01*
X222472D01*
Y-103362D01*
X221472Y-102362D01*
X222472Y-101362D01*
Y-100362D01*
X221472D01*
X220472Y-101362D01*
X219472Y-100362D01*
X218472D01*
Y-101362D01*
X219472Y-102362D01*
X218472Y-103362D01*
Y-104362D01*
X226346D02*
X227346D01*
X228346Y-103362D01*
X229346Y-104362D01*
X230346D01*
Y-103362D01*
X229346Y-102362D01*
X230346Y-101362D01*
Y-100362D01*
X229346D01*
X228346Y-101362D01*
X227346Y-100362D01*
X226346D01*
Y-101362D01*
X227346Y-102362D01*
X226346Y-103362D01*
Y-104362D01*
X234221D02*
X235221D01*
X236221Y-103362D01*
X237221Y-104362D01*
X238221D01*
Y-103362D01*
X237221Y-102362D01*
X238221Y-101362D01*
Y-100362D01*
X237221D01*
X236221Y-101362D01*
X235221Y-100362D01*
X234221D01*
Y-101362D01*
X235221Y-102362D01*
X234221Y-103362D01*
Y-104362D01*
X202724Y-76016D02*
X203724D01*
X204724Y-75016D01*
X205724Y-76016D01*
X206724D01*
Y-75016D01*
X205724Y-74016D01*
X206724Y-73016D01*
Y-72016D01*
X205724D01*
X204724Y-73016D01*
X203724Y-72016D01*
X202724D01*
Y-73016D01*
X203724Y-74016D01*
X202724Y-75016D01*
Y-76016D01*
Y-80740D02*
X203724D01*
X204724Y-79740D01*
X205724Y-80740D01*
X206724D01*
Y-79740D01*
X205724Y-78740D01*
X206724Y-77740D01*
Y-76740D01*
X205724D01*
X204724Y-77740D01*
X203724Y-76740D01*
X202724D01*
Y-77740D01*
X203724Y-78740D01*
X202724Y-79740D01*
Y-80740D01*
X195638Y-79165D02*
X196638D01*
X197638Y-78165D01*
X198638Y-79165D01*
X199638D01*
Y-78165D01*
X198638Y-77165D01*
X199638Y-76165D01*
Y-75165D01*
X198638D01*
X197638Y-76165D01*
X196638Y-75165D01*
X195638D01*
Y-76165D01*
X196638Y-77165D01*
X195638Y-78165D01*
Y-79165D01*
X196031Y-65780D02*
X197031D01*
X198031Y-64780D01*
X199031Y-65780D01*
X200031D01*
Y-64780D01*
X199031Y-63779D01*
X200031Y-62779D01*
Y-61779D01*
X199031D01*
X198031Y-62779D01*
X197031Y-61779D01*
X196031D01*
Y-62779D01*
X197031Y-63779D01*
X196031Y-64780D01*
Y-65780D01*
X57449Y8630D02*
X58449D01*
X59449Y9630D01*
X60449Y8630D01*
X61449D01*
Y9630D01*
X60449Y10630D01*
X61449Y11630D01*
Y12630D01*
X60449D01*
X59449Y11630D01*
X58449Y12630D01*
X57449D01*
Y11630D01*
X58449Y10630D01*
X57449Y9630D01*
Y8630D01*
Y5087D02*
X58449D01*
X59449Y6087D01*
X60449Y5087D01*
X61449D01*
Y6087D01*
X60449Y7087D01*
X61449Y8087D01*
Y9087D01*
X60449D01*
X59449Y8087D01*
X58449Y9087D01*
X57449D01*
Y8087D01*
X58449Y7087D01*
X57449Y6087D01*
Y5087D01*
X48394Y1150D02*
X49394D01*
X50394Y2150D01*
X51394Y1150D01*
X52394D01*
Y2150D01*
X51394Y3150D01*
X52394Y4150D01*
Y5150D01*
X51394D01*
X50394Y4150D01*
X49394Y5150D01*
X48394D01*
Y4150D01*
X49394Y3150D01*
X48394Y2150D01*
Y1150D01*
X90913Y16504D02*
X91913D01*
X92913Y17504D01*
X93913Y16504D01*
X94913D01*
Y17504D01*
X93913Y18504D01*
X94913Y19504D01*
Y20504D01*
X93913D01*
X92913Y19504D01*
X91913Y20504D01*
X90913D01*
Y19504D01*
X91913Y18504D01*
X90913Y17504D01*
Y16504D01*
X62961Y7449D02*
X63961D01*
X64961Y8449D01*
X65961Y7449D01*
X66961D01*
Y8449D01*
X65961Y9449D01*
X66961Y10449D01*
Y11449D01*
X65961D01*
X64961Y10449D01*
X63961Y11449D01*
X62961D01*
Y10449D01*
X63961Y9449D01*
X62961Y8449D01*
Y7449D01*
X36976Y4693D02*
X37976D01*
X38976Y5693D01*
X39976Y4693D01*
X40976D01*
Y5693D01*
X39976Y6693D01*
X40976Y7693D01*
Y8693D01*
X39976D01*
X38976Y7693D01*
X37976Y8693D01*
X36976D01*
Y7693D01*
X37976Y6693D01*
X36976Y5693D01*
Y4693D01*
X33433D02*
X34433D01*
X35433Y5693D01*
X36433Y4693D01*
X37433D01*
Y5693D01*
X36433Y6693D01*
X37433Y7693D01*
Y8693D01*
X36433D01*
X35433Y7693D01*
X34433Y8693D01*
X33433D01*
Y7693D01*
X34433Y6693D01*
X33433Y5693D01*
Y4693D01*
X-79995Y-85124D02*
X-78995D01*
X-77995Y-84124D01*
X-76995Y-85124D01*
X-75995D01*
Y-84124D01*
X-76995Y-83124D01*
X-75995Y-82124D01*
Y-81124D01*
X-76995D01*
X-77995Y-82124D01*
X-78995Y-81124D01*
X-79995D01*
Y-82124D01*
X-78995Y-83124D01*
X-79995Y-84124D01*
Y-85124D01*
X-85071Y-85071D02*
X-84071D01*
X-83071Y-84071D01*
X-82071Y-85071D01*
X-81071D01*
Y-84071D01*
X-82071Y-83071D01*
X-81071Y-82071D01*
Y-81071D01*
X-82071D01*
X-83071Y-82071D01*
X-84071Y-81071D01*
X-85071D01*
Y-82071D01*
X-84071Y-83071D01*
X-85071Y-84071D01*
Y-85071D01*
X-64663Y-78049D02*
X-63663D01*
X-62663Y-77049D01*
X-61663Y-78049D01*
X-60663D01*
Y-77049D01*
X-61663Y-76049D01*
X-60663Y-75049D01*
Y-74049D01*
X-61663D01*
X-62663Y-75049D01*
X-63663Y-74049D01*
X-64663D01*
Y-75049D01*
X-63663Y-76049D01*
X-64663Y-77049D01*
Y-78049D01*
X-61843Y-72079D02*
X-60843D01*
X-59842Y-71079D01*
X-58842Y-72079D01*
X-57842D01*
Y-71079D01*
X-58842Y-70079D01*
X-57842Y-69079D01*
Y-68079D01*
X-58842D01*
X-59842Y-69079D01*
X-60843Y-68079D01*
X-61843D01*
Y-69079D01*
X-60843Y-70079D01*
X-61843Y-71079D01*
Y-72079D01*
Y-75228D02*
X-60843D01*
X-59842Y-74228D01*
X-58842Y-75228D01*
X-57842D01*
Y-74228D01*
X-58842Y-73228D01*
X-57842Y-72228D01*
Y-71228D01*
X-58842D01*
X-59842Y-72228D01*
X-60843Y-71228D01*
X-61843D01*
Y-72228D01*
X-60843Y-73228D01*
X-61843Y-74228D01*
Y-75228D01*
X-73654Y-69323D02*
X-72654D01*
X-71653Y-68323D01*
X-70653Y-69323D01*
X-69653D01*
Y-68323D01*
X-70653Y-67323D01*
X-69653Y-66323D01*
Y-65323D01*
X-70653D01*
X-71653Y-66323D01*
X-72654Y-65323D01*
X-73654D01*
Y-66323D01*
X-72654Y-67323D01*
X-73654Y-68323D01*
Y-69323D01*
X-117748Y-81921D02*
X-116748D01*
X-115748Y-80921D01*
X-114748Y-81921D01*
X-113748D01*
Y-80921D01*
X-114748Y-79921D01*
X-113748Y-78921D01*
Y-77921D01*
X-114748D01*
X-115748Y-78921D01*
X-116748Y-77921D01*
X-117748D01*
Y-78921D01*
X-116748Y-79921D01*
X-117748Y-80921D01*
Y-81921D01*
X-121685D02*
X-120685D01*
X-119685Y-80921D01*
X-118685Y-81921D01*
X-117685D01*
Y-80921D01*
X-118685Y-79921D01*
X-117685Y-78921D01*
Y-77921D01*
X-118685D01*
X-119685Y-78921D01*
X-120685Y-77921D01*
X-121685D01*
Y-78921D01*
X-120685Y-79921D01*
X-121685Y-80921D01*
Y-81921D01*
X-198850Y-70898D02*
X-197850D01*
X-196850Y-69898D01*
X-195850Y-70898D01*
X-194850D01*
Y-69898D01*
X-195850Y-68898D01*
X-194850Y-67898D01*
Y-66898D01*
X-195850D01*
X-196850Y-67898D01*
X-197850Y-66898D01*
X-198850D01*
Y-67898D01*
X-197850Y-68898D01*
X-198850Y-69898D01*
Y-70898D01*
X-173260Y-53969D02*
X-172260D01*
X-171260Y-52969D01*
X-170260Y-53969D01*
X-169260D01*
Y-52969D01*
X-170260Y-51968D01*
X-169260Y-50968D01*
Y-49968D01*
X-170260D01*
X-171260Y-50968D01*
X-172260Y-49968D01*
X-173260D01*
Y-50968D01*
X-172260Y-51968D01*
X-173260Y-52969D01*
Y-53969D01*
Y-56724D02*
X-172260D01*
X-171260Y-55724D01*
X-170260Y-56724D01*
X-169260D01*
Y-55724D01*
X-170260Y-54724D01*
X-169260Y-53724D01*
Y-52724D01*
X-170260D01*
X-171260Y-53724D01*
X-172260Y-52724D01*
X-173260D01*
Y-53724D01*
X-172260Y-54724D01*
X-173260Y-55724D01*
Y-56724D01*
X-235858Y-70898D02*
X-234858D01*
X-233858Y-69898D01*
X-232858Y-70898D01*
X-231858D01*
Y-69898D01*
X-232858Y-68898D01*
X-231858Y-67898D01*
Y-66898D01*
X-232858D01*
X-233858Y-67898D01*
X-234858Y-66898D01*
X-235858D01*
Y-67898D01*
X-234858Y-68898D01*
X-235858Y-69898D01*
Y-70898D01*
X-225622D02*
X-224622D01*
X-223622Y-69898D01*
X-222622Y-70898D01*
X-221622D01*
Y-69898D01*
X-222622Y-68898D01*
X-221622Y-67898D01*
Y-66898D01*
X-222622D01*
X-223622Y-67898D01*
X-224622Y-66898D01*
X-225622D01*
Y-67898D01*
X-224622Y-68898D01*
X-225622Y-69898D01*
Y-70898D01*
X-248850Y-57906D02*
X-247850D01*
X-246850Y-56906D01*
X-245850Y-57906D01*
X-244850D01*
Y-56906D01*
X-245850Y-55905D01*
X-244850Y-54905D01*
Y-53905D01*
X-245850D01*
X-246850Y-54905D01*
X-247850Y-53905D01*
X-248850D01*
Y-54905D01*
X-247850Y-55905D01*
X-248850Y-56906D01*
Y-57906D01*
X-252787D02*
X-251787D01*
X-250787Y-56906D01*
X-249787Y-57906D01*
X-248787D01*
Y-56906D01*
X-249787Y-55905D01*
X-248787Y-54905D01*
Y-53905D01*
X-249787D01*
X-250787Y-54905D01*
X-251787Y-53905D01*
X-252787D01*
Y-54905D01*
X-251787Y-55905D01*
X-252787Y-56906D01*
Y-57906D01*
X-263811Y68866D02*
X-262811D01*
X-261811Y69866D01*
X-260811Y68866D01*
X-259811D01*
Y69866D01*
X-260811Y70866D01*
X-259811Y71866D01*
Y72866D01*
X-260811D01*
X-261811Y71866D01*
X-262811Y72866D01*
X-263811D01*
Y71866D01*
X-262811Y70866D01*
X-263811Y69866D01*
Y68866D01*
Y64929D02*
X-262811D01*
X-261811Y65929D01*
X-260811Y64929D01*
X-259811D01*
Y65929D01*
X-260811Y66929D01*
X-259811Y67929D01*
Y68929D01*
X-260811D01*
X-261811Y67929D01*
X-262811Y68929D01*
X-263811D01*
Y67929D01*
X-262811Y66929D01*
X-263811Y65929D01*
Y64929D01*
Y60992D02*
X-262811D01*
X-261811Y61992D01*
X-260811Y60992D01*
X-259811D01*
Y61992D01*
X-260811Y62992D01*
X-259811Y63992D01*
Y64992D01*
X-260811D01*
X-261811Y63992D01*
X-262811Y64992D01*
X-263811D01*
Y63992D01*
X-262811Y62992D01*
X-263811Y61992D01*
Y60992D01*
Y57055D02*
X-262811D01*
X-261811Y58055D01*
X-260811Y57055D01*
X-259811D01*
Y58055D01*
X-260811Y59055D01*
X-259811Y60055D01*
Y61055D01*
X-260811D01*
X-261811Y60055D01*
X-262811Y61055D01*
X-263811D01*
Y60055D01*
X-262811Y59055D01*
X-263811Y58055D01*
Y57055D01*
Y53118D02*
X-262811D01*
X-261811Y54118D01*
X-260811Y53118D01*
X-259811D01*
Y54118D01*
X-260811Y55118D01*
X-259811Y56118D01*
Y57118D01*
X-260811D01*
X-261811Y56118D01*
X-262811Y57118D01*
X-263811D01*
Y56118D01*
X-262811Y55118D01*
X-263811Y54118D01*
Y53118D01*
Y49181D02*
X-262811D01*
X-261811Y50181D01*
X-260811Y49181D01*
X-259811D01*
Y50181D01*
X-260811Y51181D01*
X-259811Y52181D01*
Y53181D01*
X-260811D01*
X-261811Y52181D01*
X-262811Y53181D01*
X-263811D01*
Y52181D01*
X-262811Y51181D01*
X-263811Y50181D01*
Y49181D01*
Y45244D02*
X-262811D01*
X-261811Y46244D01*
X-260811Y45244D01*
X-259811D01*
Y46244D01*
X-260811Y47244D01*
X-259811Y48244D01*
Y49244D01*
X-260811D01*
X-261811Y48244D01*
X-262811Y49244D01*
X-263811D01*
Y48244D01*
X-262811Y47244D01*
X-263811Y46244D01*
Y45244D01*
Y41307D02*
X-262811D01*
X-261811Y42307D01*
X-260811Y41307D01*
X-259811D01*
Y42307D01*
X-260811Y43307D01*
X-259811Y44307D01*
Y45307D01*
X-260811D01*
X-261811Y44307D01*
X-262811Y45307D01*
X-263811D01*
Y44307D01*
X-262811Y43307D01*
X-263811Y42307D01*
Y41307D01*
Y37370D02*
X-262811D01*
X-261811Y38370D01*
X-260811Y37370D01*
X-259811D01*
Y38370D01*
X-260811Y39370D01*
X-259811Y40370D01*
Y41370D01*
X-260811D01*
X-261811Y40370D01*
X-262811Y41370D01*
X-263811D01*
Y40370D01*
X-262811Y39370D01*
X-263811Y38370D01*
Y37370D01*
Y33433D02*
X-262811D01*
X-261811Y34433D01*
X-260811Y33433D01*
X-259811D01*
Y34433D01*
X-260811Y35433D01*
X-259811Y36433D01*
Y37433D01*
X-260811D01*
X-261811Y36433D01*
X-262811Y37433D01*
X-263811D01*
Y36433D01*
X-262811Y35433D01*
X-263811Y34433D01*
Y33433D01*
Y29496D02*
X-262811D01*
X-261811Y30496D01*
X-260811Y29496D01*
X-259811D01*
Y30496D01*
X-260811Y31496D01*
X-259811Y32496D01*
Y33496D01*
X-260811D01*
X-261811Y32496D01*
X-262811Y33496D01*
X-263811D01*
Y32496D01*
X-262811Y31496D01*
X-263811Y30496D01*
Y29496D01*
Y25559D02*
X-262811D01*
X-261811Y26559D01*
X-260811Y25559D01*
X-259811D01*
Y26559D01*
X-260811Y27559D01*
X-259811Y28559D01*
Y29559D01*
X-260811D01*
X-261811Y28559D01*
X-262811Y29559D01*
X-263811D01*
Y28559D01*
X-262811Y27559D01*
X-263811Y26559D01*
Y25559D01*
X-283496Y13748D02*
X-282496D01*
X-281496Y14748D01*
X-280496Y13748D01*
X-279496D01*
Y14748D01*
X-280496Y15748D01*
X-279496Y16748D01*
Y17748D01*
X-280496D01*
X-281496Y16748D01*
X-282496Y17748D01*
X-283496D01*
Y16748D01*
X-282496Y15748D01*
X-283496Y14748D01*
Y13748D01*
X-267748Y9811D02*
X-266748D01*
X-265748Y10811D01*
X-264748Y9811D01*
X-263748D01*
Y10811D01*
X-264748Y11811D01*
X-263748Y12811D01*
Y13811D01*
X-264748D01*
X-265748Y12811D01*
X-266748Y13811D01*
X-267748D01*
Y12811D01*
X-266748Y11811D01*
X-267748Y10811D01*
Y9811D01*
X-283496Y7842D02*
X-282496D01*
X-281496Y8843D01*
X-280496Y7842D01*
X-279496D01*
Y8843D01*
X-280496Y9843D01*
X-279496Y10842D01*
Y11842D01*
X-280496D01*
X-281496Y10842D01*
X-282496Y11842D01*
X-283496D01*
Y10842D01*
X-282496Y9843D01*
X-283496Y8843D01*
Y7842D01*
Y1937D02*
X-282496D01*
X-281496Y2937D01*
X-280496Y1937D01*
X-279496D01*
Y2937D01*
X-280496Y3937D01*
X-279496Y4937D01*
Y5937D01*
X-280496D01*
X-281496Y4937D01*
X-282496Y5937D01*
X-283496D01*
Y4937D01*
X-282496Y3937D01*
X-283496Y2937D01*
Y1937D01*
Y-3968D02*
X-282496D01*
X-281496Y-2968D01*
X-280496Y-3968D01*
X-279496D01*
Y-2968D01*
X-280496Y-1969D01*
X-279496Y-969D01*
Y32D01*
X-280496D01*
X-281496Y-969D01*
X-282496Y32D01*
X-283496D01*
Y-969D01*
X-282496Y-1969D01*
X-283496Y-2968D01*
Y-3968D01*
X-277590D02*
X-276590D01*
X-275590Y-2968D01*
X-274590Y-3968D01*
X-273590D01*
Y-2968D01*
X-274590Y-1969D01*
X-273590Y-969D01*
Y32D01*
X-274590D01*
X-275590Y-969D01*
X-276590Y32D01*
X-277590D01*
Y-969D01*
X-276590Y-1969D01*
X-277590Y-2968D01*
Y-3968D01*
X44836Y-88629D02*
X45836D01*
X46836Y-87629D01*
X47836Y-88629D01*
X48836D01*
Y-87629D01*
X47836Y-86629D01*
X48836Y-85629D01*
Y-84629D01*
X47836D01*
X46836Y-85629D01*
X45836Y-84629D01*
X44836D01*
Y-85629D01*
X45836Y-86629D01*
X44836Y-87629D01*
Y-88629D01*
X53905Y-92551D02*
X54905D01*
X55905Y-91551D01*
X56906Y-92551D01*
X57906D01*
Y-91551D01*
X56906Y-90551D01*
X57906Y-89551D01*
Y-88551D01*
X56906D01*
X55905Y-89551D01*
X54905Y-88551D01*
X53905D01*
Y-89551D01*
X54905Y-90551D01*
X53905Y-91551D01*
Y-92551D01*
X52724Y-72866D02*
X53724D01*
X54724Y-71866D01*
X55724Y-72866D01*
X56724D01*
Y-71866D01*
X55724Y-70866D01*
X56724Y-69866D01*
Y-68866D01*
X55724D01*
X54724Y-69866D01*
X53724Y-68866D01*
X52724D01*
Y-69866D01*
X53724Y-70866D01*
X52724Y-71866D01*
Y-72866D01*
X37370Y-76016D02*
X38370D01*
X39370Y-75016D01*
X40370Y-76016D01*
X41370D01*
Y-75016D01*
X40370Y-74016D01*
X41370Y-73016D01*
Y-72016D01*
X40370D01*
X39370Y-73016D01*
X38370Y-72016D01*
X37370D01*
Y-73016D01*
X38370Y-74016D01*
X37370Y-75016D01*
Y-76016D01*
Y-72866D02*
X38370D01*
X39370Y-71866D01*
X40370Y-72866D01*
X41370D01*
Y-71866D01*
X40370Y-70866D01*
X41370Y-69866D01*
Y-68866D01*
X40370D01*
X39370Y-69866D01*
X38370Y-68866D01*
X37370D01*
Y-69866D01*
X38370Y-70866D01*
X37370Y-71866D01*
Y-72866D01*
X41504Y-72276D02*
X42504D01*
X43504Y-71276D01*
X44504Y-72276D01*
X45504D01*
Y-71276D01*
X44504Y-70276D01*
X45504Y-69276D01*
Y-68276D01*
X44504D01*
X43504Y-69276D01*
X42504Y-68276D01*
X41504D01*
Y-69276D01*
X42504Y-70276D01*
X41504Y-71276D01*
Y-72276D01*
X45441Y-72276D02*
X46441D01*
X47441Y-71276D01*
X48441Y-72276D01*
X49441D01*
Y-71276D01*
X48441Y-70276D01*
X49441Y-69276D01*
Y-68276D01*
X48441D01*
X47441Y-69276D01*
X46441Y-68276D01*
X45441D01*
Y-69276D01*
X46441Y-70276D01*
X45441Y-71276D01*
Y-72276D01*
X44457Y-80740D02*
X45457D01*
X46457Y-79740D01*
X47457Y-80740D01*
X48457D01*
Y-79740D01*
X47457Y-78740D01*
X48457Y-77740D01*
Y-76740D01*
X47457D01*
X46457Y-77740D01*
X45457Y-76740D01*
X44457D01*
Y-77740D01*
X45457Y-78740D01*
X44457Y-79740D01*
Y-80740D01*
X52724Y-76016D02*
X53724D01*
X54724Y-75016D01*
X55724Y-76016D01*
X56724D01*
Y-75016D01*
X55724Y-74016D01*
X56724Y-73016D01*
Y-72016D01*
X55724D01*
X54724Y-73016D01*
X53724Y-72016D01*
X52724D01*
Y-73016D01*
X53724Y-74016D01*
X52724Y-75016D01*
Y-76016D01*
X35402Y-95701D02*
X36402D01*
X37402Y-94701D01*
X38402Y-95701D01*
X39402D01*
Y-94701D01*
X38402Y-93701D01*
X39402Y-92701D01*
Y-91701D01*
X38402D01*
X37402Y-92701D01*
X36402Y-91701D01*
X35402D01*
Y-92701D01*
X36402Y-93701D01*
X35402Y-94701D01*
Y-95701D01*
X31858Y-98457D02*
X32858D01*
X33858Y-97457D01*
X34858Y-98457D01*
X35858D01*
Y-97457D01*
X34858Y-96457D01*
X35858Y-95457D01*
Y-94457D01*
X34858D01*
X33858Y-95457D01*
X32858Y-94457D01*
X31858D01*
Y-95457D01*
X32858Y-96457D01*
X31858Y-97457D01*
Y-98457D01*
X45638Y-51606D02*
X46638D01*
X47638Y-50606D01*
X48638Y-51606D01*
X49638D01*
Y-50606D01*
X48638Y-49606D01*
X49638Y-48606D01*
Y-47606D01*
X48638D01*
X47638Y-48606D01*
X46638Y-47606D01*
X45638D01*
Y-48606D01*
X46638Y-49606D01*
X45638Y-50606D01*
Y-51606D01*
Y-56331D02*
X46638D01*
X47638Y-55331D01*
X48638Y-56331D01*
X49638D01*
Y-55331D01*
X48638Y-54331D01*
X49638Y-53331D01*
Y-52331D01*
X48638D01*
X47638Y-53331D01*
X46638Y-52331D01*
X45638D01*
Y-53331D01*
X46638Y-54331D01*
X45638Y-55331D01*
Y-56331D01*
Y-61055D02*
X46638D01*
X47638Y-60055D01*
X48638Y-61055D01*
X49638D01*
Y-60055D01*
X48638Y-59055D01*
X49638Y-58055D01*
Y-57055D01*
X48638D01*
X47638Y-58055D01*
X46638Y-57055D01*
X45638D01*
Y-58055D01*
X46638Y-59055D01*
X45638Y-60055D01*
Y-61055D01*
X108236Y-80740D02*
X109236D01*
X110236Y-79740D01*
X111236Y-80740D01*
X112236D01*
Y-79740D01*
X111236Y-78740D01*
X112236Y-77740D01*
Y-76740D01*
X111236D01*
X110236Y-77740D01*
X109236Y-76740D01*
X108236D01*
Y-77740D01*
X109236Y-78740D01*
X108236Y-79740D01*
Y-80740D01*
X112173Y-76803D02*
X113173D01*
X114173Y-75803D01*
X115173Y-76803D01*
X116173D01*
Y-75803D01*
X115173Y-74803D01*
X116173Y-73803D01*
Y-72803D01*
X115173D01*
X114173Y-73803D01*
X113173Y-72803D01*
X112173D01*
Y-73803D01*
X113173Y-74803D01*
X112173Y-75803D01*
Y-76803D01*
X120047D02*
X121047D01*
X122047Y-75803D01*
X123047Y-76803D01*
X124047D01*
Y-75803D01*
X123047Y-74803D01*
X124047Y-73803D01*
Y-72803D01*
X123047D01*
X122047Y-73803D01*
X121047Y-72803D01*
X120047D01*
Y-73803D01*
X121047Y-74803D01*
X120047Y-75803D01*
Y-76803D01*
X127921D02*
X128921D01*
X129921Y-75803D01*
X130921Y-76803D01*
X131921D01*
Y-75803D01*
X130921Y-74803D01*
X131921Y-73803D01*
Y-72803D01*
X130921D01*
X129921Y-73803D01*
X128921Y-72803D01*
X127921D01*
Y-73803D01*
X128921Y-74803D01*
X127921Y-75803D01*
Y-76803D01*
X135795D02*
X136795D01*
X137795Y-75803D01*
X138795Y-76803D01*
X139795D01*
Y-75803D01*
X138795Y-74803D01*
X139795Y-73803D01*
Y-72803D01*
X138795D01*
X137795Y-73803D01*
X136795Y-72803D01*
X135795D01*
Y-73803D01*
X136795Y-74803D01*
X135795Y-75803D01*
Y-76803D01*
X143669Y-61055D02*
X144669D01*
X145669Y-60055D01*
X146669Y-61055D01*
X147669D01*
Y-60055D01*
X146669Y-59055D01*
X147669Y-58055D01*
Y-57055D01*
X146669D01*
X145669Y-58055D01*
X144669Y-57055D01*
X143669D01*
Y-58055D01*
X144669Y-59055D01*
X143669Y-60055D01*
Y-61055D01*
X135795Y-53181D02*
X136795D01*
X137795Y-52181D01*
X138795Y-53181D01*
X139795D01*
Y-52181D01*
X138795Y-51181D01*
X139795Y-50181D01*
Y-49181D01*
X138795D01*
X137795Y-50181D01*
X136795Y-49181D01*
X135795D01*
Y-50181D01*
X136795Y-51181D01*
X135795Y-52181D01*
Y-53181D01*
X151543Y-61055D02*
X152543D01*
X153543Y-60055D01*
X154543Y-61055D01*
X155543D01*
Y-60055D01*
X154543Y-59055D01*
X155543Y-58055D01*
Y-57055D01*
X154543D01*
X153543Y-58055D01*
X152543Y-57055D01*
X151543D01*
Y-58055D01*
X152543Y-59055D01*
X151543Y-60055D01*
Y-61055D01*
X234221Y-88614D02*
X235221D01*
X236221Y-87614D01*
X237221Y-88614D01*
X238221D01*
Y-87614D01*
X237221Y-86614D01*
X238221Y-85614D01*
Y-84614D01*
X237221D01*
X236221Y-85614D01*
X235221Y-84614D01*
X234221D01*
Y-85614D01*
X235221Y-86614D01*
X234221Y-87614D01*
Y-88614D01*
Y-96488D02*
X235221D01*
X236221Y-95488D01*
X237221Y-96488D01*
X238221D01*
Y-95488D01*
X237221Y-94488D01*
X238221Y-93488D01*
Y-92488D01*
X237221D01*
X236221Y-93488D01*
X235221Y-92488D01*
X234221D01*
Y-93488D01*
X235221Y-94488D01*
X234221Y-95488D01*
Y-96488D01*
X253906Y-53181D02*
X254906D01*
X255906Y-52181D01*
X256906Y-53181D01*
X257906D01*
Y-52181D01*
X256906Y-51181D01*
X257906Y-50181D01*
Y-49181D01*
X256906D01*
X255906Y-50181D01*
X254906Y-49181D01*
X253906D01*
Y-50181D01*
X254906Y-51181D01*
X253906Y-52181D01*
Y-53181D01*
X265717D02*
X266717D01*
X267717Y-52181D01*
X268717Y-53181D01*
X269717D01*
Y-52181D01*
X268717Y-51181D01*
X269717Y-50181D01*
Y-49181D01*
X268717D01*
X267717Y-50181D01*
X266717Y-49181D01*
X265717D01*
Y-50181D01*
X266717Y-51181D01*
X265717Y-52181D01*
Y-53181D01*
X277528D02*
X278528D01*
X279528Y-52181D01*
X280528Y-53181D01*
X281528D01*
Y-52181D01*
X280528Y-51181D01*
X281528Y-50181D01*
Y-49181D01*
X280528D01*
X279528Y-50181D01*
X278528Y-49181D01*
X277528D01*
Y-50181D01*
X278528Y-51181D01*
X277528Y-52181D01*
Y-53181D01*
X264311Y-61100D02*
X265311D01*
X266311Y-60100D01*
X267311Y-61100D01*
X268311D01*
Y-60100D01*
X267311Y-59100D01*
X268311Y-58100D01*
Y-57100D01*
X267311D01*
X266311Y-58100D01*
X265311Y-57100D01*
X264311D01*
Y-58100D01*
X265311Y-59100D01*
X264311Y-60100D01*
Y-61100D01*
X252500D02*
X253500D01*
X254500Y-60100D01*
X255500Y-61100D01*
X256500D01*
Y-60100D01*
X255500Y-59100D01*
X256500Y-58100D01*
Y-57100D01*
X255500D01*
X254500Y-58100D01*
X253500Y-57100D01*
X252500D01*
Y-58100D01*
X253500Y-59100D01*
X252500Y-60100D01*
Y-61100D01*
X238158Y-33496D02*
X239158D01*
X240158Y-32496D01*
X241158Y-33496D01*
X242158D01*
Y-32496D01*
X241158Y-31496D01*
X242158Y-30496D01*
Y-29496D01*
X241158D01*
X240158Y-30496D01*
X239158Y-29496D01*
X238158D01*
Y-30496D01*
X239158Y-31496D01*
X238158Y-32496D01*
Y-33496D01*
Y-45307D02*
X239158D01*
X240158Y-44307D01*
X241158Y-45307D01*
X242158D01*
Y-44307D01*
X241158Y-43307D01*
X242158Y-42307D01*
Y-41307D01*
X241158D01*
X240158Y-42307D01*
X239158Y-41307D01*
X238158D01*
Y-42307D01*
X239158Y-43307D01*
X238158Y-44307D01*
Y-45307D01*
X246031Y-17748D02*
X247031D01*
X248031Y-16748D01*
X249031Y-17748D01*
X250031D01*
Y-16748D01*
X249031Y-15748D01*
X250031Y-14748D01*
Y-13748D01*
X249031D01*
X248031Y-14748D01*
X247031Y-13748D01*
X246031D01*
Y-14748D01*
X247031Y-15748D01*
X246031Y-16748D01*
Y-17748D01*
X257842D02*
X258842D01*
X259842Y-16748D01*
X260842Y-17748D01*
X261842D01*
Y-16748D01*
X260842Y-15748D01*
X261842Y-14748D01*
Y-13748D01*
X260842D01*
X259842Y-14748D01*
X258842Y-13748D01*
X257842D01*
Y-14748D01*
X258842Y-15748D01*
X257842Y-16748D01*
Y-17748D01*
X269654D02*
X270654D01*
X271654Y-16748D01*
X272654Y-17748D01*
X273654D01*
Y-16748D01*
X272654Y-15748D01*
X273654Y-14748D01*
Y-13748D01*
X272654D01*
X271654Y-14748D01*
X270654Y-13748D01*
X269654D01*
Y-14748D01*
X270654Y-15748D01*
X269654Y-16748D01*
Y-17748D01*
Y29496D02*
X270654D01*
X271654Y30496D01*
X272654Y29496D01*
X273654D01*
Y30496D01*
X272654Y31496D01*
X273654Y32496D01*
Y33496D01*
X272654D01*
X271654Y32496D01*
X270654Y33496D01*
X269654D01*
Y32496D01*
X270654Y31496D01*
X269654Y30496D01*
Y29496D01*
X257842D02*
X258842D01*
X259842Y30496D01*
X260842Y29496D01*
X261842D01*
Y30496D01*
X260842Y31496D01*
X261842Y32496D01*
Y33496D01*
X260842D01*
X259842Y32496D01*
X258842Y33496D01*
X257842D01*
Y32496D01*
X258842Y31496D01*
X257842Y30496D01*
Y29496D01*
X246031D02*
X247031D01*
X248031Y30496D01*
X249031Y29496D01*
X250031D01*
Y30496D01*
X249031Y31496D01*
X250031Y32496D01*
Y33496D01*
X249031D01*
X248031Y32496D01*
X247031Y33496D01*
X246031D01*
Y32496D01*
X247031Y31496D01*
X246031Y30496D01*
Y29496D01*
X235008Y61937D02*
X236008D01*
X237008Y62937D01*
X238008Y61937D01*
X239008D01*
Y62937D01*
X238008Y63937D01*
X239008Y64937D01*
Y65937D01*
X238008D01*
X237008Y64937D01*
X236008Y65937D01*
X235008D01*
Y64937D01*
X236008Y63937D01*
X235008Y62937D01*
Y61937D01*
X219024Y38787D02*
X220024D01*
X221024Y39787D01*
X222024Y38787D01*
X223024D01*
Y39787D01*
X222024Y40787D01*
X223024Y41787D01*
Y42787D01*
X222024D01*
X221024Y41787D01*
X220024Y42787D01*
X219024D01*
Y41787D01*
X220024Y40787D01*
X219024Y39787D01*
Y38787D01*
X198787Y60992D02*
X199787D01*
X200787Y61992D01*
X201787Y60992D01*
X202787D01*
Y61992D01*
X201787Y62992D01*
X202787Y63992D01*
Y64992D01*
X201787D01*
X200787Y63992D01*
X199787Y64992D01*
X198787D01*
Y63992D01*
X199787Y62992D01*
X198787Y61992D01*
Y60992D01*
Y68866D02*
X199787D01*
X200787Y69866D01*
X201787Y68866D01*
X202787D01*
Y69866D01*
X201787Y70866D01*
X202787Y71866D01*
Y72866D01*
X201787D01*
X200787Y71866D01*
X199787Y72866D01*
X198787D01*
Y71866D01*
X199787Y70866D01*
X198787Y69866D01*
Y68866D01*
X190913Y60992D02*
X191913D01*
X192913Y61992D01*
X193913Y60992D01*
X194913D01*
Y61992D01*
X193913Y62992D01*
X194913Y63992D01*
Y64992D01*
X193913D01*
X192913Y63992D01*
X191913Y64992D01*
X190913D01*
Y63992D01*
X191913Y62992D01*
X190913Y61992D01*
Y60992D01*
X116110Y92488D02*
X117110D01*
X118110Y93488D01*
X119110Y92488D01*
X120110D01*
Y93488D01*
X119110Y94488D01*
X120110Y95488D01*
Y96488D01*
X119110D01*
X118110Y95488D01*
X117110Y96488D01*
X116110D01*
Y95488D01*
X117110Y94488D01*
X116110Y93488D01*
Y92488D01*
X92488D02*
X93488D01*
X94488Y93488D01*
X95488Y92488D01*
X96488D01*
Y93488D01*
X95488Y94488D01*
X96488Y95488D01*
Y96488D01*
X95488D01*
X94488Y95488D01*
X93488Y96488D01*
X92488D01*
Y95488D01*
X93488Y94488D01*
X92488Y93488D01*
Y92488D01*
X68866D02*
X69866D01*
X70866Y93488D01*
X71866Y92488D01*
X72866D01*
Y93488D01*
X71866Y94488D01*
X72866Y95488D01*
Y96488D01*
X71866D01*
X70866Y95488D01*
X69866Y96488D01*
X68866D01*
Y95488D01*
X69866Y94488D01*
X68866Y93488D01*
Y92488D01*
X45244D02*
X46244D01*
X47244Y93488D01*
X48244Y92488D01*
X49244D01*
Y93488D01*
X48244Y94488D01*
X49244Y95488D01*
Y96488D01*
X48244D01*
X47244Y95488D01*
X46244Y96488D01*
X45244D01*
Y95488D01*
X46244Y94488D01*
X45244Y93488D01*
Y92488D01*
X21622D02*
X22622D01*
X23622Y93488D01*
X24622Y92488D01*
X25622D01*
Y93488D01*
X24622Y94488D01*
X25622Y95488D01*
Y96488D01*
X24622D01*
X23622Y95488D01*
X22622Y96488D01*
X21622D01*
Y95488D01*
X22622Y94488D01*
X21622Y93488D01*
Y92488D01*
X-2000D02*
X-1000D01*
X0Y93488D01*
X1000Y92488D01*
X2000D01*
Y93488D01*
X1000Y94488D01*
X2000Y95488D01*
Y96488D01*
X1000D01*
X0Y95488D01*
X-1000Y96488D01*
X-2000D01*
Y95488D01*
X-1000Y94488D01*
X-2000Y93488D01*
Y92488D01*
X-25622D02*
X-24622D01*
X-23622Y93488D01*
X-22622Y92488D01*
X-21622D01*
Y93488D01*
X-22622Y94488D01*
X-21622Y95488D01*
Y96488D01*
X-22622D01*
X-23622Y95488D01*
X-24622Y96488D01*
X-25622D01*
Y95488D01*
X-24622Y94488D01*
X-25622Y93488D01*
Y92488D01*
X-49244D02*
X-48244D01*
X-47244Y93488D01*
X-46244Y92488D01*
X-45244D01*
Y93488D01*
X-46244Y94488D01*
X-45244Y95488D01*
Y96488D01*
X-46244D01*
X-47244Y95488D01*
X-48244Y96488D01*
X-49244D01*
Y95488D01*
X-48244Y94488D01*
X-49244Y93488D01*
Y92488D01*
X-72866D02*
X-71866D01*
X-70866Y93488D01*
X-69866Y92488D01*
X-68866D01*
Y93488D01*
X-69866Y94488D01*
X-68866Y95488D01*
Y96488D01*
X-69866D01*
X-70866Y95488D01*
X-71866Y96488D01*
X-72866D01*
Y95488D01*
X-71866Y94488D01*
X-72866Y93488D01*
Y92488D01*
X-96488D02*
X-95488D01*
X-94488Y93488D01*
X-93488Y92488D01*
X-92488D01*
Y93488D01*
X-93488Y94488D01*
X-92488Y95488D01*
Y96488D01*
X-93488D01*
X-94488Y95488D01*
X-95488Y96488D01*
X-96488D01*
Y95488D01*
X-95488Y94488D01*
X-96488Y93488D01*
Y92488D01*
X-120110D02*
X-119110D01*
X-118110Y93488D01*
X-117110Y92488D01*
X-116110D01*
Y93488D01*
X-117110Y94488D01*
X-116110Y95488D01*
Y96488D01*
X-117110D01*
X-118110Y95488D01*
X-119110Y96488D01*
X-120110D01*
Y95488D01*
X-119110Y94488D01*
X-120110Y93488D01*
Y92488D01*
X-143732D02*
X-142732D01*
X-141732Y93488D01*
X-140732Y92488D01*
X-139732D01*
Y93488D01*
X-140732Y94488D01*
X-139732Y95488D01*
Y96488D01*
X-140732D01*
X-141732Y95488D01*
X-142732Y96488D01*
X-143732D01*
Y95488D01*
X-142732Y94488D01*
X-143732Y93488D01*
Y92488D01*
X-167354D02*
X-166354D01*
X-165354Y93488D01*
X-164354Y92488D01*
X-163354D01*
Y93488D01*
X-164354Y94488D01*
X-163354Y95488D01*
Y96488D01*
X-164354D01*
X-165354Y95488D01*
X-166354Y96488D01*
X-167354D01*
Y95488D01*
X-166354Y94488D01*
X-167354Y93488D01*
Y92488D01*
X-2000Y68866D02*
X-1000D01*
X0Y69866D01*
X1000Y68866D01*
X2000D01*
Y69866D01*
X1000Y70866D01*
X2000Y71866D01*
Y72866D01*
X1000D01*
X0Y71866D01*
X-1000Y72866D01*
X-2000D01*
Y71866D01*
X-1000Y70866D01*
X-2000Y69866D01*
Y68866D01*
X21622D02*
X22622D01*
X23622Y69866D01*
X24622Y68866D01*
X25622D01*
Y69866D01*
X24622Y70866D01*
X25622Y71866D01*
Y72866D01*
X24622D01*
X23622Y71866D01*
X22622Y72866D01*
X21622D01*
Y71866D01*
X22622Y70866D01*
X21622Y69866D01*
Y68866D01*
X45244D02*
X46244D01*
X47244Y69866D01*
X48244Y68866D01*
X49244D01*
Y69866D01*
X48244Y70866D01*
X49244Y71866D01*
Y72866D01*
X48244D01*
X47244Y71866D01*
X46244Y72866D01*
X45244D01*
Y71866D01*
X46244Y70866D01*
X45244Y69866D01*
Y68866D01*
X68866D02*
X69866D01*
X70866Y69866D01*
X71866Y68866D01*
X72866D01*
Y69866D01*
X71866Y70866D01*
X72866Y71866D01*
Y72866D01*
X71866D01*
X70866Y71866D01*
X69866Y72866D01*
X68866D01*
Y71866D01*
X69866Y70866D01*
X68866Y69866D01*
Y68866D01*
X92488D02*
X93488D01*
X94488Y69866D01*
X95488Y68866D01*
X96488D01*
Y69866D01*
X95488Y70866D01*
X96488Y71866D01*
Y72866D01*
X95488D01*
X94488Y71866D01*
X93488Y72866D01*
X92488D01*
Y71866D01*
X93488Y70866D01*
X92488Y69866D01*
Y68866D01*
X116110D02*
X117110D01*
X118110Y69866D01*
X119110Y68866D01*
X120110D01*
Y69866D01*
X119110Y70866D01*
X120110Y71866D01*
Y72866D01*
X119110D01*
X118110Y71866D01*
X117110Y72866D01*
X116110D01*
Y71866D01*
X117110Y70866D01*
X116110Y69866D01*
Y68866D01*
X139732D02*
X140732D01*
X141732Y69866D01*
X142732Y68866D01*
X143732D01*
Y69866D01*
X142732Y70866D01*
X143732Y71866D01*
Y72866D01*
X142732D01*
X141732Y71866D01*
X140732Y72866D01*
X139732D01*
Y71866D01*
X140732Y70866D01*
X139732Y69866D01*
Y68866D01*
X163354D02*
X164354D01*
X165354Y69866D01*
X166354Y68866D01*
X167354D01*
Y69866D01*
X166354Y70866D01*
X167354Y71866D01*
Y72866D01*
X166354D01*
X165354Y71866D01*
X164354Y72866D01*
X163354D01*
Y71866D01*
X164354Y70866D01*
X163354Y69866D01*
Y68866D01*
X139732Y45244D02*
X140732D01*
X141732Y46244D01*
X142732Y45244D01*
X143732D01*
Y46244D01*
X142732Y47244D01*
X143732Y48244D01*
Y49244D01*
X142732D01*
X141732Y48244D01*
X140732Y49244D01*
X139732D01*
Y48244D01*
X140732Y47244D01*
X139732Y46244D01*
Y45244D01*
X116110D02*
X117110D01*
X118110Y46244D01*
X119110Y45244D01*
X120110D01*
Y46244D01*
X119110Y47244D01*
X120110Y48244D01*
Y49244D01*
X119110D01*
X118110Y48244D01*
X117110Y49244D01*
X116110D01*
Y48244D01*
X117110Y47244D01*
X116110Y46244D01*
Y45244D01*
X92488D02*
X93488D01*
X94488Y46244D01*
X95488Y45244D01*
X96488D01*
Y46244D01*
X95488Y47244D01*
X96488Y48244D01*
Y49244D01*
X95488D01*
X94488Y48244D01*
X93488Y49244D01*
X92488D01*
Y48244D01*
X93488Y47244D01*
X92488Y46244D01*
Y45244D01*
X68866D02*
X69866D01*
X70866Y46244D01*
X71866Y45244D01*
X72866D01*
Y46244D01*
X71866Y47244D01*
X72866Y48244D01*
Y49244D01*
X71866D01*
X70866Y48244D01*
X69866Y49244D01*
X68866D01*
Y48244D01*
X69866Y47244D01*
X68866Y46244D01*
Y45244D01*
X45244D02*
X46244D01*
X47244Y46244D01*
X48244Y45244D01*
X49244D01*
Y46244D01*
X48244Y47244D01*
X49244Y48244D01*
Y49244D01*
X48244D01*
X47244Y48244D01*
X46244Y49244D01*
X45244D01*
Y48244D01*
X46244Y47244D01*
X45244Y46244D01*
Y45244D01*
X21622D02*
X22622D01*
X23622Y46244D01*
X24622Y45244D01*
X25622D01*
Y46244D01*
X24622Y47244D01*
X25622Y48244D01*
Y49244D01*
X24622D01*
X23622Y48244D01*
X22622Y49244D01*
X21622D01*
Y48244D01*
X22622Y47244D01*
X21622Y46244D01*
Y45244D01*
X-167354Y68866D02*
X-166354D01*
X-165354Y69866D01*
X-164354Y68866D01*
X-163354D01*
Y69866D01*
X-164354Y70866D01*
X-163354Y71866D01*
Y72866D01*
X-164354D01*
X-165354Y71866D01*
X-166354Y72866D01*
X-167354D01*
Y71866D01*
X-166354Y70866D01*
X-167354Y69866D01*
Y68866D01*
X-186400Y74100D02*
X-185400D01*
X-184400Y75100D01*
X-183400Y74100D01*
X-182400D01*
Y75100D01*
X-183400Y76100D01*
X-182400Y77100D01*
Y78100D01*
X-183400D01*
X-184400Y77100D01*
X-185400Y78100D01*
X-186400D01*
Y77100D01*
X-185400Y76100D01*
X-186400Y75100D01*
Y74100D01*
X-238221Y92488D02*
X-237221D01*
X-236221Y93488D01*
X-235221Y92488D01*
X-234221D01*
Y93488D01*
X-235221Y94488D01*
X-234221Y95488D01*
Y96488D01*
X-235221D01*
X-236221Y95488D01*
X-237221Y96488D01*
X-238221D01*
Y95488D01*
X-237221Y94488D01*
X-238221Y93488D01*
Y92488D01*
X-131921Y80677D02*
X-130921D01*
X-129921Y81677D01*
X-128921Y80677D01*
X-127921D01*
Y81677D01*
X-128921Y82677D01*
X-127921Y83677D01*
Y84677D01*
X-128921D01*
X-129921Y83677D01*
X-130921Y84677D01*
X-131921D01*
Y83677D01*
X-130921Y82677D01*
X-131921Y81677D01*
Y80677D01*
X-143732Y68866D02*
X-142732D01*
X-141732Y69866D01*
X-140732Y68866D01*
X-139732D01*
Y69866D01*
X-140732Y70866D01*
X-139732Y71866D01*
Y72866D01*
X-140732D01*
X-141732Y71866D01*
X-142732Y72866D01*
X-143732D01*
Y71866D01*
X-142732Y70866D01*
X-143732Y69866D01*
Y68866D01*
X-217000Y64000D02*
X-216000D01*
X-215000Y65000D01*
X-214000Y64000D01*
X-213000D01*
Y65000D01*
X-214000Y66000D01*
X-213000Y67000D01*
Y68000D01*
X-214000D01*
X-215000Y67000D01*
X-216000Y68000D01*
X-217000D01*
Y67000D01*
X-216000Y66000D01*
X-217000Y65000D01*
Y64000D01*
X-222472Y45244D02*
X-221472D01*
X-220472Y46244D01*
X-219472Y45244D01*
X-218472D01*
Y46244D01*
X-219472Y47244D01*
X-218472Y48244D01*
Y49244D01*
X-219472D01*
X-220472Y48244D01*
X-221472Y49244D01*
X-222472D01*
Y48244D01*
X-221472Y47244D01*
X-222472Y46244D01*
Y45244D01*
Y21622D02*
X-221472D01*
X-220472Y22622D01*
X-219472Y21622D01*
X-218472D01*
Y22622D01*
X-219472Y23622D01*
X-218472Y24622D01*
Y25622D01*
X-219472D01*
X-220472Y24622D01*
X-221472Y25622D01*
X-222472D01*
Y24622D01*
X-221472Y23622D01*
X-222472Y22622D01*
Y21622D01*
X-230346Y13748D02*
X-229346D01*
X-228346Y14748D01*
X-227346Y13748D01*
X-226346D01*
Y14748D01*
X-227346Y15748D01*
X-226346Y16748D01*
Y17748D01*
X-227346D01*
X-228346Y16748D01*
X-229346Y17748D01*
X-230346D01*
Y16748D01*
X-229346Y15748D01*
X-230346Y14748D01*
Y13748D01*
Y5874D02*
X-229346D01*
X-228346Y6874D01*
X-227346Y5874D01*
X-226346D01*
Y6874D01*
X-227346Y7874D01*
X-226346Y8874D01*
Y9874D01*
X-227346D01*
X-228346Y8874D01*
X-229346Y9874D01*
X-230346D01*
Y8874D01*
X-229346Y7874D01*
X-230346Y6874D01*
Y5874D01*
X-222472Y-2000D02*
X-221472D01*
X-220472Y-1000D01*
X-219472Y-2000D01*
X-218472D01*
Y-1000D01*
X-219472Y0D01*
X-218472Y1000D01*
Y2000D01*
X-219472D01*
X-220472Y1000D01*
X-221472Y2000D01*
X-222472D01*
Y1000D01*
X-221472Y0D01*
X-222472Y-1000D01*
Y-2000D01*
X-214598D02*
X-213598D01*
X-212598Y-1000D01*
X-211598Y-2000D01*
X-210598D01*
Y-1000D01*
X-211598Y0D01*
X-210598Y1000D01*
Y2000D01*
X-211598D01*
X-212598Y1000D01*
X-213598Y2000D01*
X-214598D01*
Y1000D01*
X-213598Y0D01*
X-214598Y-1000D01*
Y-2000D01*
X-246094Y-25622D02*
X-245094D01*
X-244094Y-24622D01*
X-243094Y-25622D01*
X-242094D01*
Y-24622D01*
X-243094Y-23622D01*
X-242094Y-22622D01*
Y-21622D01*
X-243094D01*
X-244094Y-22622D01*
X-245094Y-21622D01*
X-246094D01*
Y-22622D01*
X-245094Y-23622D01*
X-246094Y-24622D01*
Y-25622D01*
X-190976Y-33496D02*
X-189976D01*
X-188976Y-32496D01*
X-187976Y-33496D01*
X-186976D01*
Y-32496D01*
X-187976Y-31496D01*
X-186976Y-30496D01*
Y-29496D01*
X-187976D01*
X-188976Y-30496D01*
X-189976Y-29496D01*
X-190976D01*
Y-30496D01*
X-189976Y-31496D01*
X-190976Y-32496D01*
Y-33496D01*
X-183102Y-25622D02*
X-182102D01*
X-181102Y-24622D01*
X-180102Y-25622D01*
X-179102D01*
Y-24622D01*
X-180102Y-23622D01*
X-179102Y-22622D01*
Y-21622D01*
X-180102D01*
X-181102Y-22622D01*
X-182102Y-21622D01*
X-183102D01*
Y-22622D01*
X-182102Y-23622D01*
X-183102Y-24622D01*
Y-25622D01*
X-175228Y-17748D02*
X-174228D01*
X-173228Y-16748D01*
X-172228Y-17748D01*
X-171228D01*
Y-16748D01*
X-172228Y-15748D01*
X-171228Y-14748D01*
Y-13748D01*
X-172228D01*
X-173228Y-14748D01*
X-174228Y-13748D01*
X-175228D01*
Y-14748D01*
X-174228Y-15748D01*
X-175228Y-16748D01*
Y-17748D01*
X-183102Y-33496D02*
X-182102D01*
X-181102Y-32496D01*
X-180102Y-33496D01*
X-179102D01*
Y-32496D01*
X-180102Y-31496D01*
X-179102Y-30496D01*
Y-29496D01*
X-180102D01*
X-181102Y-30496D01*
X-182102Y-29496D01*
X-183102D01*
Y-30496D01*
X-182102Y-31496D01*
X-183102Y-32496D01*
Y-33496D01*
Y-41370D02*
X-182102D01*
X-181102Y-40370D01*
X-180102Y-41370D01*
X-179102D01*
Y-40370D01*
X-180102Y-39370D01*
X-179102Y-38370D01*
Y-37370D01*
X-180102D01*
X-181102Y-38370D01*
X-182102Y-37370D01*
X-183102D01*
Y-38370D01*
X-182102Y-39370D01*
X-183102Y-40370D01*
Y-41370D01*
X-198850Y-57118D02*
X-197850D01*
X-196850Y-56118D01*
X-195850Y-57118D01*
X-194850D01*
Y-56118D01*
X-195850Y-55118D01*
X-194850Y-54118D01*
Y-53118D01*
X-195850D01*
X-196850Y-54118D01*
X-197850Y-53118D01*
X-198850D01*
Y-54118D01*
X-197850Y-55118D01*
X-198850Y-56118D01*
Y-57118D01*
X-267354Y-81528D02*
X-266354D01*
X-265354Y-80528D01*
X-264354Y-81528D01*
X-263354D01*
Y-80528D01*
X-264354Y-79528D01*
X-263354Y-78528D01*
Y-77528D01*
X-264354D01*
X-265354Y-78528D01*
X-266354Y-77528D01*
X-267354D01*
Y-78528D01*
X-266354Y-79528D01*
X-267354Y-80528D01*
Y-81528D01*
X-272079D02*
X-271079D01*
X-270079Y-80528D01*
X-269079Y-81528D01*
X-268079D01*
Y-80528D01*
X-269079Y-79528D01*
X-268079Y-78528D01*
Y-77528D01*
X-269079D01*
X-270079Y-78528D01*
X-271079Y-77528D01*
X-272079D01*
Y-78528D01*
X-271079Y-79528D01*
X-272079Y-80528D01*
Y-81528D01*
X-276803D02*
X-275803D01*
X-274803Y-80528D01*
X-273803Y-81528D01*
X-272803D01*
Y-80528D01*
X-273803Y-79528D01*
X-272803Y-78528D01*
Y-77528D01*
X-273803D01*
X-274803Y-78528D01*
X-275803Y-77528D01*
X-276803D01*
Y-78528D01*
X-275803Y-79528D01*
X-276803Y-80528D01*
Y-81528D01*
X-254756Y-40189D02*
X-253756D01*
X-252756Y-39189D01*
X-251756Y-40189D01*
X-250756D01*
Y-39189D01*
X-251756Y-38189D01*
X-250756Y-37189D01*
Y-36189D01*
X-251756D01*
X-252756Y-37189D01*
X-253756Y-36189D01*
X-254756D01*
Y-37189D01*
X-253756Y-38189D01*
X-254756Y-39189D01*
Y-40189D01*
X-104362Y-43339D02*
X-103362D01*
X-102362Y-42339D01*
X-101362Y-43339D01*
X-100362D01*
Y-42339D01*
X-101362Y-41339D01*
X-100362Y-40339D01*
Y-39339D01*
X-101362D01*
X-102362Y-40339D01*
X-103362Y-39339D01*
X-104362D01*
Y-40339D01*
X-103362Y-41339D01*
X-104362Y-42339D01*
Y-43339D01*
X-110268D02*
X-109268D01*
X-108268Y-42339D01*
X-107268Y-43339D01*
X-106268D01*
Y-42339D01*
X-107268Y-41339D01*
X-106268Y-40339D01*
Y-39339D01*
X-107268D01*
X-108268Y-40339D01*
X-109268Y-39339D01*
X-110268D01*
Y-40339D01*
X-109268Y-41339D01*
X-110268Y-42339D01*
Y-43339D01*
X-114205Y-47276D02*
X-113205D01*
X-112205Y-46276D01*
X-111205Y-47276D01*
X-110205D01*
Y-46276D01*
X-111205Y-45276D01*
X-110205Y-44276D01*
Y-43276D01*
X-111205D01*
X-112205Y-44276D01*
X-113205Y-43276D01*
X-114205D01*
Y-44276D01*
X-113205Y-45276D01*
X-114205Y-46276D01*
Y-47276D01*
X-108299D02*
X-107299D01*
X-106299Y-46276D01*
X-105299Y-47276D01*
X-104299D01*
Y-46276D01*
X-105299Y-45276D01*
X-104299Y-44276D01*
Y-43276D01*
X-105299D01*
X-106299Y-44276D01*
X-107299Y-43276D01*
X-108299D01*
Y-44276D01*
X-107299Y-45276D01*
X-108299Y-46276D01*
Y-47276D01*
Y-53181D02*
X-107299D01*
X-106299Y-52181D01*
X-105299Y-53181D01*
X-104299D01*
Y-52181D01*
X-105299Y-51181D01*
X-104299Y-50181D01*
Y-49181D01*
X-105299D01*
X-106299Y-50181D01*
X-107299Y-49181D01*
X-108299D01*
Y-50181D01*
X-107299Y-51181D01*
X-108299Y-52181D01*
Y-53181D01*
X-114205D02*
X-113205D01*
X-112205Y-52181D01*
X-111205Y-53181D01*
X-110205D01*
Y-52181D01*
X-111205Y-51181D01*
X-110205Y-50181D01*
Y-49181D01*
X-111205D01*
X-112205Y-50181D01*
X-113205Y-49181D01*
X-114205D01*
Y-50181D01*
X-113205Y-51181D01*
X-114205Y-52181D01*
Y-53181D01*
X-21685Y5874D02*
X-20685D01*
X-19685Y6874D01*
X-18685Y5874D01*
X-17685D01*
Y6874D01*
X-18685Y7874D01*
X-17685Y8874D01*
Y9874D01*
X-18685D01*
X-19685Y8874D01*
X-20685Y9874D01*
X-21685D01*
Y8874D01*
X-20685Y7874D01*
X-21685Y6874D01*
Y5874D01*
X-27591D02*
X-26591D01*
X-25591Y6874D01*
X-24590Y5874D01*
X-23591D01*
Y6874D01*
X-24590Y7874D01*
X-23591Y8874D01*
Y9874D01*
X-24590D01*
X-25591Y8874D01*
X-26591Y9874D01*
X-27591D01*
Y8874D01*
X-26591Y7874D01*
X-27591Y6874D01*
Y5874D01*
X-33496D02*
X-32496D01*
X-31496Y6874D01*
X-30496Y5874D01*
X-29496D01*
Y6874D01*
X-30496Y7874D01*
X-29496Y8874D01*
Y9874D01*
X-30496D01*
X-31496Y8874D01*
X-32496Y9874D01*
X-33496D01*
Y8874D01*
X-32496Y7874D01*
X-33496Y6874D01*
Y5874D01*
X-39402D02*
X-38402D01*
X-37402Y6874D01*
X-36402Y5874D01*
X-35402D01*
Y6874D01*
X-36402Y7874D01*
X-35402Y8874D01*
Y9874D01*
X-36402D01*
X-37402Y8874D01*
X-38402Y9874D01*
X-39402D01*
Y8874D01*
X-38402Y7874D01*
X-39402Y6874D01*
Y5874D01*
X-45307D02*
X-44307D01*
X-43307Y6874D01*
X-42307Y5874D01*
X-41307D01*
Y6874D01*
X-42307Y7874D01*
X-41307Y8874D01*
Y9874D01*
X-42307D01*
X-43307Y8874D01*
X-44307Y9874D01*
X-45307D01*
Y8874D01*
X-44307Y7874D01*
X-45307Y6874D01*
Y5874D01*
X-51213D02*
X-50213D01*
X-49213Y6874D01*
X-48213Y5874D01*
X-47213D01*
Y6874D01*
X-48213Y7874D01*
X-47213Y8874D01*
Y9874D01*
X-48213D01*
X-49213Y8874D01*
X-50213Y9874D01*
X-51213D01*
Y8874D01*
X-50213Y7874D01*
X-51213Y6874D01*
Y5874D01*
X-57118D02*
X-56118D01*
X-55118Y6874D01*
X-54118Y5874D01*
X-53118D01*
Y6874D01*
X-54118Y7874D01*
X-53118Y8874D01*
Y9874D01*
X-54118D01*
X-55118Y8874D01*
X-56118Y9874D01*
X-57118D01*
Y8874D01*
X-56118Y7874D01*
X-57118Y6874D01*
Y5874D01*
X-63024D02*
X-62024D01*
X-61024Y6874D01*
X-60024Y5874D01*
X-59024D01*
Y6874D01*
X-60024Y7874D01*
X-59024Y8874D01*
Y9874D01*
X-60024D01*
X-61024Y8874D01*
X-62024Y9874D01*
X-63024D01*
Y8874D01*
X-62024Y7874D01*
X-63024Y6874D01*
Y5874D01*
X-68929D02*
X-67929D01*
X-66929Y6874D01*
X-65929Y5874D01*
X-64929D01*
Y6874D01*
X-65929Y7874D01*
X-64929Y8874D01*
Y9874D01*
X-65929D01*
X-66929Y8874D01*
X-67929Y9874D01*
X-68929D01*
Y8874D01*
X-67929Y7874D01*
X-68929Y6874D01*
Y5874D01*
X-74835D02*
X-73835D01*
X-72835Y6874D01*
X-71835Y5874D01*
X-70835D01*
Y6874D01*
X-71835Y7874D01*
X-70835Y8874D01*
Y9874D01*
X-71835D01*
X-72835Y8874D01*
X-73835Y9874D01*
X-74835D01*
Y8874D01*
X-73835Y7874D01*
X-74835Y6874D01*
Y5874D01*
X-80740D02*
X-79740D01*
X-78740Y6874D01*
X-77740Y5874D01*
X-76740D01*
Y6874D01*
X-77740Y7874D01*
X-76740Y8874D01*
Y9874D01*
X-77740D01*
X-78740Y8874D01*
X-79740Y9874D01*
X-80740D01*
Y8874D01*
X-79740Y7874D01*
X-80740Y6874D01*
Y5874D01*
X13748Y39339D02*
X14748D01*
X15748Y40339D01*
X16748Y39339D01*
X17748D01*
Y40339D01*
X16748Y41339D01*
X17748Y42339D01*
Y43339D01*
X16748D01*
X15748Y42339D01*
X14748Y43339D01*
X13748D01*
Y42339D01*
X14748Y41339D01*
X13748Y40339D01*
Y39339D01*
X5874Y49181D02*
X6874D01*
X7874Y50181D01*
X8874Y49181D01*
X9874D01*
Y50181D01*
X8874Y51181D01*
X9874Y52181D01*
Y53181D01*
X8874D01*
X7874Y52181D01*
X6874Y53181D01*
X5874D01*
Y52181D01*
X6874Y51181D01*
X5874Y50181D01*
Y49181D01*
X114142Y21622D02*
X115142D01*
X116142Y22622D01*
X117142Y21622D01*
X118142D01*
Y22622D01*
X117142Y23622D01*
X118142Y24622D01*
Y25622D01*
X117142D01*
X116142Y24622D01*
X115142Y25622D01*
X114142D01*
Y24622D01*
X115142Y23622D01*
X114142Y22622D01*
Y21622D01*
X139732D02*
X140732D01*
X141732Y22622D01*
X142732Y21622D01*
X143732D01*
Y22622D01*
X142732Y23622D01*
X143732Y24622D01*
Y25622D01*
X142732D01*
X141732Y24622D01*
X140732Y25622D01*
X139732D01*
Y24622D01*
X140732Y23622D01*
X139732Y22622D01*
Y21622D01*
X149575Y11779D02*
X150575D01*
X151575Y12779D01*
X152575Y11779D01*
X153575D01*
Y12779D01*
X152575Y13780D01*
X153575Y14780D01*
Y15779D01*
X152575D01*
X151575Y14780D01*
X150575Y15779D01*
X149575D01*
Y14780D01*
X150575Y13780D01*
X149575Y12779D01*
Y11779D01*
X159417Y3906D02*
X160417D01*
X161417Y4905D01*
X162417Y3906D01*
X163417D01*
Y4905D01*
X162417Y5906D01*
X163417Y6905D01*
Y7905D01*
X162417D01*
X161417Y6905D01*
X160417Y7905D01*
X159417D01*
Y6905D01*
X160417Y5906D01*
X159417Y4905D01*
Y3906D01*
X173197Y-11842D02*
X174197D01*
X175197Y-10842D01*
X176197Y-11842D01*
X177197D01*
Y-10842D01*
X176197Y-9843D01*
X177197Y-8843D01*
Y-7842D01*
X176197D01*
X175197Y-8843D01*
X174197Y-7842D01*
X173197D01*
Y-8843D01*
X174197Y-9843D01*
X173197Y-10842D01*
Y-11842D01*
Y-21685D02*
X174197D01*
X175197Y-20685D01*
X176197Y-21685D01*
X177197D01*
Y-20685D01*
X176197Y-19685D01*
X177197Y-18685D01*
Y-17685D01*
X176197D01*
X175197Y-18685D01*
X174197Y-17685D01*
X173197D01*
Y-18685D01*
X174197Y-19685D01*
X173197Y-20685D01*
Y-21685D01*
X137764Y11779D02*
X138764D01*
X139764Y12779D01*
X140764Y11779D01*
X141764D01*
Y12779D01*
X140764Y13780D01*
X141764Y14780D01*
Y15779D01*
X140764D01*
X139764Y14780D01*
X138764Y15779D01*
X137764D01*
Y14780D01*
X138764Y13780D01*
X137764Y12779D01*
Y11779D01*
X145638Y1937D02*
X146638D01*
X147638Y2937D01*
X148638Y1937D01*
X149638D01*
Y2937D01*
X148638Y3937D01*
X149638Y4937D01*
Y5937D01*
X148638D01*
X147638Y4937D01*
X146638Y5937D01*
X145638D01*
Y4937D01*
X146638Y3937D01*
X145638Y2937D01*
Y1937D01*
X125953Y11779D02*
X126953D01*
X127953Y12779D01*
X128953Y11779D01*
X129953D01*
Y12779D01*
X128953Y13780D01*
X129953Y14780D01*
Y15779D01*
X128953D01*
X127953Y14780D01*
X126953Y15779D01*
X125953D01*
Y14780D01*
X126953Y13780D01*
X125953Y12779D01*
Y11779D01*
Y21622D02*
X126953D01*
X127953Y22622D01*
X128953Y21622D01*
X129953D01*
Y22622D01*
X128953Y23622D01*
X129953Y24622D01*
Y25622D01*
X128953D01*
X127953Y24622D01*
X126953Y25622D01*
X125953D01*
Y24622D01*
X126953Y23622D01*
X125953Y22622D01*
Y21622D01*
X-263811Y72803D02*
X-262811D01*
X-261811Y73803D01*
X-260811Y72803D01*
X-259811D01*
Y73803D01*
X-260811Y74803D01*
X-259811Y75803D01*
Y76803D01*
X-260811D01*
X-261811Y75803D01*
X-262811Y76803D01*
X-263811D01*
Y75803D01*
X-262811Y74803D01*
X-263811Y73803D01*
Y72803D01*
Y76740D02*
X-262811D01*
X-261811Y77740D01*
X-260811Y76740D01*
X-259811D01*
Y77740D01*
X-260811Y78740D01*
X-259811Y79740D01*
Y80740D01*
X-260811D01*
X-261811Y79740D01*
X-262811Y80740D01*
X-263811D01*
Y79740D01*
X-262811Y78740D01*
X-263811Y77740D01*
Y76740D01*
Y80677D02*
X-262811D01*
X-261811Y81677D01*
X-260811Y80677D01*
X-259811D01*
Y81677D01*
X-260811Y82677D01*
X-259811Y83677D01*
Y84677D01*
X-260811D01*
X-261811Y83677D01*
X-262811Y84677D01*
X-263811D01*
Y83677D01*
X-262811Y82677D01*
X-263811Y81677D01*
Y80677D01*
Y84614D02*
X-262811D01*
X-261811Y85614D01*
X-260811Y84614D01*
X-259811D01*
Y85614D01*
X-260811Y86614D01*
X-259811Y87614D01*
Y88614D01*
X-260811D01*
X-261811Y87614D01*
X-262811Y88614D01*
X-263811D01*
Y87614D01*
X-262811Y86614D01*
X-263811Y85614D01*
Y84614D01*
Y88551D02*
X-262811D01*
X-261811Y89551D01*
X-260811Y88551D01*
X-259811D01*
Y89551D01*
X-260811Y90551D01*
X-259811Y91551D01*
Y92551D01*
X-260811D01*
X-261811Y91551D01*
X-262811Y92551D01*
X-263811D01*
Y91551D01*
X-262811Y90551D01*
X-263811Y89551D01*
Y88551D01*
Y92488D02*
X-262811D01*
X-261811Y93488D01*
X-260811Y92488D01*
X-259811D01*
Y93488D01*
X-260811Y94488D01*
X-259811Y95488D01*
Y96488D01*
X-260811D01*
X-261811Y95488D01*
X-262811Y96488D01*
X-263811D01*
Y95488D01*
X-262811Y94488D01*
X-263811Y93488D01*
Y92488D01*
X-198772Y28315D02*
X-197772D01*
X-196772Y29315D01*
X-195772Y28315D01*
X-194772D01*
Y29315D01*
X-195772Y30315D01*
X-194772Y31315D01*
Y32315D01*
X-195772D01*
X-196772Y31315D01*
X-197772Y32315D01*
X-198772D01*
Y31315D01*
X-197772Y30315D01*
X-198772Y29315D01*
Y28315D01*
X-160465Y-76803D02*
X-159465D01*
X-158465Y-75803D01*
X-157465Y-76803D01*
X-156465D01*
Y-75803D01*
X-157465Y-74803D01*
X-156465Y-73803D01*
Y-72803D01*
X-157465D01*
X-158465Y-73803D01*
X-159465Y-72803D01*
X-160465D01*
Y-73803D01*
X-159465Y-74803D01*
X-160465Y-75803D01*
Y-76803D01*
X-134500Y-98500D02*
X-133500D01*
X-132500Y-97500D01*
X-131500Y-98500D01*
X-130500D01*
Y-97500D01*
X-131500Y-96500D01*
X-130500Y-95500D01*
Y-94500D01*
X-131500D01*
X-132500Y-95500D01*
X-133500Y-94500D01*
X-134500D01*
Y-95500D01*
X-133500Y-96500D01*
X-134500Y-97500D01*
Y-98500D01*
X-158500Y-92000D02*
X-157500D01*
X-156500Y-91000D01*
X-155500Y-92000D01*
X-154500D01*
Y-91000D01*
X-155500Y-90000D01*
X-154500Y-89000D01*
Y-88000D01*
X-155500D01*
X-156500Y-89000D01*
X-157500Y-88000D01*
X-158500D01*
Y-89000D01*
X-157500Y-90000D01*
X-158500Y-91000D01*
Y-92000D01*
X-125500Y-89700D02*
X-124500D01*
X-123500Y-88700D01*
X-122500Y-89700D01*
X-121500D01*
Y-88700D01*
X-122500Y-87700D01*
X-121500Y-86700D01*
Y-85700D01*
X-122500D01*
X-123500Y-86700D01*
X-124500Y-85700D01*
X-125500D01*
Y-86700D01*
X-124500Y-87700D01*
X-125500Y-88700D01*
Y-89700D01*
X-112100Y-91200D02*
X-111100D01*
X-110100Y-90200D01*
X-109100Y-91200D01*
X-108100D01*
Y-90200D01*
X-109100Y-89200D01*
X-108100Y-88200D01*
Y-87200D01*
X-109100D01*
X-110100Y-88200D01*
X-111100Y-87200D01*
X-112100D01*
Y-88200D01*
X-111100Y-89200D01*
X-112100Y-90200D01*
Y-91200D01*
X-155300Y-88000D02*
X-154300D01*
X-153300Y-87000D01*
X-152300Y-88000D01*
X-151300D01*
Y-87000D01*
X-152300Y-86000D01*
X-151300Y-85000D01*
Y-84000D01*
X-152300D01*
X-153300Y-85000D01*
X-154300Y-84000D01*
X-155300D01*
Y-85000D01*
X-154300Y-86000D01*
X-155300Y-87000D01*
Y-88000D01*
X-178498Y-48002D02*
X-177498D01*
X-176498Y-47002D01*
X-175498Y-48002D01*
X-174498D01*
Y-47002D01*
X-175498Y-46002D01*
X-174498Y-45002D01*
Y-44002D01*
X-175498D01*
X-176498Y-45002D01*
X-177498Y-44002D01*
X-178498D01*
Y-45002D01*
X-177498Y-46002D01*
X-178498Y-47002D01*
Y-48002D01*
X-155700Y900D02*
X-154700D01*
X-153700Y1900D01*
X-152700Y900D01*
X-151700D01*
Y1900D01*
X-152700Y2900D01*
X-151700Y3900D01*
Y4900D01*
X-152700D01*
X-153700Y3900D01*
X-154700Y4900D01*
X-155700D01*
Y3900D01*
X-154700Y2900D01*
X-155700Y1900D01*
Y900D01*
X-102940Y-24200D02*
X-101940D01*
X-100940Y-23200D01*
X-99940Y-24200D01*
X-98940D01*
Y-23200D01*
X-99940Y-22200D01*
X-98940Y-21200D01*
Y-20200D01*
X-99940D01*
X-100940Y-21200D01*
X-101940Y-20200D01*
X-102940D01*
Y-21200D01*
X-101940Y-22200D01*
X-102940Y-23200D01*
Y-24200D01*
X-26500Y-41400D02*
X-25500D01*
X-24500Y-40400D01*
X-23500Y-41400D01*
X-22500D01*
Y-40400D01*
X-23500Y-39400D01*
X-22500Y-38400D01*
Y-37400D01*
X-23500D01*
X-24500Y-38400D01*
X-25500Y-37400D01*
X-26500D01*
Y-38400D01*
X-25500Y-39400D01*
X-26500Y-40400D01*
Y-41400D01*
X88900Y-23400D02*
X89900D01*
X90900Y-22400D01*
X91900Y-23400D01*
X92900D01*
Y-22400D01*
X91900Y-21400D01*
X92900Y-20400D01*
Y-19400D01*
X91900D01*
X90900Y-20400D01*
X89900Y-19400D01*
X88900D01*
Y-20400D01*
X89900Y-21400D01*
X88900Y-22400D01*
Y-23400D01*
X-125800Y-21800D02*
X-124800D01*
X-123800Y-20800D01*
X-122800Y-21800D01*
X-121800D01*
Y-20800D01*
X-122800Y-19800D01*
X-121800Y-18800D01*
Y-17800D01*
X-122800D01*
X-123800Y-18800D01*
X-124800Y-17800D01*
X-125800D01*
Y-18800D01*
X-124800Y-19800D01*
X-125800Y-20800D01*
Y-21800D01*
X-18200Y-23400D02*
X-17200D01*
X-16200Y-22400D01*
X-15200Y-23400D01*
X-14200D01*
Y-22400D01*
X-15200Y-21400D01*
X-14200Y-20400D01*
Y-19400D01*
X-15200D01*
X-16200Y-20400D01*
X-17200Y-19400D01*
X-18200D01*
Y-20400D01*
X-17200Y-21400D01*
X-18200Y-22400D01*
Y-23400D01*
X-11100D02*
X-10100D01*
X-9100Y-22400D01*
X-8100Y-23400D01*
X-7100D01*
Y-22400D01*
X-8100Y-21400D01*
X-7100Y-20400D01*
Y-19400D01*
X-8100D01*
X-9100Y-20400D01*
X-10100Y-19400D01*
X-11100D01*
Y-20400D01*
X-10100Y-21400D01*
X-11100Y-22400D01*
Y-23400D01*
X-4000D02*
X-3000D01*
X-2000Y-22400D01*
X-1000Y-23400D01*
X0D01*
Y-22400D01*
X-1000Y-21400D01*
X0Y-20400D01*
Y-19400D01*
X-1000D01*
X-2000Y-20400D01*
X-3000Y-19400D01*
X-4000D01*
Y-20400D01*
X-3000Y-21400D01*
X-4000Y-22400D01*
Y-23400D01*
X3100D02*
X4100D01*
X5100Y-22400D01*
X6100Y-23400D01*
X7100D01*
Y-22400D01*
X6100Y-21400D01*
X7100Y-20400D01*
Y-19400D01*
X6100D01*
X5100Y-20400D01*
X4100Y-19400D01*
X3100D01*
Y-20400D01*
X4100Y-21400D01*
X3100Y-22400D01*
Y-23400D01*
X7800D02*
X8800D01*
X9800Y-22400D01*
X10800Y-23400D01*
X11800D01*
Y-22400D01*
X10800Y-21400D01*
X11800Y-20400D01*
Y-19400D01*
X10800D01*
X9800Y-20400D01*
X8800Y-19400D01*
X7800D01*
Y-20400D01*
X8800Y-21400D01*
X7800Y-22400D01*
Y-23400D01*
X14900D02*
X15900D01*
X16900Y-22400D01*
X17900Y-23400D01*
X18900D01*
Y-22400D01*
X17900Y-21400D01*
X18900Y-20400D01*
Y-19400D01*
X17900D01*
X16900Y-20400D01*
X15900Y-19400D01*
X14900D01*
Y-20400D01*
X15900Y-21400D01*
X14900Y-22400D01*
Y-23400D01*
X73984Y-24316D02*
X74984D01*
X75984Y-23316D01*
X76984Y-24316D01*
X77984D01*
Y-23316D01*
X76984Y-22316D01*
X77984Y-21316D01*
Y-20316D01*
X76984D01*
X75984Y-21316D01*
X74984Y-20316D01*
X73984D01*
Y-21316D01*
X74984Y-22316D01*
X73984Y-23316D01*
Y-24316D01*
X59811D02*
X60811D01*
X61811Y-23316D01*
X62811Y-24316D01*
X63811D01*
Y-23316D01*
X62811Y-22316D01*
X63811Y-21316D01*
Y-20316D01*
X62811D01*
X61811Y-21316D01*
X60811Y-20316D01*
X59811D01*
Y-21316D01*
X60811Y-22316D01*
X59811Y-23316D01*
Y-24316D01*
X66898D02*
X67898D01*
X68898Y-23316D01*
X69898Y-24316D01*
X70898D01*
Y-23316D01*
X69898Y-22316D01*
X70898Y-21316D01*
Y-20316D01*
X69898D01*
X68898Y-21316D01*
X67898Y-20316D01*
X66898D01*
Y-21316D01*
X67898Y-22316D01*
X66898Y-23316D01*
Y-24316D01*
X27300Y-12600D02*
X28300D01*
X29300Y-11600D01*
X30300Y-12600D01*
X31300D01*
Y-11600D01*
X30300Y-10600D01*
X31300Y-9600D01*
Y-8600D01*
X30300D01*
X29300Y-9600D01*
X28300Y-8600D01*
X27300D01*
Y-9600D01*
X28300Y-10600D01*
X27300Y-11600D01*
Y-12600D01*
X-227800Y-14400D02*
X-226800D01*
X-225800Y-13400D01*
X-224800Y-14400D01*
X-223800D01*
Y-13400D01*
X-224800Y-12400D01*
X-223800Y-11400D01*
Y-10400D01*
X-224800D01*
X-225800Y-11400D01*
X-226800Y-10400D01*
X-227800D01*
Y-11400D01*
X-226800Y-12400D01*
X-227800Y-13400D01*
Y-14400D01*
X22016Y-23516D02*
X23016D01*
X24016Y-22516D01*
X25016Y-23516D01*
X26016D01*
Y-22516D01*
X25016Y-21516D01*
X26016Y-20516D01*
Y-19516D01*
X25016D01*
X24016Y-20516D01*
X23016Y-19516D01*
X22016D01*
Y-20516D01*
X23016Y-21516D01*
X22016Y-22516D01*
Y-23516D01*
X194800Y-48800D02*
X195800D01*
X196800Y-47800D01*
X197800Y-48800D01*
X198800D01*
Y-47800D01*
X197800Y-46800D01*
X198800Y-45800D01*
Y-44800D01*
X197800D01*
X196800Y-45800D01*
X195800Y-44800D01*
X194800D01*
Y-45800D01*
X195800Y-46800D01*
X194800Y-47800D01*
Y-48800D01*
X239200Y-85300D02*
X240200D01*
X241200Y-84300D01*
X242200Y-85300D01*
X243200D01*
Y-84300D01*
X242200Y-83300D01*
X243200Y-82300D01*
Y-81300D01*
X242200D01*
X241200Y-82300D01*
X240200Y-81300D01*
X239200D01*
Y-82300D01*
X240200Y-83300D01*
X239200Y-84300D01*
Y-85300D01*
X274700Y-69300D02*
X275700D01*
X276700Y-68300D01*
X277700Y-69300D01*
X278700D01*
Y-68300D01*
X277700Y-67300D01*
X278700Y-66300D01*
Y-65300D01*
X277700D01*
X276700Y-66300D01*
X275700Y-65300D01*
X274700D01*
Y-66300D01*
X275700Y-67300D01*
X274700Y-68300D01*
Y-69300D01*
X-224500Y-61500D02*
X-223500D01*
X-222500Y-60500D01*
X-221500Y-61500D01*
X-220500D01*
Y-60500D01*
X-221500Y-59500D01*
X-220500Y-58500D01*
Y-57500D01*
X-221500D01*
X-222500Y-58500D01*
X-223500Y-57500D01*
X-224500D01*
Y-58500D01*
X-223500Y-59500D01*
X-224500Y-60500D01*
Y-61500D01*
X-189000D02*
X-188000D01*
X-187000Y-60500D01*
X-186000Y-61500D01*
X-185000D01*
Y-60500D01*
X-186000Y-59500D01*
X-185000Y-58500D01*
Y-57500D01*
X-186000D01*
X-187000Y-58500D01*
X-188000Y-57500D01*
X-189000D01*
Y-58500D01*
X-188000Y-59500D01*
X-189000Y-60500D01*
Y-61500D01*
X-92500Y24500D02*
X-91500D01*
X-90500Y25500D01*
X-89500Y24500D01*
X-88500D01*
Y25500D01*
X-89500Y26500D01*
X-88500Y27500D01*
Y28500D01*
X-89500D01*
X-90500Y27500D01*
X-91500Y28500D01*
X-92500D01*
Y27500D01*
X-91500Y26500D01*
X-92500Y25500D01*
Y24500D01*
X-105500Y24000D02*
X-104500D01*
X-103500Y25000D01*
X-102500Y24000D01*
X-101500D01*
Y25000D01*
X-102500Y26000D01*
X-101500Y27000D01*
Y28000D01*
X-102500D01*
X-103500Y27000D01*
X-104500Y28000D01*
X-105500D01*
Y27000D01*
X-104500Y26000D01*
X-105500Y25000D01*
Y24000D01*
X-119000D02*
X-118000D01*
X-117000Y25000D01*
X-116000Y24000D01*
X-115000D01*
Y25000D01*
X-116000Y26000D01*
X-115000Y27000D01*
Y28000D01*
X-116000D01*
X-117000Y27000D01*
X-118000Y28000D01*
X-119000D01*
Y27000D01*
X-118000Y26000D01*
X-119000Y25000D01*
Y24000D01*
X-126000Y32500D02*
X-125000D01*
X-124000Y33500D01*
X-123000Y32500D01*
X-122000D01*
Y33500D01*
X-123000Y34500D01*
X-122000Y35500D01*
Y36500D01*
X-123000D01*
X-124000Y35500D01*
X-125000Y36500D01*
X-126000D01*
Y35500D01*
X-125000Y34500D01*
X-126000Y33500D01*
Y32500D01*
X-112500Y28500D02*
X-111500D01*
X-110500Y29500D01*
X-109500Y28500D01*
X-108500D01*
Y29500D01*
X-109500Y30500D01*
X-108500Y31500D01*
Y32500D01*
X-109500D01*
X-110500Y31500D01*
X-111500Y32500D01*
X-112500D01*
Y31500D01*
X-111500Y30500D01*
X-112500Y29500D01*
Y28500D01*
X-211000Y64000D02*
X-210000D01*
X-209000Y65000D01*
X-208000Y64000D01*
X-207000D01*
Y65000D01*
X-208000Y66000D01*
X-207000Y67000D01*
Y68000D01*
X-208000D01*
X-209000Y67000D01*
X-210000Y68000D01*
X-211000D01*
Y67000D01*
X-210000Y66000D01*
X-211000Y65000D01*
Y64000D01*
X327000Y13600D02*
X328200D01*
X329400Y14800D01*
X330600Y13600D01*
X331800D01*
Y14800D01*
X330600Y16000D01*
X331800Y17200D01*
Y18400D01*
X330600D01*
X329400Y17200D01*
X328200Y18400D01*
X327000D01*
Y17200D01*
X328200Y16000D01*
X327000Y14800D01*
Y13600D01*
X329400Y-22400D02*
X327000Y-17600D01*
X331800D01*
X329400Y-22400D01*
X328200Y-33200D02*
Y-34400D01*
X330600D01*
Y-33200D01*
X331800D01*
Y-30800D01*
X330600D01*
Y-29600D01*
X328200D01*
Y-30800D01*
X327000D01*
Y-33200D01*
X328200D01*
X327000Y-46400D02*
Y-41600D01*
X331800D01*
Y-46400D01*
X327000D01*
Y-58400D02*
Y-53600D01*
X331800D01*
Y-58400D01*
X327000D01*
X328000Y-57400D02*
Y-54600D01*
X330800D01*
Y-57400D01*
X328000D01*
X327000Y-70400D02*
X328200Y-68000D01*
X327000Y-65600D01*
X329400Y-66800D01*
X331800Y-65600D01*
X330600Y-68000D01*
X331800Y-70400D01*
X329400Y-69200D01*
X327000Y-70400D01*
Y-80000D02*
X329400Y-77600D01*
X331800Y-80000D01*
X329400Y-82400D01*
X327000Y-80000D01*
X329400Y-94400D02*
X330600Y-93200D01*
X331800D01*
X330600Y-92000D01*
X331800Y-90800D01*
X330600D01*
X329400Y-89600D01*
X328200Y-90800D01*
X327000D01*
X328200Y-92000D01*
X327000Y-93200D01*
X328200D01*
X329400Y-94400D01*
D92*
X331800Y4000D02*
G03*
X331800Y4000I-2400J0D01*
G01*
Y-8000D02*
G03*
X331800Y-8000I-2400J0D01*
G01*
D160*
X-7646Y-93079D02*
G03*
X-7646Y-93079I-2000J0D01*
G01*
X11646D02*
G03*
X11646Y-93079I-2000J0D01*
G01*
X107118Y-59842D02*
G03*
X107118Y-59842I-2000J0D01*
G01*
X101213D02*
G03*
X101213Y-59842I-2000J0D01*
G01*
Y-65354D02*
G03*
X101213Y-65354I-2000J0D01*
G01*
X107118D02*
G03*
X107118Y-65354I-2000J0D01*
G01*
X47669Y-394D02*
G03*
X47669Y-394I-2000J0D01*
G01*
X112236Y-94882D02*
G03*
X112236Y-94882I-2000J0D01*
G01*
X154756Y-87795D02*
G03*
X154756Y-87795I-2000J0D01*
G01*
X-129890Y6693D02*
G03*
X-129890Y6693I-2000J0D01*
G01*
X-138157Y6693D02*
G03*
X-138157Y6693I-2000J0D01*
G01*
X-148000Y6693D02*
G03*
X-148000Y6693I-2000J0D01*
G01*
D161*
X106318Y-59842D02*
G03*
X106318Y-59842I-1200J0D01*
G01*
X100413D02*
G03*
X100413Y-59842I-1200J0D01*
G01*
Y-65354D02*
G03*
X100413Y-65354I-1200J0D01*
G01*
X106318D02*
G03*
X106318Y-65354I-1200J0D01*
G01*
X46869Y-394D02*
G03*
X46869Y-394I-1200J0D01*
G01*
X111436Y-94882D02*
G03*
X111436Y-94882I-1200J0D01*
G01*
X153956Y-87795D02*
G03*
X153956Y-87795I-1200J0D01*
G01*
X-130690Y6693D02*
G03*
X-130690Y6693I-1200J0D01*
G01*
X-138958Y6693D02*
G03*
X-138958Y6693I-1200J0D01*
G01*
X-148800Y6693D02*
G03*
X-148800Y6693I-1200J0D01*
G01*
D162*
X331799Y33398D02*
X330599Y34598D01*
X328200D01*
X327000Y33398D01*
Y32199D01*
X328200Y30999D01*
X330599D01*
X331799Y29799D01*
Y28600D01*
X330599Y27400D01*
X328200D01*
X327000Y28600D01*
X334198Y32199D02*
Y28600D01*
X335397Y27400D01*
X338996D01*
Y26200D01*
X337796Y25001D01*
X336597D01*
X338996Y27400D02*
Y32199D01*
X341395Y27400D02*
Y32199D01*
X342595D01*
X343795Y30999D01*
Y27400D01*
Y30999D01*
X344994Y32199D01*
X346194Y30999D01*
Y27400D01*
X348593Y34598D02*
Y27400D01*
X352192D01*
X353392Y28600D01*
Y29799D01*
Y30999D01*
X352192Y32199D01*
X348593D01*
X356990Y27400D02*
X359389D01*
X360589Y28600D01*
Y30999D01*
X359389Y32199D01*
X356990D01*
X355791Y30999D01*
Y28600D01*
X356990Y27400D01*
X362988D02*
X365388D01*
X364188D01*
Y34598D01*
X362988D01*
X377388D02*
Y27400D01*
Y30999D01*
X382186D01*
Y34598D01*
Y27400D01*
X384585D02*
X386984D01*
X385785D01*
Y32199D01*
X384585D01*
X391783Y33398D02*
Y32199D01*
X390583D01*
X392983D01*
X391783D01*
Y28600D01*
X392983Y27400D01*
X408577Y33398D02*
X407378Y34598D01*
X404979D01*
X403779Y33398D01*
Y28600D01*
X404979Y27400D01*
X407378D01*
X408577Y28600D01*
X412176Y27400D02*
X414575D01*
X415775Y28600D01*
Y30999D01*
X414575Y32199D01*
X412176D01*
X410977Y30999D01*
Y28600D01*
X412176Y27400D01*
X418174Y32199D02*
Y28600D01*
X419374Y27400D01*
X422973D01*
Y32199D01*
X425372Y27400D02*
Y32199D01*
X428971D01*
X430170Y30999D01*
Y27400D01*
X433769Y33398D02*
Y32199D01*
X432570D01*
X434969D01*
X433769D01*
Y28600D01*
X434969Y27400D01*
X451767Y34598D02*
X446969D01*
Y30999D01*
X449368D01*
X446969D01*
Y27400D01*
X454167D02*
X456566D01*
X455366D01*
Y32199D01*
X454167D01*
X460165Y27400D02*
Y32199D01*
X463764D01*
X464963Y30999D01*
Y27400D01*
X467362D02*
X469762D01*
X468562D01*
Y32199D01*
X467362D01*
X473360Y27400D02*
X476959D01*
X478159Y28600D01*
X476959Y29799D01*
X474560D01*
X473360Y30999D01*
X474560Y32199D01*
X478159D01*
X480558Y34598D02*
Y27400D01*
Y30999D01*
X481758Y32199D01*
X484157D01*
X485357Y30999D01*
Y27400D01*
X491355D02*
X488955D01*
X487756Y28600D01*
Y30999D01*
X488955Y32199D01*
X491355D01*
X492554Y30999D01*
Y29799D01*
X487756D01*
X499752Y34598D02*
Y27400D01*
X496153D01*
X494953Y28600D01*
Y30999D01*
X496153Y32199D01*
X499752D01*
X509349Y34598D02*
Y27400D01*
Y30999D01*
X514147D01*
Y34598D01*
Y27400D01*
X517746D02*
X520145D01*
X521345Y28600D01*
Y30999D01*
X520145Y32199D01*
X517746D01*
X516546Y30999D01*
Y28600D01*
X517746Y27400D01*
X523744D02*
X526143D01*
X524944D01*
Y34598D01*
X523744D01*
X533341Y27400D02*
X530942D01*
X529742Y28600D01*
Y30999D01*
X530942Y32199D01*
X533341D01*
X534541Y30999D01*
Y29799D01*
X529742D01*
X548936Y33398D02*
X547736Y34598D01*
X545337D01*
X544137Y33398D01*
Y32199D01*
X545337Y30999D01*
X547736D01*
X548936Y29799D01*
Y28600D01*
X547736Y27400D01*
X545337D01*
X544137Y28600D01*
X551335Y27400D02*
X553734D01*
X552535D01*
Y32199D01*
X551335D01*
X557333D02*
X562132D01*
X557333Y27400D01*
X562132D01*
X568130D02*
X565730D01*
X564531Y28600D01*
Y30999D01*
X565730Y32199D01*
X568130D01*
X569329Y30999D01*
Y29799D01*
X564531D01*
X581329Y27400D02*
Y34598D01*
X584928D01*
X586128Y33398D01*
Y30999D01*
X584928Y29799D01*
X581329D01*
X588527Y27400D02*
X590926D01*
X589727D01*
Y34598D01*
X588527D01*
X595725Y32199D02*
X598124D01*
X599324Y30999D01*
Y27400D01*
X595725D01*
X594525Y28600D01*
X595725Y29799D01*
X599324D01*
X602922Y33398D02*
Y32199D01*
X601723D01*
X604122D01*
X602922D01*
Y28600D01*
X604122Y27400D01*
X611320D02*
X608920D01*
X607721Y28600D01*
Y30999D01*
X608920Y32199D01*
X611320D01*
X612519Y30999D01*
Y29799D01*
X607721D01*
X619717Y34598D02*
Y27400D01*
X616118D01*
X614919Y28600D01*
Y30999D01*
X616118Y32199D01*
X619717D01*
X631717Y34598D02*
Y27400D01*
Y30999D01*
X636515D01*
Y34598D01*
Y27400D01*
X640114D02*
X642513D01*
X643713Y28600D01*
Y30999D01*
X642513Y32199D01*
X640114D01*
X638915Y30999D01*
Y28600D01*
X640114Y27400D01*
X646112D02*
X648512D01*
X647312D01*
Y34598D01*
X646112D01*
X655709Y27400D02*
X653310D01*
X652110Y28600D01*
Y30999D01*
X653310Y32199D01*
X655709D01*
X656909Y30999D01*
Y29799D01*
X652110D01*
X666506Y34598D02*
X671304D01*
X668905D01*
Y27400D01*
X673703Y32199D02*
Y28600D01*
X674903Y27400D01*
X678502D01*
Y26200D01*
X677302Y25001D01*
X676102D01*
X678502Y27400D02*
Y32199D01*
X680901Y25001D02*
Y32199D01*
X684500D01*
X685699Y30999D01*
Y28600D01*
X684500Y27400D01*
X680901D01*
X691698D02*
X689298D01*
X688099Y28600D01*
Y30999D01*
X689298Y32199D01*
X691698D01*
X692897Y30999D01*
Y29799D01*
X688099D01*
X318200Y38200D02*
X704897D01*
X318200Y22000D02*
X704897D01*
X318200Y38200D02*
Y-110000D01*
X704897Y38200D02*
Y-110000D01*
X372988Y38200D02*
Y-110000D01*
X442569Y38200D02*
Y-110000D01*
X576929Y38200D02*
Y-110000D01*
X627317Y38200D02*
Y-110000D01*
X318200Y-98000D02*
X704897D01*
X318200Y-110000D02*
X704897D01*
D163*
X330800Y4000D02*
G03*
X330800Y4000I-1400J0D01*
G01*
M02*
