%FSLAX25Y25*%
%MOIN*%
G70*
G01*
G75*
%ADD10R,0.04331X0.03937*%
%ADD11R,0.05000X0.04000*%
%ADD12R,0.03937X0.02756*%
%ADD13R,0.04000X0.03500*%
%ADD14R,0.04000X0.05000*%
%ADD15R,0.02756X0.03937*%
%ADD16R,0.03500X0.04000*%
%ADD17R,0.05906X0.04724*%
%ADD18R,0.06496X0.06299*%
%ADD19O,0.07874X0.02362*%
%ADD20O,0.06693X0.01378*%
%ADD21R,0.03543X0.02559*%
%ADD22C,0.06063*%
%ADD23R,0.06299X0.06496*%
%ADD24R,0.03347X0.02362*%
%ADD25R,0.02362X0.03347*%
%ADD26R,0.18504X0.07874*%
%ADD27R,0.01575X0.03937*%
%ADD28R,0.01181X0.04724*%
%ADD29R,0.03937X0.04331*%
%ADD30R,0.10827X0.03937*%
%ADD31C,0.01000*%
%ADD32C,0.00700*%
%ADD33C,0.01200*%
%ADD34C,0.06000*%
%ADD35C,0.02000*%
%ADD36C,0.04000*%
%ADD37C,0.03000*%
%ADD38R,0.18110X0.12598*%
%ADD39R,0.27559X0.09055*%
%ADD40R,0.27953X0.09449*%
%ADD41R,0.11417X0.12992*%
%ADD42R,0.05906X0.07874*%
%ADD43R,0.05906X0.05906*%
%ADD44C,0.05906*%
%ADD45C,0.11811*%
%ADD46C,0.07874*%
%ADD47C,0.02400*%
%ADD48C,0.06693*%
%ADD49C,0.04724*%
%ADD50C,0.05512*%
%ADD51C,0.03937*%
%ADD52C,0.04000*%
%ADD53R,0.05000X0.12000*%
%ADD54O,0.09843X0.05906*%
%ADD55R,0.07677X0.05512*%
%ADD56R,0.03150X0.06299*%
%ADD57R,0.03347X0.06299*%
%ADD58R,0.06299X0.13780*%
%ADD59R,0.05906X0.12205*%
%ADD60R,0.05512X0.13780*%
%ADD61R,0.04724X0.12205*%
%ADD62O,0.01378X0.06693*%
%ADD63R,0.02559X0.04331*%
%ADD64R,0.14567X0.05906*%
%ADD65R,0.07087X0.09449*%
%ADD66R,0.07087X0.07480*%
%ADD67R,0.01575X0.05906*%
%ADD68R,0.00984X0.02756*%
%ADD69R,0.05512X0.00984*%
%ADD70R,0.02756X0.00984*%
G04:AMPARAMS|DCode=71|XSize=27.56mil|YSize=9.84mil|CornerRadius=3.69mil|HoleSize=0mil|Usage=FLASHONLY|Rotation=0.000|XOffset=0mil|YOffset=0mil|HoleType=Round|Shape=RoundedRectangle|*
%AMROUNDEDRECTD71*
21,1,0.02756,0.00246,0,0,0.0*
21,1,0.02018,0.00984,0,0,0.0*
1,1,0.00738,0.01009,-0.00123*
1,1,0.00738,-0.01009,-0.00123*
1,1,0.00738,-0.01009,0.00123*
1,1,0.00738,0.01009,0.00123*
%
%ADD71ROUNDEDRECTD71*%
%ADD72R,0.04724X0.02362*%
%ADD73R,0.13780X0.04724*%
%ADD74R,0.13386X0.07874*%
%ADD75R,0.01378X0.11811*%
%ADD76R,0.11811X0.12598*%
%ADD77R,0.07874X0.18504*%
%ADD78R,0.07874X0.05512*%
%ADD79R,0.05512X0.02362*%
%ADD80R,0.05512X0.02953*%
%ADD81R,0.03150X0.05118*%
%ADD82R,0.02362X0.04724*%
%ADD83R,0.06071X0.06000*%
%ADD84R,0.06000X0.06000*%
%ADD85C,0.01258*%
%ADD86C,0.00787*%
%ADD87C,0.00500*%
%ADD88C,0.00984*%
%ADD89C,0.02362*%
%ADD90C,0.00780*%
%ADD91C,0.00600*%
%ADD92C,0.00800*%
%ADD93R,0.12050X0.04000*%
%ADD94R,0.04000X0.12050*%
%ADD95R,0.07480X0.11811*%
%ADD96R,0.11811X0.07480*%
%ADD97R,0.05131X0.04737*%
%ADD98R,0.05800X0.04800*%
%ADD99R,0.04737X0.03556*%
%ADD100R,0.04800X0.04300*%
%ADD101R,0.04800X0.05800*%
%ADD102R,0.03556X0.04737*%
%ADD103R,0.04300X0.04800*%
%ADD104R,0.06706X0.05524*%
%ADD105R,0.07296X0.07099*%
%ADD106O,0.08674X0.03162*%
%ADD107O,0.07493X0.02178*%
%ADD108R,0.04343X0.03359*%
%ADD109C,0.06863*%
%ADD110R,0.07099X0.07296*%
%ADD111R,0.04147X0.03162*%
%ADD112R,0.03162X0.04147*%
%ADD113R,0.19304X0.08674*%
%ADD114R,0.02375X0.04737*%
%ADD115R,0.01981X0.05524*%
%ADD116R,0.04737X0.05131*%
%ADD117R,0.11627X0.04737*%
%ADD118R,0.06706X0.08674*%
%ADD119R,0.06706X0.06706*%
%ADD120C,0.06706*%
%ADD121C,0.12611*%
%ADD122C,0.08674*%
%ADD123R,0.05800X0.12800*%
%ADD124O,0.10642X0.06706*%
%ADD125R,0.08477X0.06312*%
%ADD126R,0.03950X0.07099*%
%ADD127R,0.04147X0.07099*%
%ADD128R,0.07099X0.14579*%
%ADD129R,0.06706X0.13005*%
%ADD130R,0.06312X0.14579*%
%ADD131R,0.05524X0.13005*%
%ADD132O,0.02178X0.07493*%
%ADD133R,0.03359X0.05131*%
%ADD134R,0.15367X0.06706*%
%ADD135R,0.07887X0.10249*%
%ADD136R,0.07887X0.08280*%
%ADD137R,0.02375X0.06706*%
%ADD138R,0.01784X0.03556*%
%ADD139R,0.06312X0.01784*%
%ADD140R,0.03556X0.01784*%
G04:AMPARAMS|DCode=141|XSize=35.56mil|YSize=17.84mil|CornerRadius=7.69mil|HoleSize=0mil|Usage=FLASHONLY|Rotation=0.000|XOffset=0mil|YOffset=0mil|HoleType=Round|Shape=RoundedRectangle|*
%AMROUNDEDRECTD141*
21,1,0.03556,0.00246,0,0,0.0*
21,1,0.02018,0.01784,0,0,0.0*
1,1,0.01538,0.01009,-0.00123*
1,1,0.01538,-0.01009,-0.00123*
1,1,0.01538,-0.01009,0.00123*
1,1,0.01538,0.01009,0.00123*
%
%ADD141ROUNDEDRECTD141*%
%ADD142R,0.05524X0.03162*%
%ADD143R,0.14579X0.05524*%
%ADD144R,0.14186X0.08674*%
%ADD145R,0.02178X0.12611*%
%ADD146R,0.12611X0.13398*%
%ADD147R,0.08674X0.19304*%
%ADD148R,0.08674X0.06312*%
%ADD149R,0.06312X0.03162*%
%ADD150R,0.06312X0.03753*%
%ADD151R,0.03950X0.05918*%
%ADD152R,0.03162X0.05524*%
%ADD153R,0.06871X0.06800*%
%ADD154R,0.06800X0.06800*%
%ADD155C,0.00598*%
%ADD156C,0.01969*%
%ADD157R,0.04724X0.07874*%
%ADD158C,0.00394*%
%ADD159C,0.00492*%
%ADD160C,0.00667*%
%ADD161C,0.00400*%
%ADD162C,0.01600*%
%ADD163C,0.00467*%
D87*
X12008Y-103512D02*
X16339D01*
X14173Y-105677D02*
Y-101347D01*
X-16339Y-103512D02*
X-12008D01*
X-14173Y-105677D02*
Y-101347D01*
X-11220Y-93079D02*
X-8071D01*
X-9646Y-94653D02*
Y-91504D01*
X8071Y-93079D02*
X11220D01*
X9646Y-94653D02*
Y-91504D01*
X-281299Y-54803D02*
X-277756D01*
X-279528Y-56575D02*
Y-53031D01*
X-281299Y-64803D02*
X-277756D01*
X-279528Y-66575D02*
Y-63032D01*
X-281299Y-74803D02*
X-277756D01*
X-279528Y-76575D02*
Y-73032D01*
X-281299Y-84803D02*
X-277756D01*
X-279528Y-86575D02*
Y-83031D01*
X-193465Y42835D02*
X-182835D01*
X-188150Y37520D02*
Y48150D01*
X-260394Y-24094D02*
X-249764D01*
X-255079Y-29409D02*
Y-18779D01*
X255669Y-30000D02*
X266299D01*
X260984Y-35315D02*
Y-24685D01*
X176929Y48740D02*
X187559D01*
X182244Y43425D02*
Y54055D01*
X-201772Y78835D02*
X-195866D01*
X-198819Y75882D02*
Y81787D01*
X-229331Y78835D02*
X-223425D01*
X-226378Y75882D02*
Y81787D01*
X-205709Y88677D02*
X-201772D01*
X-203740Y86709D02*
Y90646D01*
X-223425Y88677D02*
X-219488D01*
X-221457Y86709D02*
Y90646D01*
X201772Y88677D02*
X205709D01*
X203740Y86709D02*
Y90646D01*
X219488Y88677D02*
X223425D01*
X221457Y86709D02*
Y90646D01*
X195866Y78835D02*
X201772D01*
X198819Y75882D02*
Y81787D01*
X223425Y78835D02*
X229331D01*
X226378Y75882D02*
Y81787D01*
X-67923Y-67008D02*
X-66723D01*
X-67323Y-67608D02*
Y-66408D01*
X103543Y-16535D02*
X109843D01*
X106693Y-19685D02*
Y-13386D01*
X-158465Y-16535D02*
X-154134D01*
X-156299Y-18701D02*
Y-14370D01*
X-151969Y80236D02*
X-147244D01*
X-149606Y77874D02*
Y82598D01*
X135433Y92047D02*
X140157D01*
X137795Y89685D02*
Y94409D01*
X135433Y-92992D02*
X140157D01*
X137795Y-95354D02*
Y-90630D01*
X82471Y-22316D02*
X83671D01*
X83071Y-22916D02*
Y-21716D01*
X-104891Y-70200D02*
X-103691D01*
X-104291Y-70800D02*
Y-69600D01*
X-100167Y-70200D02*
X-98967D01*
X-99567Y-70800D02*
Y-69600D01*
X-93080Y-70200D02*
X-91880D01*
X-92480Y-70800D02*
Y-69600D01*
X-88356Y-70200D02*
X-87156D01*
X-87756Y-70800D02*
Y-69600D01*
X-102529Y-78700D02*
X-101329D01*
X-101929Y-79300D02*
Y-78100D01*
X-97805Y-78700D02*
X-96605D01*
X-97205Y-79300D02*
Y-78100D01*
X-90718Y-78700D02*
X-89518D01*
X-90118Y-79300D02*
Y-78100D01*
X-85994Y-78700D02*
X-84794D01*
X-85394Y-79300D02*
Y-78100D01*
X-78907Y-70200D02*
X-77707D01*
X-78307Y-70800D02*
Y-69600D01*
X-76545Y-78700D02*
X-75345D01*
X-75945Y-79300D02*
Y-78100D01*
X-81269Y-78700D02*
X-80069D01*
X-80669Y-79300D02*
Y-78100D01*
X-83631Y-70200D02*
X-82432D01*
X-83031Y-70800D02*
Y-69600D01*
X87195Y-22316D02*
X88395D01*
X87795Y-22916D02*
Y-21716D01*
X94282Y-22316D02*
X95482D01*
X94882Y-22916D02*
Y-21716D01*
X96644Y-39889D02*
X97844D01*
X97244Y-40489D02*
Y-39289D01*
X-109600Y-70200D02*
X-108400D01*
X-109000Y-70800D02*
Y-69600D01*
X-112100Y-79000D02*
X-110900D01*
X-111500Y-79600D02*
Y-78400D01*
X-107300Y-78800D02*
X-106100D01*
X-106700Y-79400D02*
Y-78200D01*
X-110800Y-56300D02*
X-109600D01*
X-110200Y-56900D02*
Y-55700D01*
X-226395Y-48700D02*
X-225195D01*
X-225795Y-49300D02*
Y-48100D01*
X-233995Y-55500D02*
X-232794D01*
X-233395Y-56100D02*
Y-54900D01*
X-281693Y-16831D02*
X-278150D01*
X-279921Y-18602D02*
Y-15059D01*
X-281693Y-33563D02*
X-278150D01*
X-279921Y-35335D02*
Y-31791D01*
X30600Y-21260D02*
X31800D01*
X31200Y-21860D02*
Y-20660D01*
X-27400Y-41700D02*
X-26200D01*
X-26800Y-42300D02*
Y-41100D01*
X-27300Y-46300D02*
X-26100D01*
X-26700Y-46900D02*
Y-45700D01*
X-24900Y-44000D02*
X-23700D01*
X-24300Y-44600D02*
Y-43400D01*
X-189576Y28065D02*
X-188376D01*
X-188976Y27465D02*
Y28665D01*
X-220679Y-57087D02*
X-219479D01*
X-220079Y-57687D02*
Y-56487D01*
X39951Y-90158D02*
X41151D01*
X40551Y-90758D02*
Y-89557D01*
X96644Y-71653D02*
X97844D01*
X97244Y-72254D02*
Y-71053D01*
X87589Y-44094D02*
X88789D01*
X88189Y-44695D02*
Y-43494D01*
X103918Y-59842D02*
X106318D01*
X105118Y-61042D02*
Y-58643D01*
X98013Y-59842D02*
X100413D01*
X99213Y-61042D02*
Y-58643D01*
X98013Y-65354D02*
X100413D01*
X99213Y-66554D02*
Y-64154D01*
X103918Y-65354D02*
X106318D01*
X105118Y-66554D02*
Y-64154D01*
X-127371Y-21260D02*
X-126171D01*
X-126771Y-21860D02*
Y-20660D01*
X-60443Y59842D02*
X-59242D01*
X-59842Y59242D02*
Y60443D01*
X-34065Y56693D02*
X-32865D01*
X-33465Y56093D02*
Y57293D01*
X44469Y-394D02*
X46869D01*
X45669Y-1594D02*
Y806D01*
X94282Y6693D02*
X95482D01*
X94882Y6093D02*
Y7293D01*
X102943Y3150D02*
X104143D01*
X103543Y2550D02*
Y3750D01*
X67116Y6693D02*
X68317D01*
X67716Y6093D02*
Y7293D01*
X-112405Y6687D02*
X-111205D01*
X-111805Y6087D02*
Y7287D01*
X-218595Y-48700D02*
X-217394D01*
X-217994Y-49300D02*
Y-48100D01*
X-201781Y-35433D02*
X-200581D01*
X-201181Y-36033D02*
Y-34833D01*
X-242332Y-55905D02*
X-241132D01*
X-241732Y-56506D02*
Y-55305D01*
X-67135Y42913D02*
X-65935D01*
X-66535Y42313D02*
Y43513D01*
X-122647Y-66142D02*
X-121447D01*
X-122047Y-66742D02*
Y-65542D01*
X-119498Y-55905D02*
X-118298D01*
X-118898Y-56506D02*
Y-55305D01*
X-125797Y-61024D02*
X-124597D01*
X-125197Y-61624D02*
Y-60424D01*
X-125754Y-66132D02*
X-124554D01*
X-125154Y-66732D02*
Y-65531D01*
X-127765Y-68504D02*
X-126565D01*
X-127165Y-69104D02*
Y-67904D01*
X-127372Y-107480D02*
X-126172D01*
X-126772Y-108080D02*
Y-106880D01*
X-113986Y-107480D02*
X-112786D01*
X-113386Y-108080D02*
Y-106880D01*
X109036Y-94882D02*
X111436D01*
X110236Y-96082D02*
Y-93682D01*
X-223750Y-85354D02*
X-222550D01*
X-223150Y-85954D02*
Y-84754D01*
X-164302Y-54408D02*
X-163102D01*
X-163702Y-55008D02*
Y-53808D01*
X-154537Y-57874D02*
X-153337D01*
X-153937Y-58474D02*
Y-57274D01*
X-162805Y-75984D02*
X-161605D01*
X-162205Y-76584D02*
Y-75384D01*
X-136427Y-98819D02*
X-135227D01*
X-135827Y-99419D02*
Y-98219D01*
X-155718Y-74410D02*
X-154518D01*
X-155118Y-75010D02*
Y-73809D01*
X-270285Y-25197D02*
X-269085D01*
X-269685Y-25797D02*
Y-24597D01*
X-270285Y-30315D02*
X-269085D01*
X-269685Y-30915D02*
Y-29715D01*
X-97450Y-85039D02*
X-96250D01*
X-96850Y-85639D02*
Y-84439D01*
X-155718Y-61024D02*
X-154518D01*
X-155118Y-61624D02*
Y-60424D01*
X178259Y-88858D02*
X179459D01*
X178859Y-89458D02*
Y-88258D01*
X204230Y-85145D02*
X205430D01*
X204830Y-85745D02*
Y-84545D01*
X167904Y-43701D02*
X169104D01*
X168504Y-44301D02*
Y-43101D01*
X121447Y-16142D02*
X122647D01*
X122047Y-16742D02*
Y-15542D01*
X180502Y-69685D02*
X181702D01*
X181102Y-70285D02*
Y-69085D01*
X194676Y-67323D02*
X195876D01*
X195276Y-67923D02*
Y-66723D01*
X194676Y-72047D02*
X195876D01*
X195276Y-72647D02*
Y-71447D01*
X-219104Y-88583D02*
X-217904D01*
X-218504Y-89183D02*
Y-87983D01*
X77746Y-105512D02*
X78947D01*
X78347Y-106112D02*
Y-104912D01*
X151556Y-87795D02*
X153956D01*
X152756Y-88995D02*
Y-86595D01*
X-125403Y-79921D02*
X-124203D01*
X-124803Y-80521D02*
Y-79321D01*
X-177372Y23622D02*
X-176172D01*
X-176772Y23022D02*
Y24222D01*
X-180128Y25984D02*
X-178928D01*
X-179528Y25384D02*
Y26584D01*
X-165561Y57480D02*
X-164361D01*
X-164961Y56880D02*
Y58080D01*
X8061Y23622D02*
X9261D01*
X8661Y23022D02*
Y24222D01*
X-3750Y23622D02*
X-2550D01*
X-3150Y23022D02*
Y24222D01*
X-170285Y47638D02*
X-169085D01*
X-169685Y47038D02*
Y48238D01*
X-174222Y33858D02*
X-173022D01*
X-173622Y33258D02*
Y34458D01*
X1369Y23622D02*
X2568D01*
X1969Y23022D02*
Y24222D01*
X4518Y23622D02*
X5718D01*
X5118Y23022D02*
Y24222D01*
X-168316Y55118D02*
X-167116D01*
X-167717Y54518D02*
Y55718D01*
X975Y6693D02*
X2175D01*
X1575Y6093D02*
Y7293D01*
X3337Y9449D02*
X4537D01*
X3937Y8849D02*
Y10049D01*
X-3750Y9449D02*
X-2550D01*
X-3150Y8849D02*
Y10049D01*
X-6112Y6693D02*
X-4912D01*
X-5512Y6093D02*
Y7293D01*
X-13198Y23622D02*
X-11998D01*
X-12598Y23022D02*
Y24222D01*
X8061Y6693D02*
X9261D01*
X8661Y6093D02*
Y7293D01*
X-6899Y23622D02*
X-5699D01*
X-6299Y23022D02*
Y24222D01*
X-10049Y23622D02*
X-8849D01*
X-9449Y23022D02*
Y24222D01*
X-10836Y6693D02*
X-9636D01*
X-10236Y6093D02*
Y7293D01*
X-13198Y9449D02*
X-11998D01*
X-12598Y8849D02*
Y10049D01*
X10424Y9449D02*
X11624D01*
X11024Y8849D02*
Y10049D01*
X15148Y6693D02*
X16348D01*
X15748Y6093D02*
Y7293D01*
X17510Y9449D02*
X18710D01*
X18110Y8849D02*
Y10049D01*
X22235Y6693D02*
X23435D01*
X22835Y6093D02*
Y7293D01*
X24597Y9449D02*
X25797D01*
X25197Y8849D02*
Y10049D01*
X-156112Y-27953D02*
X-154912D01*
X-155512Y-28553D02*
Y-27353D01*
X-151387Y-40945D02*
X-150187D01*
X-150787Y-41545D02*
Y-40345D01*
X-151781Y-49213D02*
X-150581D01*
X-151181Y-49813D02*
Y-48613D01*
X-142726Y-41339D02*
X-141526D01*
X-142126Y-41939D02*
Y-40739D01*
X-143120Y-49213D02*
X-141920D01*
X-142520Y-49813D02*
Y-48613D01*
X31683Y9449D02*
X32884D01*
X32283Y8849D02*
Y10049D01*
X29321Y6693D02*
X30521D01*
X29921Y6093D02*
Y7293D01*
X-24222Y-94488D02*
X-23022D01*
X-23622Y-95088D02*
Y-93888D01*
X-24222Y-102362D02*
X-23022D01*
X-23622Y-102962D02*
Y-101762D01*
X-32096Y-102362D02*
X-30896D01*
X-31496Y-102962D02*
Y-101762D01*
X-39970Y-102362D02*
X-38770D01*
X-39370Y-102962D02*
Y-101762D01*
X-47844Y-102362D02*
X-46644D01*
X-47244Y-102962D02*
Y-101762D01*
X-16348Y-70866D02*
X-15148D01*
X-15748Y-71466D02*
Y-70266D01*
X-32096Y-70866D02*
X-30896D01*
X-31496Y-71466D02*
Y-70266D01*
X-47844Y-70866D02*
X-46644D01*
X-47244Y-71466D02*
Y-70266D01*
X-47844Y-78740D02*
X-46644D01*
X-47244Y-79340D02*
Y-78140D01*
X-39970Y-78740D02*
X-38770D01*
X-39370Y-79340D02*
Y-78140D01*
X-39970Y-70866D02*
X-38770D01*
X-39370Y-71466D02*
Y-70266D01*
X-24222Y-70866D02*
X-23022D01*
X-23622Y-71466D02*
Y-70266D01*
X133258Y-102362D02*
X134458D01*
X133858Y-102962D02*
Y-101762D01*
X141132Y-102362D02*
X142332D01*
X141732Y-102962D02*
Y-101762D01*
X149006Y-102362D02*
X150206D01*
X149606Y-102962D02*
Y-101762D01*
X149006Y-94488D02*
X150206D01*
X149606Y-95088D02*
Y-93888D01*
X141132Y-78740D02*
X142332D01*
X141732Y-79340D02*
Y-78140D01*
X133258Y-78740D02*
X134458D01*
X133858Y-79340D02*
Y-78140D01*
X125384Y-78740D02*
X126584D01*
X125984Y-79340D02*
Y-78140D01*
X117510Y-78740D02*
X118710D01*
X118110Y-79340D02*
Y-78140D01*
X133258Y-70866D02*
X134458D01*
X133858Y-71466D02*
Y-70266D01*
X141132Y-70866D02*
X142332D01*
X141732Y-71466D02*
Y-70266D01*
X141132Y-55118D02*
X142332D01*
X141732Y-55718D02*
Y-54518D01*
X141132Y-47244D02*
X142332D01*
X141732Y-47844D02*
Y-46644D01*
X133258Y-47244D02*
X134458D01*
X133858Y-47844D02*
Y-46644D01*
X219872Y-102362D02*
X221072D01*
X220472Y-102962D02*
Y-101762D01*
X227747Y-102362D02*
X228946D01*
X228346Y-102962D02*
Y-101762D01*
X235620Y-102362D02*
X236821D01*
X236221Y-102962D02*
Y-101762D01*
X204124Y-74016D02*
X205324D01*
X204724Y-74616D02*
Y-73416D01*
X204124Y-78740D02*
X205324D01*
X204724Y-79340D02*
Y-78140D01*
X197038Y-77165D02*
X198238D01*
X197638Y-77765D02*
Y-76565D01*
X197432Y-63779D02*
X198632D01*
X198031Y-64380D02*
Y-63179D01*
X58849Y10630D02*
X60049D01*
X59449Y10030D02*
Y11230D01*
X58849Y7087D02*
X60049D01*
X59449Y6487D02*
Y7687D01*
X49794Y3150D02*
X50994D01*
X50394Y2550D02*
Y3750D01*
X92313Y18504D02*
X93513D01*
X92913Y17904D02*
Y19104D01*
X64361Y9449D02*
X65561D01*
X64961Y8849D02*
Y10049D01*
X38376Y6693D02*
X39576D01*
X38976Y6093D02*
Y7293D01*
X34833Y6693D02*
X36033D01*
X35433Y6093D02*
Y7293D01*
X-78595Y-83124D02*
X-77395D01*
X-77995Y-83724D02*
Y-82524D01*
X-83671Y-83071D02*
X-82471D01*
X-83071Y-83671D02*
Y-82471D01*
X-63263Y-76049D02*
X-62063D01*
X-62663Y-76649D02*
Y-75449D01*
X-60443Y-70079D02*
X-59242D01*
X-59842Y-70679D02*
Y-69479D01*
X-60443Y-73228D02*
X-59242D01*
X-59842Y-73828D02*
Y-72628D01*
X-72254Y-67323D02*
X-71053D01*
X-71653Y-67923D02*
Y-66723D01*
X-116348Y-79921D02*
X-115148D01*
X-115748Y-80521D02*
Y-79321D01*
X-120285Y-79921D02*
X-119085D01*
X-119685Y-80521D02*
Y-79321D01*
X-197450Y-68898D02*
X-196250D01*
X-196850Y-69498D02*
Y-68298D01*
X-171860Y-51968D02*
X-170660D01*
X-171260Y-52569D02*
Y-51368D01*
X-171860Y-54724D02*
X-170660D01*
X-171260Y-55324D02*
Y-54124D01*
X-234458Y-68898D02*
X-233258D01*
X-233858Y-69498D02*
Y-68298D01*
X-224222Y-68898D02*
X-223022D01*
X-223622Y-69498D02*
Y-68298D01*
X-247450Y-55905D02*
X-246250D01*
X-246850Y-56506D02*
Y-55305D01*
X-251387Y-55905D02*
X-250187D01*
X-250787Y-56506D02*
Y-55305D01*
X-262411Y70866D02*
X-261211D01*
X-261811Y70266D02*
Y71466D01*
X-262411Y66929D02*
X-261211D01*
X-261811Y66329D02*
Y67529D01*
X-262411Y62992D02*
X-261211D01*
X-261811Y62392D02*
Y63592D01*
X-262411Y59055D02*
X-261211D01*
X-261811Y58455D02*
Y59655D01*
X-262411Y55118D02*
X-261211D01*
X-261811Y54518D02*
Y55718D01*
X-262411Y51181D02*
X-261211D01*
X-261811Y50581D02*
Y51781D01*
X-262411Y47244D02*
X-261211D01*
X-261811Y46644D02*
Y47844D01*
X-262411Y43307D02*
X-261211D01*
X-261811Y42707D02*
Y43907D01*
X-262411Y39370D02*
X-261211D01*
X-261811Y38770D02*
Y39970D01*
X-262411Y35433D02*
X-261211D01*
X-261811Y34833D02*
Y36033D01*
X-262411Y31496D02*
X-261211D01*
X-261811Y30896D02*
Y32096D01*
X-262411Y27559D02*
X-261211D01*
X-261811Y26959D02*
Y28159D01*
X-282096Y15748D02*
X-280896D01*
X-281496Y15148D02*
Y16348D01*
X-266348Y11811D02*
X-265148D01*
X-265748Y11211D02*
Y12411D01*
X-282096Y9843D02*
X-280896D01*
X-281496Y9243D02*
Y10442D01*
X-282096Y3937D02*
X-280896D01*
X-281496Y3337D02*
Y4537D01*
X-282096Y-1969D02*
X-280896D01*
X-281496Y-2568D02*
Y-1369D01*
X-276190Y-1969D02*
X-274991D01*
X-275590Y-2568D02*
Y-1369D01*
X46236Y-86629D02*
X47436D01*
X46836Y-87229D02*
Y-86029D01*
X55305Y-90551D02*
X56506D01*
X55905Y-91151D02*
Y-89951D01*
X54124Y-70866D02*
X55324D01*
X54724Y-71466D02*
Y-70266D01*
X38770Y-74016D02*
X39970D01*
X39370Y-74616D02*
Y-73416D01*
X38770Y-70866D02*
X39970D01*
X39370Y-71466D02*
Y-70266D01*
X42904Y-70276D02*
X44104D01*
X43504Y-70876D02*
Y-69676D01*
X46841Y-70276D02*
X48041D01*
X47441Y-70876D02*
Y-69676D01*
X45857Y-78740D02*
X47057D01*
X46457Y-79340D02*
Y-78140D01*
X54124Y-74016D02*
X55324D01*
X54724Y-74616D02*
Y-73416D01*
X36802Y-93701D02*
X38002D01*
X37402Y-94301D02*
Y-93101D01*
X33258Y-96457D02*
X34458D01*
X33858Y-97057D02*
Y-95857D01*
X47038Y-49606D02*
X48238D01*
X47638Y-50206D02*
Y-49006D01*
X47038Y-54331D02*
X48238D01*
X47638Y-54931D02*
Y-53731D01*
X47038Y-59055D02*
X48238D01*
X47638Y-59655D02*
Y-58455D01*
X109636Y-78740D02*
X110836D01*
X110236Y-79340D02*
Y-78140D01*
X113573Y-74803D02*
X114773D01*
X114173Y-75403D02*
Y-74203D01*
X121447Y-74803D02*
X122647D01*
X122047Y-75403D02*
Y-74203D01*
X129321Y-74803D02*
X130521D01*
X129921Y-75403D02*
Y-74203D01*
X137195Y-74803D02*
X138395D01*
X137795Y-75403D02*
Y-74203D01*
X145069Y-59055D02*
X146269D01*
X145669Y-59655D02*
Y-58455D01*
X137195Y-51181D02*
X138395D01*
X137795Y-51781D02*
Y-50581D01*
X152943Y-59055D02*
X154143D01*
X153543Y-59655D02*
Y-58455D01*
X235620Y-86614D02*
X236821D01*
X236221Y-87214D02*
Y-86014D01*
X235620Y-94488D02*
X236821D01*
X236221Y-95088D02*
Y-93888D01*
X255306Y-51181D02*
X256505D01*
X255906Y-51781D02*
Y-50581D01*
X267116Y-51181D02*
X268317D01*
X267717Y-51781D02*
Y-50581D01*
X278928Y-51181D02*
X280128D01*
X279528Y-51781D02*
Y-50581D01*
X265711Y-59100D02*
X266911D01*
X266311Y-59700D02*
Y-58500D01*
X253900Y-59100D02*
X255100D01*
X254500Y-59700D02*
Y-58500D01*
X239558Y-31496D02*
X240757D01*
X240158Y-32096D02*
Y-30896D01*
X239558Y-43307D02*
X240757D01*
X240158Y-43907D02*
Y-42707D01*
X247431Y-15748D02*
X248632D01*
X248031Y-16348D02*
Y-15148D01*
X259243Y-15748D02*
X260442D01*
X259842Y-16348D02*
Y-15148D01*
X271054Y-15748D02*
X272253D01*
X271654Y-16348D02*
Y-15148D01*
X271054Y31496D02*
X272253D01*
X271654Y30896D02*
Y32096D01*
X259243Y31496D02*
X260442D01*
X259842Y30896D02*
Y32096D01*
X247431Y31496D02*
X248632D01*
X248031Y30896D02*
Y32096D01*
X236408Y63937D02*
X237608D01*
X237008Y63337D02*
Y64537D01*
X220424Y40787D02*
X221624D01*
X221024Y40187D02*
Y41387D01*
X200187Y62992D02*
X201387D01*
X200787Y62392D02*
Y63592D01*
X200187Y70866D02*
X201387D01*
X200787Y70266D02*
Y71466D01*
X192313Y62992D02*
X193513D01*
X192913Y62392D02*
Y63592D01*
X117510Y94488D02*
X118710D01*
X118110Y93888D02*
Y95088D01*
X93888Y94488D02*
X95088D01*
X94488Y93888D02*
Y95088D01*
X70266Y94488D02*
X71466D01*
X70866Y93888D02*
Y95088D01*
X46644Y94488D02*
X47844D01*
X47244Y93888D02*
Y95088D01*
X23022Y94488D02*
X24222D01*
X23622Y93888D02*
Y95088D01*
X-600Y94488D02*
X600D01*
X0Y93888D02*
Y95088D01*
X-24222Y94488D02*
X-23022D01*
X-23622Y93888D02*
Y95088D01*
X-47844Y94488D02*
X-46644D01*
X-47244Y93888D02*
Y95088D01*
X-71466Y94488D02*
X-70266D01*
X-70866Y93888D02*
Y95088D01*
X-95088Y94488D02*
X-93888D01*
X-94488Y93888D02*
Y95088D01*
X-118710Y94488D02*
X-117510D01*
X-118110Y93888D02*
Y95088D01*
X-142332Y94488D02*
X-141132D01*
X-141732Y93888D02*
Y95088D01*
X-165954Y94488D02*
X-164754D01*
X-165354Y93888D02*
Y95088D01*
X-600Y70866D02*
X600D01*
X0Y70266D02*
Y71466D01*
X23022Y70866D02*
X24222D01*
X23622Y70266D02*
Y71466D01*
X46644Y70866D02*
X47844D01*
X47244Y70266D02*
Y71466D01*
X70266Y70866D02*
X71466D01*
X70866Y70266D02*
Y71466D01*
X93888Y70866D02*
X95088D01*
X94488Y70266D02*
Y71466D01*
X117510Y70866D02*
X118710D01*
X118110Y70266D02*
Y71466D01*
X141132Y70866D02*
X142332D01*
X141732Y70266D02*
Y71466D01*
X164754Y70866D02*
X165954D01*
X165354Y70266D02*
Y71466D01*
X141132Y47244D02*
X142332D01*
X141732Y46644D02*
Y47844D01*
X117510Y47244D02*
X118710D01*
X118110Y46644D02*
Y47844D01*
X93888Y47244D02*
X95088D01*
X94488Y46644D02*
Y47844D01*
X70266Y47244D02*
X71466D01*
X70866Y46644D02*
Y47844D01*
X46644Y47244D02*
X47844D01*
X47244Y46644D02*
Y47844D01*
X23022Y47244D02*
X24222D01*
X23622Y46644D02*
Y47844D01*
X-165954Y70866D02*
X-164754D01*
X-165354Y70266D02*
Y71466D01*
X-185000Y76100D02*
X-183800D01*
X-184400Y75500D02*
Y76700D01*
X-236821Y94488D02*
X-235620D01*
X-236221Y93888D02*
Y95088D01*
X-130521Y82677D02*
X-129321D01*
X-129921Y82077D02*
Y83277D01*
X-142332Y70866D02*
X-141132D01*
X-141732Y70266D02*
Y71466D01*
X-215600Y66000D02*
X-214400D01*
X-215000Y65400D02*
Y66600D01*
X-221072Y47244D02*
X-219872D01*
X-220472Y46644D02*
Y47844D01*
X-221072Y23622D02*
X-219872D01*
X-220472Y23022D02*
Y24222D01*
X-228946Y15748D02*
X-227747D01*
X-228346Y15148D02*
Y16348D01*
X-228946Y7874D02*
X-227747D01*
X-228346Y7274D02*
Y8474D01*
X-221072Y0D02*
X-219872D01*
X-220472Y-600D02*
Y600D01*
X-213198Y0D02*
X-211998D01*
X-212598Y-600D02*
Y600D01*
X-244694Y-23622D02*
X-243495D01*
X-244094Y-24222D02*
Y-23022D01*
X-189576Y-31496D02*
X-188376D01*
X-188976Y-32096D02*
Y-30896D01*
X-181702Y-23622D02*
X-180502D01*
X-181102Y-24222D02*
Y-23022D01*
X-173828Y-15748D02*
X-172628D01*
X-173228Y-16348D02*
Y-15148D01*
X-181702Y-31496D02*
X-180502D01*
X-181102Y-32096D02*
Y-30896D01*
X-181702Y-39370D02*
X-180502D01*
X-181102Y-39970D02*
Y-38770D01*
X-197450Y-55118D02*
X-196250D01*
X-196850Y-55718D02*
Y-54518D01*
X-265954Y-79528D02*
X-264754D01*
X-265354Y-80128D02*
Y-78928D01*
X-270679Y-79528D02*
X-269479D01*
X-270079Y-80128D02*
Y-78928D01*
X-275403Y-79528D02*
X-274203D01*
X-274803Y-80128D02*
Y-78928D01*
X-253356Y-38189D02*
X-252156D01*
X-252756Y-38789D02*
Y-37589D01*
X-102962Y-41339D02*
X-101762D01*
X-102362Y-41939D02*
Y-40739D01*
X-108868Y-41339D02*
X-107668D01*
X-108268Y-41939D02*
Y-40739D01*
X-112805Y-45276D02*
X-111605D01*
X-112205Y-45876D02*
Y-44676D01*
X-106899Y-45276D02*
X-105699D01*
X-106299Y-45876D02*
Y-44676D01*
X-106899Y-51181D02*
X-105699D01*
X-106299Y-51781D02*
Y-50581D01*
X-112805Y-51181D02*
X-111605D01*
X-112205Y-51781D02*
Y-50581D01*
X-20285Y7874D02*
X-19085D01*
X-19685Y7274D02*
Y8474D01*
X-26191Y7874D02*
X-24991D01*
X-25591Y7274D02*
Y8474D01*
X-32096Y7874D02*
X-30896D01*
X-31496Y7274D02*
Y8474D01*
X-38002Y7874D02*
X-36802D01*
X-37402Y7274D02*
Y8474D01*
X-43907Y7874D02*
X-42707D01*
X-43307Y7274D02*
Y8474D01*
X-49813Y7874D02*
X-48613D01*
X-49213Y7274D02*
Y8474D01*
X-55718Y7874D02*
X-54518D01*
X-55118Y7274D02*
Y8474D01*
X-61624Y7874D02*
X-60424D01*
X-61024Y7274D02*
Y8474D01*
X-67529Y7874D02*
X-66329D01*
X-66929Y7274D02*
Y8474D01*
X-73435Y7874D02*
X-72235D01*
X-72835Y7274D02*
Y8474D01*
X-79340Y7874D02*
X-78140D01*
X-78740Y7274D02*
Y8474D01*
X15148Y41339D02*
X16348D01*
X15748Y40739D02*
Y41939D01*
X7274Y51181D02*
X8474D01*
X7874Y50581D02*
Y51781D01*
X115542Y23622D02*
X116742D01*
X116142Y23022D02*
Y24222D01*
X141132Y23622D02*
X142332D01*
X141732Y23022D02*
Y24222D01*
X150975Y13780D02*
X152175D01*
X151575Y13180D02*
Y14379D01*
X160817Y5906D02*
X162017D01*
X161417Y5305D02*
Y6505D01*
X174597Y-9843D02*
X175797D01*
X175197Y-10442D02*
Y-9243D01*
X174597Y-19685D02*
X175797D01*
X175197Y-20285D02*
Y-19085D01*
X139164Y13780D02*
X140364D01*
X139764Y13180D02*
Y14379D01*
X147038Y3937D02*
X148238D01*
X147638Y3337D02*
Y4537D01*
X127353Y13780D02*
X128553D01*
X127953Y13180D02*
Y14379D01*
X127353Y23622D02*
X128553D01*
X127953Y23022D02*
Y24222D01*
X-262411Y74803D02*
X-261211D01*
X-261811Y74203D02*
Y75403D01*
X-262411Y78740D02*
X-261211D01*
X-261811Y78140D02*
Y79340D01*
X-262411Y82677D02*
X-261211D01*
X-261811Y82077D02*
Y83277D01*
X-262411Y86614D02*
X-261211D01*
X-261811Y86014D02*
Y87214D01*
X-262411Y90551D02*
X-261211D01*
X-261811Y89951D02*
Y91151D01*
X-262411Y94488D02*
X-261211D01*
X-261811Y93888D02*
Y95088D01*
X-197372Y30315D02*
X-196172D01*
X-196772Y29715D02*
Y30915D01*
X-159065Y-74803D02*
X-157865D01*
X-158465Y-75403D02*
Y-74203D01*
X-133100Y-96500D02*
X-131900D01*
X-132500Y-97100D02*
Y-95900D01*
X-157100Y-90000D02*
X-155900D01*
X-156500Y-90600D02*
Y-89400D01*
X-124100Y-87700D02*
X-122900D01*
X-123500Y-88300D02*
Y-87100D01*
X-110700Y-89200D02*
X-109500D01*
X-110100Y-89800D02*
Y-88600D01*
X-153900Y-86000D02*
X-152700D01*
X-153300Y-86600D02*
Y-85400D01*
X-177098Y-46002D02*
X-175898D01*
X-176498Y-46602D02*
Y-45402D01*
X-133090Y6693D02*
X-130690D01*
X-131890Y5493D02*
Y7893D01*
X-141358Y6693D02*
X-138958D01*
X-140157Y5493D02*
Y7893D01*
X-151200Y6693D02*
X-148800D01*
X-150000Y5493D02*
Y7893D01*
X-154300Y2900D02*
X-153100D01*
X-153700Y2300D02*
Y3500D01*
X-101540Y-22200D02*
X-100340D01*
X-100940Y-22800D02*
Y-21600D01*
X-25100Y-39400D02*
X-23900D01*
X-24500Y-40000D02*
Y-38800D01*
X90300Y-21400D02*
X91500D01*
X90900Y-22000D02*
Y-20800D01*
X-124400Y-19800D02*
X-123200D01*
X-123800Y-20400D02*
Y-19200D01*
X-16800Y-21400D02*
X-15600D01*
X-16200Y-22000D02*
Y-20800D01*
X-9700Y-21400D02*
X-8500D01*
X-9100Y-22000D02*
Y-20800D01*
X-2600Y-21400D02*
X-1400D01*
X-2000Y-22000D02*
Y-20800D01*
X4500Y-21400D02*
X5700D01*
X5100Y-22000D02*
Y-20800D01*
X9200Y-21400D02*
X10400D01*
X9800Y-22000D02*
Y-20800D01*
X16300Y-21400D02*
X17500D01*
X16900Y-22000D02*
Y-20800D01*
X75384Y-22316D02*
X76584D01*
X75984Y-22916D02*
Y-21716D01*
X61211Y-22316D02*
X62411D01*
X61811Y-22916D02*
Y-21716D01*
X68298Y-22316D02*
X69498D01*
X68898Y-22916D02*
Y-21716D01*
X28700Y-10600D02*
X29900D01*
X29300Y-11200D02*
Y-10000D01*
X-226400Y-12400D02*
X-225200D01*
X-225800Y-13000D02*
Y-11800D01*
X23416Y-21516D02*
X24616D01*
X24016Y-22116D02*
Y-20916D01*
X196200Y-46800D02*
X197400D01*
X196800Y-47400D02*
Y-46200D01*
X240600Y-83300D02*
X241800D01*
X241200Y-83900D02*
Y-82700D01*
X276100Y-67300D02*
X277300D01*
X276700Y-67900D02*
Y-66700D01*
X-223100Y-59500D02*
X-221900D01*
X-222500Y-60100D02*
Y-58900D01*
X-187600Y-59500D02*
X-186400D01*
X-187000Y-60100D02*
Y-58900D01*
X-91100Y26500D02*
X-89900D01*
X-90500Y25900D02*
Y27100D01*
X-104100Y26000D02*
X-102900D01*
X-103500Y25400D02*
Y26600D01*
X-117600Y26000D02*
X-116400D01*
X-117000Y25400D02*
Y26600D01*
X-124600Y34500D02*
X-123400D01*
X-124000Y33900D02*
Y35100D01*
X-111100Y30500D02*
X-109900D01*
X-110500Y29900D02*
Y31100D01*
X-209600Y66000D02*
X-208400D01*
X-209000Y65400D02*
Y66600D01*
M02*
