%FSLAX25Y25*%
%MOIN*%
G70*
G01*
G75*
G04 Layer_Color=16711935*
%ADD10R,0.04331X0.03937*%
%ADD11R,0.05000X0.04000*%
%ADD12R,0.03937X0.02756*%
%ADD13R,0.04000X0.03500*%
%ADD14R,0.04000X0.05000*%
%ADD15R,0.02756X0.03937*%
%ADD16R,0.03500X0.04000*%
%ADD17R,0.05906X0.04724*%
%ADD18R,0.06496X0.06299*%
%ADD19O,0.07874X0.02362*%
%ADD20O,0.06693X0.01378*%
%ADD21R,0.03543X0.02559*%
%ADD22C,0.06063*%
%ADD23R,0.06299X0.06496*%
%ADD24R,0.03347X0.02362*%
%ADD25R,0.02362X0.03347*%
%ADD26R,0.18504X0.07874*%
%ADD27R,0.01575X0.03937*%
%ADD28R,0.01181X0.04724*%
%ADD29R,0.03937X0.04331*%
%ADD30R,0.10827X0.03937*%
%ADD31C,0.01000*%
%ADD32C,0.00700*%
%ADD33C,0.01200*%
%ADD34C,0.06000*%
%ADD35C,0.02000*%
%ADD36C,0.04000*%
%ADD37C,0.03000*%
%ADD38R,0.18110X0.12598*%
%ADD39R,0.27559X0.09055*%
%ADD40R,0.27953X0.09449*%
%ADD41R,0.11417X0.12992*%
%ADD42R,0.05906X0.07874*%
%ADD43R,0.05906X0.05906*%
%ADD44C,0.05906*%
%ADD45C,0.11811*%
%ADD46C,0.07874*%
%ADD47C,0.02400*%
%ADD48C,0.06693*%
%ADD49C,0.04724*%
%ADD50C,0.05512*%
%ADD51C,0.03937*%
%ADD52C,0.04000*%
%ADD53R,0.05000X0.12000*%
%ADD54O,0.09843X0.05906*%
%ADD55R,0.07677X0.05512*%
%ADD56R,0.03150X0.06299*%
%ADD57R,0.03347X0.06299*%
%ADD58R,0.06299X0.13780*%
%ADD59R,0.05906X0.12205*%
%ADD60R,0.05512X0.13780*%
%ADD61R,0.04724X0.12205*%
%ADD62O,0.01378X0.06693*%
%ADD63R,0.02559X0.04331*%
%ADD64R,0.14567X0.05906*%
%ADD65R,0.07087X0.09449*%
%ADD66R,0.07087X0.07480*%
%ADD67R,0.01575X0.05906*%
%ADD68R,0.00984X0.02756*%
%ADD69R,0.05512X0.00984*%
%ADD70R,0.02756X0.00984*%
G04:AMPARAMS|DCode=71|XSize=27.56mil|YSize=9.84mil|CornerRadius=3.69mil|HoleSize=0mil|Usage=FLASHONLY|Rotation=0.000|XOffset=0mil|YOffset=0mil|HoleType=Round|Shape=RoundedRectangle|*
%AMROUNDEDRECTD71*
21,1,0.02756,0.00246,0,0,0.0*
21,1,0.02018,0.00984,0,0,0.0*
1,1,0.00738,0.01009,-0.00123*
1,1,0.00738,-0.01009,-0.00123*
1,1,0.00738,-0.01009,0.00123*
1,1,0.00738,0.01009,0.00123*
%
%ADD71ROUNDEDRECTD71*%
%ADD72R,0.04724X0.02362*%
%ADD73R,0.13780X0.04724*%
%ADD74R,0.13386X0.07874*%
%ADD75R,0.01378X0.11811*%
%ADD76R,0.11811X0.12598*%
%ADD77R,0.07874X0.18504*%
%ADD78R,0.07874X0.05512*%
%ADD79R,0.05512X0.02362*%
%ADD80R,0.05512X0.02953*%
%ADD81R,0.03150X0.05118*%
%ADD82R,0.02362X0.04724*%
%ADD83R,0.06071X0.06000*%
%ADD84R,0.06000X0.06000*%
%ADD85C,0.01258*%
%ADD86C,0.00787*%
%ADD87C,0.00500*%
%ADD88C,0.00984*%
%ADD89C,0.02362*%
%ADD90C,0.00780*%
%ADD91C,0.00600*%
%ADD92C,0.00800*%
%ADD93R,0.12050X0.04000*%
%ADD94R,0.04000X0.12050*%
%ADD95R,0.07480X0.11811*%
%ADD96R,0.11811X0.07480*%
%ADD97R,0.05131X0.04737*%
%ADD98R,0.05800X0.04800*%
%ADD99R,0.04737X0.03556*%
%ADD100R,0.04800X0.04300*%
%ADD101R,0.04800X0.05800*%
%ADD102R,0.03556X0.04737*%
%ADD103R,0.04300X0.04800*%
%ADD104R,0.06706X0.05524*%
%ADD105R,0.07296X0.07099*%
%ADD106O,0.08674X0.03162*%
%ADD107O,0.07493X0.02178*%
%ADD108R,0.04343X0.03359*%
%ADD109C,0.06863*%
%ADD110R,0.07099X0.07296*%
%ADD111R,0.04147X0.03162*%
%ADD112R,0.03162X0.04147*%
%ADD113R,0.19304X0.08674*%
%ADD114R,0.02375X0.04737*%
%ADD115R,0.01981X0.05524*%
%ADD116R,0.04737X0.05131*%
%ADD117R,0.11627X0.04737*%
%ADD118R,0.06706X0.08674*%
%ADD119R,0.06706X0.06706*%
%ADD120C,0.06706*%
%ADD121C,0.12611*%
%ADD122C,0.08674*%
%ADD123R,0.05800X0.12800*%
%ADD124O,0.10642X0.06706*%
%ADD125R,0.08477X0.06312*%
%ADD126R,0.03950X0.07099*%
%ADD127R,0.04147X0.07099*%
%ADD128R,0.07099X0.14579*%
%ADD129R,0.06706X0.13005*%
%ADD130R,0.06312X0.14579*%
%ADD131R,0.05524X0.13005*%
%ADD132O,0.02178X0.07493*%
%ADD133R,0.03359X0.05131*%
%ADD134R,0.15367X0.06706*%
%ADD135R,0.07887X0.10249*%
%ADD136R,0.07887X0.08280*%
%ADD137R,0.02375X0.06706*%
%ADD138R,0.01784X0.03556*%
%ADD139R,0.06312X0.01784*%
%ADD140R,0.03556X0.01784*%
G04:AMPARAMS|DCode=141|XSize=35.56mil|YSize=17.84mil|CornerRadius=7.69mil|HoleSize=0mil|Usage=FLASHONLY|Rotation=0.000|XOffset=0mil|YOffset=0mil|HoleType=Round|Shape=RoundedRectangle|*
%AMROUNDEDRECTD141*
21,1,0.03556,0.00246,0,0,0.0*
21,1,0.02018,0.01784,0,0,0.0*
1,1,0.01538,0.01009,-0.00123*
1,1,0.01538,-0.01009,-0.00123*
1,1,0.01538,-0.01009,0.00123*
1,1,0.01538,0.01009,0.00123*
%
%ADD141ROUNDEDRECTD141*%
%ADD142R,0.05524X0.03162*%
%ADD143R,0.14579X0.05524*%
%ADD144R,0.14186X0.08674*%
%ADD145R,0.02178X0.12611*%
%ADD146R,0.12611X0.13398*%
%ADD147R,0.08674X0.19304*%
%ADD148R,0.08674X0.06312*%
%ADD149R,0.06312X0.03162*%
%ADD150R,0.06312X0.03753*%
%ADD151R,0.03950X0.05918*%
%ADD152R,0.03162X0.05524*%
%ADD153R,0.06871X0.06800*%
%ADD154R,0.06800X0.06800*%
%ADD155C,0.00598*%
%ADD156C,0.01969*%
%ADD157R,0.04724X0.07874*%
%ADD158C,0.00394*%
D158*
X-177580Y-66685D02*
G03*
X-177580Y-66685I-1969J0D01*
G01*
X168504Y-31890D02*
G03*
X168504Y-31890I-1969J0D01*
G01*
X207142Y-84874D02*
G03*
X207142Y-84874I-1969J0D01*
G01*
X-157108Y-80858D02*
Y-63142D01*
X-183092Y-80858D02*
Y-63142D01*
Y-80858D02*
X-157108D01*
X-183092Y-63142D02*
X-157108D01*
X-138306Y-85683D02*
X-126495D01*
X-138306Y-91195D02*
X-126495D01*
X-138306D02*
Y-85683D01*
X-126495Y-91195D02*
Y-85683D01*
X-106825Y-101068D02*
X-94621D01*
X-106825Y-93981D02*
X-94621D01*
Y-101068D02*
Y-93981D01*
X-106825Y-101068D02*
Y-93981D01*
X83071Y-73228D02*
Y-61417D01*
X77559Y-73228D02*
Y-61417D01*
X83071D01*
X77559Y-73228D02*
X83071D01*
X74016Y-46063D02*
X79528D01*
X74016Y-57874D02*
X79528D01*
Y-46063D01*
X74016Y-57874D02*
Y-46063D01*
X88976D02*
X94488D01*
X88976Y-57874D02*
X94488D01*
Y-46063D01*
X88976Y-57874D02*
Y-46063D01*
X162992Y-48031D02*
Y-28346D01*
X178740Y-48031D02*
Y-28346D01*
X162992D02*
X178740D01*
X162992Y-48031D02*
X178740D01*
X191000Y-62433D02*
X208717D01*
X191000Y-88417D02*
X208717D01*
X191000D02*
Y-62433D01*
X208717Y-88417D02*
Y-62433D01*
X160957Y-100602D02*
Y-88398D01*
X168043Y-100602D02*
Y-88398D01*
X160957D02*
X168043D01*
X160957Y-100602D02*
X168043D01*
X-29921Y50984D02*
Y63189D01*
X-37008Y50984D02*
Y63189D01*
Y50984D02*
X-29921D01*
X-37008Y63189D02*
X-29921D01*
X-96760Y51153D02*
Y63358D01*
X-103847Y51153D02*
Y63358D01*
Y51153D02*
X-96760D01*
X-103847Y63358D02*
X-96760D01*
X-236906Y-72905D02*
Y-61094D01*
X-231394Y-72905D02*
Y-61094D01*
X-236906D02*
X-231394D01*
X-236906Y-72905D02*
X-231394D01*
X-254055Y-72744D02*
X-242244D01*
X-254055Y-78256D02*
X-242244D01*
Y-72744D01*
X-254055Y-78256D02*
Y-72744D01*
X-251106Y-97102D02*
Y-84898D01*
X-258193Y-97102D02*
Y-84898D01*
Y-97102D02*
X-251106D01*
X-258193Y-84898D02*
X-251106D01*
X-229646Y62924D02*
X-217835D01*
X-229646Y57412D02*
X-217835D01*
X-229646D02*
Y62924D01*
X-217835Y57412D02*
Y62924D01*
X-194254Y57401D02*
Y62913D01*
X-206065Y57401D02*
Y62913D01*
Y57401D02*
X-194254D01*
X-206065Y62913D02*
X-194254D01*
M02*
