%FSLAX25Y25*%
%MOIN*%
G70*
G01*
G75*
%ADD10R,0.04331X0.03937*%
%ADD11R,0.05000X0.04000*%
%ADD12R,0.03937X0.02756*%
%ADD13R,0.04000X0.03500*%
%ADD14R,0.04000X0.05000*%
%ADD15R,0.02756X0.03937*%
%ADD16R,0.03500X0.04000*%
%ADD17R,0.05906X0.04724*%
%ADD18R,0.06496X0.06299*%
%ADD19O,0.07874X0.02362*%
%ADD20O,0.06693X0.01378*%
%ADD21R,0.03543X0.02559*%
%ADD22C,0.06063*%
%ADD23R,0.06299X0.06496*%
%ADD24R,0.03347X0.02362*%
%ADD25R,0.02362X0.03347*%
%ADD26R,0.18504X0.07874*%
%ADD27R,0.01575X0.03937*%
%ADD28R,0.01181X0.04724*%
%ADD29R,0.03937X0.04331*%
%ADD30R,0.10827X0.03937*%
%ADD31C,0.01000*%
%ADD32C,0.00700*%
%ADD33C,0.01200*%
%ADD34C,0.06000*%
%ADD35C,0.02000*%
%ADD36C,0.04000*%
%ADD37C,0.03000*%
%ADD38R,0.18110X0.12598*%
%ADD39R,0.27559X0.09055*%
%ADD40R,0.27953X0.09449*%
%ADD41R,0.11417X0.12992*%
%ADD42R,0.05906X0.07874*%
%ADD43R,0.05906X0.05906*%
%ADD44C,0.05906*%
%ADD45C,0.11811*%
%ADD46C,0.07874*%
%ADD47C,0.02400*%
%ADD48C,0.06693*%
%ADD49C,0.04724*%
%ADD50C,0.05512*%
%ADD51C,0.03937*%
%ADD52C,0.04000*%
%ADD53R,0.05000X0.12000*%
%ADD54O,0.09843X0.05906*%
%ADD55R,0.07677X0.05512*%
%ADD56R,0.03150X0.06299*%
%ADD57R,0.03347X0.06299*%
%ADD58R,0.06299X0.13780*%
%ADD59R,0.05906X0.12205*%
%ADD60R,0.05512X0.13780*%
%ADD61R,0.04724X0.12205*%
%ADD62O,0.01378X0.06693*%
%ADD63R,0.02559X0.04331*%
%ADD64R,0.14567X0.05906*%
%ADD65R,0.07087X0.09449*%
%ADD66R,0.07087X0.07480*%
%ADD67R,0.01575X0.05906*%
%ADD68R,0.00984X0.02756*%
%ADD69R,0.05512X0.00984*%
%ADD70R,0.02756X0.00984*%
G04:AMPARAMS|DCode=71|XSize=27.56mil|YSize=9.84mil|CornerRadius=3.69mil|HoleSize=0mil|Usage=FLASHONLY|Rotation=0.000|XOffset=0mil|YOffset=0mil|HoleType=Round|Shape=RoundedRectangle|*
%AMROUNDEDRECTD71*
21,1,0.02756,0.00246,0,0,0.0*
21,1,0.02018,0.00984,0,0,0.0*
1,1,0.00738,0.01009,-0.00123*
1,1,0.00738,-0.01009,-0.00123*
1,1,0.00738,-0.01009,0.00123*
1,1,0.00738,0.01009,0.00123*
%
%ADD71ROUNDEDRECTD71*%
%ADD72R,0.04724X0.02362*%
%ADD73R,0.13780X0.04724*%
%ADD74R,0.13386X0.07874*%
%ADD75R,0.01378X0.11811*%
%ADD76R,0.11811X0.12598*%
%ADD77R,0.07874X0.18504*%
%ADD78R,0.07874X0.05512*%
%ADD79R,0.05512X0.02362*%
%ADD80R,0.05512X0.02953*%
%ADD81R,0.03150X0.05118*%
%ADD82R,0.02362X0.04724*%
%ADD83R,0.06071X0.06000*%
%ADD84R,0.06000X0.06000*%
%ADD85C,0.01258*%
D10*
X-112043Y-103800D02*
D03*
X-105350Y-103800D02*
D03*
X-127751Y-103800D02*
D03*
X-134443Y-103800D02*
D03*
X100197Y-104724D02*
D03*
X106890Y-104724D02*
D03*
X211772Y-9331D02*
D03*
Y-32953D02*
D03*
X231457D02*
D03*
Y-9331D02*
D03*
Y28071D02*
D03*
Y51693D02*
D03*
X211772D02*
D03*
Y28071D02*
D03*
X-211772Y24134D02*
D03*
Y47756D02*
D03*
X-231457D02*
D03*
Y24134D02*
D03*
Y-5394D02*
D03*
Y-29016D02*
D03*
X-211772D02*
D03*
Y-5394D02*
D03*
D11*
X178859Y-102751D02*
D03*
Y-94100D02*
D03*
X156500Y-74175D02*
D03*
Y-82825D02*
D03*
X45669Y15743D02*
D03*
Y7092D02*
D03*
X-46850Y53155D02*
D03*
Y61806D02*
D03*
X-113779Y53150D02*
D03*
Y61800D02*
D03*
X-268650Y-85175D02*
D03*
Y-93825D02*
D03*
X-240650Y-92675D02*
D03*
Y-101325D02*
D03*
D12*
X187000Y-93500D02*
D03*
Y-99012D02*
D03*
X202500Y-99256D02*
D03*
Y-93744D02*
D03*
X209500D02*
D03*
Y-99256D02*
D03*
X234252Y-66929D02*
D03*
Y-61417D02*
D03*
X234390Y-79181D02*
D03*
Y-73669D02*
D03*
X150394Y-47638D02*
D03*
Y-53150D02*
D03*
X-51300Y-75056D02*
D03*
Y-69544D02*
D03*
X-29134Y44488D02*
D03*
Y38976D02*
D03*
X-96063Y44888D02*
D03*
Y39376D02*
D03*
X-259650Y-72744D02*
D03*
Y-78256D02*
D03*
D13*
X194500Y-99250D02*
D03*
Y-93750D02*
D03*
X190157Y-28734D02*
D03*
Y-23234D02*
D03*
X161024Y-20467D02*
D03*
Y-14966D02*
D03*
X103543Y-5900D02*
D03*
Y-400D02*
D03*
X-16535Y-4719D02*
D03*
Y781D02*
D03*
X-9105Y-4719D02*
D03*
Y781D02*
D03*
X-55512Y57081D02*
D03*
Y51581D02*
D03*
X-36270Y39095D02*
D03*
Y44595D02*
D03*
X-43751Y39101D02*
D03*
Y44601D02*
D03*
X-103200Y39382D02*
D03*
Y44882D02*
D03*
X-110630Y39382D02*
D03*
Y44882D02*
D03*
X-223150Y-79500D02*
D03*
Y-74000D02*
D03*
D14*
X226373Y-94095D02*
D03*
X217722D02*
D03*
X211684Y-56425D02*
D03*
X203033D02*
D03*
X174026Y-54331D02*
D03*
X182677D02*
D03*
X176184Y-82425D02*
D03*
X167533D02*
D03*
X43711Y-104331D02*
D03*
X52362D02*
D03*
X-200325Y-42000D02*
D03*
X-191675D02*
D03*
X86620Y-787D02*
D03*
X95270D02*
D03*
D15*
X221847Y-86713D02*
D03*
X227359D02*
D03*
X227115Y-79925D02*
D03*
X221603D02*
D03*
X222103Y-60425D02*
D03*
X227615D02*
D03*
X154331Y-12593D02*
D03*
X148819D02*
D03*
X173622Y-62205D02*
D03*
X179134D02*
D03*
X165748Y-61811D02*
D03*
X160236D02*
D03*
X171347Y-74925D02*
D03*
X176859D02*
D03*
X168756Y-105500D02*
D03*
X163244D02*
D03*
X-70079Y-50787D02*
D03*
X-64567D02*
D03*
D16*
X222109Y-73425D02*
D03*
X227609D02*
D03*
X222109Y-66925D02*
D03*
X227609D02*
D03*
X166136Y-53937D02*
D03*
X160636D02*
D03*
X88183Y-104724D02*
D03*
X82683D02*
D03*
X76372Y787D02*
D03*
X70872D02*
D03*
X59455D02*
D03*
X64955D02*
D03*
X-114167Y70866D02*
D03*
X-108667D02*
D03*
X-246400Y-64500D02*
D03*
X-251900D02*
D03*
X-230900Y-101000D02*
D03*
X-225400D02*
D03*
Y-92500D02*
D03*
X-230900D02*
D03*
X-232283Y-79921D02*
D03*
X-237784D02*
D03*
X-106305Y1181D02*
D03*
X-111805D02*
D03*
X48813Y-74410D02*
D03*
X43313D02*
D03*
D17*
X190945Y-46654D02*
D03*
Y-36024D02*
D03*
X-130709Y22244D02*
D03*
Y11614D02*
D03*
X-140157Y22244D02*
D03*
Y11614D02*
D03*
X-149606Y22244D02*
D03*
Y11614D02*
D03*
D18*
X150787Y-35433D02*
D03*
Y-22933D02*
D03*
D19*
X161024Y-30689D02*
D03*
Y-35689D02*
D03*
Y-40689D02*
D03*
Y-45689D02*
D03*
X180709Y-30689D02*
D03*
Y-35689D02*
D03*
Y-40689D02*
D03*
Y-45689D02*
D03*
D20*
X188638Y-63909D02*
D03*
Y-66469D02*
D03*
Y-69028D02*
D03*
Y-71587D02*
D03*
Y-74146D02*
D03*
Y-76705D02*
D03*
Y-79264D02*
D03*
Y-81823D02*
D03*
Y-84382D02*
D03*
Y-86941D02*
D03*
X211079Y-63909D02*
D03*
Y-66469D02*
D03*
Y-69028D02*
D03*
Y-71587D02*
D03*
Y-74146D02*
D03*
Y-76705D02*
D03*
Y-79264D02*
D03*
Y-81823D02*
D03*
Y-84382D02*
D03*
Y-86941D02*
D03*
D21*
X159776Y-90760D02*
D03*
Y-94500D02*
D03*
Y-98240D02*
D03*
X169224D02*
D03*
Y-90760D02*
D03*
X-28740Y53347D02*
D03*
Y57087D02*
D03*
Y60827D02*
D03*
X-38189D02*
D03*
Y53347D02*
D03*
X-95579Y53516D02*
D03*
Y57256D02*
D03*
Y60996D02*
D03*
X-105028D02*
D03*
Y53516D02*
D03*
X-249925Y-94740D02*
D03*
Y-91000D02*
D03*
Y-87260D02*
D03*
X-259374D02*
D03*
Y-94740D02*
D03*
D22*
X98425Y-47244D02*
D03*
X6299Y34646D02*
D03*
X-59449Y34252D02*
D03*
X81102Y26002D02*
D03*
X80709Y17323D02*
D03*
D23*
X-5906Y34646D02*
D03*
X-18406D02*
D03*
X-73228D02*
D03*
X-85728D02*
D03*
X-46063Y73228D02*
D03*
X-33563D02*
D03*
D24*
X-238382Y-63260D02*
D03*
Y-70740D02*
D03*
X-229917Y-67000D02*
D03*
D25*
X-244409Y-71268D02*
D03*
X-251890D02*
D03*
X-248150Y-79732D02*
D03*
D26*
X-79134Y63598D02*
D03*
Y47425D02*
D03*
X-12205Y63598D02*
D03*
Y47425D02*
D03*
D27*
X-125945Y-72520D02*
D03*
X-63740Y-72126D02*
D03*
D28*
X-79488Y-61102D02*
D03*
X-72402D02*
D03*
X-80669Y-74488D02*
D03*
X-96024Y-61102D02*
D03*
X-88937D02*
D03*
X-112559D02*
D03*
X-111378Y-74488D02*
D03*
X-104291D02*
D03*
X-97205D02*
D03*
X-87756D02*
D03*
X-119646Y-61102D02*
D03*
X-120827Y-74488D02*
D03*
X-70039Y-61102D02*
D03*
X-67677D02*
D03*
X-68858Y-74488D02*
D03*
X-71220D02*
D03*
X-66496D02*
D03*
X-77126Y-61102D02*
D03*
X-74764D02*
D03*
X-78307Y-74488D02*
D03*
X-73583D02*
D03*
X-75945D02*
D03*
X-84213Y-61102D02*
D03*
X-86575D02*
D03*
X-81850D02*
D03*
X-85394Y-74488D02*
D03*
X-83031D02*
D03*
X-93661Y-61102D02*
D03*
X-91299D02*
D03*
X-92480Y-74488D02*
D03*
X-94843D02*
D03*
X-90118D02*
D03*
X-100748Y-61102D02*
D03*
X-103110D02*
D03*
X-98386D02*
D03*
X-101929Y-74488D02*
D03*
X-99567D02*
D03*
X-110197Y-61102D02*
D03*
X-105473D02*
D03*
X-107835D02*
D03*
X-109016Y-74488D02*
D03*
X-106654D02*
D03*
X-117283Y-61102D02*
D03*
X-114921D02*
D03*
X-118465Y-74488D02*
D03*
X-116102D02*
D03*
X-113740D02*
D03*
X-122008Y-61102D02*
D03*
X-123189Y-74488D02*
D03*
D29*
X-236378Y19213D02*
D03*
X-260000D02*
D03*
Y-472D02*
D03*
X-236378D02*
D03*
X202913Y19213D02*
D03*
X179291D02*
D03*
Y-472D02*
D03*
X202913D02*
D03*
X240315D02*
D03*
X263937D02*
D03*
Y19213D02*
D03*
X240315D02*
D03*
X-206850Y-472D02*
D03*
X-183228D02*
D03*
Y19213D02*
D03*
X-206850D02*
D03*
X-9646Y-93079D02*
D03*
X9646D02*
D03*
D30*
X-185531Y-84646D02*
D03*
X-208169D02*
D03*
X-185531Y-100394D02*
D03*
X-208169D02*
D03*
Y-68898D02*
D03*
X-185531D02*
D03*
X-208169Y-53150D02*
D03*
X-185531D02*
D03*
D42*
X14173Y-103512D02*
D03*
X-14173D02*
D03*
D43*
X-279528Y-54803D02*
D03*
D44*
Y-64803D02*
D03*
Y-74803D02*
D03*
Y-84803D02*
D03*
X-203740Y88677D02*
D03*
X-221457D02*
D03*
X203740D02*
D03*
X221457D02*
D03*
D45*
X-188150Y42835D02*
D03*
X-255079Y-24094D02*
D03*
X260984Y-30000D02*
D03*
X182244Y48740D02*
D03*
D46*
X-198819Y78835D02*
D03*
X-226378D02*
D03*
X198819D02*
D03*
X226378D02*
D03*
M02*
