%FSLAX25Y25*%
%MOIN*%
G70*
G01*
G75*
G04 Layer_Color=255*
%ADD10R,0.04331X0.03937*%
%ADD11R,0.05000X0.04000*%
%ADD12R,0.03937X0.02756*%
%ADD13R,0.04000X0.03500*%
%ADD14R,0.04000X0.05000*%
%ADD15R,0.02756X0.03937*%
%ADD16R,0.03500X0.04000*%
%ADD17R,0.05906X0.04724*%
%ADD18R,0.06496X0.06299*%
%ADD19O,0.07874X0.02362*%
%ADD20O,0.06693X0.01378*%
%ADD21R,0.03543X0.02559*%
%ADD22C,0.06063*%
%ADD23R,0.06299X0.06496*%
%ADD24R,0.03347X0.02362*%
%ADD25R,0.02362X0.03347*%
%ADD26R,0.18504X0.07874*%
%ADD27R,0.01575X0.03937*%
%ADD28R,0.01181X0.04724*%
%ADD29R,0.03937X0.04331*%
%ADD30R,0.10827X0.03937*%
%ADD31C,0.01000*%
%ADD32C,0.00700*%
%ADD33C,0.01200*%
%ADD34C,0.06000*%
%ADD35C,0.02000*%
%ADD36C,0.04000*%
%ADD37C,0.03000*%
%ADD38R,0.18110X0.12598*%
%ADD39R,0.27559X0.09055*%
%ADD40R,0.27953X0.09449*%
%ADD41R,0.11417X0.12992*%
%ADD42R,0.05906X0.07874*%
%ADD43R,0.05906X0.05906*%
%ADD44C,0.05906*%
%ADD45C,0.11811*%
%ADD46C,0.07874*%
%ADD47C,0.02400*%
%ADD48C,0.06693*%
%ADD49C,0.04724*%
%ADD50C,0.05512*%
%ADD51C,0.03937*%
%ADD52C,0.04000*%
%ADD53R,0.05000X0.12000*%
%ADD54O,0.09843X0.05906*%
%ADD55R,0.07677X0.05512*%
%ADD56R,0.03150X0.06299*%
%ADD57R,0.03347X0.06299*%
%ADD58R,0.06299X0.13780*%
%ADD59R,0.05906X0.12205*%
%ADD60R,0.05512X0.13780*%
%ADD61R,0.04724X0.12205*%
%ADD62O,0.01378X0.06693*%
%ADD63R,0.02559X0.04331*%
%ADD64R,0.14567X0.05906*%
%ADD65R,0.07087X0.09449*%
%ADD66R,0.07087X0.07480*%
%ADD67R,0.01575X0.05906*%
%ADD68R,0.00984X0.02756*%
%ADD69R,0.05512X0.00984*%
%ADD70R,0.02756X0.00984*%
G04:AMPARAMS|DCode=71|XSize=27.56mil|YSize=9.84mil|CornerRadius=3.69mil|HoleSize=0mil|Usage=FLASHONLY|Rotation=0.000|XOffset=0mil|YOffset=0mil|HoleType=Round|Shape=RoundedRectangle|*
%AMROUNDEDRECTD71*
21,1,0.02756,0.00246,0,0,0.0*
21,1,0.02018,0.00984,0,0,0.0*
1,1,0.00738,0.01009,-0.00123*
1,1,0.00738,-0.01009,-0.00123*
1,1,0.00738,-0.01009,0.00123*
1,1,0.00738,0.01009,0.00123*
%
%ADD71ROUNDEDRECTD71*%
%ADD72R,0.04724X0.02362*%
%ADD73R,0.13780X0.04724*%
%ADD74R,0.13386X0.07874*%
%ADD75R,0.01378X0.11811*%
%ADD76R,0.11811X0.12598*%
%ADD77R,0.07874X0.18504*%
%ADD78R,0.07874X0.05512*%
%ADD79R,0.05512X0.02362*%
%ADD80R,0.05512X0.02953*%
%ADD81R,0.03150X0.05118*%
%ADD82R,0.02362X0.04724*%
%ADD83R,0.06071X0.06000*%
%ADD84R,0.06000X0.06000*%
%ADD85C,0.01258*%
D11*
X25000Y-68325D02*
D03*
Y-59675D02*
D03*
X65748Y-72037D02*
D03*
Y-63386D02*
D03*
X74016Y-83076D02*
D03*
Y-91727D02*
D03*
D12*
X-211700Y55988D02*
D03*
Y61500D02*
D03*
X-270626Y7756D02*
D03*
Y2244D02*
D03*
X-277126Y7756D02*
D03*
Y2244D02*
D03*
X-190945Y-75590D02*
D03*
Y-81103D02*
D03*
X-172047Y-42913D02*
D03*
Y-48425D02*
D03*
X-158400Y-43244D02*
D03*
Y-48756D02*
D03*
X24803Y-86220D02*
D03*
Y-91732D02*
D03*
X31890Y-91732D02*
D03*
Y-86220D02*
D03*
X46457Y-105118D02*
D03*
Y-99606D02*
D03*
D13*
X-165354Y-48813D02*
D03*
Y-43313D02*
D03*
X39764Y-105112D02*
D03*
Y-99612D02*
D03*
X53150Y-105112D02*
D03*
Y-99612D02*
D03*
X59842D02*
D03*
Y-105112D02*
D03*
X66535Y-99612D02*
D03*
Y-105112D02*
D03*
X73228Y-99618D02*
D03*
Y-105118D02*
D03*
X65354Y-48431D02*
D03*
Y-53931D02*
D03*
X91339Y-69679D02*
D03*
Y-64179D02*
D03*
X-235800Y59050D02*
D03*
Y64550D02*
D03*
X-187700Y63600D02*
D03*
Y58100D02*
D03*
D14*
X-148425Y-57900D02*
D03*
X-139775D02*
D03*
X24404Y-77953D02*
D03*
X15753D02*
D03*
D15*
X-100394Y-85827D02*
D03*
X-105906D02*
D03*
X54331Y11024D02*
D03*
X48819D02*
D03*
X42126D02*
D03*
X36614D02*
D03*
D16*
X-270876Y15500D02*
D03*
X-276376D02*
D03*
X-129927Y-77559D02*
D03*
X-135427D02*
D03*
X-119679Y-103937D02*
D03*
X-114179D02*
D03*
X-136608Y-104331D02*
D03*
X-131108D02*
D03*
X-119285Y-96457D02*
D03*
X-113785D02*
D03*
X27171Y-105118D02*
D03*
X32671D02*
D03*
X59854Y-92126D02*
D03*
X65354D02*
D03*
X-2650Y-80500D02*
D03*
X2850D02*
D03*
D22*
X133071Y-56693D02*
D03*
D23*
X4500Y-68500D02*
D03*
X-8000D02*
D03*
X108760Y-50394D02*
D03*
X121260D02*
D03*
D24*
X84547Y-63583D02*
D03*
Y-71063D02*
D03*
X76083Y-67323D02*
D03*
D25*
X-136141Y-84207D02*
D03*
X-128661D02*
D03*
X-132401Y-92671D02*
D03*
X-227480Y64400D02*
D03*
X-220000D02*
D03*
X-223740Y55935D02*
D03*
D29*
X-9646Y-93079D02*
D03*
X9646D02*
D03*
D42*
X14173Y-103512D02*
D03*
X-14173D02*
D03*
D43*
X-279528Y-54803D02*
D03*
D44*
Y-64803D02*
D03*
Y-74803D02*
D03*
Y-84803D02*
D03*
X-203740Y88677D02*
D03*
X-221457D02*
D03*
X203740D02*
D03*
X221457D02*
D03*
D45*
X-188150Y42835D02*
D03*
X-255079Y-24094D02*
D03*
X260984Y-30000D02*
D03*
X182244Y48740D02*
D03*
D46*
X-198819Y78835D02*
D03*
X-226378D02*
D03*
X198819D02*
D03*
X226378D02*
D03*
D53*
X129528Y-7087D02*
D03*
X121653D02*
D03*
D54*
X-258870Y15390D02*
D03*
Y7516D02*
D03*
X-211626Y20114D02*
D03*
Y33500D02*
D03*
Y9878D02*
D03*
Y44524D02*
D03*
D55*
X-267749Y-90258D02*
D03*
D56*
X-242355Y-50100D02*
D03*
X-238025D02*
D03*
X-251017D02*
D03*
X-259678D02*
D03*
X-229363D02*
D03*
X-233694D02*
D03*
X-255348D02*
D03*
X-246686D02*
D03*
D57*
X-264206D02*
D03*
D58*
X-210171Y-58565D02*
D03*
D59*
X-268635Y-101872D02*
D03*
D60*
X-209763Y-101900D02*
D03*
D61*
X-269226Y-56596D02*
D03*
D62*
X-158584Y-83220D02*
D03*
X-161143D02*
D03*
X-163702D02*
D03*
X-166261D02*
D03*
X-168821D02*
D03*
X-171379D02*
D03*
X-173939D02*
D03*
X-176498D02*
D03*
X-179057D02*
D03*
X-181616D02*
D03*
X-158584Y-60780D02*
D03*
X-161143D02*
D03*
X-163702D02*
D03*
X-166261D02*
D03*
X-168821D02*
D03*
X-171379D02*
D03*
X-173939D02*
D03*
X-176498D02*
D03*
X-179057D02*
D03*
X-181616D02*
D03*
D63*
X-96983Y-102249D02*
D03*
X-100723D02*
D03*
X-104463D02*
D03*
Y-92800D02*
D03*
X-100723D02*
D03*
X-96983D02*
D03*
D64*
X-81914Y-90385D02*
D03*
Y-102621D02*
D03*
D65*
X-62663Y-100471D02*
D03*
Y-84329D02*
D03*
D66*
X-4528Y-103512D02*
D03*
X4331D02*
D03*
D67*
X-5118Y-92488D02*
D03*
X-2559D02*
D03*
X0D02*
D03*
X2559D02*
D03*
X5118D02*
D03*
D68*
X43504Y-74410D02*
D03*
X47441D02*
D03*
X45472D02*
D03*
X49409D02*
D03*
Y-90158D02*
D03*
X45472D02*
D03*
X47441D02*
D03*
X43504D02*
D03*
D69*
X41535Y-79331D02*
D03*
Y-85236D02*
D03*
Y-83268D02*
D03*
Y-81299D02*
D03*
X51378D02*
D03*
Y-83268D02*
D03*
Y-85236D02*
D03*
Y-79331D02*
D03*
D70*
X40157Y-77362D02*
D03*
X52756Y-87205D02*
D03*
Y-77362D02*
D03*
D71*
X40157Y-87205D02*
D03*
D72*
X80315Y-51968D02*
D03*
X73228Y-48228D02*
D03*
Y-55709D02*
D03*
X95276Y-51968D02*
D03*
X88189Y-48228D02*
D03*
Y-55709D02*
D03*
D73*
X96260Y-89961D02*
D03*
Y-80118D02*
D03*
D74*
X118898Y-103543D02*
D03*
Y-66535D02*
D03*
D75*
X96063Y-1969D02*
D03*
X98425D02*
D03*
X93701D02*
D03*
X91339D02*
D03*
X88976D02*
D03*
X86614D02*
D03*
X84252D02*
D03*
X79528D02*
D03*
X77165D02*
D03*
X74803D02*
D03*
X72441D02*
D03*
X70079D02*
D03*
X67716D02*
D03*
X65354D02*
D03*
X62992D02*
D03*
X60630D02*
D03*
X58268D02*
D03*
X55905D02*
D03*
X81890D02*
D03*
X53543D02*
D03*
X37008D02*
D03*
X34646D02*
D03*
X32283D02*
D03*
X29921D02*
D03*
X27559D02*
D03*
X25197D02*
D03*
X22835D02*
D03*
X20472D02*
D03*
X18110D02*
D03*
X15748D02*
D03*
X13386D02*
D03*
X11024D02*
D03*
X8661D02*
D03*
X6299D02*
D03*
X3937D02*
D03*
X1575D02*
D03*
X-787D02*
D03*
X-3150D02*
D03*
X-5512D02*
D03*
X-7874D02*
D03*
X-10236D02*
D03*
X-12598D02*
D03*
X-14961D02*
D03*
X-19685D02*
D03*
X-22047D02*
D03*
X-24409D02*
D03*
X-26772D02*
D03*
X-29134D02*
D03*
X-31496D02*
D03*
X-33858D02*
D03*
X-36220D02*
D03*
X-38583D02*
D03*
X-40945D02*
D03*
X-43307D02*
D03*
X-45669D02*
D03*
X-48031D02*
D03*
X-50394D02*
D03*
X-52756D02*
D03*
X-55118D02*
D03*
X-57480D02*
D03*
X-59842D02*
D03*
X-62205D02*
D03*
X-64567D02*
D03*
X-66929D02*
D03*
X-69291D02*
D03*
X-71653D02*
D03*
X-74016D02*
D03*
X-76378D02*
D03*
X-78740D02*
D03*
X-81102D02*
D03*
X-83465D02*
D03*
X-85827D02*
D03*
X-88189D02*
D03*
X-90551D02*
D03*
X-92913D02*
D03*
X-95276D02*
D03*
X-97638D02*
D03*
X-100000D02*
D03*
X-102362D02*
D03*
X-104724D02*
D03*
X-107087D02*
D03*
X-109449D02*
D03*
X-111811D02*
D03*
X-114173D02*
D03*
X-116535D02*
D03*
X-118898D02*
D03*
X-121260D02*
D03*
X-123622D02*
D03*
X-125984D02*
D03*
X-128347D02*
D03*
X-130709D02*
D03*
X-133071D02*
D03*
X-135433D02*
D03*
X-137795D02*
D03*
X-140157D02*
D03*
X-142520D02*
D03*
X-144882D02*
D03*
X-147244D02*
D03*
X-149606D02*
D03*
X-148425Y-31102D02*
D03*
X-146063D02*
D03*
X-143701D02*
D03*
X-141339D02*
D03*
X-138976D02*
D03*
X-136614D02*
D03*
X-134252D02*
D03*
X-131890D02*
D03*
X-129528D02*
D03*
X-127165D02*
D03*
X-124803D02*
D03*
X-122441D02*
D03*
X-120079D02*
D03*
X-117717D02*
D03*
X-115354D02*
D03*
X-112992D02*
D03*
X-110630D02*
D03*
X-108268D02*
D03*
X-105905D02*
D03*
X-103543D02*
D03*
X-101181D02*
D03*
X-98819D02*
D03*
X-96457D02*
D03*
X-94095D02*
D03*
X-91732D02*
D03*
X-89370D02*
D03*
X-87008D02*
D03*
X-84646D02*
D03*
X-82284D02*
D03*
X-79921D02*
D03*
X-77559D02*
D03*
X-75197D02*
D03*
X-72835D02*
D03*
X-70473D02*
D03*
X-68110D02*
D03*
X-65748D02*
D03*
X-63386D02*
D03*
X-61024D02*
D03*
X-58661D02*
D03*
X-56299D02*
D03*
X-53937D02*
D03*
X-51575D02*
D03*
X-49213D02*
D03*
X-46850D02*
D03*
X-44488D02*
D03*
X-42126D02*
D03*
X-39764D02*
D03*
X-37402D02*
D03*
X-35039D02*
D03*
X-32677D02*
D03*
X-30315D02*
D03*
X-27953D02*
D03*
X-25591D02*
D03*
X-23228D02*
D03*
X-20866D02*
D03*
X-18504D02*
D03*
X-16142D02*
D03*
X-13780D02*
D03*
X-11417D02*
D03*
X-9055D02*
D03*
X-6693D02*
D03*
X-4331D02*
D03*
X-1969D02*
D03*
X394D02*
D03*
X2756D02*
D03*
X5118D02*
D03*
X7480D02*
D03*
X9843D02*
D03*
X12205D02*
D03*
X14567D02*
D03*
X16929D02*
D03*
X19291D02*
D03*
X21654D02*
D03*
X24016D02*
D03*
X26378D02*
D03*
X28740D02*
D03*
X31102D02*
D03*
X33465D02*
D03*
X35827D02*
D03*
X38189D02*
D03*
X54724D02*
D03*
X83071D02*
D03*
X57087D02*
D03*
X59449D02*
D03*
X61811D02*
D03*
X64173D02*
D03*
X66535D02*
D03*
X68898D02*
D03*
X71260D02*
D03*
X73622D02*
D03*
X75984D02*
D03*
X78347D02*
D03*
X80709D02*
D03*
X85433D02*
D03*
X87795D02*
D03*
X90158D02*
D03*
X92520D02*
D03*
X94882D02*
D03*
X99606D02*
D03*
X97244D02*
D03*
X-17323Y-1969D02*
D03*
D76*
X-150000Y30709D02*
D03*
X100394D02*
D03*
D77*
X54543Y-57087D02*
D03*
X38370D02*
D03*
D78*
X-277126Y62402D02*
D03*
Y25000D02*
D03*
D79*
X-274410Y-25197D02*
D03*
D80*
Y-30315D02*
D03*
Y-20079D02*
D03*
D81*
X-284252Y-32480D02*
D03*
Y-17913D02*
D03*
D82*
X-200160Y56613D02*
D03*
X-196420Y63700D02*
D03*
X-203900D02*
D03*
D83*
X241439Y-65735D02*
D03*
X276084Y-73224D02*
D03*
D84*
X241439Y-89751D02*
D03*
Y-103924D02*
D03*
X276084Y-99987D02*
D03*
M02*
