%FSLAX25Y25*%
%MOIN*%
G70*
G01*
G75*
G04 Layer_Physical_Order=1*
G04 Layer_Color=255*
%ADD10R,0.04331X0.03937*%
%ADD11R,0.05000X0.04000*%
%ADD12R,0.03937X0.02756*%
%ADD13R,0.04000X0.03500*%
%ADD14R,0.04000X0.05000*%
%ADD15R,0.02756X0.03937*%
%ADD16R,0.03500X0.04000*%
%ADD17R,0.05906X0.04724*%
%ADD18R,0.06496X0.06299*%
%ADD19O,0.07874X0.02362*%
%ADD20O,0.06693X0.01378*%
%ADD21R,0.03543X0.02559*%
%ADD22C,0.06063*%
%ADD23R,0.06299X0.06496*%
%ADD24R,0.03347X0.02362*%
%ADD25R,0.02362X0.03347*%
%ADD26R,0.18504X0.07874*%
%ADD27R,0.01575X0.03937*%
%ADD28R,0.01181X0.04724*%
%ADD29R,0.03937X0.04331*%
%ADD30R,0.10827X0.03937*%
%ADD31C,0.01000*%
%ADD32C,0.00700*%
%ADD33C,0.01200*%
%ADD34C,0.06000*%
%ADD35C,0.02000*%
%ADD36C,0.04000*%
%ADD37C,0.03000*%
%ADD38R,0.18110X0.12598*%
%ADD39R,0.27559X0.09055*%
%ADD40R,0.27953X0.09449*%
%ADD41R,0.11417X0.12992*%
%ADD42R,0.05906X0.07874*%
%ADD43R,0.05906X0.05906*%
%ADD44C,0.05906*%
%ADD45C,0.11811*%
%ADD46C,0.07874*%
%ADD47C,0.02400*%
%ADD48C,0.06693*%
%ADD49C,0.04724*%
%ADD50C,0.05512*%
%ADD51C,0.03937*%
%ADD52C,0.04000*%
G36*
X107292Y-32648D02*
Y-44488D01*
Y-55585D01*
X95669D01*
X95396Y-55640D01*
X95165Y-55795D01*
X95010Y-56026D01*
X94956Y-56299D01*
Y-68898D01*
X95010Y-69171D01*
X95165Y-69402D01*
X95396Y-69557D01*
X95669Y-69611D01*
X95981D01*
X96132Y-70111D01*
X95874Y-70284D01*
X95674Y-70583D01*
X65010D01*
X56269Y-61841D01*
X55922Y-61609D01*
X55512Y-61528D01*
X36220D01*
X35811Y-61609D01*
X35464Y-61841D01*
X17273Y-80032D01*
X-28346D01*
X-28346Y-80032D01*
X-28756Y-80113D01*
X-29103Y-80345D01*
X-35483Y-86725D01*
X-95121D01*
X-95357Y-86225D01*
X-95061Y-85781D01*
X-94913Y-85039D01*
X-95061Y-84298D01*
X-95481Y-83670D01*
X-96109Y-83250D01*
X-96209Y-83230D01*
X-97843Y-81596D01*
X-98405Y-81220D01*
X-99068Y-81088D01*
X-101632D01*
X-101681Y-80588D01*
X-101188Y-80490D01*
X-100559Y-80070D01*
X-100139Y-79441D01*
X-99992Y-78700D01*
X-100121Y-78050D01*
X-99857Y-77550D01*
X-99277D01*
X-99013Y-78050D01*
X-99142Y-78700D01*
X-98994Y-79441D01*
X-98575Y-80070D01*
X-97946Y-80490D01*
X-97205Y-80637D01*
X-96463Y-80490D01*
X-95835Y-80070D01*
X-95415Y-79441D01*
X-95267Y-78700D01*
X-95397Y-78050D01*
X-95343Y-77948D01*
Y-74488D01*
X-94343D01*
Y-77550D01*
X-92191D01*
X-91926Y-78050D01*
X-92055Y-78700D01*
X-91908Y-79441D01*
X-91488Y-80070D01*
X-90860Y-80490D01*
X-90118Y-80637D01*
X-89377Y-80490D01*
X-88748Y-80070D01*
X-88328Y-79441D01*
X-88181Y-78700D01*
X-88310Y-78050D01*
X-88046Y-77550D01*
X-87466D01*
X-87202Y-78050D01*
X-87331Y-78700D01*
X-87183Y-79441D01*
X-86764Y-80070D01*
X-86135Y-80490D01*
X-85394Y-80637D01*
X-84652Y-80490D01*
X-84024Y-80070D01*
X-83604Y-79441D01*
X-83456Y-78700D01*
X-83586Y-78050D01*
X-83321Y-77550D01*
X-82742D01*
X-82477Y-78050D01*
X-82607Y-78700D01*
X-82459Y-79441D01*
X-82039Y-80070D01*
X-81411Y-80490D01*
X-80669Y-80637D01*
X-79928Y-80490D01*
X-79299Y-80070D01*
X-78880Y-79441D01*
X-78732Y-78700D01*
X-78861Y-78050D01*
X-78597Y-77550D01*
X-78017D01*
X-77753Y-78050D01*
X-77882Y-78700D01*
X-77735Y-79441D01*
X-77315Y-80070D01*
X-76686Y-80490D01*
X-75945Y-80637D01*
X-75204Y-80490D01*
X-74575Y-80070D01*
X-74155Y-79441D01*
X-74008Y-78700D01*
X-74137Y-78050D01*
X-74083Y-77948D01*
Y-74488D01*
X-73083D01*
Y-77550D01*
X-72444D01*
Y-79100D01*
X-72351Y-79568D01*
X-72086Y-79965D01*
X-70186Y-81865D01*
X-69789Y-82130D01*
X-69320Y-82223D01*
X-57244D01*
X-56776Y-82130D01*
X-56379Y-81865D01*
X-51648Y-77134D01*
X-48632D01*
Y-73200D01*
X-48300D01*
Y-71200D01*
X-48632D01*
Y-70044D01*
X-51300D01*
X-53969D01*
Y-71200D01*
X-54200D01*
Y-73200D01*
X-53969D01*
Y-75994D01*
X-57751Y-79777D01*
X-68814D01*
X-69997Y-78593D01*
Y-77550D01*
X-69358D01*
Y-74488D01*
X-68358D01*
Y-77550D01*
X-65206D01*
Y-77494D01*
X-64935Y-77272D01*
X-64131D01*
X-64033Y-77419D01*
X-63404Y-77839D01*
X-62663Y-77986D01*
X-61922Y-77839D01*
X-61293Y-77419D01*
X-60873Y-76790D01*
X-60726Y-76049D01*
X-60873Y-75308D01*
X-61293Y-74679D01*
X-61922Y-74259D01*
X-62253Y-74193D01*
Y-69458D01*
X-63531D01*
X-63722Y-68996D01*
X-63308Y-68582D01*
X-63043Y-68185D01*
X-62950Y-67716D01*
Y-58661D01*
X-63043Y-58193D01*
X-63308Y-57796D01*
X-66064Y-55040D01*
X-66461Y-54775D01*
X-66929Y-54682D01*
X-68855D01*
Y-53456D01*
X-68223D01*
Y-53787D01*
X-66223D01*
Y-53456D01*
X-65067D01*
Y-50787D01*
Y-48119D01*
X-66223D01*
Y-47887D01*
X-68223D01*
Y-48119D01*
X-72157D01*
Y-53456D01*
X-71302D01*
Y-58040D01*
X-73693D01*
Y-44486D01*
X-67378Y-38171D01*
X-26564D01*
X-26276Y-38580D01*
X-26292Y-38671D01*
X-26437Y-39400D01*
X-26435Y-39412D01*
X-26788Y-39765D01*
X-26800Y-39763D01*
X-27541Y-39910D01*
X-28170Y-40330D01*
X-28590Y-40959D01*
X-28737Y-41700D01*
X-28590Y-42441D01*
X-28170Y-43070D01*
X-27541Y-43490D01*
X-26800Y-43637D01*
X-26580Y-43593D01*
X-26227Y-43947D01*
X-26237Y-44000D01*
X-26231Y-44032D01*
X-26584Y-44386D01*
X-26700Y-44363D01*
X-27441Y-44510D01*
X-28070Y-44930D01*
X-28490Y-45559D01*
X-28637Y-46300D01*
X-28490Y-47041D01*
X-28070Y-47670D01*
X-27441Y-48090D01*
X-26700Y-48237D01*
X-25959Y-48090D01*
X-25330Y-47670D01*
X-25097Y-47321D01*
X-23368D01*
X-22958Y-47239D01*
X-22611Y-47007D01*
X-19975Y-44371D01*
X75877D01*
X76287Y-44289D01*
X76635Y-44057D01*
X82021Y-38671D01*
X94857D01*
X95434Y-39248D01*
X95307Y-39889D01*
X95454Y-40630D01*
X95874Y-41259D01*
X96503Y-41679D01*
X97244Y-41826D01*
X97985Y-41679D01*
X98614Y-41259D01*
X99034Y-40630D01*
X99181Y-39889D01*
X99034Y-39148D01*
X98614Y-38519D01*
X97985Y-38099D01*
X97244Y-37952D01*
X97179Y-37965D01*
X96057Y-36843D01*
X95710Y-36611D01*
X95300Y-36529D01*
X82836D01*
X82644Y-36068D01*
X94529Y-24183D01*
X94882Y-24253D01*
X95623Y-24105D01*
X96252Y-23686D01*
X96672Y-23057D01*
X96725Y-22789D01*
X97268Y-22624D01*
X107292Y-32648D01*
D02*
G37*
G36*
X-18398Y-20592D02*
X-18421Y-20629D01*
X-74200D01*
X-74610Y-20711D01*
X-74957Y-20943D01*
X-103867Y-49853D01*
X-104099Y-50201D01*
X-104181Y-50610D01*
Y-58040D01*
X-104973D01*
Y-61102D01*
Y-64165D01*
X-84713D01*
Y-61102D01*
Y-58040D01*
X-85504D01*
Y-48377D01*
X-83383Y-46256D01*
X-82921Y-46448D01*
Y-58040D01*
X-83713D01*
Y-61102D01*
Y-64165D01*
X-68901D01*
Y-65949D01*
X-69113Y-66267D01*
X-69260Y-67008D01*
X-69113Y-67749D01*
X-68693Y-68378D01*
X-68137Y-68749D01*
X-68153Y-69054D01*
X-68220Y-69249D01*
X-73115D01*
X-76300Y-66064D01*
X-76697Y-65799D01*
X-77165Y-65706D01*
X-116422D01*
X-117501Y-64626D01*
X-117310Y-64165D01*
X-115421D01*
Y-61102D01*
Y-58040D01*
X-116213D01*
Y-57520D01*
X-116294Y-57110D01*
X-116526Y-56763D01*
X-117031Y-56258D01*
X-116960Y-55905D01*
X-117108Y-55164D01*
X-117528Y-54536D01*
X-118156Y-54116D01*
X-118898Y-53968D01*
X-119639Y-54116D01*
X-120267Y-54536D01*
X-120687Y-55164D01*
X-120835Y-55905D01*
X-121228Y-55870D01*
X-121260Y-55863D01*
X-123622D01*
X-124090Y-55956D01*
X-124487Y-56221D01*
X-126062Y-57796D01*
X-126327Y-58193D01*
X-126420Y-58661D01*
Y-59556D01*
X-126567Y-59654D01*
X-126987Y-60282D01*
X-127134Y-61024D01*
X-126987Y-61765D01*
X-126567Y-62393D01*
X-125938Y-62813D01*
X-125197Y-62961D01*
X-124455Y-62813D01*
X-123827Y-62393D01*
X-123782Y-62326D01*
X-123299D01*
Y-64165D01*
X-123299Y-64165D01*
X-123299D01*
X-123257Y-64662D01*
X-123784Y-64762D01*
X-124412Y-64342D01*
X-125154Y-64194D01*
X-125895Y-64342D01*
X-126524Y-64762D01*
X-126944Y-65390D01*
X-127091Y-66132D01*
X-127501Y-66633D01*
X-127907Y-66714D01*
X-128016Y-66787D01*
X-128457Y-66552D01*
Y-53987D01*
X-114597Y-40127D01*
X-114597Y-40127D01*
X-114365Y-39780D01*
X-114284Y-39370D01*
Y-26821D01*
X-111633Y-24171D01*
X-101840D01*
X-101430Y-24089D01*
X-101374Y-24051D01*
X-100940Y-24137D01*
X-100199Y-23990D01*
X-99570Y-23570D01*
X-99150Y-22941D01*
X-99003Y-22200D01*
X-99150Y-21459D01*
X-99570Y-20830D01*
X-99927Y-20592D01*
X-99775Y-20092D01*
X-18682D01*
X-18398Y-20592D01*
D02*
G37*
G36*
X-69685Y50000D02*
Y30315D01*
X-78347Y30315D01*
Y40551D01*
X-89764D01*
X-91732Y42520D01*
X-98032D01*
Y50000D01*
X-69685Y50000D01*
D02*
G37*
G36*
X-166425Y21210D02*
Y-15748D01*
X-166343Y-16158D01*
X-166111Y-16505D01*
X-157844Y-24773D01*
X-157496Y-25005D01*
X-157087Y-25086D01*
X-125984D01*
X-125575Y-25005D01*
X-125227Y-24773D01*
X-122865Y-22411D01*
X-122633Y-22063D01*
X-122552Y-21654D01*
X-122613Y-21343D01*
X-122260Y-21009D01*
X-121812Y-21145D01*
Y-38652D01*
X-134690Y-51530D01*
X-135066Y-52093D01*
X-135198Y-52756D01*
Y-78723D01*
X-135237Y-78759D01*
X-135663Y-78965D01*
X-153251Y-61377D01*
X-153181Y-61024D01*
X-153328Y-60282D01*
X-153428Y-60134D01*
X-153236Y-59672D01*
X-153196Y-59664D01*
X-152567Y-59244D01*
X-152147Y-58615D01*
X-152000Y-57874D01*
X-152147Y-57133D01*
X-152567Y-56504D01*
X-153196Y-56084D01*
X-153937Y-55937D01*
X-154110Y-55971D01*
X-156538Y-53543D01*
X-156935Y-53277D01*
X-157403Y-53184D01*
X-162235D01*
X-162332Y-53038D01*
X-162961Y-52618D01*
X-163702Y-52471D01*
X-164444Y-52618D01*
X-165072Y-53038D01*
X-165492Y-53667D01*
X-165640Y-54408D01*
X-165499Y-55115D01*
X-165521Y-55144D01*
X-166026Y-55295D01*
X-167433Y-53887D01*
Y21565D01*
X-166971Y21757D01*
X-166425Y21210D01*
D02*
G37*
G36*
X-111417Y65354D02*
X-102362D01*
Y57874D01*
X-120472D01*
Y81890D01*
X-111417D01*
Y65354D01*
D02*
G37*
G36*
X-40551Y81496D02*
Y66142D01*
X-35433D01*
X-35039Y65748D01*
Y57874D01*
X-51575D01*
Y81890D01*
X-40945D01*
X-40551Y81496D01*
D02*
G37*
G36*
X-122689Y-77550D02*
X-121327D01*
Y-74488D01*
X-120327D01*
Y-77550D01*
X-113418D01*
X-113151Y-78050D01*
X-113290Y-78259D01*
X-113437Y-79000D01*
X-113290Y-79741D01*
X-112870Y-80370D01*
X-112543Y-80588D01*
X-112695Y-81088D01*
X-122784D01*
X-122998Y-80588D01*
X-122866Y-79921D01*
X-123013Y-79180D01*
X-123433Y-78551D01*
X-124062Y-78132D01*
X-124470Y-78050D01*
X-124420Y-77550D01*
X-123689D01*
Y-74488D01*
X-122689D01*
Y-77550D01*
D02*
G37*
G36*
X-163428Y-70586D02*
Y-74517D01*
X-163575Y-74614D01*
X-163995Y-75243D01*
X-164142Y-75984D01*
X-163995Y-76726D01*
X-163575Y-77354D01*
X-162946Y-77774D01*
X-162205Y-77921D01*
X-161463Y-77774D01*
X-160835Y-77354D01*
X-160415Y-76726D01*
X-160335Y-76324D01*
X-160011Y-76226D01*
X-159800Y-76196D01*
X-159206Y-76593D01*
X-158465Y-76740D01*
X-157723Y-76593D01*
X-157095Y-76173D01*
X-156960Y-75972D01*
X-156488Y-75779D01*
X-156342Y-75877D01*
X-155859Y-76199D01*
X-155118Y-76347D01*
X-154377Y-76199D01*
X-153748Y-75779D01*
X-153539Y-75466D01*
X-153039Y-75618D01*
Y-79478D01*
X-162648Y-89087D01*
X-203543D01*
X-203543Y-89087D01*
X-203953Y-89168D01*
X-204300Y-89401D01*
X-204300Y-89401D01*
X-208926Y-94026D01*
X-209158Y-94374D01*
X-209240Y-94784D01*
Y-97725D01*
X-214283D01*
Y-103062D01*
X-202056D01*
Y-97725D01*
X-207099D01*
Y-95227D01*
X-203100Y-91228D01*
X-162205D01*
X-161795Y-91147D01*
X-161448Y-90914D01*
X-155488Y-84955D01*
X-155090Y-85259D01*
X-155237Y-86000D01*
X-155090Y-86741D01*
X-154670Y-87370D01*
X-154041Y-87790D01*
X-153300Y-87937D01*
X-152947Y-87867D01*
X-152385Y-88429D01*
X-152394Y-88547D01*
X-152550Y-88929D01*
X-154930D01*
X-155130Y-88630D01*
X-155759Y-88210D01*
X-156500Y-88063D01*
X-157241Y-88210D01*
X-157870Y-88630D01*
X-158290Y-89259D01*
X-158437Y-90000D01*
X-158290Y-90741D01*
X-157870Y-91370D01*
X-157241Y-91790D01*
X-156500Y-91937D01*
X-155759Y-91790D01*
X-155130Y-91370D01*
X-154930Y-91071D01*
X-154399D01*
X-154192Y-91571D01*
X-166283Y-103662D01*
X-222950D01*
Y-98300D01*
X-224176D01*
Y-95200D01*
X-222950D01*
Y-91780D01*
X-220975Y-89806D01*
X-219971D01*
X-219874Y-89952D01*
X-219245Y-90372D01*
X-218504Y-90520D01*
X-217763Y-90372D01*
X-217134Y-89952D01*
X-216714Y-89324D01*
X-216567Y-88583D01*
X-216714Y-87841D01*
X-217134Y-87213D01*
X-217763Y-86793D01*
X-218504Y-86646D01*
X-219245Y-86793D01*
X-219874Y-87213D01*
X-219971Y-87359D01*
X-221482D01*
X-221951Y-87452D01*
X-222347Y-87717D01*
X-224430Y-89800D01*
X-227250D01*
Y-89300D01*
X-229050D01*
Y-89800D01*
X-230400D01*
Y-92500D01*
Y-95200D01*
X-229050D01*
Y-95600D01*
X-227250D01*
Y-95200D01*
X-226623D01*
Y-98300D01*
X-227250D01*
Y-97900D01*
X-229050D01*
Y-98300D01*
X-233350D01*
Y-103662D01*
X-235140D01*
X-237450Y-101353D01*
Y-99200D01*
X-237150D01*
Y-95200D01*
X-237450D01*
Y-93175D01*
X-243850D01*
Y-95200D01*
X-243950D01*
Y-99082D01*
X-247682D01*
Y-96720D01*
X-247454D01*
Y-92980D01*
Y-91500D01*
X-249925D01*
Y-90500D01*
X-247454D01*
Y-89239D01*
Y-85280D01*
X-248702D01*
Y-82105D01*
X-246269D01*
Y-80956D01*
X-240233D01*
Y-82621D01*
X-235933D01*
Y-83021D01*
X-234134D01*
Y-82621D01*
X-232784D01*
Y-79921D01*
X-232283D01*
Y-79421D01*
X-229834D01*
Y-78377D01*
X-229333Y-78170D01*
X-226417Y-81086D01*
X-225850Y-81465D01*
Y-81950D01*
X-224883D01*
Y-84528D01*
X-224939Y-84613D01*
X-225087Y-85354D01*
X-224939Y-86096D01*
X-224519Y-86724D01*
X-223891Y-87144D01*
X-223150Y-87292D01*
X-222408Y-87144D01*
X-221780Y-86724D01*
X-221360Y-86096D01*
X-221212Y-85354D01*
X-221360Y-84613D01*
X-221416Y-84528D01*
Y-81950D01*
X-220450D01*
Y-77650D01*
X-219950D01*
Y-75850D01*
X-220450D01*
Y-71550D01*
X-225850D01*
Y-71550D01*
X-226186Y-71689D01*
X-228495Y-69381D01*
X-228288Y-68881D01*
X-227544D01*
Y-66357D01*
X-226411Y-65223D01*
X-168790D01*
X-163428Y-70586D01*
D02*
G37*
G36*
X-232291Y-65776D02*
Y-68881D01*
X-231141D01*
Y-69689D01*
X-231048Y-70157D01*
X-230783Y-70554D01*
X-228439Y-72898D01*
X-228685Y-73358D01*
X-228740Y-73348D01*
X-242528D01*
Y-71117D01*
X-241217Y-69806D01*
X-240755Y-69997D01*
Y-70240D01*
X-238382D01*
X-236009D01*
Y-68859D01*
X-235772Y-68457D01*
X-235752Y-68453D01*
X-235355Y-68188D01*
X-232752Y-65585D01*
X-232291Y-65776D01*
D02*
G37*
G36*
X-120746Y57215D02*
X-120472Y57160D01*
X-117280D01*
Y55675D01*
X-116980D01*
Y53650D01*
X-113779D01*
X-110580D01*
Y55675D01*
X-110479D01*
Y57160D01*
X-103772D01*
X-102607Y55995D01*
X-102815Y55495D01*
X-107499D01*
Y51536D01*
X-106251D01*
Y46710D01*
X-106230Y46605D01*
X-106623Y46105D01*
X-107930D01*
Y47332D01*
X-113330D01*
Y43032D01*
X-113730D01*
Y41232D01*
X-113330D01*
Y39882D01*
X-110630D01*
X-107930D01*
Y41232D01*
X-107430D01*
Y43032D01*
X-107930D01*
Y43658D01*
X-105900D01*
Y43032D01*
X-106300D01*
Y41232D01*
X-105900D01*
Y36932D01*
X-100500D01*
Y40352D01*
X-99525Y41326D01*
X-99063Y41135D01*
Y41032D01*
X-98731D01*
Y39876D01*
X-96063D01*
X-93395D01*
Y41032D01*
X-93163D01*
Y41806D01*
X-92028D01*
X-90268Y40047D01*
X-90037Y39892D01*
X-89764Y39838D01*
X-79060D01*
Y30697D01*
X-90154Y19602D01*
X-126709D01*
Y19629D01*
X-127056D01*
Y21744D01*
X-130709D01*
X-134361D01*
Y19629D01*
X-134809D01*
Y19602D01*
X-136158D01*
Y19629D01*
X-136505D01*
Y21744D01*
X-140157D01*
X-143810D01*
Y19629D01*
X-144257D01*
Y14129D01*
X-143810D01*
Y8552D01*
X-142881D01*
Y6693D01*
Y-1181D01*
X-142788Y-1886D01*
X-142516Y-2543D01*
X-142083Y-3107D01*
X-138764Y-6426D01*
X-138200Y-6859D01*
X-137543Y-7130D01*
X-137584Y-7629D01*
X-141656D01*
X-151833Y2547D01*
X-151763Y2900D01*
X-151910Y3641D01*
X-152330Y4270D01*
X-152959Y4690D01*
X-153700Y4837D01*
X-154441Y4690D01*
X-155070Y4270D01*
X-155217Y4050D01*
X-155717Y4201D01*
Y7882D01*
X-153389D01*
X-153373Y7801D01*
X-152997Y7239D01*
X-152692Y6933D01*
X-152723Y6693D01*
X-152630Y5988D01*
X-152358Y5331D01*
X-151926Y4767D01*
X-151362Y4335D01*
X-150705Y4062D01*
X-150000Y3970D01*
X-149295Y4062D01*
X-148638Y4335D01*
X-148074Y4767D01*
X-147642Y5331D01*
X-147370Y5988D01*
X-147277Y6693D01*
X-147308Y6933D01*
X-147200Y7042D01*
X-146824Y7604D01*
X-146692Y8268D01*
Y8552D01*
X-145954D01*
Y11013D01*
X-145874Y11614D01*
X-145954Y12216D01*
Y14129D01*
X-145606D01*
Y19629D01*
X-145954D01*
Y21744D01*
X-149606D01*
X-153259D01*
Y19629D01*
X-153706D01*
Y15346D01*
X-155717D01*
Y49635D01*
X-148088Y57264D01*
X-120820D01*
X-120746Y57215D01*
D02*
G37*
G36*
X172086Y108257D02*
X172564Y106266D01*
X173348Y104374D01*
X174418Y102628D01*
X175748Y101071D01*
X177305Y99740D01*
X179051Y98671D01*
X180943Y97887D01*
X182935Y97409D01*
X184976Y97248D01*
Y97265D01*
X271654D01*
X271720Y97278D01*
X273928Y97104D01*
X276148Y96571D01*
X278256Y95698D01*
X280202Y94506D01*
X281937Y93024D01*
X283419Y91288D01*
X284611Y89342D01*
X285485Y87234D01*
X286017Y85015D01*
X286191Y82806D01*
X286178Y82740D01*
Y-94488D01*
X286191Y-94554D01*
X286017Y-96763D01*
X285485Y-98982D01*
X284611Y-101091D01*
X283419Y-103036D01*
X281937Y-104771D01*
X280202Y-106254D01*
X278256Y-107446D01*
X276148Y-108319D01*
X273928Y-108852D01*
X273344Y-108898D01*
X272977Y-108559D01*
Y-61798D01*
X272884Y-61330D01*
X272619Y-60933D01*
X272222Y-60668D01*
X271754Y-60575D01*
X245769D01*
X245301Y-60668D01*
X244904Y-60933D01*
X244639Y-61330D01*
X244546Y-61798D01*
Y-109013D01*
X-111523D01*
X-111791Y-108513D01*
X-111596Y-108222D01*
X-111449Y-107480D01*
X-111519Y-107127D01*
X-111286Y-106895D01*
X-111286Y-106895D01*
X-111054Y-106547D01*
X-111038Y-106468D01*
X-109697D01*
Y-107300D01*
X-107597D01*
Y-106468D01*
X-102485D01*
Y-101131D01*
X-104492D01*
X-104593Y-100979D01*
X-108692Y-96881D01*
X-109039Y-96649D01*
X-109449Y-96567D01*
X-130106D01*
X-130659Y-96014D01*
X-130710Y-95759D01*
X-130854Y-95543D01*
X-130587Y-95043D01*
X-33351D01*
X-32493Y-94872D01*
X-31765Y-94386D01*
X-23874Y-86495D01*
X20079D01*
X20937Y-86324D01*
X21665Y-85838D01*
X39512Y-67991D01*
X42687D01*
X42763Y-68486D01*
X42134Y-68906D01*
X41714Y-69534D01*
X41567Y-70276D01*
X41714Y-71017D01*
X41843Y-71210D01*
X41576Y-71710D01*
X40863D01*
Y-77109D01*
X45163D01*
Y-77509D01*
X46963D01*
Y-77109D01*
X48313D01*
Y-74409D01*
X49313D01*
Y-77109D01*
X50643D01*
Y-92126D01*
X50744Y-92633D01*
X51031Y-93063D01*
X55749Y-97781D01*
X55748Y-97810D01*
X55594Y-98281D01*
X41877D01*
Y-91557D01*
X41921Y-91527D01*
X42341Y-90899D01*
X42488Y-90158D01*
X42341Y-89416D01*
X41921Y-88788D01*
X41293Y-88368D01*
X40551Y-88220D01*
X39810Y-88368D01*
X39181Y-88788D01*
X38761Y-89416D01*
X38614Y-90158D01*
X38761Y-90899D01*
X39181Y-91527D01*
X39226Y-91557D01*
Y-99606D01*
Y-101171D01*
X39327Y-101678D01*
X39614Y-102108D01*
X41011Y-103505D01*
Y-107531D01*
X46237D01*
Y-107631D01*
X50237D01*
Y-107531D01*
X51862D01*
Y-104331D01*
X52362D01*
Y-103831D01*
X55062D01*
Y-101131D01*
X55480Y-100932D01*
X75053D01*
X77411Y-103290D01*
X77324Y-103910D01*
X76977Y-104142D01*
X76557Y-104771D01*
X76409Y-105512D01*
X76557Y-106253D01*
X76977Y-106882D01*
X77605Y-107302D01*
X78347Y-107449D01*
X79088Y-107302D01*
X79716Y-106882D01*
X79733Y-106857D01*
X80233Y-107008D01*
Y-107424D01*
X84533D01*
Y-107824D01*
X86333D01*
Y-107424D01*
X90633D01*
Y-106050D01*
X97332D01*
Y-107393D01*
X102543D01*
Y-108224D01*
X104643D01*
Y-107393D01*
X109755D01*
Y-102056D01*
X107854D01*
X107827Y-102015D01*
X105662Y-99850D01*
X105232Y-99563D01*
X104724Y-99462D01*
X80864D01*
X77315Y-95913D01*
X76885Y-95626D01*
X76378Y-95525D01*
X57242D01*
X53294Y-91577D01*
Y-71653D01*
X53193Y-71146D01*
X52906Y-70716D01*
X51528Y-69338D01*
X51098Y-69051D01*
X50591Y-68950D01*
X48840D01*
X48811Y-68906D01*
X48182Y-68486D01*
X48258Y-67991D01*
X54126D01*
X58387Y-72252D01*
Y-92520D01*
X58558Y-93378D01*
X59044Y-94106D01*
X59772Y-94592D01*
X60630Y-94763D01*
X78598D01*
X80304Y-96468D01*
X81031Y-96954D01*
X81890Y-97125D01*
X108724D01*
X108875Y-97240D01*
X109531Y-97512D01*
X110236Y-97605D01*
X110941Y-97512D01*
X111598Y-97240D01*
X112162Y-96808D01*
X112595Y-96244D01*
X112867Y-95587D01*
X112960Y-94882D01*
X112867Y-94177D01*
X112595Y-93520D01*
X112162Y-92956D01*
X111598Y-92523D01*
X110941Y-92251D01*
X110236Y-92159D01*
X109531Y-92251D01*
X108875Y-92523D01*
X108724Y-92639D01*
X82819D01*
X81114Y-90934D01*
X80386Y-90447D01*
X79528Y-90277D01*
X62873D01*
Y-72127D01*
X63335Y-71936D01*
X63810Y-72411D01*
X64157Y-72643D01*
X64567Y-72724D01*
X95674D01*
X95874Y-73023D01*
X96503Y-73443D01*
X97244Y-73591D01*
X97985Y-73443D01*
X98614Y-73023D01*
X99034Y-72395D01*
X99181Y-71653D01*
X99034Y-70912D01*
X98614Y-70284D01*
X98356Y-70111D01*
X98508Y-69611D01*
X113779D01*
X114053Y-69557D01*
X114284Y-69402D01*
X114439Y-69171D01*
X114493Y-68898D01*
Y-66578D01*
X155399D01*
X159863Y-71042D01*
X159588Y-71475D01*
X157000D01*
Y-74175D01*
X156500D01*
Y-74675D01*
X153300D01*
Y-76700D01*
X153200D01*
Y-78814D01*
X150000D01*
X149727Y-78868D01*
X149495Y-79023D01*
X149341Y-79254D01*
X149286Y-79528D01*
Y-92520D01*
X149341Y-92793D01*
X149495Y-93024D01*
X149727Y-93179D01*
X150000Y-93233D01*
X157304D01*
Y-94000D01*
X159776D01*
Y-95000D01*
X157304D01*
Y-96479D01*
Y-100220D01*
X162247D01*
Y-99414D01*
X162464Y-99370D01*
X162861Y-99105D01*
X164645Y-97322D01*
X164910Y-96925D01*
X165003Y-96457D01*
Y-85625D01*
X167033D01*
Y-82425D01*
Y-79225D01*
X165003D01*
Y-73228D01*
X164910Y-72760D01*
X164645Y-72363D01*
X156771Y-64489D01*
X156374Y-64224D01*
X155905Y-64131D01*
X114493D01*
Y-61135D01*
X114628Y-60808D01*
X114755Y-59842D01*
Y-44488D01*
Y-43207D01*
X120541Y-37422D01*
X146839D01*
Y-39283D01*
X148660D01*
Y-45560D01*
X147725D01*
Y-49494D01*
X147394D01*
Y-51494D01*
X147725D01*
Y-52650D01*
X150394D01*
X153062D01*
Y-51494D01*
X153294D01*
Y-49494D01*
X153062D01*
Y-45560D01*
X152127D01*
Y-39283D01*
X154735D01*
Y-37422D01*
X157476D01*
X157534Y-37461D01*
X158268Y-37607D01*
X163779D01*
X164514Y-37461D01*
X165136Y-37045D01*
X165551Y-36423D01*
X165698Y-35689D01*
X165551Y-34955D01*
X165136Y-34333D01*
X164514Y-33917D01*
X163779Y-33771D01*
X158268D01*
X157534Y-33917D01*
X157476Y-33956D01*
X154735D01*
Y-31912D01*
X156823D01*
X156912Y-32045D01*
X157534Y-32461D01*
X158268Y-32607D01*
X163779D01*
X164514Y-32461D01*
X165136Y-32045D01*
X165551Y-31423D01*
X165698Y-30689D01*
X165551Y-29955D01*
X165136Y-29333D01*
X164514Y-28917D01*
X163779Y-28771D01*
X162247D01*
Y-22917D01*
X163724D01*
Y-18617D01*
X164224D01*
Y-16816D01*
X163724D01*
Y-12517D01*
X160304D01*
X159515Y-11727D01*
X159118Y-11462D01*
X158650Y-11369D01*
X156409D01*
Y-9924D01*
X152475D01*
Y-9593D01*
X150475D01*
Y-9924D01*
X149319D01*
Y-12593D01*
Y-15261D01*
X150475D01*
Y-15493D01*
X152475D01*
Y-15261D01*
X156409D01*
Y-13816D01*
X158143D01*
X158324Y-13997D01*
Y-16816D01*
X157924D01*
Y-18617D01*
X158324D01*
Y-22917D01*
X159800D01*
Y-28771D01*
X158268D01*
X157534Y-28917D01*
X156912Y-29333D01*
X156823Y-29465D01*
X137101D01*
X123950Y-16314D01*
X123985Y-16142D01*
X123837Y-15400D01*
X123417Y-14772D01*
X122789Y-14352D01*
X122047Y-14205D01*
X121306Y-14352D01*
X120677Y-14772D01*
X120257Y-15400D01*
X120110Y-16142D01*
X120257Y-16883D01*
X120677Y-17512D01*
X121306Y-17932D01*
X122047Y-18079D01*
X122220Y-18045D01*
X135729Y-31554D01*
X136126Y-31819D01*
X136594Y-31912D01*
X146839D01*
Y-33956D01*
X119823D01*
X119159Y-34088D01*
X118597Y-34463D01*
X115217Y-37843D01*
X114755Y-37652D01*
Y-31102D01*
X114628Y-30136D01*
X114256Y-29236D01*
X113663Y-28464D01*
X106233Y-21034D01*
X106454Y-20585D01*
X106693Y-20617D01*
X107749Y-20478D01*
X108734Y-20070D01*
X109579Y-19421D01*
X110228Y-18576D01*
X110635Y-17592D01*
X110774Y-16535D01*
X110635Y-15479D01*
X110228Y-14495D01*
X109579Y-13649D01*
X108734Y-13001D01*
X107749Y-12593D01*
X106693Y-12454D01*
X105637Y-12593D01*
X104652Y-13001D01*
X103807Y-13649D01*
X103158Y-14495D01*
X102751Y-15479D01*
X102611Y-16535D01*
X102643Y-16774D01*
X102194Y-16996D01*
X98920Y-13721D01*
X98147Y-13128D01*
X97247Y-12755D01*
X96281Y-12628D01*
X30585D01*
X30433Y-12128D01*
X30670Y-11970D01*
X31090Y-11341D01*
X31237Y-10600D01*
X31090Y-9859D01*
X30670Y-9230D01*
X30041Y-8810D01*
X29300Y-8663D01*
X28947Y-8733D01*
X28157Y-7943D01*
X27828Y-7723D01*
X27821Y-7686D01*
X27930Y-7223D01*
X43293D01*
X43311Y-7267D01*
X43744Y-7831D01*
X44308Y-8264D01*
X44964Y-8536D01*
X45669Y-8629D01*
X51822D01*
X52444Y-8711D01*
X103455D01*
X104160Y-8618D01*
X104808Y-8350D01*
X106243D01*
Y-6076D01*
X106267Y-5900D01*
X106243Y-5723D01*
Y-4050D01*
X106743D01*
Y-2250D01*
X106243D01*
Y2050D01*
X105649D01*
X105361Y2550D01*
X105481Y3150D01*
X105333Y3891D01*
X104913Y4519D01*
X104285Y4939D01*
X103543Y5087D01*
X102802Y4939D01*
X102173Y4519D01*
X101753Y3891D01*
X101606Y3150D01*
X101725Y2550D01*
X101437Y2050D01*
X100843D01*
Y-2250D01*
X100443D01*
Y-3264D01*
X97994D01*
Y-787D01*
X97970Y-610D01*
Y2413D01*
X96615D01*
Y5867D01*
X96672Y5952D01*
X96819Y6693D01*
X96672Y7434D01*
X96252Y8063D01*
X95623Y8483D01*
X94882Y8630D01*
X94140Y8483D01*
X93512Y8063D01*
X93092Y7434D01*
X92945Y6693D01*
X93092Y5952D01*
X93149Y5867D01*
Y3211D01*
X93145Y2713D01*
X89145D01*
Y2413D01*
X87120D01*
Y-787D01*
X86620D01*
Y-1287D01*
X83920D01*
Y-3264D01*
X52984D01*
X52362Y-3182D01*
X48393D01*
Y-394D01*
Y4392D01*
X48869D01*
Y9217D01*
X49169D01*
Y13217D01*
X48869D01*
Y15243D01*
X42469D01*
Y13217D01*
X42369D01*
Y9217D01*
X42469D01*
Y4392D01*
X42946D01*
Y-394D01*
Y-1777D01*
X-5905D01*
Y-1068D01*
X-6405D01*
Y3232D01*
X-8772D01*
Y5464D01*
X-8446Y5952D01*
X-8299Y6693D01*
X-8446Y7434D01*
X-8866Y8063D01*
X-9166Y8263D01*
Y21741D01*
X-8708Y21832D01*
X-8079Y22252D01*
X-7669D01*
X-7041Y21832D01*
X-6582Y21741D01*
Y8263D01*
X-6882Y8063D01*
X-7302Y7434D01*
X-7449Y6693D01*
X-7302Y5952D01*
X-6882Y5323D01*
X-6253Y4903D01*
X-5512Y4756D01*
X-4770Y4903D01*
X-4142Y5323D01*
X-3722Y5952D01*
X-3575Y6693D01*
X-3656Y7102D01*
X-3231Y7528D01*
X-3150Y7512D01*
X-2408Y7659D01*
X-1780Y8079D01*
X-1360Y8708D01*
X-1212Y9449D01*
X-1360Y10190D01*
X-1780Y10819D01*
X-2079Y11019D01*
Y22052D01*
X-1780Y22252D01*
X-1360Y22881D01*
X-1212Y23622D01*
X-1360Y24363D01*
X-1780Y24992D01*
X-2408Y25412D01*
X-3150Y25559D01*
X-3891Y25412D01*
X-4519Y24992D01*
X-4929D01*
X-5558Y25412D01*
X-6299Y25559D01*
X-7041Y25412D01*
X-7669Y24992D01*
X-8079D01*
X-8708Y25412D01*
X-8957Y25461D01*
X-9121Y26004D01*
X-5693Y29432D01*
X-2847D01*
X-2573Y29486D01*
X-2342Y29641D01*
X-2187Y29873D01*
X-2133Y30146D01*
Y30698D01*
X-2056D01*
Y33422D01*
X2767D01*
X3040Y32764D01*
X3638Y31984D01*
X4417Y31386D01*
X5325Y31010D01*
X6299Y30882D01*
X7273Y31010D01*
X8181Y31386D01*
X8961Y31984D01*
X9559Y32764D01*
X9935Y33672D01*
X10063Y34646D01*
X9935Y35620D01*
X9559Y36527D01*
X8961Y37307D01*
X8181Y37905D01*
X7273Y38281D01*
X6299Y38409D01*
X5325Y38281D01*
X4417Y37905D01*
X3638Y37307D01*
X3040Y36527D01*
X2767Y35869D01*
X-2056D01*
Y38594D01*
X-2133D01*
Y49831D01*
X-2187Y50104D01*
X-2253Y50202D01*
Y52062D01*
X-22157D01*
Y50545D01*
X-31193D01*
X-31466Y50490D01*
X-31698Y50335D01*
X-31852Y50104D01*
X-31907Y49831D01*
Y45189D01*
X-33108Y43987D01*
X-33571Y44179D01*
Y47045D01*
X-36966D01*
Y51367D01*
X-35717D01*
Y55326D01*
X-40661D01*
Y51367D01*
X-39413D01*
Y46513D01*
X-39375Y46324D01*
X-39727Y45824D01*
X-41051D01*
Y47051D01*
X-46451D01*
Y42751D01*
X-46851D01*
Y40951D01*
X-46451D01*
Y39601D01*
X-43751D01*
X-41051D01*
Y40951D01*
X-40551D01*
Y42751D01*
X-41051D01*
Y43377D01*
X-38971D01*
Y42745D01*
X-39371D01*
Y40945D01*
X-38971D01*
Y36645D01*
X-33571D01*
Y40065D01*
X-32596Y41039D01*
X-32134Y40848D01*
Y40632D01*
X-31802D01*
Y39476D01*
X-29134D01*
X-26465D01*
Y40632D01*
X-26234D01*
Y41637D01*
X-25189D01*
X-23430Y39877D01*
X-23198Y39722D01*
X-22925Y39668D01*
X-12222D01*
Y30606D01*
X-12545Y30282D01*
X-14351D01*
X-14556Y30698D01*
X-14556Y30782D01*
Y34146D01*
X-22255D01*
Y30782D01*
X-22255Y30698D01*
X-22460Y30282D01*
X-57975D01*
X-58074Y30782D01*
X-57567Y30992D01*
X-56788Y31591D01*
X-56189Y32370D01*
X-55813Y33278D01*
X-55685Y34252D01*
X-55813Y35226D01*
X-56189Y36134D01*
X-56788Y36913D01*
X-57567Y37511D01*
X-58475Y37887D01*
X-59449Y38016D01*
X-60423Y37887D01*
X-61331Y37511D01*
X-62110Y36913D01*
X-62708Y36134D01*
X-62981Y35476D01*
X-68971D01*
Y41180D01*
X-67361D01*
X-67277Y41124D01*
X-66535Y40976D01*
X-65794Y41124D01*
X-65166Y41544D01*
X-64746Y42172D01*
X-64598Y42913D01*
X-64746Y43655D01*
X-65166Y44283D01*
X-65794Y44703D01*
X-66535Y44851D01*
X-67277Y44703D01*
X-67361Y44647D01*
X-68971D01*
Y50000D01*
X-69026Y50273D01*
X-69180Y50505D01*
X-69182Y50506D01*
Y51135D01*
X-64460Y55857D01*
X-58212D01*
Y55231D01*
X-58712D01*
Y53431D01*
X-58212D01*
Y52081D01*
X-55512D01*
X-52812D01*
Y53431D01*
X-52412D01*
Y55231D01*
X-52812D01*
Y59531D01*
X-57649D01*
X-57905Y59842D01*
X-58053Y60584D01*
X-58473Y61212D01*
X-59101Y61632D01*
X-59842Y61780D01*
X-60584Y61632D01*
X-61212Y61212D01*
X-61632Y60584D01*
X-61780Y59842D01*
X-61632Y59101D01*
X-61434Y58804D01*
X-61701Y58304D01*
X-64966D01*
X-65435Y58211D01*
X-65832Y57946D01*
X-71715Y52062D01*
X-89086D01*
Y50714D01*
X-98032D01*
X-98305Y50659D01*
X-98536Y50505D01*
X-98691Y50273D01*
X-98745Y50000D01*
Y45567D01*
X-100038Y44274D01*
X-100500Y44466D01*
Y47332D01*
X-103804D01*
Y51536D01*
X-102556D01*
Y55237D01*
X-102056Y55444D01*
X-99263Y52651D01*
X-98866Y52385D01*
X-98398Y52292D01*
X-98050D01*
Y51536D01*
X-93107D01*
Y55276D01*
Y56756D01*
X-95579D01*
X-98050D01*
Y55606D01*
X-98550Y55399D01*
X-101648Y58497D01*
Y65354D01*
X-101703Y65627D01*
X-101857Y65859D01*
X-102089Y66014D01*
X-102362Y66068D01*
X-110385D01*
Y68166D01*
X-109167D01*
Y70866D01*
Y73566D01*
X-110385D01*
Y75008D01*
X-52289D01*
Y57874D01*
X-52234Y57601D01*
X-52079Y57369D01*
X-51848Y57215D01*
X-51575Y57160D01*
X-50350D01*
Y55680D01*
X-50050D01*
Y53655D01*
X-46850D01*
X-43650D01*
Y55680D01*
X-43550D01*
Y57160D01*
X-35703D01*
X-35386Y56774D01*
X-35402Y56693D01*
X-35254Y55952D01*
X-34834Y55323D01*
X-34206Y54903D01*
X-33465Y54756D01*
X-33292Y54790D01*
X-31212Y52710D01*
Y51367D01*
X-26269D01*
Y55107D01*
Y56587D01*
X-28740D01*
Y57587D01*
X-26269D01*
Y58735D01*
X-3150D01*
X-2877Y58789D01*
X-2645Y58944D01*
X-2633Y58961D01*
X-2253D01*
Y68235D01*
X-2436D01*
Y68504D01*
X-2490Y68777D01*
X-2645Y69009D01*
X-2877Y69163D01*
X-3150Y69218D01*
X-29239D01*
X-29713Y69280D01*
X-29713Y69718D01*
Y72728D01*
X-33063D01*
Y69280D01*
X-31633D01*
X-31366Y68780D01*
X-31368Y68777D01*
X-31422Y68504D01*
Y59449D01*
X-31368Y59176D01*
X-31213Y58944D01*
X-31212Y58943D01*
Y57856D01*
X-31306Y57782D01*
X-31978Y57888D01*
X-32095Y58063D01*
X-32723Y58483D01*
X-33465Y58630D01*
X-33826Y58558D01*
X-34326Y58958D01*
Y65748D01*
X-34380Y66021D01*
X-34535Y66253D01*
X-34928Y66646D01*
X-35160Y66801D01*
X-35433Y66855D01*
X-39838D01*
Y81496D01*
X-39892Y81769D01*
X-40047Y82001D01*
X-40440Y82394D01*
X-40672Y82549D01*
X-40945Y82604D01*
X-51575D01*
X-51848Y82549D01*
X-51963Y82472D01*
X-111029D01*
X-111144Y82549D01*
X-111417Y82604D01*
X-120472D01*
X-120746Y82549D01*
X-120977Y82394D01*
X-121132Y82163D01*
X-121186Y81890D01*
Y64728D01*
X-149634D01*
X-150600Y64601D01*
X-151500Y64228D01*
X-152273Y63635D01*
X-162088Y53820D01*
X-162681Y53047D01*
X-163054Y52147D01*
X-163181Y51181D01*
Y23681D01*
X-163681Y23474D01*
X-171279Y31072D01*
X-171626Y31304D01*
X-172036Y31385D01*
X-195202D01*
X-195402Y31685D01*
X-196030Y32105D01*
X-196181Y32135D01*
X-196132Y32635D01*
X-175090D01*
X-174992Y32489D01*
X-174363Y32068D01*
X-173622Y31921D01*
X-172881Y32068D01*
X-172252Y32489D01*
X-171832Y33117D01*
X-171685Y33858D01*
X-171832Y34600D01*
X-172252Y35228D01*
X-172881Y35648D01*
X-173622Y35796D01*
X-174363Y35648D01*
X-174992Y35228D01*
X-175090Y35082D01*
X-198670D01*
X-199138Y34989D01*
X-199535Y34723D01*
X-203149Y31110D01*
X-203414Y30713D01*
X-203507Y30244D01*
Y9370D01*
X-203414Y8902D01*
X-203149Y8505D01*
X-193306Y-1338D01*
X-192909Y-1603D01*
X-192441Y-1696D01*
X-185897D01*
Y-3338D01*
X-180560D01*
Y2393D01*
X-185897D01*
Y751D01*
X-191934D01*
X-201060Y9877D01*
Y29738D01*
X-198163Y32635D01*
X-197411D01*
X-197362Y32135D01*
X-197513Y32105D01*
X-198142Y31685D01*
X-198561Y31056D01*
X-198709Y30315D01*
X-198561Y29574D01*
X-198142Y28945D01*
X-197513Y28525D01*
X-196772Y28378D01*
X-196030Y28525D01*
X-195402Y28945D01*
X-195202Y29244D01*
X-191000D01*
X-190839Y28943D01*
X-190779Y28744D01*
X-190914Y28065D01*
X-190766Y27324D01*
X-190346Y26695D01*
X-189718Y26275D01*
X-188976Y26128D01*
X-188235Y26275D01*
X-187607Y26695D01*
X-187294Y27164D01*
X-181552D01*
X-181391Y26862D01*
X-181330Y26664D01*
X-181465Y25984D01*
X-181317Y25243D01*
X-180897Y24614D01*
X-180269Y24194D01*
X-179528Y24047D01*
X-179118Y24128D01*
X-178693Y23703D01*
X-178709Y23622D01*
X-178561Y22881D01*
X-178141Y22252D01*
X-177513Y21832D01*
X-176772Y21685D01*
X-176030Y21832D01*
X-175402Y22252D01*
X-175202Y22551D01*
X-172097D01*
X-171543Y21997D01*
Y-44242D01*
X-174106Y-46805D01*
X-174208Y-46789D01*
X-174604Y-46224D01*
X-174560Y-46002D01*
X-174708Y-45261D01*
X-175128Y-44633D01*
X-175427Y-44433D01*
Y-32002D01*
X-175509Y-31593D01*
X-175741Y-31245D01*
X-175741Y-31245D01*
X-195343Y-11643D01*
X-195690Y-11411D01*
X-196100Y-11329D01*
X-224230D01*
X-224430Y-11030D01*
X-225059Y-10610D01*
X-225800Y-10463D01*
X-226541Y-10610D01*
X-227170Y-11030D01*
X-227590Y-11659D01*
X-227737Y-12400D01*
X-227590Y-13141D01*
X-227170Y-13770D01*
X-226541Y-14190D01*
X-225800Y-14337D01*
X-225059Y-14190D01*
X-224430Y-13770D01*
X-224230Y-13471D01*
X-196544D01*
X-177568Y-32446D01*
Y-44433D01*
X-177867Y-44633D01*
X-178287Y-45261D01*
X-178435Y-46002D01*
X-178287Y-46744D01*
X-177867Y-47372D01*
X-177239Y-47792D01*
X-176498Y-47940D01*
X-176277Y-47896D01*
X-175711Y-48292D01*
X-175695Y-48394D01*
X-178396Y-51095D01*
X-179418D01*
Y-50481D01*
X-191645D01*
Y-55818D01*
X-179418D01*
Y-53236D01*
X-177953D01*
X-177543Y-53154D01*
X-177196Y-52922D01*
X-170074Y-45801D01*
X-169574Y-46008D01*
Y-54331D01*
X-169493Y-54740D01*
X-169261Y-55088D01*
X-165289Y-59059D01*
X-165496Y-59559D01*
X-185014D01*
X-185063Y-59500D01*
X-185210Y-58759D01*
X-185630Y-58130D01*
X-186259Y-57710D01*
X-187000Y-57563D01*
X-187741Y-57710D01*
X-188370Y-58130D01*
X-188790Y-58759D01*
X-188937Y-59500D01*
X-188790Y-60241D01*
X-188566Y-60576D01*
X-188833Y-61076D01*
X-231198D01*
X-231666Y-61170D01*
X-232063Y-61435D01*
X-235509Y-64881D01*
X-236009Y-64674D01*
Y-61379D01*
X-240755D01*
Y-62036D01*
X-243950D01*
Y-61800D01*
X-248250D01*
Y-61300D01*
X-250050D01*
Y-61800D01*
X-254350D01*
Y-63276D01*
X-264914D01*
X-268461Y-59729D01*
Y-31782D01*
X-268315Y-31685D01*
X-267895Y-31056D01*
X-267748Y-30315D01*
X-267895Y-29574D01*
X-268315Y-28945D01*
X-268944Y-28525D01*
X-269685Y-28378D01*
X-270426Y-28525D01*
X-271055Y-28945D01*
X-271475Y-29574D01*
X-271622Y-30315D01*
X-271475Y-31056D01*
X-271055Y-31685D01*
X-270909Y-31782D01*
Y-60236D01*
X-270815Y-60704D01*
X-270550Y-61101D01*
X-266286Y-65365D01*
X-265890Y-65630D01*
X-265421Y-65724D01*
X-254350D01*
Y-67200D01*
X-253113D01*
Y-68894D01*
X-253771D01*
Y-73623D01*
X-254342Y-74004D01*
X-255917Y-75579D01*
X-256250Y-76077D01*
X-256750Y-75926D01*
Y-74600D01*
X-256981D01*
Y-73244D01*
X-259650D01*
X-262318D01*
Y-74600D01*
X-262650D01*
Y-76600D01*
X-262318D01*
Y-80334D01*
X-260597D01*
Y-85280D01*
X-261846D01*
Y-89239D01*
X-257074D01*
X-256902Y-89239D01*
X-256574Y-89603D01*
Y-91591D01*
X-257480Y-92497D01*
X-265450D01*
Y-91700D01*
X-265150D01*
Y-87700D01*
X-265450D01*
Y-85675D01*
X-271850D01*
Y-87700D01*
X-271950D01*
Y-88556D01*
X-272412Y-88747D01*
X-275903Y-85256D01*
X-275843Y-84803D01*
X-275969Y-83850D01*
X-276337Y-82961D01*
X-276922Y-82198D01*
X-277685Y-81612D01*
X-278574Y-81244D01*
X-279528Y-81119D01*
X-280481Y-81244D01*
X-281370Y-81612D01*
X-282133Y-82198D01*
X-282528Y-82714D01*
X-283029Y-82544D01*
Y-77062D01*
X-282528Y-76893D01*
X-282133Y-77408D01*
X-281370Y-77994D01*
X-280481Y-78362D01*
X-279528Y-78487D01*
X-278574Y-78362D01*
X-277685Y-77994D01*
X-276922Y-77408D01*
X-276337Y-76645D01*
X-275969Y-75757D01*
X-275843Y-74803D01*
X-275969Y-73850D01*
X-276337Y-72961D01*
X-276922Y-72198D01*
X-277685Y-71613D01*
X-278574Y-71244D01*
X-279528Y-71119D01*
X-280481Y-71244D01*
X-281370Y-71613D01*
X-282133Y-72198D01*
X-282528Y-72714D01*
X-283029Y-72544D01*
Y-67062D01*
X-282528Y-66893D01*
X-282133Y-67408D01*
X-281370Y-67994D01*
X-280481Y-68362D01*
X-280028Y-68422D01*
Y-64803D01*
Y-61185D01*
X-280481Y-61244D01*
X-281370Y-61612D01*
X-282133Y-62198D01*
X-282528Y-62714D01*
X-283029Y-62544D01*
Y-58456D01*
X-275875D01*
Y-51150D01*
X-283029D01*
Y-34236D01*
X-282528Y-34204D01*
X-282521Y-34260D01*
X-282252Y-34909D01*
X-281824Y-35466D01*
X-281267Y-35894D01*
X-280618Y-36163D01*
X-279921Y-36255D01*
X-279225Y-36163D01*
X-278575Y-35894D01*
X-278018Y-35466D01*
X-277590Y-34909D01*
X-277322Y-34260D01*
X-277230Y-33563D01*
X-277322Y-32866D01*
X-277590Y-32217D01*
X-278018Y-31660D01*
X-278575Y-31232D01*
X-279225Y-30963D01*
X-279921Y-30871D01*
X-280618Y-30963D01*
X-281267Y-31232D01*
X-281824Y-31660D01*
X-282252Y-32217D01*
X-282521Y-32866D01*
X-282528Y-32922D01*
X-283029Y-32890D01*
Y-28460D01*
X-280989Y-26420D01*
X-271153D01*
X-271055Y-26567D01*
X-270426Y-26987D01*
X-269685Y-27134D01*
X-268944Y-26987D01*
X-268315Y-26567D01*
X-267895Y-25938D01*
X-267748Y-25197D01*
X-267895Y-24455D01*
X-268315Y-23827D01*
X-268944Y-23407D01*
X-269685Y-23260D01*
X-270426Y-23407D01*
X-271055Y-23827D01*
X-271153Y-23973D01*
X-281496D01*
X-281964Y-24067D01*
X-282361Y-24332D01*
X-285117Y-27088D01*
X-285382Y-27485D01*
X-285475Y-27953D01*
Y-94488D01*
X-285382Y-94956D01*
X-285117Y-95353D01*
X-278280Y-102190D01*
X-277883Y-102456D01*
X-277415Y-102549D01*
X-250623D01*
X-250261Y-102911D01*
X-249533Y-103398D01*
X-248675Y-103568D01*
X-243850D01*
Y-104025D01*
X-241122D01*
X-237656Y-107492D01*
X-236928Y-107978D01*
X-236069Y-108149D01*
X-165354D01*
X-164496Y-107978D01*
X-163768Y-107492D01*
X-151320Y-95043D01*
X-134413D01*
X-134146Y-95543D01*
X-134290Y-95759D01*
X-134437Y-96500D01*
X-134354Y-96916D01*
X-134804Y-97217D01*
X-135085Y-97029D01*
X-135827Y-96882D01*
X-136568Y-97029D01*
X-137197Y-97449D01*
X-137617Y-98078D01*
X-137764Y-98819D01*
X-137617Y-99560D01*
X-137197Y-100189D01*
X-136897Y-100389D01*
Y-101131D01*
X-137309D01*
Y-106468D01*
X-132197D01*
Y-107400D01*
X-130097D01*
Y-106468D01*
X-128821D01*
Y-106501D01*
X-128740Y-106911D01*
X-128629Y-107077D01*
X-128709Y-107480D01*
X-128561Y-108222D01*
X-128367Y-108513D01*
X-128634Y-109013D01*
X-271654D01*
X-271720Y-109026D01*
X-273928Y-108852D01*
X-276148Y-108319D01*
X-278256Y-107446D01*
X-280202Y-106254D01*
X-281937Y-104771D01*
X-283419Y-103036D01*
X-284611Y-101091D01*
X-285485Y-98982D01*
X-286017Y-96763D01*
X-286191Y-94554D01*
X-286178Y-94488D01*
Y18500D01*
X-270041D01*
X-269928Y18379D01*
X-269715Y18000D01*
X-269771Y17717D01*
Y0D01*
X-269690Y-410D01*
X-269458Y-757D01*
X-252878Y-17337D01*
X-253143Y-17779D01*
X-253784Y-17585D01*
X-255079Y-17457D01*
X-256374Y-17585D01*
X-257619Y-17962D01*
X-258766Y-18576D01*
X-259772Y-19401D01*
X-260598Y-20407D01*
X-261211Y-21554D01*
X-261589Y-22800D01*
X-261716Y-24094D01*
X-261589Y-25389D01*
X-261211Y-26634D01*
X-260598Y-27782D01*
X-259772Y-28788D01*
X-258766Y-29613D01*
X-257619Y-30227D01*
X-256374Y-30604D01*
X-255079Y-30732D01*
X-253784Y-30604D01*
X-252539Y-30227D01*
X-251391Y-29613D01*
X-250385Y-28788D01*
X-249560Y-27782D01*
X-248946Y-26634D01*
X-248569Y-25389D01*
X-248441Y-24094D01*
X-248569Y-22800D01*
X-248946Y-21554D01*
X-249560Y-20407D01*
X-250385Y-19401D01*
X-251148Y-18775D01*
X-250969Y-18275D01*
X-238160D01*
X-232527Y-23908D01*
Y-26347D01*
X-234322D01*
Y-31684D01*
X-228591D01*
Y-26347D01*
X-230386D01*
Y-23464D01*
X-230468Y-23055D01*
X-230700Y-22707D01*
X-230700Y-22707D01*
X-236960Y-16448D01*
X-237307Y-16216D01*
X-237717Y-16134D01*
X-251053D01*
X-267630Y443D01*
Y17273D01*
X-266403Y18500D01*
X-264626D01*
Y20277D01*
X-263169Y21735D01*
X-262668Y21528D01*
Y16347D01*
X-257331D01*
Y18148D01*
X-256953Y18224D01*
X-256605Y18456D01*
X-247432Y27629D01*
X-247200Y27976D01*
X-247118Y28386D01*
X-247118Y28386D01*
Y47824D01*
X-240895Y54048D01*
X-169286D01*
X-169086Y53748D01*
X-168458Y53328D01*
X-167717Y53181D01*
X-166975Y53328D01*
X-166347Y53748D01*
X-165927Y54377D01*
X-165779Y55118D01*
X-165796Y55199D01*
X-165370Y55625D01*
X-164961Y55543D01*
X-164219Y55690D01*
X-163591Y56111D01*
X-163171Y56739D01*
X-163023Y57480D01*
X-163171Y58222D01*
X-163591Y58850D01*
X-164219Y59270D01*
X-164961Y59417D01*
X-165702Y59270D01*
X-166330Y58850D01*
X-166530Y58551D01*
X-243701D01*
X-243701Y58551D01*
X-244110Y58469D01*
X-244458Y58237D01*
X-252726Y49970D01*
X-252958Y49622D01*
X-253039Y49213D01*
Y29971D01*
X-258317Y24693D01*
X-262795D01*
X-262795Y24693D01*
X-263205Y24611D01*
X-263552Y24379D01*
X-263552Y24379D01*
X-264164Y23767D01*
X-264626Y23959D01*
Y97328D01*
X-185293D01*
X-184976Y97265D01*
Y97248D01*
X-182935Y97409D01*
X-180943Y97887D01*
X-179051Y98671D01*
X-177305Y99740D01*
X-175748Y101071D01*
X-174418Y102628D01*
X-173348Y104374D01*
X-172564Y106266D01*
X-172086Y108257D01*
X-172026Y109013D01*
X172026D01*
X172086Y108257D01*
D02*
G37*
G36*
X-14391Y24423D02*
X-14394Y24336D01*
X-14536Y23622D01*
X-14388Y22881D01*
X-13968Y22252D01*
X-13669Y22052D01*
Y11019D01*
X-13968Y10819D01*
X-14388Y10190D01*
X-14536Y9449D01*
X-14388Y8708D01*
X-13968Y8079D01*
X-13669Y7879D01*
Y5162D01*
X-15599Y3232D01*
X-19235D01*
Y-1068D01*
X-19635D01*
Y-1777D01*
X-103462D01*
X-103855Y-1519D01*
Y681D01*
X-106305D01*
Y1181D01*
X-106805D01*
Y3881D01*
X-108155D01*
Y4381D01*
X-109955D01*
Y3881D01*
X-110734D01*
Y5117D01*
X-110435Y5317D01*
X-110015Y5946D01*
X-109868Y6687D01*
X-110015Y7428D01*
X-110435Y8057D01*
X-110935Y8391D01*
X-110784Y8891D01*
X-87205D01*
X-86500Y8984D01*
X-85843Y9256D01*
X-85279Y9689D01*
X-70132Y24836D01*
X-14648D01*
X-14391Y24423D01*
D02*
G37*
G36*
X-2847Y49831D02*
Y30146D01*
X-11508Y30146D01*
Y40382D01*
X-22925D01*
X-24894Y42350D01*
X-31193D01*
Y49831D01*
X-2847Y49831D01*
D02*
G37*
%LPC*%
G36*
X173122Y-59536D02*
X171544D01*
Y-61705D01*
X173122D01*
Y-59536D01*
D02*
G37*
G36*
X210579Y-62493D02*
X208422D01*
X207880Y-62601D01*
X207420Y-62908D01*
X207113Y-63367D01*
X207105Y-63410D01*
X210579D01*
Y-62493D01*
D02*
G37*
G36*
X-110200Y-54363D02*
X-110941Y-54510D01*
X-111570Y-54930D01*
X-111990Y-55559D01*
X-112137Y-56300D01*
X-111990Y-57041D01*
X-111656Y-57540D01*
X-111821Y-57972D01*
X-111878Y-58040D01*
X-112059D01*
Y-61102D01*
Y-64165D01*
X-108335D01*
Y-61102D01*
Y-58040D01*
X-108522D01*
X-108579Y-57972D01*
X-108744Y-57540D01*
X-108410Y-57041D01*
X-108263Y-56300D01*
X-108410Y-55559D01*
X-108830Y-54930D01*
X-109459Y-54510D01*
X-110200Y-54363D01*
D02*
G37*
G36*
X-105973Y-58040D02*
X-107335D01*
Y-61102D01*
Y-64165D01*
X-105973D01*
Y-61102D01*
Y-58040D01*
D02*
G37*
G36*
X191296Y-62493D02*
X189138D01*
Y-63410D01*
X192613D01*
X192604Y-63367D01*
X192297Y-62908D01*
X191838Y-62601D01*
X191296Y-62493D01*
D02*
G37*
G36*
X229693Y-60925D02*
X228115D01*
Y-63094D01*
X229693D01*
Y-60925D01*
D02*
G37*
G36*
X188138Y-62493D02*
X185981D01*
X185439Y-62601D01*
X184979Y-62908D01*
X184672Y-63367D01*
X184664Y-63410D01*
X188138D01*
Y-62493D01*
D02*
G37*
G36*
X213737D02*
X211579D01*
Y-63410D01*
X215054D01*
X215045Y-63367D01*
X214738Y-62908D01*
X214279Y-62601D01*
X213737Y-62493D01*
D02*
G37*
G36*
X-113059Y-58040D02*
X-114421D01*
Y-61102D01*
Y-64165D01*
X-113059D01*
Y-61102D01*
Y-58040D01*
D02*
G37*
G36*
X-51800Y-67466D02*
X-53969D01*
Y-69044D01*
X-51800D01*
Y-67466D01*
D02*
G37*
G36*
X-48632D02*
X-50800D01*
Y-69044D01*
X-48632D01*
Y-67466D01*
D02*
G37*
G36*
X-275909Y-65303D02*
X-279028D01*
Y-68422D01*
X-278574Y-68362D01*
X-277685Y-67994D01*
X-276922Y-67408D01*
X-276337Y-66645D01*
X-275969Y-65757D01*
X-275909Y-65303D01*
D02*
G37*
G36*
X-186031Y-69398D02*
X-191645D01*
Y-71566D01*
X-186031D01*
Y-69398D01*
D02*
G37*
G36*
X-179418D02*
X-185031D01*
Y-71566D01*
X-179418D01*
Y-69398D01*
D02*
G37*
G36*
X209159Y-53125D02*
X205159D01*
Y-53225D01*
X200333D01*
Y-59625D01*
X200351D01*
Y-66535D01*
Y-81890D01*
X200444Y-82358D01*
X200710Y-82755D01*
X202927Y-84972D01*
X202892Y-85145D01*
X202979Y-85581D01*
X202519Y-85828D01*
X195090Y-78399D01*
X194693Y-78133D01*
X194224Y-78040D01*
X192630D01*
X192628Y-78039D01*
X192408Y-77540D01*
X192604Y-77247D01*
X192613Y-77205D01*
X188638D01*
X184664D01*
X184672Y-77247D01*
X184979Y-77706D01*
X185022Y-77734D01*
Y-78234D01*
X184979Y-78262D01*
X184672Y-78722D01*
X184565Y-79264D01*
X184672Y-79806D01*
X184971Y-80252D01*
X184956Y-80333D01*
X184809Y-80752D01*
X178884D01*
Y-79225D01*
X177929D01*
Y-77594D01*
X178937D01*
Y-72257D01*
X175203D01*
Y-72025D01*
X173203D01*
Y-72257D01*
X171847D01*
Y-74925D01*
Y-77594D01*
X173203D01*
Y-77925D01*
X175203D01*
Y-77594D01*
X175788D01*
Y-79225D01*
X173659D01*
Y-79125D01*
X169659D01*
Y-79225D01*
X168033D01*
Y-82425D01*
Y-85625D01*
X169659D01*
Y-85925D01*
X173659D01*
Y-85625D01*
X178884D01*
Y-82893D01*
X184809D01*
X184956Y-83313D01*
X184971Y-83393D01*
X184672Y-83840D01*
X184664Y-83882D01*
X188638D01*
X192613D01*
X192604Y-83840D01*
X192297Y-83381D01*
X192255Y-83352D01*
Y-82852D01*
X192297Y-82824D01*
X192604Y-82365D01*
X192712Y-81823D01*
X192604Y-81281D01*
X192408Y-80987D01*
X192628Y-80489D01*
X192630Y-80487D01*
X193718D01*
X201276Y-88046D01*
Y-91666D01*
X199831D01*
Y-94682D01*
X198162Y-96352D01*
X197700Y-96160D01*
Y-95600D01*
X197200D01*
Y-91300D01*
X191800D01*
Y-92527D01*
X189669D01*
Y-91422D01*
X188224D01*
Y-89086D01*
X188953Y-88357D01*
X191296D01*
X191838Y-88249D01*
X192297Y-87942D01*
X192604Y-87483D01*
X192712Y-86941D01*
X192604Y-86399D01*
X192297Y-85940D01*
X192255Y-85911D01*
Y-85411D01*
X192297Y-85383D01*
X192604Y-84924D01*
X192613Y-84882D01*
X188638D01*
X184664D01*
X184672Y-84924D01*
X184979Y-85383D01*
X185022Y-85411D01*
Y-85911D01*
X184979Y-85940D01*
X184672Y-86399D01*
X184565Y-86941D01*
X184672Y-87483D01*
X184979Y-87942D01*
X185439Y-88249D01*
X185827Y-88327D01*
X185776Y-88579D01*
Y-91422D01*
X184332D01*
Y-92527D01*
X182059D01*
Y-91400D01*
X180082D01*
Y-90325D01*
X180229Y-90228D01*
X180649Y-89599D01*
X180796Y-88858D01*
X180649Y-88116D01*
X180229Y-87488D01*
X179600Y-87068D01*
X178859Y-86920D01*
X178118Y-87068D01*
X177489Y-87488D01*
X177069Y-88116D01*
X176922Y-88858D01*
X177069Y-89599D01*
X177489Y-90228D01*
X177635Y-90325D01*
Y-91400D01*
X175659D01*
Y-92527D01*
X172721D01*
X171696Y-91501D01*
Y-88780D01*
X166753D01*
Y-92739D01*
X169474D01*
X171349Y-94615D01*
X171746Y-94880D01*
X172215Y-94973D01*
X175659D01*
Y-96225D01*
X175359D01*
Y-100225D01*
X175659D01*
Y-102251D01*
X178859D01*
X182059D01*
Y-100225D01*
X182159D01*
Y-96225D01*
X182059D01*
Y-94973D01*
X183716D01*
X184000Y-95356D01*
Y-97356D01*
X184332D01*
Y-98512D01*
X187000D01*
X189669D01*
Y-97356D01*
X189900D01*
Y-95356D01*
X190184Y-94973D01*
X191800D01*
Y-95600D01*
X191400D01*
Y-97400D01*
X191800D01*
Y-101700D01*
X197200D01*
Y-100433D01*
X197462Y-100380D01*
X197859Y-100115D01*
X199370Y-98605D01*
X199735Y-98756D01*
X202500D01*
X205169D01*
Y-97400D01*
X205500D01*
Y-95400D01*
X205169D01*
Y-91666D01*
X203724D01*
Y-87539D01*
X203667Y-87254D01*
X204088Y-86934D01*
X204830Y-87082D01*
X205002Y-87047D01*
X205761Y-87806D01*
X206158Y-88071D01*
X206626Y-88164D01*
X207753D01*
X207880Y-88249D01*
X208313Y-88336D01*
X208277Y-88520D01*
Y-91666D01*
X206832D01*
Y-95600D01*
X206500D01*
Y-97600D01*
X206832D01*
Y-98756D01*
X209500D01*
X212169D01*
Y-97600D01*
X212400D01*
Y-95600D01*
X212169D01*
Y-91666D01*
X210723D01*
Y-89027D01*
X211097Y-88653D01*
X215022Y-92577D01*
Y-97294D01*
X219847D01*
Y-97594D01*
X223847D01*
Y-97294D01*
X225873D01*
Y-94094D01*
Y-90895D01*
X223847D01*
Y-90794D01*
X219847D01*
Y-90895D01*
X216799D01*
X214565Y-88660D01*
X214628Y-88016D01*
X214738Y-87942D01*
X215045Y-87483D01*
X215081Y-87302D01*
X215624Y-87137D01*
X215966Y-87479D01*
X216363Y-87745D01*
X216831Y-87838D01*
X219769D01*
Y-89381D01*
X223703D01*
Y-89713D01*
X225703D01*
Y-89381D01*
X229437D01*
Y-84044D01*
X226448D01*
X225498Y-83094D01*
X225705Y-82594D01*
X226615D01*
Y-79925D01*
Y-77257D01*
X225645D01*
X225593Y-77108D01*
X225759Y-76625D01*
X225759D01*
Y-76125D01*
X230059D01*
Y-74649D01*
X231722D01*
Y-75325D01*
X231490D01*
Y-77325D01*
X231722D01*
Y-78681D01*
X234390D01*
X237059D01*
Y-77325D01*
X237390D01*
Y-75655D01*
X237890Y-75447D01*
X239977Y-77534D01*
Y-81832D01*
X239830Y-81930D01*
X239410Y-82559D01*
X239263Y-83300D01*
X239410Y-84041D01*
X239830Y-84670D01*
X240459Y-85090D01*
X241200Y-85237D01*
X241941Y-85090D01*
X242570Y-84670D01*
X242990Y-84041D01*
X243137Y-83300D01*
X242990Y-82559D01*
X242570Y-81930D01*
X242424Y-81832D01*
Y-77027D01*
X242330Y-76559D01*
X242065Y-76162D01*
X238464Y-72560D01*
X238067Y-72295D01*
X237598Y-72202D01*
X237059D01*
Y-71591D01*
X231722D01*
Y-72202D01*
X230059D01*
Y-70725D01*
X226000D01*
X225759Y-70325D01*
Y-70125D01*
X225759D01*
Y-69625D01*
X230059D01*
Y-68149D01*
X231583D01*
Y-69007D01*
X236920D01*
Y-67610D01*
X247607Y-56924D01*
X271293D01*
X275576Y-61207D01*
Y-65766D01*
X275330Y-65930D01*
X274910Y-66559D01*
X274763Y-67300D01*
X274910Y-68041D01*
X275330Y-68670D01*
X275959Y-69090D01*
X276700Y-69237D01*
X277441Y-69090D01*
X278070Y-68670D01*
X278490Y-68041D01*
X278637Y-67300D01*
X278490Y-66559D01*
X278070Y-65930D01*
X278024Y-65899D01*
Y-60700D01*
X277930Y-60232D01*
X277665Y-59835D01*
X272665Y-54835D01*
X272268Y-54570D01*
X271800Y-54476D01*
X247100D01*
X246632Y-54570D01*
X246235Y-54835D01*
X237714Y-63356D01*
X237252Y-63164D01*
Y-63073D01*
X236920D01*
Y-61917D01*
X234252D01*
X231583D01*
Y-63073D01*
X231352D01*
Y-65073D01*
X231583D01*
Y-65702D01*
X230059D01*
Y-64225D01*
X226003D01*
X225879Y-63907D01*
X225959Y-63425D01*
X226322Y-63094D01*
X227115D01*
Y-60425D01*
Y-57757D01*
X225959D01*
Y-57525D01*
X223959D01*
Y-57757D01*
X220025D01*
Y-61832D01*
X215617Y-66240D01*
X215075Y-66075D01*
X215045Y-65926D01*
X214738Y-65467D01*
X214696Y-65439D01*
Y-64939D01*
X214738Y-64911D01*
X215045Y-64451D01*
X215054Y-64410D01*
X211079D01*
X207105D01*
X207113Y-64451D01*
X207420Y-64911D01*
X207463Y-64939D01*
Y-65439D01*
X207420Y-65467D01*
X207113Y-65926D01*
X207105Y-65969D01*
X211079D01*
Y-66969D01*
X207105D01*
X207113Y-67010D01*
X207310Y-67304D01*
X207090Y-67802D01*
X207088Y-67804D01*
X204574D01*
X202798Y-66029D01*
Y-59625D01*
X205159D01*
Y-59925D01*
X209159D01*
Y-59625D01*
X211184D01*
Y-56425D01*
Y-53225D01*
X209159D01*
Y-53125D01*
D02*
G37*
G36*
X-186031Y-66229D02*
X-191645D01*
Y-68398D01*
X-186031D01*
Y-66229D01*
D02*
G37*
G36*
X173122Y-62705D02*
X171544D01*
Y-64873D01*
X173122D01*
Y-62705D01*
D02*
G37*
G36*
X167826Y-62311D02*
X166248D01*
Y-64480D01*
X167826D01*
Y-62311D01*
D02*
G37*
G36*
X-279028Y-61185D02*
Y-64303D01*
X-275909D01*
X-275969Y-63850D01*
X-276337Y-62961D01*
X-276922Y-62198D01*
X-277685Y-61612D01*
X-278574Y-61244D01*
X-279028Y-61185D01*
D02*
G37*
G36*
X-179418Y-66229D02*
X-185031D01*
Y-68398D01*
X-179418D01*
Y-66229D01*
D02*
G37*
G36*
X195276Y-65386D02*
X194534Y-65533D01*
X193906Y-65953D01*
X193486Y-66581D01*
X193338Y-67323D01*
X193386Y-67564D01*
X193041Y-67957D01*
X192468D01*
X192321Y-67537D01*
X192306Y-67457D01*
X192604Y-67010D01*
X192613Y-66969D01*
X188638D01*
X184664D01*
X184672Y-67010D01*
X184979Y-67470D01*
X185022Y-67498D01*
Y-67998D01*
X184979Y-68026D01*
X184672Y-68486D01*
X184565Y-69028D01*
X184672Y-69569D01*
X184979Y-70029D01*
X185022Y-70057D01*
Y-70557D01*
X184979Y-70585D01*
X184672Y-71045D01*
X184565Y-71587D01*
X184672Y-72129D01*
X184881Y-72440D01*
X184683Y-72939D01*
X184341Y-72984D01*
X182467Y-71110D01*
X182472Y-71055D01*
X182892Y-70426D01*
X183040Y-69685D01*
X182892Y-68944D01*
X182472Y-68315D01*
X181844Y-67895D01*
X181102Y-67748D01*
X180361Y-67895D01*
X179733Y-68315D01*
X179313Y-68944D01*
X179165Y-69685D01*
X179313Y-70426D01*
X179733Y-71055D01*
X180032Y-71255D01*
Y-71260D01*
X180113Y-71670D01*
X180345Y-72017D01*
X183231Y-74903D01*
X183231Y-74903D01*
X183579Y-75135D01*
X183988Y-75216D01*
X183988Y-75216D01*
X184809D01*
X184956Y-75636D01*
X184971Y-75716D01*
X184672Y-76163D01*
X184664Y-76205D01*
X188638D01*
X192613D01*
X192604Y-76163D01*
X192297Y-75703D01*
X192255Y-75675D01*
Y-75175D01*
X192297Y-75147D01*
X192604Y-74688D01*
X192712Y-74146D01*
X192604Y-73604D01*
X192306Y-73157D01*
X192321Y-73077D01*
X192468Y-72657D01*
X193460D01*
X193486Y-72789D01*
X193906Y-73417D01*
X194534Y-73837D01*
X195276Y-73984D01*
X196017Y-73837D01*
X196645Y-73417D01*
X197065Y-72789D01*
X197213Y-72047D01*
X197065Y-71306D01*
X196645Y-70677D01*
X196017Y-70258D01*
X195276Y-70110D01*
X194534Y-70258D01*
X194510Y-70274D01*
X194502Y-70270D01*
X194435Y-70083D01*
X194429Y-69683D01*
X194923Y-69190D01*
X195276Y-69260D01*
X196017Y-69113D01*
X196645Y-68693D01*
X197065Y-68064D01*
X197213Y-67323D01*
X197065Y-66581D01*
X196645Y-65953D01*
X196017Y-65533D01*
X195276Y-65386D01*
D02*
G37*
G36*
X192613Y-64410D02*
X188638D01*
X184664D01*
X184672Y-64451D01*
X184979Y-64911D01*
X185022Y-64939D01*
Y-65439D01*
X184979Y-65467D01*
X184672Y-65926D01*
X184664Y-65969D01*
X188638D01*
X192613D01*
X192604Y-65926D01*
X192297Y-65467D01*
X192255Y-65439D01*
Y-64939D01*
X192297Y-64911D01*
X192604Y-64451D01*
X192613Y-64410D01*
D02*
G37*
G36*
X163779Y-43771D02*
X161524D01*
Y-45189D01*
X165598D01*
X165551Y-44955D01*
X165136Y-44333D01*
X164514Y-43917D01*
X163779Y-43771D01*
D02*
G37*
G36*
X180209Y-41189D02*
X176134D01*
X176181Y-41423D01*
X176597Y-42045D01*
X177219Y-42461D01*
X177953Y-42607D01*
X180209D01*
Y-41189D01*
D02*
G37*
G36*
X185283D02*
X181209D01*
Y-42607D01*
X183465D01*
X184198Y-42461D01*
X184821Y-42045D01*
X185237Y-41423D01*
X185283Y-41189D01*
D02*
G37*
G36*
X160524Y-43771D02*
X158268D01*
X157534Y-43917D01*
X156912Y-44333D01*
X156496Y-44955D01*
X156449Y-45189D01*
X160524D01*
Y-43771D01*
D02*
G37*
G36*
Y-46189D02*
X156449D01*
X156496Y-46423D01*
X156912Y-47045D01*
X157534Y-47461D01*
X158268Y-47607D01*
X160524D01*
Y-46189D01*
D02*
G37*
G36*
X165598D02*
X161524D01*
Y-47607D01*
X163779D01*
X164514Y-47461D01*
X165136Y-47045D01*
X165551Y-46423D01*
X165598Y-46189D01*
D02*
G37*
G36*
X-188975Y-42500D02*
X-191175D01*
Y-45200D01*
X-188975D01*
Y-42500D01*
D02*
G37*
G36*
X260984Y-23362D02*
X259689Y-23490D01*
X258444Y-23868D01*
X257297Y-24481D01*
X256291Y-25307D01*
X255465Y-26312D01*
X254852Y-27460D01*
X254474Y-28705D01*
X254347Y-30000D01*
X254474Y-31295D01*
X254852Y-32540D01*
X255465Y-33688D01*
X256291Y-34693D01*
X257297Y-35519D01*
X258444Y-36132D01*
X259689Y-36510D01*
X260984Y-36637D01*
X262279Y-36510D01*
X263524Y-36132D01*
X264672Y-35519D01*
X265678Y-34693D01*
X266503Y-33688D01*
X267116Y-32540D01*
X267494Y-31295D01*
X267622Y-30000D01*
X267494Y-28705D01*
X267116Y-27460D01*
X266503Y-26312D01*
X265678Y-25307D01*
X264672Y-24481D01*
X263524Y-23868D01*
X262279Y-23490D01*
X260984Y-23362D01*
D02*
G37*
G36*
X230957Y-33453D02*
X228591D01*
Y-35621D01*
X230957D01*
Y-33453D01*
D02*
G37*
G36*
X234322D02*
X231957D01*
Y-35621D01*
X234322D01*
Y-33453D01*
D02*
G37*
G36*
X183465Y-38771D02*
X181209D01*
Y-40189D01*
X185283D01*
X185237Y-39955D01*
X184821Y-39333D01*
X184198Y-38917D01*
X183465Y-38771D01*
D02*
G37*
G36*
X-188975Y-38800D02*
X-191175D01*
Y-41500D01*
X-188975D01*
Y-38800D01*
D02*
G37*
G36*
X-201181Y-33496D02*
X-201922Y-33643D01*
X-202551Y-34063D01*
X-202971Y-34692D01*
X-203118Y-35433D01*
X-202971Y-36174D01*
X-202914Y-36259D01*
Y-38800D01*
X-203025D01*
Y-41180D01*
X-239370D01*
X-239370Y-41180D01*
X-240033Y-41312D01*
X-240596Y-41688D01*
X-240596Y-41688D01*
X-242958Y-44050D01*
X-243334Y-44612D01*
X-243466Y-45276D01*
Y-55080D01*
X-243522Y-55164D01*
X-243670Y-55905D01*
X-243522Y-56647D01*
X-243102Y-57275D01*
X-242474Y-57695D01*
X-241732Y-57843D01*
X-240991Y-57695D01*
X-240363Y-57275D01*
X-239943Y-56647D01*
X-239795Y-55905D01*
X-239943Y-55164D01*
X-239999Y-55080D01*
Y-45994D01*
X-238652Y-44647D01*
X-203025D01*
Y-45200D01*
X-197800D01*
Y-45300D01*
X-193800D01*
Y-45200D01*
X-192175D01*
Y-42000D01*
Y-38800D01*
X-193800D01*
Y-38500D01*
X-197800D01*
Y-38800D01*
X-199448D01*
Y-36259D01*
X-199391Y-36174D01*
X-199244Y-35433D01*
X-199391Y-34692D01*
X-199811Y-34063D01*
X-200440Y-33643D01*
X-201181Y-33496D01*
D02*
G37*
G36*
X180209Y-38771D02*
X177953D01*
X177219Y-38917D01*
X176597Y-39333D01*
X176181Y-39955D01*
X176134Y-40189D01*
X180209D01*
Y-38771D01*
D02*
G37*
G36*
X-217994Y-46763D02*
X-218736Y-46910D01*
X-219364Y-47330D01*
X-219564Y-47629D01*
X-224225D01*
X-224425Y-47330D01*
X-225053Y-46910D01*
X-225795Y-46763D01*
X-226536Y-46910D01*
X-227164Y-47330D01*
X-227584Y-47959D01*
X-227732Y-48700D01*
X-227584Y-49441D01*
X-227164Y-50070D01*
X-226536Y-50490D01*
X-225795Y-50637D01*
X-225053Y-50490D01*
X-224425Y-50070D01*
X-224225Y-49771D01*
X-219564D01*
X-219364Y-50070D01*
X-218736Y-50490D01*
X-217994Y-50637D01*
X-217253Y-50490D01*
X-216625Y-50070D01*
X-216205Y-49441D01*
X-216057Y-48700D01*
X-216205Y-47959D01*
X-216625Y-47330D01*
X-217253Y-46910D01*
X-217994Y-46763D01*
D02*
G37*
G36*
X214384Y-56925D02*
X212184D01*
Y-59625D01*
X214384D01*
Y-56925D01*
D02*
G37*
G36*
X-233395Y-53563D02*
X-234136Y-53710D01*
X-234764Y-54130D01*
X-235184Y-54759D01*
X-235332Y-55500D01*
X-235184Y-56241D01*
X-234764Y-56870D01*
X-234136Y-57290D01*
X-233395Y-57437D01*
X-233042Y-57367D01*
X-232565Y-57844D01*
X-232565Y-57844D01*
X-232218Y-58076D01*
X-231808Y-58157D01*
X-231808Y-58157D01*
X-221649D01*
X-221449Y-58456D01*
X-220820Y-58876D01*
X-220079Y-59024D01*
X-219337Y-58876D01*
X-218709Y-58456D01*
X-218289Y-57828D01*
X-218142Y-57087D01*
X-218289Y-56345D01*
X-218709Y-55717D01*
X-219337Y-55297D01*
X-220079Y-55149D01*
X-220820Y-55297D01*
X-221449Y-55717D01*
X-221649Y-56016D01*
X-231081D01*
X-231469Y-55559D01*
X-231457Y-55500D01*
X-231605Y-54759D01*
X-232025Y-54130D01*
X-232653Y-53710D01*
X-233395Y-53563D01*
D02*
G37*
G36*
X214384Y-53225D02*
X212184D01*
Y-55925D01*
X214384D01*
Y-53225D01*
D02*
G37*
G36*
X229693Y-57757D02*
X228115D01*
Y-59925D01*
X229693D01*
Y-57757D01*
D02*
G37*
G36*
X167826Y-59143D02*
X166248D01*
Y-61311D01*
X167826D01*
Y-59143D01*
D02*
G37*
G36*
X233752Y-59339D02*
X231583D01*
Y-60917D01*
X233752D01*
Y-59339D01*
D02*
G37*
G36*
X236920D02*
X234752D01*
Y-60917D01*
X236920D01*
Y-59339D01*
D02*
G37*
G36*
X163779Y-38771D02*
X158268D01*
X157534Y-38917D01*
X156912Y-39333D01*
X156496Y-39955D01*
X156350Y-40689D01*
X156496Y-41423D01*
X156912Y-42045D01*
X157534Y-42461D01*
X158268Y-42607D01*
X163779D01*
X164514Y-42461D01*
X165125Y-42052D01*
X166601Y-43528D01*
X166567Y-43701D01*
X166714Y-44442D01*
X167134Y-45071D01*
X167280Y-45168D01*
Y-51062D01*
X167105Y-51237D01*
X164286D01*
Y-50737D01*
X162486D01*
Y-51237D01*
X158186D01*
Y-56637D01*
X159412D01*
Y-59143D01*
X158158D01*
Y-64480D01*
X161892D01*
Y-64711D01*
X163892D01*
Y-64480D01*
X165248D01*
Y-61811D01*
Y-59143D01*
X163892D01*
Y-58811D01*
X161892D01*
X161859Y-58325D01*
Y-56637D01*
X162486D01*
Y-57037D01*
X164286D01*
Y-56637D01*
X168586D01*
Y-53217D01*
X169369Y-52434D01*
X169634Y-52037D01*
X169727Y-51569D01*
Y-45168D01*
X169874Y-45071D01*
X170294Y-44442D01*
X170441Y-43701D01*
X170294Y-42959D01*
X169874Y-42331D01*
X169245Y-41911D01*
X168504Y-41764D01*
X168331Y-41798D01*
X166357Y-39824D01*
X165960Y-39559D01*
X165492Y-39465D01*
X165224D01*
X165136Y-39333D01*
X164514Y-38917D01*
X163779Y-38771D01*
D02*
G37*
G36*
X88189Y-42157D02*
X87448Y-42305D01*
X86819Y-42725D01*
X86399Y-43353D01*
X86252Y-44094D01*
X86399Y-44836D01*
X86819Y-45464D01*
X87448Y-45884D01*
X88189Y-46032D01*
X88930Y-45884D01*
X89559Y-45464D01*
X89588Y-45420D01*
X94661D01*
X94978Y-45816D01*
X94790Y-46270D01*
X94661Y-47244D01*
X94790Y-48218D01*
X95166Y-49126D01*
X95764Y-49905D01*
X96543Y-50503D01*
X97451Y-50880D01*
X98425Y-51008D01*
X99399Y-50880D01*
X100307Y-50503D01*
X101086Y-49905D01*
X101685Y-49126D01*
X102061Y-48218D01*
X102189Y-47244D01*
X102061Y-46270D01*
X101685Y-45362D01*
X101086Y-44583D01*
X100307Y-43985D01*
X99399Y-43609D01*
X98425Y-43480D01*
X97451Y-43609D01*
X96895Y-43839D01*
X96213Y-43157D01*
X95783Y-42870D01*
X95276Y-42769D01*
X89588D01*
X89559Y-42725D01*
X88930Y-42305D01*
X88189Y-42157D01*
D02*
G37*
G36*
X-62489Y-48119D02*
X-64067D01*
Y-50287D01*
X-62489D01*
Y-48119D01*
D02*
G37*
G36*
Y-51287D02*
X-64067D01*
Y-53456D01*
X-62489D01*
Y-51287D01*
D02*
G37*
G36*
X-202056Y-50481D02*
X-214283D01*
Y-55818D01*
X-202056D01*
Y-50481D01*
D02*
G37*
G36*
X149894Y-53650D02*
X147725D01*
Y-55228D01*
X149894D01*
Y-53650D01*
D02*
G37*
G36*
X153062D02*
X150894D01*
Y-55228D01*
X153062D01*
Y-53650D01*
D02*
G37*
G36*
X-202056Y-66229D02*
X-214283D01*
Y-71566D01*
X-202056D01*
Y-66229D01*
D02*
G37*
G36*
X209000Y-99756D02*
X206832D01*
Y-101334D01*
X209000D01*
Y-99756D01*
D02*
G37*
G36*
X212169D02*
X210000D01*
Y-101334D01*
X212169D01*
Y-99756D01*
D02*
G37*
G36*
X186500Y-99512D02*
X184332D01*
Y-101090D01*
X186500D01*
Y-99512D01*
D02*
G37*
G36*
X171696Y-96261D02*
X166753D01*
Y-100220D01*
X167533D01*
Y-102831D01*
X166900D01*
Y-102500D01*
X164900D01*
Y-102831D01*
X163744D01*
Y-105500D01*
Y-108168D01*
X164900D01*
Y-108400D01*
X166900D01*
Y-108168D01*
X170834D01*
Y-102831D01*
X169980D01*
Y-100220D01*
X171696D01*
Y-96261D01*
D02*
G37*
G36*
X202000Y-99756D02*
X199831D01*
Y-101334D01*
X202000D01*
Y-99756D01*
D02*
G37*
G36*
X205169D02*
X203000D01*
Y-101334D01*
X205169D01*
Y-99756D01*
D02*
G37*
G36*
X189669Y-99512D02*
X187500D01*
Y-101090D01*
X189669D01*
Y-99512D01*
D02*
G37*
G36*
X-6977Y-93579D02*
X-9146D01*
Y-95944D01*
X-6977D01*
Y-93579D01*
D02*
G37*
G36*
X9146D02*
X6977D01*
Y-95944D01*
X9146D01*
Y-93579D01*
D02*
G37*
G36*
X12314D02*
X10146D01*
Y-95944D01*
X12314D01*
Y-93579D01*
D02*
G37*
G36*
X229073Y-94594D02*
X226873D01*
Y-97294D01*
X229073D01*
Y-94594D01*
D02*
G37*
G36*
X137795Y-89506D02*
X136893Y-89625D01*
X136052Y-89973D01*
X135330Y-90527D01*
X134777Y-91249D01*
X134428Y-92090D01*
X134310Y-92992D01*
X134428Y-93894D01*
X134777Y-94735D01*
X135330Y-95457D01*
X136052Y-96011D01*
X136893Y-96359D01*
X137795Y-96478D01*
X138698Y-96359D01*
X139538Y-96011D01*
X140260Y-95457D01*
X140814Y-94735D01*
X141162Y-93894D01*
X141281Y-92992D01*
X141162Y-92090D01*
X140814Y-91249D01*
X140260Y-90527D01*
X139538Y-89973D01*
X138698Y-89625D01*
X137795Y-89506D01*
D02*
G37*
G36*
X-10146Y-93579D02*
X-12314D01*
Y-95944D01*
X-10146D01*
Y-93579D01*
D02*
G37*
G36*
X-10520Y-98875D02*
X-13673D01*
Y-103012D01*
X-10520D01*
Y-98875D01*
D02*
G37*
G36*
X13673Y-104012D02*
X10520D01*
Y-108149D01*
X13673D01*
Y-104012D01*
D02*
G37*
G36*
X17826D02*
X14673D01*
Y-108149D01*
X17826D01*
Y-104012D01*
D02*
G37*
G36*
X55062Y-104831D02*
X52862D01*
Y-107531D01*
X55062D01*
Y-104831D01*
D02*
G37*
G36*
X162744Y-106000D02*
X161166D01*
Y-108168D01*
X162744D01*
Y-106000D01*
D02*
G37*
G36*
X-14673Y-104012D02*
X-17826D01*
Y-108149D01*
X-14673D01*
Y-104012D01*
D02*
G37*
G36*
X-10520D02*
X-13673D01*
Y-108149D01*
X-10520D01*
Y-104012D01*
D02*
G37*
G36*
X178359Y-103251D02*
X175659D01*
Y-105451D01*
X178359D01*
Y-103251D01*
D02*
G37*
G36*
X-14673Y-98875D02*
X-17826D01*
Y-103012D01*
X-14673D01*
Y-98875D01*
D02*
G37*
G36*
X13673D02*
X10520D01*
Y-103012D01*
X13673D01*
Y-98875D01*
D02*
G37*
G36*
X17826D02*
X14673D01*
Y-103012D01*
X17826D01*
Y-98875D01*
D02*
G37*
G36*
X182059Y-103251D02*
X179359D01*
Y-105451D01*
X182059D01*
Y-103251D01*
D02*
G37*
G36*
X162744Y-102831D02*
X161166D01*
Y-105000D01*
X162744D01*
Y-102831D01*
D02*
G37*
G36*
X-179418Y-97725D02*
X-191645D01*
Y-103062D01*
X-179418D01*
Y-97725D01*
D02*
G37*
G36*
X-231400Y-93000D02*
X-233350D01*
Y-95200D01*
X-231400D01*
Y-93000D01*
D02*
G37*
G36*
X233890Y-79681D02*
X231722D01*
Y-81259D01*
X233890D01*
Y-79681D01*
D02*
G37*
G36*
X237059D02*
X234890D01*
Y-81259D01*
X237059D01*
Y-79681D01*
D02*
G37*
G36*
X229193Y-77257D02*
X227615D01*
Y-79425D01*
X229193D01*
Y-77257D01*
D02*
G37*
G36*
X-202056Y-81977D02*
X-207669D01*
Y-84146D01*
X-202056D01*
Y-81977D01*
D02*
G37*
G36*
X-229834Y-80421D02*
X-231784D01*
Y-82621D01*
X-229834D01*
Y-80421D01*
D02*
G37*
G36*
X229193Y-80425D02*
X227615D01*
Y-82594D01*
X229193D01*
Y-80425D01*
D02*
G37*
G36*
X170847Y-75425D02*
X169269D01*
Y-77594D01*
X170847D01*
Y-75425D01*
D02*
G37*
G36*
X-236009Y-71240D02*
X-237882D01*
Y-72621D01*
X-236009D01*
Y-71240D01*
D02*
G37*
G36*
X-260150Y-70666D02*
X-262318D01*
Y-72244D01*
X-260150D01*
Y-70666D01*
D02*
G37*
G36*
X-256981D02*
X-259150D01*
Y-72244D01*
X-256981D01*
Y-70666D01*
D02*
G37*
G36*
X170847Y-72257D02*
X169269D01*
Y-74425D01*
X170847D01*
Y-72257D01*
D02*
G37*
G36*
X156000Y-71475D02*
X153300D01*
Y-73675D01*
X156000D01*
Y-71475D01*
D02*
G37*
G36*
X-238882Y-71240D02*
X-240755D01*
Y-72621D01*
X-238882D01*
Y-71240D01*
D02*
G37*
G36*
X-208669Y-81977D02*
X-214283D01*
Y-84146D01*
X-208669D01*
Y-81977D01*
D02*
G37*
G36*
X-6977Y-90213D02*
X-9146D01*
Y-92579D01*
X-6977D01*
Y-90213D01*
D02*
G37*
G36*
X12314D02*
X10146D01*
Y-92579D01*
X12314D01*
Y-90213D01*
D02*
G37*
G36*
X-241150Y-89975D02*
X-243850D01*
Y-92175D01*
X-241150D01*
Y-89975D01*
D02*
G37*
G36*
X229073Y-90895D02*
X226873D01*
Y-93594D01*
X229073D01*
Y-90895D01*
D02*
G37*
G36*
X9146Y-90213D02*
X6977D01*
Y-92579D01*
X9146D01*
Y-90213D01*
D02*
G37*
G36*
X-10146D02*
X-12314D01*
Y-92579D01*
X-10146D01*
Y-90213D01*
D02*
G37*
G36*
X-237450Y-89975D02*
X-240150D01*
Y-92175D01*
X-237450D01*
Y-89975D01*
D02*
G37*
G36*
X-179418Y-81977D02*
X-191645D01*
Y-87314D01*
X-179418D01*
Y-81977D01*
D02*
G37*
G36*
X-269150Y-82475D02*
X-271850D01*
Y-84675D01*
X-269150D01*
Y-82475D01*
D02*
G37*
G36*
X-265450D02*
X-268150D01*
Y-84675D01*
X-265450D01*
Y-82475D01*
D02*
G37*
G36*
X-231400Y-89800D02*
X-233350D01*
Y-92000D01*
X-231400D01*
Y-89800D01*
D02*
G37*
G36*
X-208669Y-85146D02*
X-214283D01*
Y-87314D01*
X-208669D01*
Y-85146D01*
D02*
G37*
G36*
X-202056D02*
X-207669D01*
Y-87314D01*
X-202056D01*
Y-85146D01*
D02*
G37*
G36*
X-93395Y38876D02*
X-95563D01*
Y37298D01*
X-93395D01*
Y38876D01*
D02*
G37*
G36*
X182244Y55378D02*
X180949Y55250D01*
X179704Y54872D01*
X178557Y54259D01*
X177551Y53434D01*
X176725Y52428D01*
X176112Y51280D01*
X175734Y50035D01*
X175607Y48740D01*
X175734Y47445D01*
X176112Y46200D01*
X176725Y45053D01*
X177551Y44047D01*
X178557Y43221D01*
X179704Y42608D01*
X180949Y42230D01*
X182244Y42103D01*
X183539Y42230D01*
X184784Y42608D01*
X185932Y43221D01*
X186937Y44047D01*
X187763Y45053D01*
X188376Y46200D01*
X188754Y47445D01*
X188882Y48740D01*
X188754Y50035D01*
X188376Y51280D01*
X187763Y52428D01*
X186937Y53434D01*
X185932Y54259D01*
X184784Y54872D01*
X183539Y55250D01*
X182244Y55378D01*
D02*
G37*
G36*
X-231957Y47256D02*
X-234322D01*
Y45087D01*
X-231957D01*
Y47256D01*
D02*
G37*
G36*
X-111130Y38882D02*
X-113330D01*
Y36932D01*
X-111130D01*
Y38882D01*
D02*
G37*
G36*
X-107930D02*
X-110130D01*
Y36932D01*
X-107930D01*
Y38882D01*
D02*
G37*
G36*
X-96563Y38876D02*
X-98731D01*
Y37298D01*
X-96563D01*
Y38876D01*
D02*
G37*
G36*
X-228591Y47256D02*
X-230957D01*
Y45087D01*
X-228591D01*
Y47256D01*
D02*
G37*
G36*
X211272Y51193D02*
X208906D01*
Y49024D01*
X211272D01*
Y51193D01*
D02*
G37*
G36*
X214637D02*
X212272D01*
Y49024D01*
X214637D01*
Y51193D01*
D02*
G37*
G36*
X-56012Y51081D02*
X-58212D01*
Y49131D01*
X-56012D01*
Y51081D01*
D02*
G37*
G36*
X-207677Y52763D02*
X-207835D01*
X-208244Y52682D01*
X-208592Y52450D01*
X-210617Y50424D01*
X-214637D01*
Y45087D01*
X-208906D01*
Y49107D01*
X-207391Y50622D01*
X-174184D01*
X-171552Y47991D01*
X-171622Y47638D01*
X-171475Y46896D01*
X-171055Y46268D01*
X-170426Y45848D01*
X-169685Y45701D01*
X-168944Y45848D01*
X-168315Y46268D01*
X-167895Y46896D01*
X-167748Y47638D01*
X-167895Y48379D01*
X-168315Y49008D01*
X-168944Y49428D01*
X-169685Y49575D01*
X-170038Y49505D01*
X-172983Y52450D01*
X-173330Y52682D01*
X-173740Y52763D01*
X-207677D01*
X-207677Y52763D01*
D02*
G37*
G36*
X-231957Y50424D02*
X-234322D01*
Y48256D01*
X-231957D01*
Y50424D01*
D02*
G37*
G36*
X-228591D02*
X-230957D01*
Y48256D01*
X-228591D01*
Y50424D01*
D02*
G37*
G36*
X-26465Y38476D02*
X-28634D01*
Y36898D01*
X-26465D01*
Y38476D01*
D02*
G37*
G36*
X-86228Y34146D02*
X-89578D01*
Y30698D01*
X-86228D01*
Y34146D01*
D02*
G37*
G36*
X-81879D02*
X-85228D01*
Y30698D01*
X-81879D01*
Y34146D01*
D02*
G37*
G36*
X-86228Y38594D02*
X-89578D01*
Y35146D01*
X-86228D01*
Y38594D01*
D02*
G37*
G36*
X-136505Y25306D02*
X-139657D01*
Y22744D01*
X-136505D01*
Y25306D01*
D02*
G37*
G36*
X214637Y30739D02*
X208906D01*
Y25402D01*
X214637D01*
Y30739D01*
D02*
G37*
G36*
X234322D02*
X228591D01*
Y25402D01*
X234322D01*
Y30739D01*
D02*
G37*
G36*
X-81879Y38594D02*
X-85228D01*
Y35146D01*
X-81879D01*
Y38594D01*
D02*
G37*
G36*
X-44251Y38601D02*
X-46451D01*
Y36651D01*
X-44251D01*
Y38601D01*
D02*
G37*
G36*
X-41051D02*
X-43251D01*
Y36651D01*
X-41051D01*
Y38601D01*
D02*
G37*
G36*
X-29634Y38476D02*
X-31802D01*
Y36898D01*
X-29634D01*
Y38476D01*
D02*
G37*
G36*
X-18905Y38594D02*
X-22255D01*
Y35146D01*
X-18905D01*
Y38594D01*
D02*
G37*
G36*
X-14556D02*
X-17906D01*
Y35146D01*
X-14556D01*
Y38594D01*
D02*
G37*
G36*
X-188150Y49472D02*
X-189444Y49345D01*
X-190690Y48967D01*
X-191837Y48353D01*
X-192843Y47528D01*
X-193668Y46522D01*
X-194282Y45375D01*
X-194659Y44130D01*
X-194787Y42835D01*
X-194659Y41540D01*
X-194282Y40295D01*
X-193668Y39147D01*
X-192843Y38141D01*
X-191837Y37316D01*
X-190690Y36702D01*
X-189444Y36325D01*
X-188150Y36197D01*
X-186855Y36325D01*
X-185609Y36702D01*
X-184462Y37316D01*
X-183456Y38141D01*
X-182631Y39147D01*
X-182017Y40295D01*
X-181640Y41540D01*
X-181512Y42835D01*
X-181640Y44130D01*
X-182017Y45375D01*
X-182631Y46522D01*
X-183456Y47528D01*
X-184462Y48353D01*
X-185609Y48967D01*
X-186855Y49345D01*
X-188150Y49472D01*
D02*
G37*
G36*
X-52812Y51081D02*
X-55012D01*
Y49131D01*
X-52812D01*
Y51081D01*
D02*
G37*
G36*
X-221957Y88177D02*
X-225075D01*
X-225015Y87724D01*
X-224647Y86835D01*
X-224062Y86072D01*
X-223299Y85487D01*
X-222410Y85118D01*
X-221957Y85059D01*
Y88177D01*
D02*
G37*
G36*
X-217838D02*
X-220957D01*
Y85059D01*
X-220503Y85118D01*
X-219615Y85487D01*
X-218851Y86072D01*
X-218266Y86835D01*
X-217898Y87724D01*
X-217838Y88177D01*
D02*
G37*
G36*
X220957D02*
X217838D01*
X217898Y87724D01*
X218266Y86835D01*
X218851Y86072D01*
X219615Y85487D01*
X220503Y85118D01*
X220957Y85059D01*
Y88177D01*
D02*
G37*
G36*
X226378Y83512D02*
X225167Y83352D01*
X224039Y82885D01*
X223071Y82142D01*
X222327Y81173D01*
X221860Y80045D01*
X221701Y78835D01*
X221860Y77624D01*
X222327Y76496D01*
X223071Y75528D01*
X224039Y74784D01*
X225167Y74317D01*
X226378Y74158D01*
X227588Y74317D01*
X228716Y74784D01*
X229685Y75528D01*
X230428Y76496D01*
X230896Y77624D01*
X231055Y78835D01*
X230896Y80045D01*
X230428Y81173D01*
X229685Y82142D01*
X228716Y82885D01*
X227588Y83352D01*
X226378Y83512D01*
D02*
G37*
G36*
X-149606Y83722D02*
X-150508Y83603D01*
X-151349Y83255D01*
X-152071Y82701D01*
X-152625Y81979D01*
X-152973Y81138D01*
X-153092Y80236D01*
X-152973Y79334D01*
X-152625Y78493D01*
X-152071Y77771D01*
X-151349Y77218D01*
X-150508Y76869D01*
X-149606Y76750D01*
X-148704Y76869D01*
X-147863Y77218D01*
X-147142Y77771D01*
X-146588Y78493D01*
X-146239Y79334D01*
X-146121Y80236D01*
X-146239Y81138D01*
X-146588Y81979D01*
X-147142Y82701D01*
X-147863Y83255D01*
X-148704Y83603D01*
X-149606Y83722D01*
D02*
G37*
G36*
X-203740Y92361D02*
X-204694Y92236D01*
X-205582Y91868D01*
X-206345Y91282D01*
X-206931Y90519D01*
X-207299Y89631D01*
X-207424Y88677D01*
X-207299Y87724D01*
X-206931Y86835D01*
X-206345Y86072D01*
X-205582Y85487D01*
X-204694Y85118D01*
X-203740Y84993D01*
X-202787Y85118D01*
X-201898Y85487D01*
X-201135Y86072D01*
X-200550Y86835D01*
X-200181Y87724D01*
X-200056Y88677D01*
X-200181Y89631D01*
X-200550Y90519D01*
X-201135Y91282D01*
X-201898Y91868D01*
X-202787Y92236D01*
X-203740Y92361D01*
D02*
G37*
G36*
X225075Y88177D02*
X221957D01*
Y85059D01*
X222410Y85118D01*
X223299Y85487D01*
X224062Y86072D01*
X224647Y86835D01*
X225015Y87724D01*
X225075Y88177D01*
D02*
G37*
G36*
X220957Y92296D02*
X220503Y92236D01*
X219615Y91868D01*
X218851Y91282D01*
X218266Y90519D01*
X217898Y89631D01*
X217838Y89177D01*
X220957D01*
Y92296D01*
D02*
G37*
G36*
X221957D02*
Y89177D01*
X225075D01*
X225015Y89631D01*
X224647Y90519D01*
X224062Y91282D01*
X223299Y91868D01*
X222410Y92236D01*
X221957Y92296D01*
D02*
G37*
G36*
X203740Y92361D02*
X202787Y92236D01*
X201898Y91868D01*
X201135Y91282D01*
X200550Y90519D01*
X200191Y89653D01*
X198819D01*
X198819Y89653D01*
X198409Y89572D01*
X198062Y89340D01*
X148375Y39653D01*
X29134D01*
X28724Y39572D01*
X28377Y39340D01*
X10267Y21229D01*
X10232Y21178D01*
X9732Y21329D01*
Y22052D01*
X10031Y22252D01*
X10451Y22881D01*
X10599Y23622D01*
X10451Y24363D01*
X10031Y24992D01*
X9403Y25412D01*
X8661Y25559D01*
X7920Y25412D01*
X7292Y24992D01*
X7140Y24765D01*
X6640D01*
X6488Y24992D01*
X5859Y25412D01*
X5118Y25559D01*
X4377Y25412D01*
X3748Y24992D01*
X3338D01*
X2710Y25412D01*
X1969Y25559D01*
X1227Y25412D01*
X599Y24992D01*
X179Y24363D01*
X31Y23622D01*
X179Y22881D01*
X504Y22394D01*
Y8263D01*
X205Y8063D01*
X-215Y7434D01*
X-362Y6693D01*
X-215Y5952D01*
X205Y5323D01*
X833Y4903D01*
X1575Y4756D01*
X2316Y4903D01*
X2945Y5323D01*
X3365Y5952D01*
X3512Y6693D01*
X3430Y7102D01*
X3856Y7528D01*
X3937Y7512D01*
X4678Y7659D01*
X5307Y8079D01*
X5727Y8708D01*
X5874Y9449D01*
X5727Y10190D01*
X5307Y10819D01*
X5008Y11019D01*
Y21594D01*
X5118Y21685D01*
X5859Y21832D01*
X6488Y22252D01*
X6640Y22479D01*
X7140D01*
X7292Y22252D01*
X7591Y22052D01*
Y8263D01*
X7292Y8063D01*
X6872Y7434D01*
X6724Y6693D01*
X6872Y5952D01*
X7292Y5323D01*
X7920Y4903D01*
X8661Y4756D01*
X9403Y4903D01*
X10031Y5323D01*
X10451Y5952D01*
X10599Y6693D01*
X10517Y7102D01*
X10942Y7528D01*
X11024Y7512D01*
X11765Y7659D01*
X12393Y8079D01*
X12813Y8708D01*
X12961Y9449D01*
X12813Y10190D01*
X12393Y10819D01*
X12094Y11019D01*
Y20029D01*
X13934Y21869D01*
X14066Y21808D01*
X14346Y21574D01*
X14284Y21260D01*
Y7921D01*
X13958Y7434D01*
X13811Y6693D01*
X13958Y5952D01*
X14378Y5323D01*
X15007Y4903D01*
X15748Y4756D01*
X16489Y4903D01*
X17118Y5323D01*
X17538Y5952D01*
X17685Y6693D01*
X17604Y7102D01*
X18029Y7528D01*
X18110Y7512D01*
X18852Y7659D01*
X19480Y8079D01*
X19900Y8708D01*
X20048Y9449D01*
X19900Y10190D01*
X19480Y10819D01*
X19181Y11019D01*
Y20029D01*
X21278Y22126D01*
X21406Y22105D01*
X21764Y21905D01*
Y8263D01*
X21465Y8063D01*
X21045Y7434D01*
X20897Y6693D01*
X21045Y5952D01*
X21465Y5323D01*
X22093Y4903D01*
X22835Y4756D01*
X23576Y4903D01*
X24205Y5323D01*
X24624Y5952D01*
X24772Y6693D01*
X24690Y7102D01*
X25116Y7528D01*
X25197Y7512D01*
X25938Y7659D01*
X26567Y8079D01*
X26987Y8708D01*
X27134Y9449D01*
X26987Y10190D01*
X26567Y10819D01*
X26267Y11019D01*
Y20816D01*
X35089Y29638D01*
X78890D01*
X79059Y29138D01*
X78441Y28664D01*
X77843Y27884D01*
X77507Y27073D01*
X38601D01*
X38191Y26992D01*
X37844Y26759D01*
X29164Y18080D01*
X28932Y17732D01*
X28851Y17323D01*
Y8263D01*
X28551Y8063D01*
X28131Y7434D01*
X27984Y6693D01*
X28131Y5952D01*
X28551Y5323D01*
X29180Y4903D01*
X29921Y4756D01*
X30663Y4903D01*
X31291Y5323D01*
X31711Y5952D01*
X31859Y6693D01*
X31777Y7102D01*
X32202Y7528D01*
X32283Y7512D01*
X33025Y7659D01*
X33653Y8079D01*
X34073Y8708D01*
X34221Y9449D01*
X34073Y10190D01*
X33653Y10819D01*
X33354Y11019D01*
Y17262D01*
X39624Y23532D01*
X72986D01*
X77409Y19108D01*
X77073Y18297D01*
X76945Y17323D01*
X77073Y16349D01*
X77449Y15441D01*
X78047Y14661D01*
X78827Y14063D01*
X79735Y13687D01*
X80709Y13559D01*
X81683Y13687D01*
X82591Y14063D01*
X83370Y14661D01*
X83968Y15441D01*
X84344Y16349D01*
X84472Y17323D01*
X84344Y18297D01*
X83968Y19205D01*
X83370Y19984D01*
X82591Y20582D01*
X81683Y20958D01*
X80709Y21087D01*
X79735Y20958D01*
X78923Y20622D01*
X75076Y24470D01*
X75267Y24932D01*
X77507D01*
X77843Y24121D01*
X78441Y23341D01*
X79220Y22743D01*
X80128Y22367D01*
X81102Y22239D01*
X82077Y22367D01*
X82984Y22743D01*
X83764Y23341D01*
X84362Y24121D01*
X84738Y25028D01*
X84866Y26002D01*
X84738Y26976D01*
X84362Y27884D01*
X83764Y28664D01*
X83145Y29138D01*
X83315Y29638D01*
X170029D01*
X177127Y22540D01*
X176936Y22078D01*
X176623D01*
Y16347D01*
X181960D01*
Y22078D01*
X180559D01*
X180442Y22253D01*
X180442Y22253D01*
X171944Y30751D01*
X172135Y31213D01*
X196801D01*
X205436Y22578D01*
X205228Y22078D01*
X200245D01*
Y16347D01*
X205582D01*
Y21222D01*
X206082Y21490D01*
X206173Y21428D01*
Y-28425D01*
X206255Y-28835D01*
X206487Y-29182D01*
X208906Y-31601D01*
Y-35621D01*
X214637D01*
Y-30284D01*
X210617D01*
X208315Y-27982D01*
Y21025D01*
X208777Y21217D01*
X236656Y-6662D01*
X237003Y-6895D01*
X237413Y-6976D01*
X237413Y-6976D01*
X258504D01*
X258914Y-6895D01*
X259261Y-6662D01*
X262586Y-3338D01*
X266605D01*
Y2393D01*
X261268D01*
Y-1627D01*
X258061Y-4835D01*
X237856D01*
X198581Y34440D01*
X198234Y34672D01*
X197824Y34754D01*
X190071D01*
X189880Y35216D01*
X208444Y53781D01*
X208906Y53589D01*
Y52193D01*
X211272D01*
Y54361D01*
X209678D01*
X209487Y54823D01*
X212569Y57906D01*
X229399D01*
X230386Y56919D01*
Y54361D01*
X228591D01*
Y49024D01*
X234322D01*
Y54361D01*
X232527D01*
Y57362D01*
X232446Y57772D01*
X232214Y58119D01*
X230599Y59733D01*
X230252Y59965D01*
X229842Y60047D01*
X212126D01*
X211716Y59965D01*
X211369Y59733D01*
X187790Y36154D01*
X29178D01*
X29178Y36154D01*
X28864Y36092D01*
X28630Y36372D01*
X28569Y36504D01*
X29577Y37512D01*
X148819D01*
X149229Y37594D01*
X149576Y37826D01*
X199262Y87512D01*
X200269D01*
X200550Y86835D01*
X201135Y86072D01*
X201898Y85487D01*
X202787Y85118D01*
X203740Y84993D01*
X204694Y85118D01*
X205582Y85487D01*
X206345Y86072D01*
X206931Y86835D01*
X207299Y87724D01*
X207424Y88677D01*
X207299Y89631D01*
X206931Y90519D01*
X206345Y91282D01*
X205582Y91868D01*
X204694Y92236D01*
X203740Y92361D01*
D02*
G37*
G36*
X137795Y95533D02*
X136893Y95414D01*
X136052Y95066D01*
X135330Y94512D01*
X134777Y93790D01*
X134428Y92949D01*
X134310Y92047D01*
X134428Y91145D01*
X134777Y90304D01*
X135330Y89583D01*
X136052Y89029D01*
X136893Y88680D01*
X137795Y88561D01*
X138698Y88680D01*
X139538Y89029D01*
X140260Y89583D01*
X140814Y90304D01*
X141162Y91145D01*
X141281Y92047D01*
X141162Y92949D01*
X140814Y93790D01*
X140260Y94512D01*
X139538Y95066D01*
X138698Y95414D01*
X137795Y95533D01*
D02*
G37*
G36*
X-221957Y92296D02*
X-222410Y92236D01*
X-223299Y91868D01*
X-224062Y91282D01*
X-224647Y90519D01*
X-225015Y89631D01*
X-225075Y89177D01*
X-221957D01*
Y92296D01*
D02*
G37*
G36*
X-220957D02*
Y89177D01*
X-217838D01*
X-217898Y89631D01*
X-218266Y90519D01*
X-218851Y91282D01*
X-219615Y91868D01*
X-220503Y92236D01*
X-220957Y92296D01*
D02*
G37*
G36*
X198819Y83512D02*
X197608Y83352D01*
X196480Y82885D01*
X195512Y82142D01*
X194769Y81173D01*
X194301Y80045D01*
X194142Y78835D01*
X194301Y77624D01*
X194769Y76496D01*
X195512Y75528D01*
X196480Y74784D01*
X197608Y74317D01*
X198819Y74158D01*
X200029Y74317D01*
X201157Y74784D01*
X202126Y75528D01*
X202869Y76496D01*
X203337Y77624D01*
X203496Y78835D01*
X203337Y80045D01*
X202869Y81173D01*
X202126Y82142D01*
X201157Y82885D01*
X200029Y83352D01*
X198819Y83512D01*
D02*
G37*
G36*
X-43650Y52655D02*
X-46350D01*
Y50455D01*
X-43650D01*
Y52655D01*
D02*
G37*
G36*
X214637Y54361D02*
X212272D01*
Y52193D01*
X214637D01*
Y54361D01*
D02*
G37*
G36*
X-69685Y70005D02*
X-97638D01*
X-97911Y69951D01*
X-98142Y69796D01*
X-98297Y69564D01*
X-98352Y69291D01*
Y59842D01*
X-98297Y59569D01*
X-98142Y59338D01*
X-98050Y59276D01*
Y57756D01*
X-95579D01*
X-93107D01*
Y59129D01*
X-89086D01*
Y58961D01*
X-69182D01*
Y59337D01*
X-69180Y59338D01*
X-69026Y59569D01*
X-68971Y59842D01*
Y69291D01*
X-69026Y69564D01*
X-69180Y69796D01*
X-69412Y69951D01*
X-69685Y70005D01*
D02*
G37*
G36*
X-114279Y52650D02*
X-116980D01*
Y50450D01*
X-114279D01*
Y52650D01*
D02*
G37*
G36*
X-110580D02*
X-113279D01*
Y50450D01*
X-110580D01*
Y52650D01*
D02*
G37*
G36*
X-47350Y52655D02*
X-50050D01*
Y50455D01*
X-47350D01*
Y52655D01*
D02*
G37*
G36*
X-106217Y70366D02*
X-108167D01*
Y68166D01*
X-106217D01*
Y70366D01*
D02*
G37*
G36*
X-29713Y77176D02*
X-33063D01*
Y73728D01*
X-29713D01*
Y77176D01*
D02*
G37*
G36*
X-226378Y83512D02*
X-227588Y83352D01*
X-228716Y82885D01*
X-229685Y82142D01*
X-230428Y81173D01*
X-230896Y80045D01*
X-231055Y78835D01*
X-230896Y77624D01*
X-230428Y76496D01*
X-229685Y75528D01*
X-228716Y74784D01*
X-227588Y74317D01*
X-226378Y74158D01*
X-225167Y74317D01*
X-224039Y74784D01*
X-223071Y75528D01*
X-222327Y76496D01*
X-221860Y77624D01*
X-221701Y78835D01*
X-221860Y80045D01*
X-222327Y81173D01*
X-223071Y82142D01*
X-224039Y82885D01*
X-225167Y83352D01*
X-226378Y83512D01*
D02*
G37*
G36*
X-198819D02*
X-200029Y83352D01*
X-201157Y82885D01*
X-202126Y82142D01*
X-202869Y81173D01*
X-203337Y80045D01*
X-203496Y78835D01*
X-203337Y77624D01*
X-202869Y76496D01*
X-202126Y75528D01*
X-201157Y74784D01*
X-200029Y74317D01*
X-198819Y74158D01*
X-197608Y74317D01*
X-196480Y74784D01*
X-195512Y75528D01*
X-194769Y76496D01*
X-194301Y77624D01*
X-194142Y78835D01*
X-194301Y80045D01*
X-194769Y81173D01*
X-195512Y82142D01*
X-196480Y82885D01*
X-197608Y83352D01*
X-198819Y83512D01*
D02*
G37*
G36*
X-34063Y72728D02*
X-37413D01*
Y69280D01*
X-34063D01*
Y72728D01*
D02*
G37*
G36*
X-106217Y73566D02*
X-108167D01*
Y71366D01*
X-106217D01*
Y73566D01*
D02*
G37*
G36*
X-34063Y77176D02*
X-37413D01*
Y73728D01*
X-34063D01*
Y77176D01*
D02*
G37*
G36*
X-140657Y25306D02*
X-143810D01*
Y22744D01*
X-140657D01*
Y25306D01*
D02*
G37*
G36*
X234322Y-6662D02*
X228591D01*
Y-11999D01*
X234322D01*
Y-6662D01*
D02*
G37*
G36*
X-233709Y2393D02*
X-239046D01*
Y-3338D01*
X-234322D01*
Y-8062D01*
X-228591D01*
Y-2725D01*
X-233709D01*
Y2393D01*
D02*
G37*
G36*
X-204182D02*
X-209519D01*
Y-2725D01*
X-214637D01*
Y-8062D01*
X-208906D01*
Y-3338D01*
X-204182D01*
Y2393D01*
D02*
G37*
G36*
X214637Y-6662D02*
X208906D01*
Y-11999D01*
X214637D01*
Y-6662D01*
D02*
G37*
G36*
X-279921Y-14139D02*
X-280618Y-14231D01*
X-281267Y-14500D01*
X-281824Y-14928D01*
X-282252Y-15485D01*
X-282521Y-16134D01*
X-282613Y-16831D01*
X-282521Y-17527D01*
X-282252Y-18177D01*
X-281824Y-18734D01*
X-281267Y-19162D01*
X-280618Y-19431D01*
X-279921Y-19522D01*
X-279225Y-19431D01*
X-278575Y-19162D01*
X-278018Y-18734D01*
X-277590Y-18177D01*
X-277322Y-17527D01*
X-277230Y-16831D01*
X-277322Y-16134D01*
X-277590Y-15485D01*
X-278018Y-14928D01*
X-278575Y-14500D01*
X-279225Y-14231D01*
X-279921Y-14139D01*
D02*
G37*
G36*
X148319Y-13092D02*
X146741D01*
Y-15261D01*
X148319D01*
Y-13092D01*
D02*
G37*
G36*
Y-9924D02*
X146741D01*
Y-12093D01*
X148319D01*
Y-9924D01*
D02*
G37*
G36*
X-260500Y-972D02*
X-262668D01*
Y-3338D01*
X-260500D01*
Y-972D01*
D02*
G37*
G36*
X-257331D02*
X-259500D01*
Y-3338D01*
X-257331D01*
Y-972D01*
D02*
G37*
G36*
X58955Y287D02*
X57005D01*
Y-1913D01*
X58955D01*
Y287D01*
D02*
G37*
G36*
X242983Y2393D02*
X237647D01*
Y-3338D01*
X242983D01*
Y2393D01*
D02*
G37*
G36*
X178791Y-972D02*
X176623D01*
Y-3338D01*
X178791D01*
Y-972D01*
D02*
G37*
G36*
X181960D02*
X179791D01*
Y-3338D01*
X181960D01*
Y-972D01*
D02*
G37*
G36*
X205582Y2393D02*
X200245D01*
Y-3338D01*
X205582D01*
Y2393D01*
D02*
G37*
G36*
X-212272Y-29516D02*
X-214637D01*
Y-31684D01*
X-212272D01*
Y-29516D01*
D02*
G37*
G36*
X-208906D02*
X-211272D01*
Y-31684D01*
X-208906D01*
Y-29516D01*
D02*
G37*
G36*
X-212272Y-26347D02*
X-214637D01*
Y-28516D01*
X-212272D01*
Y-26347D01*
D02*
G37*
G36*
X234322Y-30284D02*
X231957D01*
Y-32453D01*
X234322D01*
Y-30284D01*
D02*
G37*
G36*
X192858Y-23734D02*
X190157D01*
X187458D01*
Y-25084D01*
X187057D01*
Y-26884D01*
X187458D01*
Y-31184D01*
X188934D01*
Y-32961D01*
X187292D01*
Y-34466D01*
X184909D01*
X184821Y-34333D01*
X184198Y-33917D01*
X183465Y-33771D01*
X177953D01*
X177219Y-33917D01*
X176597Y-34333D01*
X176181Y-34955D01*
X176035Y-35689D01*
X176181Y-36423D01*
X176597Y-37045D01*
X177219Y-37461D01*
X177953Y-37607D01*
X183465D01*
X184198Y-37461D01*
X184821Y-37045D01*
X184909Y-36913D01*
X187292D01*
Y-38539D01*
X186945D01*
Y-44039D01*
X187292D01*
Y-49716D01*
X194598D01*
Y-47871D01*
X195230D01*
X195430Y-48170D01*
X196059Y-48590D01*
X196800Y-48737D01*
X197541Y-48590D01*
X198170Y-48170D01*
X198590Y-47541D01*
X198737Y-46800D01*
X198590Y-46059D01*
X198170Y-45430D01*
X197541Y-45010D01*
X196800Y-44863D01*
X196059Y-45010D01*
X195430Y-45430D01*
X195230Y-45729D01*
X194598D01*
Y-44039D01*
X195045D01*
Y-38539D01*
X194598D01*
Y-32961D01*
X191381D01*
Y-31184D01*
X192858D01*
Y-26884D01*
X193358D01*
Y-25084D01*
X192858D01*
Y-23734D01*
D02*
G37*
G36*
X183465Y-28771D02*
X177953D01*
X177219Y-28917D01*
X176597Y-29333D01*
X176508Y-29465D01*
X176398D01*
X175929Y-29559D01*
X175532Y-29824D01*
X172363Y-32993D01*
X172098Y-33390D01*
X172005Y-33858D01*
Y-51131D01*
X171326D01*
Y-57531D01*
X176552D01*
Y-57631D01*
X177711D01*
X177910Y-57874D01*
Y-59142D01*
X177478Y-59305D01*
X177478Y-59305D01*
Y-59305D01*
X177478Y-59305D01*
X175478D01*
Y-59536D01*
X174122D01*
Y-62205D01*
Y-64873D01*
X175478D01*
Y-65205D01*
X177478D01*
Y-64873D01*
X181212D01*
Y-59536D01*
X180358D01*
Y-58381D01*
X181208Y-57531D01*
X185377D01*
Y-51131D01*
X181932D01*
Y-47607D01*
X183465D01*
X184198Y-47461D01*
X184821Y-47045D01*
X185237Y-46423D01*
X185382Y-45689D01*
X185237Y-44955D01*
X184821Y-44333D01*
X184198Y-43917D01*
X183465Y-43771D01*
X177953D01*
X177219Y-43917D01*
X176597Y-44333D01*
X176181Y-44955D01*
X176035Y-45689D01*
X176181Y-46423D01*
X176597Y-47045D01*
X177219Y-47461D01*
X177953Y-47607D01*
X179485D01*
Y-50831D01*
X176552D01*
Y-51131D01*
X174452D01*
Y-34365D01*
X176702Y-32115D01*
X177219Y-32461D01*
X177953Y-32607D01*
X183465D01*
X184198Y-32461D01*
X184821Y-32045D01*
X185237Y-31423D01*
X185382Y-30689D01*
X185237Y-29955D01*
X184821Y-29333D01*
X184198Y-28917D01*
X183465Y-28771D01*
D02*
G37*
G36*
X230957Y-30284D02*
X228591D01*
Y-32453D01*
X230957D01*
Y-30284D01*
D02*
G37*
G36*
X192858Y-20784D02*
X190657D01*
Y-22734D01*
X192858D01*
Y-20784D01*
D02*
G37*
G36*
X150287Y-19083D02*
X146839D01*
Y-22433D01*
X150287D01*
Y-19083D01*
D02*
G37*
G36*
X154735D02*
X151287D01*
Y-22433D01*
X154735D01*
Y-19083D01*
D02*
G37*
G36*
X189657Y-20784D02*
X187458D01*
Y-22734D01*
X189657D01*
Y-20784D01*
D02*
G37*
G36*
X-208906Y-26347D02*
X-211272D01*
Y-28516D01*
X-208906D01*
Y-26347D01*
D02*
G37*
G36*
X150287Y-23433D02*
X146839D01*
Y-26783D01*
X150287D01*
Y-23433D01*
D02*
G37*
G36*
X154735D02*
X151287D01*
Y-26783D01*
X154735D01*
Y-23433D01*
D02*
G37*
G36*
X-183728Y18713D02*
X-185897D01*
Y16347D01*
X-183728D01*
Y18713D01*
D02*
G37*
G36*
X-180560D02*
X-182728D01*
Y16347D01*
X-180560D01*
Y18713D01*
D02*
G37*
G36*
X263437Y22078D02*
X261268D01*
Y19713D01*
X263437D01*
Y22078D01*
D02*
G37*
G36*
X266605Y18712D02*
X264437D01*
Y16347D01*
X266605D01*
Y18712D01*
D02*
G37*
G36*
X-228591Y26802D02*
X-234322D01*
Y22078D01*
X-239046D01*
Y16347D01*
X-233709D01*
Y21465D01*
X-228591D01*
Y26802D01*
D02*
G37*
G36*
X-208906D02*
X-214637D01*
Y21465D01*
X-209519D01*
Y16347D01*
X-204182D01*
Y22078D01*
X-208906D01*
Y26802D01*
D02*
G37*
G36*
X266605Y22078D02*
X264437D01*
Y19713D01*
X266605D01*
Y22078D01*
D02*
G37*
G36*
X-145954Y25306D02*
X-149106D01*
Y22744D01*
X-145954D01*
Y25306D01*
D02*
G37*
G36*
X-131209D02*
X-134361D01*
Y22744D01*
X-131209D01*
Y25306D01*
D02*
G37*
G36*
X-127056D02*
X-130209D01*
Y22744D01*
X-127056D01*
Y25306D01*
D02*
G37*
G36*
X-183728Y22078D02*
X-185897D01*
Y19713D01*
X-183728D01*
Y22078D01*
D02*
G37*
G36*
X-180560D02*
X-182728D01*
Y19713D01*
X-180560D01*
Y22078D01*
D02*
G37*
G36*
X-150106Y25306D02*
X-153259D01*
Y22744D01*
X-150106D01*
Y25306D01*
D02*
G37*
G36*
X263437Y18712D02*
X261268D01*
Y16347D01*
X263437D01*
Y18712D01*
D02*
G37*
G36*
X-260500Y2393D02*
X-262668D01*
Y28D01*
X-260500D01*
Y2393D01*
D02*
G37*
G36*
X-257331D02*
X-259500D01*
Y28D01*
X-257331D01*
Y2393D01*
D02*
G37*
G36*
X78822Y3487D02*
X76872D01*
Y1287D01*
X78822D01*
Y3487D01*
D02*
G37*
G36*
X181960Y2393D02*
X179791D01*
Y28D01*
X181960D01*
Y2393D01*
D02*
G37*
G36*
X78822Y287D02*
X76872D01*
Y-1913D01*
X78822D01*
Y287D01*
D02*
G37*
G36*
X86120Y2413D02*
X83920D01*
Y-287D01*
X86120D01*
Y2413D01*
D02*
G37*
G36*
X178791Y2393D02*
X176623D01*
Y28D01*
X178791D01*
Y2393D01*
D02*
G37*
G36*
X45169Y18443D02*
X42469D01*
Y16243D01*
X45169D01*
Y18443D01*
D02*
G37*
G36*
X48869D02*
X46169D01*
Y16243D01*
X48869D01*
Y18443D01*
D02*
G37*
G36*
X242983Y22078D02*
X237647D01*
Y16347D01*
X242983D01*
Y22078D01*
D02*
G37*
G36*
X58955Y3487D02*
X57005D01*
Y1287D01*
X58955D01*
Y3487D01*
D02*
G37*
G36*
X-103855Y3881D02*
X-105805D01*
Y1681D01*
X-103855D01*
Y3881D01*
D02*
G37*
G36*
X64961Y11386D02*
X64219Y11239D01*
X63591Y10819D01*
X63171Y10190D01*
X63023Y9449D01*
X63171Y8708D01*
X63591Y8079D01*
X63884Y7883D01*
Y3487D01*
X63105D01*
Y3887D01*
X61305D01*
Y3487D01*
X59955D01*
Y787D01*
Y-1913D01*
X61305D01*
Y-2413D01*
X63105D01*
Y-1913D01*
X67405D01*
Y2087D01*
X67867Y2279D01*
X68422Y1723D01*
Y-1913D01*
X72722D01*
Y-2313D01*
X74522D01*
Y-1913D01*
X75872D01*
Y787D01*
Y3487D01*
X74522D01*
Y3987D01*
X72722D01*
Y3487D01*
X69686D01*
X68787Y4386D01*
Y5123D01*
X69086Y5323D01*
X69506Y5952D01*
X69654Y6693D01*
X69506Y7434D01*
X69086Y8063D01*
X68458Y8483D01*
X67716Y8630D01*
X67185Y8524D01*
X67182Y8526D01*
X66794Y8914D01*
X66792Y8917D01*
X66898Y9449D01*
X66750Y10190D01*
X66330Y10819D01*
X65702Y11239D01*
X64961Y11386D01*
D02*
G37*
%LPD*%
G36*
X203599Y-70158D02*
X204067Y-70251D01*
X207088D01*
X207090Y-70253D01*
X207310Y-70751D01*
X207113Y-71045D01*
X207006Y-71587D01*
X207113Y-72129D01*
X207420Y-72588D01*
X207463Y-72616D01*
Y-73116D01*
X207420Y-73144D01*
X207113Y-73604D01*
X207006Y-74146D01*
X207113Y-74688D01*
X207420Y-75147D01*
X207463Y-75175D01*
Y-75675D01*
X207420Y-75703D01*
X207113Y-76163D01*
X207006Y-76705D01*
X207113Y-77247D01*
X207420Y-77706D01*
X207463Y-77734D01*
Y-78234D01*
X207420Y-78262D01*
X207113Y-78722D01*
X207006Y-79264D01*
X207113Y-79806D01*
X207420Y-80265D01*
X207463Y-80293D01*
Y-80793D01*
X207420Y-80821D01*
X207113Y-81281D01*
X207105Y-81323D01*
X211079D01*
Y-82323D01*
X207105D01*
X207113Y-82365D01*
X207420Y-82824D01*
X207463Y-82852D01*
Y-83352D01*
X207420Y-83381D01*
X207113Y-83840D01*
X207046Y-84179D01*
X206521Y-84256D01*
X206200Y-83775D01*
X205571Y-83355D01*
X204830Y-83207D01*
X204657Y-83242D01*
X202798Y-81383D01*
Y-70120D01*
X203298Y-69957D01*
X203599Y-70158D01*
D02*
G37*
D10*
X-112043Y-103800D02*
D03*
X-105350Y-103800D02*
D03*
X-127751Y-103800D02*
D03*
X-134443Y-103800D02*
D03*
X100197Y-104724D02*
D03*
X106890Y-104724D02*
D03*
X211772Y-9331D02*
D03*
Y-32953D02*
D03*
X231457D02*
D03*
Y-9331D02*
D03*
Y28071D02*
D03*
Y51693D02*
D03*
X211772D02*
D03*
Y28071D02*
D03*
X-211772Y24134D02*
D03*
Y47756D02*
D03*
X-231457D02*
D03*
Y24134D02*
D03*
Y-5394D02*
D03*
Y-29016D02*
D03*
X-211772D02*
D03*
Y-5394D02*
D03*
D11*
X178859Y-102751D02*
D03*
Y-94100D02*
D03*
X156500Y-74175D02*
D03*
Y-82825D02*
D03*
X45669Y15743D02*
D03*
Y7092D02*
D03*
X-46850Y53155D02*
D03*
Y61806D02*
D03*
X-113779Y53150D02*
D03*
Y61800D02*
D03*
X-268650Y-85175D02*
D03*
Y-93825D02*
D03*
X-240650Y-92675D02*
D03*
Y-101325D02*
D03*
D12*
X187000Y-93500D02*
D03*
Y-99012D02*
D03*
X202500Y-99256D02*
D03*
Y-93744D02*
D03*
X209500D02*
D03*
Y-99256D02*
D03*
X234252Y-66929D02*
D03*
Y-61417D02*
D03*
X234390Y-79181D02*
D03*
Y-73669D02*
D03*
X150394Y-47638D02*
D03*
Y-53150D02*
D03*
X-51300Y-75056D02*
D03*
Y-69544D02*
D03*
X-29134Y44488D02*
D03*
Y38976D02*
D03*
X-96063Y44888D02*
D03*
Y39376D02*
D03*
X-259650Y-72744D02*
D03*
Y-78256D02*
D03*
D13*
X194500Y-99250D02*
D03*
Y-93750D02*
D03*
X190157Y-28734D02*
D03*
Y-23234D02*
D03*
X161024Y-20467D02*
D03*
Y-14966D02*
D03*
X103543Y-5900D02*
D03*
Y-400D02*
D03*
X-16535Y-4719D02*
D03*
Y781D02*
D03*
X-9105Y-4719D02*
D03*
Y781D02*
D03*
X-55512Y57081D02*
D03*
Y51581D02*
D03*
X-36270Y39095D02*
D03*
Y44595D02*
D03*
X-43751Y39101D02*
D03*
Y44601D02*
D03*
X-103200Y39382D02*
D03*
Y44882D02*
D03*
X-110630Y39382D02*
D03*
Y44882D02*
D03*
X-223150Y-79500D02*
D03*
Y-74000D02*
D03*
D14*
X226373Y-94095D02*
D03*
X217722D02*
D03*
X211684Y-56425D02*
D03*
X203033D02*
D03*
X174026Y-54331D02*
D03*
X182677D02*
D03*
X176184Y-82425D02*
D03*
X167533D02*
D03*
X43711Y-104331D02*
D03*
X52362D02*
D03*
X-200325Y-42000D02*
D03*
X-191675D02*
D03*
X86620Y-787D02*
D03*
X95270D02*
D03*
D15*
X221847Y-86713D02*
D03*
X227359D02*
D03*
X227115Y-79925D02*
D03*
X221603D02*
D03*
X222103Y-60425D02*
D03*
X227615D02*
D03*
X154331Y-12593D02*
D03*
X148819D02*
D03*
X173622Y-62205D02*
D03*
X179134D02*
D03*
X165748Y-61811D02*
D03*
X160236D02*
D03*
X171347Y-74925D02*
D03*
X176859D02*
D03*
X168756Y-105500D02*
D03*
X163244D02*
D03*
X-70079Y-50787D02*
D03*
X-64567D02*
D03*
D16*
X222109Y-73425D02*
D03*
X227609D02*
D03*
X222109Y-66925D02*
D03*
X227609D02*
D03*
X166136Y-53937D02*
D03*
X160636D02*
D03*
X88183Y-104724D02*
D03*
X82683D02*
D03*
X76372Y787D02*
D03*
X70872D02*
D03*
X59455D02*
D03*
X64955D02*
D03*
X-114167Y70866D02*
D03*
X-108667D02*
D03*
X-246400Y-64500D02*
D03*
X-251900D02*
D03*
X-230900Y-101000D02*
D03*
X-225400D02*
D03*
Y-92500D02*
D03*
X-230900D02*
D03*
X-232283Y-79921D02*
D03*
X-237784D02*
D03*
X-106305Y1181D02*
D03*
X-111805D02*
D03*
X48813Y-74410D02*
D03*
X43313D02*
D03*
D17*
X190945Y-46654D02*
D03*
Y-36024D02*
D03*
X-130709Y22244D02*
D03*
Y11614D02*
D03*
X-140157Y22244D02*
D03*
Y11614D02*
D03*
X-149606Y22244D02*
D03*
Y11614D02*
D03*
D18*
X150787Y-35433D02*
D03*
Y-22933D02*
D03*
D19*
X161024Y-30689D02*
D03*
Y-35689D02*
D03*
Y-40689D02*
D03*
Y-45689D02*
D03*
X180709Y-30689D02*
D03*
Y-35689D02*
D03*
Y-40689D02*
D03*
Y-45689D02*
D03*
D20*
X188638Y-63909D02*
D03*
Y-66469D02*
D03*
Y-69028D02*
D03*
Y-71587D02*
D03*
Y-74146D02*
D03*
Y-76705D02*
D03*
Y-79264D02*
D03*
Y-81823D02*
D03*
Y-84382D02*
D03*
Y-86941D02*
D03*
X211079Y-63909D02*
D03*
Y-66469D02*
D03*
Y-69028D02*
D03*
Y-71587D02*
D03*
Y-74146D02*
D03*
Y-76705D02*
D03*
Y-79264D02*
D03*
Y-81823D02*
D03*
Y-84382D02*
D03*
Y-86941D02*
D03*
D21*
X159776Y-90760D02*
D03*
Y-94500D02*
D03*
Y-98240D02*
D03*
X169224D02*
D03*
Y-90760D02*
D03*
X-28740Y53347D02*
D03*
Y57087D02*
D03*
Y60827D02*
D03*
X-38189D02*
D03*
Y53347D02*
D03*
X-95579Y53516D02*
D03*
Y57256D02*
D03*
Y60996D02*
D03*
X-105028D02*
D03*
Y53516D02*
D03*
X-249925Y-94740D02*
D03*
Y-91000D02*
D03*
Y-87260D02*
D03*
X-259374D02*
D03*
Y-94740D02*
D03*
D22*
X98425Y-47244D02*
D03*
X6299Y34646D02*
D03*
X-59449Y34252D02*
D03*
X81102Y26002D02*
D03*
X80709Y17323D02*
D03*
D23*
X-5906Y34646D02*
D03*
X-18406D02*
D03*
X-73228D02*
D03*
X-85728D02*
D03*
X-46063Y73228D02*
D03*
X-33563D02*
D03*
D24*
X-238382Y-63260D02*
D03*
Y-70740D02*
D03*
X-229917Y-67000D02*
D03*
D25*
X-244409Y-71268D02*
D03*
X-251890D02*
D03*
X-248150Y-79732D02*
D03*
D26*
X-79134Y63598D02*
D03*
Y47425D02*
D03*
X-12205Y63598D02*
D03*
Y47425D02*
D03*
D27*
X-125945Y-72520D02*
D03*
X-63740Y-72126D02*
D03*
D28*
X-79488Y-61102D02*
D03*
X-72402D02*
D03*
X-80669Y-74488D02*
D03*
X-96024Y-61102D02*
D03*
X-88937D02*
D03*
X-112559D02*
D03*
X-111378Y-74488D02*
D03*
X-104291D02*
D03*
X-97205D02*
D03*
X-87756D02*
D03*
X-119646Y-61102D02*
D03*
X-120827Y-74488D02*
D03*
X-70039Y-61102D02*
D03*
X-67677D02*
D03*
X-68858Y-74488D02*
D03*
X-71220D02*
D03*
X-66496D02*
D03*
X-77126Y-61102D02*
D03*
X-74764D02*
D03*
X-78307Y-74488D02*
D03*
X-73583D02*
D03*
X-75945D02*
D03*
X-84213Y-61102D02*
D03*
X-86575D02*
D03*
X-81850D02*
D03*
X-85394Y-74488D02*
D03*
X-83031D02*
D03*
X-93661Y-61102D02*
D03*
X-91299D02*
D03*
X-92480Y-74488D02*
D03*
X-94843D02*
D03*
X-90118D02*
D03*
X-100748Y-61102D02*
D03*
X-103110D02*
D03*
X-98386D02*
D03*
X-101929Y-74488D02*
D03*
X-99567D02*
D03*
X-110197Y-61102D02*
D03*
X-105473D02*
D03*
X-107835D02*
D03*
X-109016Y-74488D02*
D03*
X-106654D02*
D03*
X-117283Y-61102D02*
D03*
X-114921D02*
D03*
X-118465Y-74488D02*
D03*
X-116102D02*
D03*
X-113740D02*
D03*
X-122008Y-61102D02*
D03*
X-123189Y-74488D02*
D03*
D29*
X-236378Y19213D02*
D03*
X-260000D02*
D03*
Y-472D02*
D03*
X-236378D02*
D03*
X202913Y19213D02*
D03*
X179291D02*
D03*
Y-472D02*
D03*
X202913D02*
D03*
X240315D02*
D03*
X263937D02*
D03*
Y19213D02*
D03*
X240315D02*
D03*
X-206850Y-472D02*
D03*
X-183228D02*
D03*
Y19213D02*
D03*
X-206850D02*
D03*
X-9646Y-93079D02*
D03*
X9646D02*
D03*
D30*
X-185531Y-84646D02*
D03*
X-208169D02*
D03*
X-185531Y-100394D02*
D03*
X-208169D02*
D03*
Y-68898D02*
D03*
X-185531D02*
D03*
X-208169Y-53150D02*
D03*
X-185531D02*
D03*
D31*
X-64173Y-67716D02*
Y-58661D01*
X-66929Y-70472D02*
X-64173Y-67716D01*
X-71220Y-70472D02*
X-66929D01*
X-67677Y-67362D02*
Y-61102D01*
Y-67362D02*
X-67323Y-67008D01*
X201575Y-81890D02*
X206626Y-86941D01*
X178859Y-93750D02*
X194500D01*
X221158Y-86614D02*
X221847Y-85925D01*
X-66496Y-74488D02*
X-64935Y-76049D01*
X-98398Y53516D02*
X-95579D01*
X-72835Y34252D02*
X-59449D01*
X-73228Y34646D02*
X-72835Y34252D01*
X-74622Y47425D02*
X-64966Y57081D01*
X-79134Y47425D02*
X-74622D01*
X-59842Y57081D02*
Y59842D01*
X-64966Y57081D02*
X-59842D01*
X-55512D01*
X-30118Y53347D02*
X-28740D01*
X-33465Y56693D02*
X-30118Y53347D01*
X-38189Y46513D02*
Y53347D01*
X-43751Y44601D02*
X-37289D01*
X-36783Y45107D01*
X-38189Y46513D02*
X-36783Y45107D01*
X-97694Y44888D02*
X-96063D01*
X-103200Y39382D02*
X-97694Y44888D01*
X-110630Y44882D02*
X-103200D01*
X-105028Y46710D02*
Y53516D01*
Y46710D02*
X-103200Y44882D01*
X-30877Y44488D02*
X-29134D01*
X-36270Y39095D02*
X-30877Y44488D01*
X-119646Y-64213D02*
Y-61102D01*
Y-64213D02*
X-116929Y-66929D01*
X-119646Y-61102D02*
Y-58701D01*
X-125118Y-61102D02*
X-122008D01*
X-125197Y-58661D02*
X-123622Y-57087D01*
X-121260D01*
X-119646Y-58701D01*
X-125197Y-61024D02*
X-125118Y-61102D01*
X-125197Y-61024D02*
Y-58661D01*
X159776Y-98240D02*
X161996D01*
X163779Y-96457D01*
Y-73228D01*
X155905Y-65354D02*
X163779Y-73228D01*
X111024Y-65354D02*
X155905D01*
X-225400Y-101000D02*
Y-92500D01*
X-163702Y-54408D02*
X-157403D01*
X-153937Y-57874D01*
X-249925Y-87260D02*
Y-81508D01*
X-248150Y-79732D01*
X-237972D01*
X-237784Y-79921D01*
X-245160Y-63260D02*
X-238382D01*
X-246400Y-64500D02*
X-245160Y-63260D01*
X-244409Y-71268D02*
X-240465Y-67323D01*
X-229917Y-69689D02*
Y-67000D01*
Y-69689D02*
X-225606Y-74000D01*
X-223150D01*
X-162205Y-75984D02*
Y-70079D01*
X-251890Y-71268D02*
Y-64510D01*
X-251900Y-64500D02*
X-251890Y-64510D01*
X-259374Y-87260D02*
Y-78532D01*
X-259650Y-78256D02*
X-259374Y-78532D01*
X-277415Y-101325D02*
X-248675D01*
X-284252Y-94488D02*
X-277415Y-101325D01*
X-284252Y-94488D02*
Y-27953D01*
X-281496Y-25197D01*
X-269685D01*
Y-60236D02*
Y-30315D01*
Y-60236D02*
X-265421Y-64500D01*
X-251900D01*
X-5906Y34646D02*
X6299D01*
X168756Y-105500D02*
Y-98709D01*
X169224Y-98240D01*
Y-90760D02*
X172215Y-93750D01*
X187000Y-93500D02*
Y-88579D01*
X188638Y-86941D01*
X194500Y-99250D02*
X196994D01*
X202500Y-93744D01*
X209500Y-88520D02*
X211079Y-86941D01*
X211116D02*
X217675Y-93500D01*
X211079Y-86941D02*
X211116D01*
X217447Y-71587D02*
X222109Y-66925D01*
X211079Y-71587D02*
X217447D01*
X211079Y-69028D02*
X214559D01*
X222103Y-61484D01*
Y-60425D01*
X221388Y-74146D02*
X222109Y-73425D01*
X211079Y-74146D02*
X221388D01*
X218382Y-76705D02*
X221603Y-79925D01*
X211079Y-76705D02*
X218382D01*
X211079Y-84382D02*
X214598D01*
X216831Y-86614D01*
X221158D01*
X227609Y-66925D02*
X233067D01*
X188638Y-79264D02*
X194224D01*
X202500Y-87539D01*
Y-93744D02*
Y-87539D01*
X178859Y-94100D02*
Y-93750D01*
Y-88858D01*
X172215Y-93750D02*
X178859D01*
X209500Y-93744D02*
Y-88520D01*
X206626Y-86941D02*
X211079D01*
X180709Y-35689D02*
X190610D01*
X190157Y-35236D02*
Y-28734D01*
Y-35236D02*
X190610Y-35689D01*
X190945Y-36024D01*
X176398Y-30689D02*
X180709D01*
X173228Y-33858D02*
X176398Y-30689D01*
X173228Y-53533D02*
Y-33858D01*
Y-53533D02*
X174026Y-54331D01*
X180709Y-52362D02*
Y-45689D01*
Y-52362D02*
X182677Y-54331D01*
X166136Y-53937D02*
X168504Y-51569D01*
Y-43701D01*
X165492Y-40689D02*
X168504Y-43701D01*
X161024Y-40689D02*
X165492D01*
X160636Y-61411D02*
Y-53937D01*
X160236Y-61811D02*
X160636Y-61411D01*
X161024Y-30689D02*
Y-20467D01*
X158650Y-12593D02*
X161024Y-14966D01*
X154331Y-12593D02*
X158650D01*
X136594Y-30689D02*
X161024D01*
X122047Y-16142D02*
X136594Y-30689D01*
X-225400Y-92500D02*
X-221482Y-88583D01*
X-218504D01*
X179134Y-57874D02*
X182677Y-54331D01*
X179134Y-62205D02*
Y-57874D01*
X201575Y-57884D02*
X203033Y-56425D01*
X201575Y-66535D02*
X204067Y-69028D01*
X211079D01*
X201575Y-81890D02*
Y-66535D01*
Y-57884D01*
X-64935Y-76049D02*
X-62663D01*
X-66929Y-55905D02*
X-64173Y-58661D01*
X-70079Y-55905D02*
X-66929D01*
X-71220Y-74488D02*
Y-70472D01*
X-70079Y-55905D02*
Y-50787D01*
X-116929Y-66929D02*
X-77165D01*
X-73622Y-70472D01*
X-71220D01*
X-70079Y-61063D02*
Y-55905D01*
Y-61063D02*
X-70039Y-61102D01*
X-240465Y-67323D02*
X-236221D01*
X-198670Y33858D02*
X-173622D01*
X-202284Y30244D02*
X-198670Y33858D01*
X-202284Y9370D02*
Y30244D01*
Y9370D02*
X-192441Y-472D01*
X-183228D01*
X-158465Y-74803D02*
Y-68701D01*
X237598Y-73425D02*
X241200Y-77027D01*
Y-83300D02*
Y-77027D01*
X227609Y-73425D02*
X237598D01*
X271800Y-55700D02*
X276800Y-60700D01*
X276700Y-67300D02*
X276800Y-67200D01*
Y-60700D01*
X234252Y-66929D02*
X235871D01*
X247100Y-55700D01*
X271800D01*
X-57244Y-81000D02*
X-51300Y-75056D01*
X-69320Y-81000D02*
X-57244D01*
X-71220Y-79100D02*
X-69320Y-81000D01*
X-71220Y-79100D02*
Y-74488D01*
X-229917Y-67000D02*
X-226917Y-64000D01*
X-168283D02*
X-162205Y-70079D01*
X-236221Y-67323D02*
X-231198Y-62300D01*
X-164865D02*
X-158465Y-68701D01*
X-231198Y-62300D02*
X-164865D01*
X-226917Y-64000D02*
X-168283D01*
X-105878Y60996D02*
X-98398Y53516D01*
D32*
X198819Y88583D02*
X203740D01*
X148819Y38583D02*
X198819Y88583D01*
X29134Y38583D02*
X148819D01*
X-92480Y-74488D02*
Y-70200D01*
X-99567Y-74488D02*
Y-70200D01*
X-104291Y-74488D02*
Y-70200D01*
X-87756Y-74488D02*
Y-70200D01*
X-90118Y-78700D02*
Y-74488D01*
X-97205Y-78700D02*
Y-74488D01*
X-101929Y-78700D02*
Y-74488D01*
X-85394Y-78700D02*
Y-74488D01*
X-78307D02*
Y-70200D01*
X-75945Y-78700D02*
Y-74488D01*
X-80669Y-78700D02*
Y-74488D01*
X-83031D02*
Y-70200D01*
X97244Y-39889D02*
Y-39544D01*
X-110197Y-61102D02*
Y-56303D01*
X-110200Y-56300D02*
X-110197Y-56303D01*
X-111378Y-78878D02*
Y-74488D01*
X-111500Y-79000D02*
X-111378Y-78878D01*
X-106654Y-78754D02*
Y-74488D01*
X-106700Y-78800D02*
X-106654Y-78754D01*
X-109016Y-74488D02*
Y-70216D01*
X-109000Y-70200D01*
X-103110Y-61102D02*
Y-50610D01*
X-100748Y-61102D02*
Y-50228D01*
X-98386Y-61102D02*
Y-49846D01*
X-96024Y-61102D02*
Y-49463D01*
X-93661Y-61102D02*
Y-49081D01*
X-91299Y-61102D02*
Y-48699D01*
X-88937Y-61102D02*
Y-48316D01*
X-86575Y-61102D02*
Y-47934D01*
X-81850Y-61102D02*
Y-45189D01*
X-79488Y-61102D02*
Y-44807D01*
X-77126Y-61102D02*
Y-44425D01*
X-74764Y-61102D02*
Y-44043D01*
X87795Y-23805D02*
Y-22316D01*
X95300Y-37600D02*
X97244Y-39544D01*
X31200Y-23400D02*
Y-22400D01*
X-74764Y-44043D02*
X-67821Y-37100D01*
X-77126Y-44425D02*
X-68401Y-35700D01*
X-79488Y-44807D02*
X-68981Y-34300D01*
X-81850Y-45189D02*
X-69561Y-32900D01*
X-86575Y-47934D02*
X-70141Y-31500D01*
X-88937Y-48316D02*
X-70721Y-30100D01*
X-91299Y-48699D02*
X-71301Y-28700D01*
X-93661Y-49081D02*
X-71880Y-27300D01*
X-96024Y-49463D02*
X-72460Y-25900D01*
X-98386Y-49846D02*
X-73040Y-24500D01*
X-100748Y-50228D02*
X-73620Y-23100D01*
X-103110Y-50610D02*
X-74200Y-21700D01*
X81577Y-37600D02*
X95300D01*
X-26700Y-46300D02*
X-26650Y-46250D01*
X-23368D01*
X75877Y-43300D02*
X81577Y-37600D01*
X-24300Y-44000D02*
X-23098D01*
X-26800Y-41700D02*
X-22778D01*
X72500Y-39100D02*
X87795Y-23805D01*
X75298Y-41900D02*
X94882Y-22316D01*
X-24650Y-39250D02*
X-24500Y-39100D01*
X-233395Y-55500D02*
X-231808Y-57087D01*
X-220079D01*
X-125984Y-24016D02*
X-123622Y-21654D01*
X103543Y-400D02*
Y3150D01*
X67716Y3943D02*
Y6693D01*
Y3943D02*
X70872Y787D01*
X-9843Y1519D02*
X-9105Y781D01*
X-111805Y1181D02*
Y6687D01*
X-225795Y-48700D02*
X-217994D01*
X-122047Y-66142D02*
X-121678Y-66511D01*
X-119540D01*
X-113740Y-74488D02*
Y-72310D01*
X-116102Y-74488D02*
Y-71928D01*
X-119540Y-66511D02*
X-113740Y-72310D01*
X-119639Y-68392D02*
X-116102Y-71928D01*
X-118465Y-74488D02*
Y-71693D01*
X-120366Y-69792D02*
X-118465Y-71693D01*
X-122979Y-68392D02*
X-119639D01*
X-123909Y-69792D02*
X-120366D01*
X-125197Y-68504D02*
X-123909Y-69792D01*
X-118898Y-55905D02*
X-117283Y-57520D01*
Y-61102D02*
Y-57520D01*
X-125154Y-66217D02*
X-122979Y-68392D01*
X-125154Y-66217D02*
Y-66132D01*
X-127165Y-68504D02*
X-125197D01*
X-109449Y-97638D02*
X-105350Y-101736D01*
Y-103800D02*
Y-101736D01*
X-127751Y-106501D02*
X-126772Y-107480D01*
X-127751Y-106501D02*
Y-103800D01*
X-112043Y-106138D02*
Y-103800D01*
X-113386Y-107480D02*
X-112043Y-106138D01*
X-135827Y-102417D02*
X-134443Y-103800D01*
X-135827Y-102417D02*
Y-98819D01*
X-155118Y-74410D02*
Y-67716D01*
X-104724Y-87795D02*
X-35039D01*
X-28346Y-81102D01*
X17717D01*
X36220Y-62598D01*
X64567Y-71653D02*
X97244D01*
X211079Y-79264D02*
X214697D01*
X218898Y-83465D01*
X227359Y-86713D02*
Y-86469D01*
X224355Y-83465D02*
X227359Y-86469D01*
X218898Y-83465D02*
X224355D01*
X188638Y-69028D02*
X193571D01*
X195276Y-67323D01*
X188638Y-71587D02*
X194815D01*
X195276Y-72047D01*
X183988Y-74146D02*
X188638D01*
X181102Y-71260D02*
X183988Y-74146D01*
X181102Y-71260D02*
Y-69685D01*
X176859Y-81751D02*
Y-74925D01*
X176787Y-81823D02*
X188638D01*
X176184Y-82425D02*
X176787Y-81823D01*
X176859Y-81751D01*
X-115354Y-39370D02*
Y-26378D01*
X-129528Y-76772D02*
Y-53543D01*
X-115354Y-39370D01*
X-129528Y-76772D02*
X-126378Y-79921D01*
X-124803D01*
X-243701Y57480D02*
X-164961D01*
X-203543Y-90158D02*
X-162205D01*
X-151969Y-79921D01*
Y-67716D01*
X-161024Y-58661D02*
X-151969Y-67716D01*
X-157087Y-24016D02*
X-125984D01*
X-157863Y-21260D02*
X-126771D01*
X-165354Y-15748D02*
X-157087Y-24016D01*
X-163954Y-15168D02*
X-157863Y-21260D01*
X-177953Y-52165D02*
X-170472Y-44685D01*
Y22441D01*
X-171653Y23622D02*
X-170472Y22441D01*
X-176772Y23622D02*
X-171653D01*
X-163954Y-15168D02*
Y22233D01*
X-165354Y-15748D02*
Y21654D01*
X-172036Y30315D02*
X-163954Y22233D01*
X-168504Y-54331D02*
Y22441D01*
X-179528Y25984D02*
X-172047D01*
X-171085Y25022D01*
X-171074D01*
X-169072Y23021D01*
Y23009D02*
Y23021D01*
Y23009D02*
X-168504Y22441D01*
X-171935Y28234D02*
X-165354Y21654D01*
X-188976Y28065D02*
X-188807Y28234D01*
X-171935D01*
X-173740Y51693D02*
X-169685Y47638D01*
X-248189Y28386D02*
Y48268D01*
X-9843Y1519D02*
Y5906D01*
X-10236Y22835D02*
X-10236Y22835D01*
Y6299D02*
X-9843Y5906D01*
X-10236Y22835D02*
X-9449Y23622D01*
X-10236Y6299D02*
Y6693D01*
Y22835D01*
X-16535Y781D02*
X-12598Y4719D01*
Y9449D01*
Y23622D01*
X-5512Y6693D02*
Y22835D01*
X-6299Y23622D02*
X-5512Y22835D01*
X-3150Y9449D02*
Y23622D01*
X1575Y6693D02*
Y23228D01*
X1969Y23622D01*
X8661Y6693D02*
Y23622D01*
X3937Y9449D02*
Y22409D01*
X4219Y22690D01*
Y22722D01*
X5118Y23622D01*
X15354Y7087D02*
X15748Y6693D01*
X22835D02*
X22835Y6693D01*
X25197Y9449D02*
Y21260D01*
X22835Y6693D02*
Y22047D01*
X18110Y9449D02*
Y20472D01*
X15354Y7087D02*
Y21260D01*
X11024Y9449D02*
Y20472D01*
X29134Y38583D01*
X29921Y6693D02*
Y17323D01*
X38601Y26002D01*
X81102D01*
X32283Y9449D02*
Y17705D01*
X39181Y24602D01*
X73429D01*
X80709Y17323D01*
X64955Y9443D02*
X64961Y9449D01*
X64955Y787D02*
Y9443D01*
X-251969Y29528D02*
Y49213D01*
X36220Y-62598D02*
X55512D01*
X64567Y-71653D01*
X25197Y21260D02*
X34646Y30709D01*
X170472D01*
X22835Y22047D02*
X33071Y32283D01*
X197244D01*
X18110Y20472D02*
X31321Y33683D01*
X197824D01*
X29178Y35083D02*
X188233D01*
X197824Y33683D02*
X237413Y-5906D01*
X258504D01*
X179685Y19213D02*
Y21496D01*
X170472Y30709D02*
X179685Y21496D01*
X231457Y51693D02*
Y57362D01*
X188233Y35083D02*
X212126Y58976D01*
X229842D01*
X231457Y57362D01*
X258504Y-5906D02*
X263937Y-472D01*
X207244Y-28425D02*
X211772Y-32953D01*
X207244Y-28425D02*
Y22284D01*
X197244Y32283D02*
X207244Y22284D01*
X-196772Y30315D02*
X-172036D01*
X-207677Y51693D02*
X-173740D01*
X-207677Y51693D02*
X-207677Y51693D01*
X-207835Y51693D02*
X-207677D01*
X-211772Y47756D02*
X-207835Y51693D01*
X-248189Y48268D02*
X-241339Y55118D01*
X-167717D01*
X-257362Y19213D02*
X-248189Y28386D01*
X-260000Y19213D02*
X-257362D01*
X-257874Y23622D02*
X-251969Y29528D01*
X-262795Y23622D02*
X-257874D01*
X-251496Y-17205D02*
X-237717D01*
X-231457Y-23464D01*
Y-29016D02*
Y-23464D01*
X-268701Y0D02*
X-251496Y-17205D01*
X-268701Y0D02*
Y17717D01*
X-262795Y23622D01*
X-251969Y49213D02*
X-243701Y57480D01*
X-130550Y-97638D02*
X-109449D01*
X-131687Y-96500D02*
X-130550Y-97638D01*
X-132500Y-96500D02*
X-131687D01*
X-119900Y-89200D02*
X-110100D01*
X-156500Y-90000D02*
X-120700D01*
X-119900Y-89200D01*
X-155118Y-61024D02*
X-131271Y-84871D01*
X-107648D01*
X-104724Y-87795D01*
X-153300Y-86000D02*
X-151600Y-87700D01*
X-123500D01*
X-153700Y2900D02*
X-142100Y-8700D01*
X-115354Y-26378D02*
X-112076Y-23100D01*
X-101840D01*
X-100940Y-22200D01*
X-23098Y-44000D02*
X-20998Y-41900D01*
X-22778Y-41700D02*
X-21578Y-40500D01*
X90900Y-23200D02*
Y-21400D01*
X-73620Y-23100D02*
X-17682D01*
X-17132Y-23650D01*
X-73040Y-24500D02*
X-18262D01*
X-17712Y-25050D01*
X-72460Y-25900D02*
X-18842D01*
X-18292Y-26450D01*
X-71880Y-27300D02*
X-19422D01*
X-18872Y-27850D01*
X-71301Y-28700D02*
X-20001D01*
X-19452Y-29250D01*
X-70721Y-30100D02*
X-20581D01*
X-20031Y-30650D01*
X-70141Y-31500D02*
X-21161D01*
X-20611Y-32050D01*
X-69561Y-32900D02*
X-21741D01*
X-21191Y-33450D01*
X-68981Y-34300D02*
X-22321D01*
X-21771Y-34850D01*
X-68401Y-35700D02*
X-22901D01*
X-22351Y-36250D01*
X-67821Y-37100D02*
X-23481D01*
X-22931Y-37650D01*
X-123800Y-21476D02*
X-123622Y-21654D01*
X-17132Y-23650D02*
X-11490D01*
X-9240Y-21400D01*
X73600Y-40500D02*
X90900Y-23200D01*
X-74200Y-21700D02*
X-16500D01*
X22550Y-32050D02*
X31200Y-23400D01*
X67737Y-37650D02*
X83071Y-22316D01*
X-123800Y-21476D02*
Y-19800D01*
X-16500Y-21700D02*
X-16200Y-21400D01*
X-9240D02*
X-9100D01*
X-23368Y-46250D02*
X-20418Y-43300D01*
X-17712Y-25050D02*
X-5790D01*
X-2140Y-21400D01*
X-2000D01*
X-18872Y-27850D02*
X3550D01*
X9800Y-21600D01*
X-18292Y-26450D02*
X-90D01*
X4960Y-21400D01*
X5100D01*
X9800Y-21600D02*
Y-21400D01*
X16789D02*
X16900D01*
X-20418Y-43300D02*
X75877D01*
X-20998Y-41900D02*
X75298D01*
X-21578Y-40500D02*
X73600D01*
X-24500Y-39100D02*
X72500D01*
X-22931Y-37650D02*
X67737D01*
X-22351Y-36250D02*
X62050D01*
X-21771Y-34850D02*
X56363D01*
X-21191Y-33450D02*
X50677D01*
X-20611Y-32050D02*
X22550D01*
X-20031Y-30650D02*
X14910D01*
X-19452Y-29250D02*
X8939D01*
X16789Y-21400D01*
X62050Y-36250D02*
X75984Y-22316D01*
X50677Y-33450D02*
X61811Y-22316D01*
X56363Y-34850D02*
X68898Y-22316D01*
X-142100Y-8700D02*
X27400D01*
X29300Y-10600D01*
X-225800Y-12400D02*
X-196100D01*
X-176498Y-32002D01*
Y-46002D02*
Y-32002D01*
X14910Y-30650D02*
X24030Y-21530D01*
X191091Y-46800D02*
X196800D01*
X190945Y-46654D02*
X191091Y-46800D01*
X-208169Y-94784D02*
X-203543Y-90158D01*
X-164173Y-58661D02*
X-161024D01*
X-168504Y-54331D02*
X-164173Y-58661D01*
X-162205Y-60630D02*
X-155118Y-67716D01*
X-208169Y-99410D02*
Y-94784D01*
X-185531Y-52165D02*
X-177953D01*
X-187000Y-59500D02*
X-185870Y-60630D01*
X-162205D01*
X15354Y21260D02*
X29178Y35083D01*
D33*
X40551Y-101171D02*
X43711Y-104331D01*
X40551Y-99606D02*
Y-90158D01*
X106890Y-104724D02*
Y-102953D01*
X104724Y-100787D02*
X106890Y-102953D01*
X80315Y-100787D02*
X104724D01*
X76378Y-96850D02*
X80315Y-100787D01*
X56693Y-96850D02*
X76378D01*
X40551Y-99606D02*
X75602D01*
X40551Y-101171D02*
Y-99606D01*
X88189Y-44094D02*
X95276D01*
X98425Y-47244D01*
X88183Y-104724D02*
X100197D01*
X78347Y-105512D02*
X79134Y-104724D01*
X80721D01*
X82683D01*
X75602Y-99606D02*
X80721Y-104724D01*
X81114Y-105118D01*
X51968Y-92126D02*
X56693Y-96850D01*
X43313Y-74410D02*
X43504Y-74218D01*
Y-70276D01*
X47441Y-70276D02*
X50591D01*
X51968Y-71653D01*
Y-92126D02*
Y-71653D01*
D34*
X-159449Y-3937D02*
X-149213Y-14173D01*
X-114117Y62138D02*
X-113779Y61800D01*
X-48031Y78740D02*
X-46063Y76772D01*
X-159449Y51181D02*
X-149634Y60996D01*
X111024Y-59842D02*
Y-44488D01*
Y-31102D01*
X-159449Y-3937D02*
Y11417D01*
Y11614D02*
Y51181D01*
X-114117Y78009D02*
X-113386Y78740D01*
X-48031D01*
X96281Y-16360D02*
X111024Y-31102D01*
X-117892Y-16360D02*
X96281D01*
X-149213Y-14173D02*
X-120079D01*
X-159449Y11614D02*
X-149606D01*
X-149634Y60996D02*
X-105878D01*
X-114117Y62138D02*
Y78009D01*
D35*
X111024Y-44488D02*
X119823Y-35689D01*
X150394Y-47638D02*
Y-35827D01*
X150531Y-35689D01*
X150787Y-35433D01*
X119823Y-35689D02*
X150531D01*
X-151772Y8465D02*
Y9449D01*
X-149606Y11614D01*
X-148425Y8268D02*
Y10433D01*
X-149606Y11614D02*
X-148425Y10433D01*
X-131890D02*
X-130709Y11614D01*
X94882Y-399D02*
Y6693D01*
Y-399D02*
X95270Y-787D01*
X-239370Y-42913D02*
X-200782D01*
X-241732Y-45276D02*
X-239370Y-42913D01*
X-241732Y-55905D02*
Y-45276D01*
X-73228Y42913D02*
X-66535D01*
X-223150Y-85354D02*
Y-79500D01*
X-133465Y-78740D02*
Y-52756D01*
Y-78740D02*
X-129384Y-82821D01*
X-99068D01*
X-96850Y-85039D01*
X-151772Y8465D02*
X-150000Y6693D01*
X-148425Y8268D01*
X-133465Y-52756D02*
X-120079Y-39370D01*
Y-14173D01*
X-201181Y-42514D02*
X-200782Y-42913D01*
X-201181Y-42514D02*
Y-35433D01*
X150531Y-35689D02*
X161024D01*
D36*
X-73228Y32677D02*
Y34646D01*
X-89026Y16879D02*
X-73228Y32677D01*
X-137458Y16879D02*
X-89026D01*
X-140157Y14179D02*
X-137458Y16879D01*
X-130709Y11614D02*
X-87205D01*
X52362Y-5906D02*
X52444Y-5987D01*
X103455D02*
X103543Y-5900D01*
X95270Y-5982D02*
Y-787D01*
Y-5982D02*
X95276Y-5987D01*
X52444D02*
X95276D01*
X103455D01*
X-5906Y33071D02*
Y34646D01*
X45669Y-5906D02*
X52362D01*
X45669Y-394D02*
Y7092D01*
X-87205Y11614D02*
X-71260Y27559D01*
X-11417D01*
X-5906Y33071D01*
X-131890Y6693D02*
Y10433D01*
X-140157Y-1181D02*
Y6693D01*
X45669Y-4500D02*
Y-394D01*
X-140157Y-1181D02*
X-136839Y-4500D01*
X45669D01*
X-140157Y6693D02*
Y14179D01*
D37*
X81890Y-94882D02*
X110236D01*
X79528Y-92520D02*
X81890Y-94882D01*
X60630Y-92520D02*
X79528D01*
X-24803Y-84252D02*
X20079D01*
X-240650Y-101325D02*
X-236069Y-105905D01*
X-248675Y-101325D02*
X-240650D01*
X-249925Y-100075D02*
X-248675Y-101325D01*
X-249925Y-100075D02*
Y-94740D01*
X-231496Y-105905D02*
X-230900Y-105309D01*
Y-101000D01*
X-236069Y-105905D02*
X-231496D01*
X-267735Y-94740D02*
X-259374D01*
X-268650Y-93825D02*
X-267735Y-94740D01*
X-259374D02*
X-256551D01*
X-254331Y-92520D01*
Y-77165D01*
X-252756Y-75590D01*
X-228740D01*
X-224831Y-79500D01*
X-223150D01*
X-270505Y-93825D02*
X-268650D01*
X-279528Y-84803D02*
X-270505Y-93825D01*
X60630Y-92520D02*
Y-71323D01*
X20079Y-84252D02*
X38583Y-65748D01*
X55055D01*
X60630Y-71323D01*
X-231496Y-105905D02*
X-165354D01*
X-152249Y-92800D01*
X-33351D01*
X-24803Y-84252D01*
D38*
X104724Y-62598D02*
D03*
D39*
X-16929Y63976D02*
D03*
D40*
X-83661Y64567D02*
D03*
D41*
X155709Y-86024D02*
D03*
D42*
X14173Y-103512D02*
D03*
X-14173D02*
D03*
D43*
X-279528Y-54803D02*
D03*
D44*
Y-64803D02*
D03*
Y-74803D02*
D03*
Y-84803D02*
D03*
X-203740Y88677D02*
D03*
X-221457D02*
D03*
X203740D02*
D03*
X221457D02*
D03*
D45*
X-188150Y42835D02*
D03*
X-255079Y-24094D02*
D03*
X260984Y-30000D02*
D03*
X182244Y48740D02*
D03*
D46*
X-198819Y78835D02*
D03*
X-226378D02*
D03*
X198819D02*
D03*
X226378D02*
D03*
D47*
X-67323Y-67008D02*
D03*
X83071Y-22316D02*
D03*
X-104291Y-70200D02*
D03*
X-99567D02*
D03*
X-92480D02*
D03*
X-87756D02*
D03*
X-101929Y-78700D02*
D03*
X-97205D02*
D03*
X-90118D02*
D03*
X-85394D02*
D03*
X-78307Y-70200D02*
D03*
X-75945Y-78700D02*
D03*
X-80669D02*
D03*
X-83031Y-70200D02*
D03*
X87795Y-22316D02*
D03*
X94882D02*
D03*
X97244Y-39889D02*
D03*
X-109000Y-70200D02*
D03*
X-111500Y-79000D02*
D03*
X-106700Y-78800D02*
D03*
X-110200Y-56300D02*
D03*
X-225795Y-48700D02*
D03*
X-233395Y-55500D02*
D03*
X31200Y-21260D02*
D03*
X-26800Y-41700D02*
D03*
X-26700Y-46300D02*
D03*
X-24300Y-44000D02*
D03*
X-188976Y28065D02*
D03*
X-220079Y-57087D02*
D03*
X40551Y-90158D02*
D03*
X97244Y-71653D02*
D03*
X88189Y-44094D02*
D03*
X-126771Y-21260D02*
D03*
X-59842Y59842D02*
D03*
X-33465Y56693D02*
D03*
X94882Y6693D02*
D03*
X103543Y3150D02*
D03*
X67716Y6693D02*
D03*
X-111805Y6687D02*
D03*
X-217994Y-48700D02*
D03*
X-201181Y-35433D02*
D03*
X-241732Y-55905D02*
D03*
X-66535Y42913D02*
D03*
X-122047Y-66142D02*
D03*
X-118898Y-55905D02*
D03*
X-125197Y-61024D02*
D03*
X-125154Y-66132D02*
D03*
X-127165Y-68504D02*
D03*
X-126772Y-107480D02*
D03*
X-113386D02*
D03*
X-223150Y-85354D02*
D03*
X-163702Y-54408D02*
D03*
X-153937Y-57874D02*
D03*
X-162205Y-75984D02*
D03*
X-135827Y-98819D02*
D03*
X-155118Y-74410D02*
D03*
X-269685Y-25197D02*
D03*
Y-30315D02*
D03*
X-96850Y-85039D02*
D03*
X-155118Y-61024D02*
D03*
X178859Y-88858D02*
D03*
X204830Y-85145D02*
D03*
X168504Y-43701D02*
D03*
X122047Y-16142D02*
D03*
X181102Y-69685D02*
D03*
X195276Y-67323D02*
D03*
Y-72047D02*
D03*
X-218504Y-88583D02*
D03*
X78347Y-105512D02*
D03*
X-124803Y-79921D02*
D03*
X-176772Y23622D02*
D03*
X-179528Y25984D02*
D03*
X-164961Y57480D02*
D03*
X8661Y23622D02*
D03*
X-3150D02*
D03*
X-169685Y47638D02*
D03*
X-173622Y33858D02*
D03*
X1969Y23622D02*
D03*
X5118D02*
D03*
X-167717Y55118D02*
D03*
X1575Y6693D02*
D03*
X3937Y9449D02*
D03*
X-3150D02*
D03*
X-5512Y6693D02*
D03*
X-12598Y23622D02*
D03*
X8661Y6693D02*
D03*
X-6299Y23622D02*
D03*
X-9449D02*
D03*
X-10236Y6693D02*
D03*
X-12598Y9449D02*
D03*
X11024D02*
D03*
X15748Y6693D02*
D03*
X18110Y9449D02*
D03*
X22835Y6693D02*
D03*
X25197Y9449D02*
D03*
X-155512Y-27953D02*
D03*
X-150787Y-40945D02*
D03*
X-151181Y-49213D02*
D03*
X-142126Y-41339D02*
D03*
X-142520Y-49213D02*
D03*
X32283Y9449D02*
D03*
X29921Y6693D02*
D03*
X-23622Y-94488D02*
D03*
Y-102362D02*
D03*
X-31496D02*
D03*
X-39370D02*
D03*
X-47244D02*
D03*
X-15748Y-70866D02*
D03*
X-31496D02*
D03*
X-47244D02*
D03*
Y-78740D02*
D03*
X-39370D02*
D03*
Y-70866D02*
D03*
X-23622D02*
D03*
X133858Y-102362D02*
D03*
X141732D02*
D03*
X149606D02*
D03*
Y-94488D02*
D03*
X141732Y-78740D02*
D03*
X133858D02*
D03*
X125984D02*
D03*
X118110D02*
D03*
X133858Y-70866D02*
D03*
X141732D02*
D03*
Y-55118D02*
D03*
Y-47244D02*
D03*
X133858D02*
D03*
X220472Y-102362D02*
D03*
X228346D02*
D03*
X236221D02*
D03*
X204724Y-74016D02*
D03*
Y-78740D02*
D03*
X197638Y-77165D02*
D03*
X198031Y-63779D02*
D03*
X59449Y10630D02*
D03*
Y7087D02*
D03*
X50394Y3150D02*
D03*
X92913Y18504D02*
D03*
X64961Y9449D02*
D03*
X38976Y6693D02*
D03*
X35433D02*
D03*
X-77995Y-83124D02*
D03*
X-83071Y-83071D02*
D03*
X-62663Y-76049D02*
D03*
X-59842Y-70079D02*
D03*
Y-73228D02*
D03*
X-71653Y-67323D02*
D03*
X-115748Y-79921D02*
D03*
X-119685D02*
D03*
X-196850Y-68898D02*
D03*
X-171260Y-51968D02*
D03*
Y-54724D02*
D03*
X-233858Y-68898D02*
D03*
X-223622D02*
D03*
X-246850Y-55905D02*
D03*
X-250787D02*
D03*
X-261811Y70866D02*
D03*
Y66929D02*
D03*
Y62992D02*
D03*
Y59055D02*
D03*
Y55118D02*
D03*
Y51181D02*
D03*
Y47244D02*
D03*
Y43307D02*
D03*
Y39370D02*
D03*
Y35433D02*
D03*
Y31496D02*
D03*
Y27559D02*
D03*
X-281496Y15748D02*
D03*
X-265748Y11811D02*
D03*
X-281496Y9843D02*
D03*
Y3937D02*
D03*
Y-1969D02*
D03*
X-275590D02*
D03*
X46836Y-86629D02*
D03*
X55905Y-90551D02*
D03*
X54724Y-70866D02*
D03*
X39370Y-74016D02*
D03*
Y-70866D02*
D03*
X43504Y-70276D02*
D03*
X47441Y-70276D02*
D03*
X46457Y-78740D02*
D03*
X54724Y-74016D02*
D03*
X37402Y-93701D02*
D03*
X33858Y-96457D02*
D03*
X47638Y-49606D02*
D03*
Y-54331D02*
D03*
Y-59055D02*
D03*
X110236Y-78740D02*
D03*
X114173Y-74803D02*
D03*
X122047D02*
D03*
X129921D02*
D03*
X137795D02*
D03*
X145669Y-59055D02*
D03*
X137795Y-51181D02*
D03*
X153543Y-59055D02*
D03*
X236221Y-86614D02*
D03*
Y-94488D02*
D03*
X255906Y-51181D02*
D03*
X267717D02*
D03*
X279528D02*
D03*
X266311Y-59100D02*
D03*
X254500D02*
D03*
X240158Y-31496D02*
D03*
Y-43307D02*
D03*
X248031Y-15748D02*
D03*
X259842D02*
D03*
X271654D02*
D03*
Y31496D02*
D03*
X259842D02*
D03*
X248031D02*
D03*
X237008Y63937D02*
D03*
X221024Y40787D02*
D03*
X200787Y62992D02*
D03*
Y70866D02*
D03*
X192913Y62992D02*
D03*
X118110Y94488D02*
D03*
X94488D02*
D03*
X70866D02*
D03*
X47244D02*
D03*
X23622D02*
D03*
X0D02*
D03*
X-23622D02*
D03*
X-47244D02*
D03*
X-70866D02*
D03*
X-94488D02*
D03*
X-118110D02*
D03*
X-141732D02*
D03*
X-165354D02*
D03*
X0Y70866D02*
D03*
X23622D02*
D03*
X47244D02*
D03*
X70866D02*
D03*
X94488D02*
D03*
X118110D02*
D03*
X141732D02*
D03*
X165354D02*
D03*
X141732Y47244D02*
D03*
X118110D02*
D03*
X94488D02*
D03*
X70866D02*
D03*
X47244D02*
D03*
X23622D02*
D03*
X-165354Y70866D02*
D03*
X-184400Y76100D02*
D03*
X-236221Y94488D02*
D03*
X-129921Y82677D02*
D03*
X-141732Y70866D02*
D03*
X-215000Y66000D02*
D03*
X-220472Y47244D02*
D03*
Y23622D02*
D03*
X-228346Y15748D02*
D03*
Y7874D02*
D03*
X-220472Y0D02*
D03*
X-212598D02*
D03*
X-244094Y-23622D02*
D03*
X-188976Y-31496D02*
D03*
X-181102Y-23622D02*
D03*
X-173228Y-15748D02*
D03*
X-181102Y-31496D02*
D03*
Y-39370D02*
D03*
X-196850Y-55118D02*
D03*
X-265354Y-79528D02*
D03*
X-270079D02*
D03*
X-274803D02*
D03*
X-252756Y-38189D02*
D03*
X-102362Y-41339D02*
D03*
X-108268D02*
D03*
X-112205Y-45276D02*
D03*
X-106299D02*
D03*
Y-51181D02*
D03*
X-112205D02*
D03*
X-19685Y7874D02*
D03*
X-25591D02*
D03*
X-31496D02*
D03*
X-37402D02*
D03*
X-43307D02*
D03*
X-49213D02*
D03*
X-55118D02*
D03*
X-61024D02*
D03*
X-66929D02*
D03*
X-72835D02*
D03*
X-78740D02*
D03*
X15748Y41339D02*
D03*
X7874Y51181D02*
D03*
X116142Y23622D02*
D03*
X141732D02*
D03*
X151575Y13780D02*
D03*
X161417Y5906D02*
D03*
X175197Y-9843D02*
D03*
Y-19685D02*
D03*
X139764Y13780D02*
D03*
X147638Y3937D02*
D03*
X127953Y13780D02*
D03*
Y23622D02*
D03*
X-261811Y74803D02*
D03*
Y78740D02*
D03*
Y82677D02*
D03*
Y86614D02*
D03*
Y90551D02*
D03*
Y94488D02*
D03*
X-196772Y30315D02*
D03*
X-158465Y-74803D02*
D03*
X-132500Y-96500D02*
D03*
X-156500Y-90000D02*
D03*
X-123500Y-87700D02*
D03*
X-110100Y-89200D02*
D03*
X-153300Y-86000D02*
D03*
X-176498Y-46002D02*
D03*
X-153700Y2900D02*
D03*
X-100940Y-22200D02*
D03*
X-24500Y-39400D02*
D03*
X90900Y-21400D02*
D03*
X-123800Y-19800D02*
D03*
X-16200Y-21400D02*
D03*
X-9100D02*
D03*
X-2000D02*
D03*
X5100D02*
D03*
X9800D02*
D03*
X16900D02*
D03*
X75984Y-22316D02*
D03*
X61811D02*
D03*
X68898D02*
D03*
X29300Y-10600D02*
D03*
X-225800Y-12400D02*
D03*
X24016Y-21516D02*
D03*
X196800Y-46800D02*
D03*
X241200Y-83300D02*
D03*
X276700Y-67300D02*
D03*
X-222500Y-59500D02*
D03*
X-187000D02*
D03*
X-90500Y26500D02*
D03*
X-103500Y26000D02*
D03*
X-117000D02*
D03*
X-124000Y34500D02*
D03*
X-110500Y30500D02*
D03*
X-209000Y66000D02*
D03*
D48*
X106693Y-16535D02*
D03*
D49*
X-156299D02*
D03*
D50*
X-149606Y80236D02*
D03*
X137795Y92047D02*
D03*
Y-92992D02*
D03*
D51*
X-279921Y-16831D02*
D03*
Y-33563D02*
D03*
D52*
X105118Y-59842D02*
D03*
X99213D02*
D03*
Y-65354D02*
D03*
X105118D02*
D03*
X45669Y-394D02*
D03*
X110236Y-94882D02*
D03*
X152756Y-87795D02*
D03*
X-131890Y6693D02*
D03*
X-140157Y6693D02*
D03*
X-150000Y6693D02*
D03*
M02*
