%FSLAX25Y25*%
%MOIN*%
G70*
G01*
G75*
%ADD10R,0.04331X0.03937*%
%ADD11R,0.05000X0.04000*%
%ADD12R,0.03937X0.02756*%
%ADD13R,0.04000X0.03500*%
%ADD14R,0.04000X0.05000*%
%ADD15R,0.02756X0.03937*%
%ADD16R,0.03500X0.04000*%
%ADD17R,0.05906X0.04724*%
%ADD18R,0.06496X0.06299*%
%ADD19O,0.07874X0.02362*%
%ADD20O,0.06693X0.01378*%
%ADD21R,0.03543X0.02559*%
%ADD22C,0.06063*%
%ADD23R,0.06299X0.06496*%
%ADD24R,0.03347X0.02362*%
%ADD25R,0.02362X0.03347*%
%ADD26R,0.18504X0.07874*%
%ADD27R,0.01575X0.03937*%
%ADD28R,0.01181X0.04724*%
%ADD29R,0.03937X0.04331*%
%ADD30R,0.10827X0.03937*%
%ADD31C,0.01000*%
%ADD32C,0.00700*%
%ADD33C,0.01200*%
%ADD34C,0.06000*%
%ADD35C,0.02000*%
%ADD36C,0.04000*%
%ADD37C,0.03000*%
%ADD38R,0.18110X0.12598*%
%ADD39R,0.27559X0.09055*%
%ADD40R,0.27953X0.09449*%
%ADD41R,0.11417X0.12992*%
%ADD42R,0.05906X0.07874*%
%ADD43R,0.05906X0.05906*%
%ADD44C,0.05906*%
%ADD45C,0.11811*%
%ADD46C,0.07874*%
%ADD47C,0.02400*%
%ADD48C,0.06693*%
%ADD49C,0.04724*%
%ADD50C,0.05512*%
%ADD51C,0.03937*%
%ADD52C,0.04000*%
%ADD53R,0.05000X0.12000*%
%ADD54O,0.09843X0.05906*%
%ADD55R,0.07677X0.05512*%
%ADD56R,0.03150X0.06299*%
%ADD57R,0.03347X0.06299*%
%ADD58R,0.06299X0.13780*%
%ADD59R,0.05906X0.12205*%
%ADD60R,0.05512X0.13780*%
%ADD61R,0.04724X0.12205*%
%ADD62O,0.01378X0.06693*%
%ADD63R,0.02559X0.04331*%
%ADD64R,0.14567X0.05906*%
%ADD65R,0.07087X0.09449*%
%ADD66R,0.07087X0.07480*%
%ADD67R,0.01575X0.05906*%
%ADD68R,0.00984X0.02756*%
%ADD69R,0.05512X0.00984*%
%ADD70R,0.02756X0.00984*%
G04:AMPARAMS|DCode=71|XSize=27.56mil|YSize=9.84mil|CornerRadius=3.69mil|HoleSize=0mil|Usage=FLASHONLY|Rotation=0.000|XOffset=0mil|YOffset=0mil|HoleType=Round|Shape=RoundedRectangle|*
%AMROUNDEDRECTD71*
21,1,0.02756,0.00246,0,0,0.0*
21,1,0.02018,0.00984,0,0,0.0*
1,1,0.00738,0.01009,-0.00123*
1,1,0.00738,-0.01009,-0.00123*
1,1,0.00738,-0.01009,0.00123*
1,1,0.00738,0.01009,0.00123*
%
%ADD71ROUNDEDRECTD71*%
%ADD72R,0.04724X0.02362*%
%ADD73R,0.13780X0.04724*%
%ADD74R,0.13386X0.07874*%
%ADD75R,0.01378X0.11811*%
%ADD76R,0.11811X0.12598*%
%ADD77R,0.07874X0.18504*%
%ADD78R,0.07874X0.05512*%
%ADD79R,0.05512X0.02362*%
%ADD80R,0.05512X0.02953*%
%ADD81R,0.03150X0.05118*%
%ADD82R,0.02362X0.04724*%
%ADD83R,0.06071X0.06000*%
%ADD84R,0.06000X0.06000*%
%ADD85C,0.01258*%
%ADD86C,0.00787*%
%ADD87C,0.00500*%
%ADD88C,0.00984*%
%ADD89C,0.02362*%
%ADD90C,0.00780*%
%ADD91C,0.00600*%
%ADD92C,0.00800*%
%ADD93R,0.12050X0.04000*%
%ADD94R,0.04000X0.12050*%
%ADD95R,0.07480X0.11811*%
%ADD96R,0.11811X0.07480*%
D31*
X-247231Y-16511D02*
G03*
X-196075Y-16536I25578J-812D01*
G01*
X-196088Y-16129D02*
G03*
X-196063Y35027I812J25578D01*
G01*
X-196076Y35015D02*
G03*
X-247232Y35040I-25578J812D01*
G01*
X-247219Y35026D02*
G03*
X-247245Y-16130I-812J-25578D01*
G01*
X198425Y32677D02*
G03*
X198065Y-14678I-7480J-23622D01*
G01*
X198031Y-13780D02*
G03*
X245387Y-14140I23622J-7480D01*
G01*
X244488Y-14173D02*
G03*
X244848Y33182I7480J23622D01*
G01*
X245276Y32283D02*
G03*
X197920Y32644I-23622J7480D01*
G01*
X-191929Y-92520D02*
G03*
X-191929Y-92520I-4921J0D01*
G01*
Y-61024D02*
G03*
X-191929Y-61024I-4921J0D01*
G01*
X217717Y-88583D02*
Y-57480D01*
X227559Y-47638D01*
X242913D01*
Y-60630D02*
Y-42520D01*
X156287Y-40183D02*
Y-32683D01*
X145287Y-25683D02*
Y-17683D01*
Y-40183D02*
Y-32683D01*
Y-17683D02*
X156287D01*
Y-25683D02*
Y-17683D01*
X-8655Y40146D02*
X-1156D01*
X-23655Y29146D02*
X-15655D01*
X-8655D02*
X-1156D01*
X-23655D02*
Y40146D01*
X-15655D01*
X-75978D02*
X-68478D01*
X-90978Y29146D02*
X-82978D01*
X-75978D02*
X-68478D01*
X-90978D02*
Y40146D01*
X-82978D01*
X-50813Y67728D02*
X-43313D01*
X-36313Y78728D02*
X-28313D01*
X-50813D02*
X-43313D01*
X-28313Y67728D02*
Y78728D01*
X-36313Y67728D02*
X-28313D01*
X-89689Y47638D02*
Y63386D01*
X-68579Y47638D02*
Y63386D01*
X-22760Y47638D02*
Y63386D01*
X-1650Y47638D02*
Y63386D01*
X-67716Y-79606D02*
X-66536Y-78425D01*
X-67716Y-79606D02*
X-65354D01*
X-66536Y-78425D02*
X-65354Y-79606D01*
X-165748Y-98898D02*
Y98898D01*
X143701D01*
X-165748Y-98898D02*
X143701D01*
X-165748D02*
Y98898D01*
X143701Y-98898D02*
Y98898D01*
X-131811Y87874D02*
X131811D01*
Y-87874D02*
Y87874D01*
X-131811Y-81181D02*
Y87874D01*
X-51181Y-87874D02*
X131811D01*
X-131811D02*
Y-81181D01*
Y-87874D02*
X-51181D01*
X-209055Y-80315D02*
X-184646D01*
X-209055Y-104724D02*
X-184646D01*
X-209055Y-96457D02*
Y-88583D01*
X-184646Y-96457D02*
Y-88583D01*
X-209055Y-73228D02*
X-184646D01*
X-209055Y-48819D02*
X-184646D01*
Y-64961D02*
Y-57087D01*
X-209055Y-64961D02*
Y-57087D01*
D32*
X175306Y-105374D02*
G03*
X182314Y-105374I3504J3504D01*
G01*
Y-91555D02*
G03*
X175306Y-91476I-3543J-3465D01*
G01*
X228996Y-97647D02*
G03*
X228996Y-90639I-3504J3504D01*
G01*
X215177D02*
G03*
X215098Y-97647I3465J-3543D01*
G01*
X214307Y-59978D02*
G03*
X214307Y-52970I-3504J3504D01*
G01*
X200488D02*
G03*
X200410Y-59978I3465J-3543D01*
G01*
X171403Y-50778D02*
G03*
X171403Y-57786I3504J-3504D01*
G01*
X185222D02*
G03*
X185301Y-50778I-3465J3543D01*
G01*
X178807Y-85978D02*
G03*
X178807Y-78970I-3504J3504D01*
G01*
X164988D02*
G03*
X164910Y-85978I3465J-3543D01*
G01*
X160053Y-71552D02*
G03*
X153045Y-71552I-3504J-3504D01*
G01*
Y-85370D02*
G03*
X160053Y-85449I3543J3465D01*
G01*
X41088Y-100778D02*
G03*
X41088Y-107786I3504J-3504D01*
G01*
X54907D02*
G03*
X54986Y-100778I-3465J3543D01*
G01*
X49222Y18366D02*
G03*
X42214Y18366I-3504J-3504D01*
G01*
Y4547D02*
G03*
X49222Y4468I3543J3465D01*
G01*
X-50403Y50532D02*
G03*
X-43395Y50532I3504J3504D01*
G01*
Y64351D02*
G03*
X-50403Y64429I-3543J-3465D01*
G01*
X-117332Y50527D02*
G03*
X-110324Y50527I3504J3504D01*
G01*
Y64346D02*
G03*
X-117332Y64424I-3543J-3465D01*
G01*
X-265097Y-82552D02*
G03*
X-272105Y-82552I-3504J-3504D01*
G01*
Y-96371D02*
G03*
X-265097Y-96449I3543J3465D01*
G01*
X-237097Y-90052D02*
G03*
X-244105Y-90052I-3504J-3504D01*
G01*
Y-103870D02*
G03*
X-237097Y-103949I3543J3465D01*
G01*
X-202948Y-38447D02*
G03*
X-202948Y-45455I3504J-3504D01*
G01*
X-189129D02*
G03*
X-189051Y-38447I-3465J3543D01*
G01*
X83996Y2765D02*
G03*
X83996Y-4242I3504J-3504D01*
G01*
X97815D02*
G03*
X97894Y2765I-3465J3543D01*
G01*
X175306Y-105374D02*
Y-91476D01*
X182314Y-105374D02*
Y-91555D01*
X215098Y-97647D02*
X228996D01*
X215177Y-90639D02*
X228996D01*
X200410Y-59978D02*
X214307D01*
X200488Y-52970D02*
X214307D01*
X171403Y-50778D02*
X185301D01*
X171403Y-57786D02*
X185222D01*
X164910Y-85978D02*
X178807D01*
X164988Y-78970D02*
X178807D01*
X160053Y-85449D02*
Y-71552D01*
X153045Y-85370D02*
Y-71552D01*
X41088Y-100778D02*
X54986D01*
X41088Y-107786D02*
X54907D01*
X49222Y4468D02*
Y18366D01*
X42214Y4547D02*
Y18366D01*
X-50403Y50532D02*
Y64429D01*
X-43395Y50532D02*
Y64351D01*
X-117332Y50527D02*
Y64424D01*
X-110324Y50527D02*
Y64346D01*
X-265097Y-96449D02*
Y-82552D01*
X-272105Y-96371D02*
Y-82552D01*
X-237097Y-103949D02*
Y-90052D01*
X-244105Y-103870D02*
Y-90052D01*
X-202948Y-38447D02*
X-189051D01*
X-202948Y-45455D02*
X-189129D01*
X83996Y2765D02*
X97894D01*
X83996Y-4242D02*
X97815D01*
D86*
X-102036Y-107188D02*
G03*
X-102321Y-100298I-3587J3303D01*
G01*
X-115416Y-100298D02*
G03*
X-115472Y-107188I3417J-3473D01*
G01*
X-137757Y-100412D02*
G03*
X-137473Y-107302I3587J-3303D01*
G01*
X-124377Y-107302D02*
G03*
X-124321Y-100412I-3417J3473D01*
G01*
X110204Y-108112D02*
G03*
X109920Y-101222I-3587J3303D01*
G01*
X96824Y-101222D02*
G03*
X96768Y-108112I3417J-3473D01*
G01*
X166535Y-48031D02*
Y-28346D01*
X175197Y-48031D02*
Y-28346D01*
X166535D02*
X175197D01*
X166535Y-48031D02*
X175197D01*
X193560Y-62433D02*
X206158D01*
X193560Y-88417D02*
X206158D01*
X193560D02*
Y-62433D01*
X206158Y-88417D02*
Y-62433D01*
X163122Y-88398D02*
X165878D01*
X163122Y-100602D02*
X165878D01*
X163122D02*
Y-88398D01*
X165878Y-100602D02*
Y-88398D01*
X-34843Y50984D02*
X-32087D01*
X-34843Y63189D02*
X-32087D01*
Y50984D02*
Y63189D01*
X-34843Y50984D02*
Y63189D01*
X-101681Y51153D02*
X-98925D01*
X-101681Y63358D02*
X-98925D01*
Y51153D02*
Y63358D01*
X-101681Y51153D02*
Y63358D01*
X-235331Y-61094D02*
X-231394D01*
Y-64244D02*
Y-61094D01*
X-235331Y-72905D02*
X-231394D01*
Y-69756D01*
X-242244Y-78256D02*
Y-74319D01*
X-245394Y-78256D02*
X-242244D01*
X-254055D02*
Y-74319D01*
Y-78256D02*
X-250905D01*
X-256028Y-97102D02*
X-253272D01*
X-256028Y-84898D02*
X-253272D01*
Y-97102D02*
Y-84898D01*
X-256028Y-97102D02*
Y-84898D01*
D87*
X184047Y-100856D02*
G03*
X189953Y-100856I2953J2953D01*
G01*
Y-91656D02*
G03*
X184047Y-91656I-2953J-2953D01*
G01*
X205453Y-91900D02*
G03*
X199547Y-91900I-2953J-2953D01*
G01*
Y-101100D02*
G03*
X205453Y-101100I2953J2953D01*
G01*
X206547D02*
G03*
X212453Y-101100I2953J2953D01*
G01*
Y-91900D02*
G03*
X206547Y-91900I-2953J-2953D01*
G01*
X229203Y-89665D02*
G03*
X229203Y-83760I-2953J2953D01*
G01*
X220003D02*
G03*
X220003Y-89665I2953J-2953D01*
G01*
X219759Y-76972D02*
G03*
X219759Y-82878I2953J-2953D01*
G01*
X228959D02*
G03*
X228959Y-76972I-2953J2953D01*
G01*
X229459Y-63378D02*
G03*
X229459Y-57472I-2953J2953D01*
G01*
X220259D02*
G03*
X220259Y-63378I2953J-2953D01*
G01*
X237205Y-59573D02*
G03*
X231299Y-59573I-2953J-2953D01*
G01*
Y-68773D02*
G03*
X237205Y-68773I2953J2953D01*
G01*
X237343Y-71825D02*
G03*
X231437Y-71825I-2953J-2953D01*
G01*
Y-81025D02*
G03*
X237343Y-81025I2953J2953D01*
G01*
X146975Y-9640D02*
G03*
X146975Y-15545I2953J-2953D01*
G01*
X156175D02*
G03*
X156175Y-9640I-2953J2953D01*
G01*
X147441Y-54994D02*
G03*
X153347Y-54994I2953J2953D01*
G01*
Y-45794D02*
G03*
X147441Y-45794I-2953J-2953D01*
G01*
X180978Y-65158D02*
G03*
X180978Y-59252I-2953J2953D01*
G01*
X171778D02*
G03*
X171778Y-65158I2953J-2953D01*
G01*
X158392Y-58858D02*
G03*
X158392Y-64764I2953J-2953D01*
G01*
X167592D02*
G03*
X167592Y-58858I-2953J2953D01*
G01*
X178703Y-77878D02*
G03*
X178703Y-71972I-2953J2953D01*
G01*
X169503D02*
G03*
X169503Y-77878I2953J-2953D01*
G01*
X161400Y-102547D02*
G03*
X161400Y-108453I2953J-2953D01*
G01*
X170600D02*
G03*
X170600Y-102547I-2953J2953D01*
G01*
X-48347Y-67700D02*
G03*
X-54253Y-67700I-2953J-2953D01*
G01*
Y-76900D02*
G03*
X-48347Y-76900I2953J2953D01*
G01*
X-32087Y37132D02*
G03*
X-26181Y37132I2953J2953D01*
G01*
Y46332D02*
G03*
X-32087Y46332I-2953J-2953D01*
G01*
X-99016Y37532D02*
G03*
X-93110Y37532I2953J2953D01*
G01*
Y46732D02*
G03*
X-99016Y46732I-2953J-2953D01*
G01*
X-262602Y-80100D02*
G03*
X-256697Y-80100I2953J2953D01*
G01*
Y-70900D02*
G03*
X-262602Y-70900I-2953J-2953D01*
G01*
X-62723Y-53740D02*
G03*
X-62723Y-47835I-2953J2953D01*
G01*
X-71923D02*
G03*
X-71923Y-53740I2953J-2953D01*
G01*
X-109097Y-105200D02*
Y-102900D01*
X-108197Y-103800D01*
Y-104300D02*
Y-103800D01*
X-109097Y-105200D02*
X-108197Y-104300D01*
X-130697Y-104700D02*
Y-102400D01*
X-131597Y-103800D02*
X-130697Y-104700D01*
X-131597Y-103800D02*
Y-103300D01*
X-130697Y-102400D01*
X185000Y-95756D02*
X189000D01*
X185000Y-96756D02*
X189000D01*
X184047Y-100856D02*
Y-91656D01*
X189953Y-100856D02*
Y-91656D01*
X200500Y-97000D02*
X204500D01*
X200500Y-96000D02*
X204500D01*
X205453Y-101100D02*
Y-91900D01*
X199547Y-101100D02*
Y-91900D01*
X207500Y-96000D02*
X211500D01*
X207500Y-97000D02*
X211500D01*
X206547Y-101100D02*
Y-91900D01*
X212453Y-101100D02*
Y-91900D01*
X224103Y-88713D02*
Y-84713D01*
X225103Y-88713D02*
Y-84713D01*
X220003Y-89665D02*
X229203D01*
X220003Y-83760D02*
X229203D01*
X224859Y-81925D02*
Y-77925D01*
X223859Y-81925D02*
Y-77925D01*
X219759Y-76972D02*
X228959D01*
X219759Y-82878D02*
X228959D01*
X224359Y-62425D02*
Y-58425D01*
X225359Y-62425D02*
Y-58425D01*
X220259Y-63378D02*
X229459D01*
X220259Y-57472D02*
X229459D01*
X232252Y-64673D02*
X236252D01*
X232252Y-63673D02*
X236252D01*
X237205Y-68773D02*
Y-59573D01*
X231299Y-68773D02*
Y-59573D01*
X232390Y-76925D02*
X236390D01*
X232390Y-75925D02*
X236390D01*
X237343Y-81025D02*
Y-71825D01*
X231437Y-81025D02*
Y-71825D01*
X186945Y-32654D02*
X194945D01*
X186945Y-50054D02*
X194945D01*
X186945D02*
Y-32654D01*
X194945Y-50054D02*
Y-32754D01*
X152075Y-14593D02*
Y-10593D01*
X151075Y-14593D02*
Y-10593D01*
X146975Y-9640D02*
X156175D01*
X146975Y-15545D02*
X156175D01*
X148394Y-49894D02*
X152394D01*
X148394Y-50894D02*
X152394D01*
X147441Y-54994D02*
Y-45794D01*
X153347Y-54994D02*
Y-45794D01*
X175878Y-64205D02*
Y-60205D01*
X176878Y-64205D02*
Y-60205D01*
X171778Y-65158D02*
X180978D01*
X171778Y-59252D02*
X180978D01*
X163492Y-63811D02*
Y-59811D01*
X162492Y-63811D02*
Y-59811D01*
X158392Y-58858D02*
X167592D01*
X158392Y-64764D02*
X167592D01*
X173603Y-76925D02*
Y-72925D01*
X174603Y-76925D02*
Y-72925D01*
X169503Y-77878D02*
X178703D01*
X169503Y-71972D02*
X178703D01*
X166500Y-107500D02*
Y-103500D01*
X165500Y-107500D02*
Y-103500D01*
X161400Y-102547D02*
X170600D01*
X161400Y-108453D02*
X170600D01*
X103143Y-106124D02*
Y-103824D01*
X104043Y-104724D01*
Y-105224D02*
Y-104724D01*
X103143Y-106124D02*
X104043Y-105224D01*
X-53300Y-72800D02*
X-49300D01*
X-53300Y-71800D02*
X-49300D01*
X-48347Y-76900D02*
Y-67700D01*
X-54253Y-76900D02*
Y-67700D01*
X-31134Y42232D02*
X-27134D01*
X-31134Y41232D02*
X-27134D01*
X-32087Y37132D02*
Y46332D01*
X-26181Y37132D02*
Y46332D01*
X-98063Y42632D02*
X-94063D01*
X-98063Y41632D02*
X-94063D01*
X-99016Y37532D02*
Y46732D01*
X-93110Y37532D02*
Y46732D01*
X-134709Y8244D02*
X-126709D01*
X-134709Y25644D02*
X-126709D01*
Y8244D02*
Y25644D01*
X-134709Y8344D02*
Y25644D01*
X-144158Y8244D02*
X-136158D01*
X-144158Y25644D02*
X-136158D01*
Y8244D02*
Y25644D01*
X-144158Y8344D02*
Y25644D01*
X-153606Y8244D02*
X-145606D01*
X-153606Y25644D02*
X-145606D01*
Y8244D02*
Y25644D01*
X-153606Y8344D02*
Y25644D01*
X-261650Y-75000D02*
X-257650D01*
X-261650Y-76000D02*
X-257650D01*
X-262602Y-80100D02*
Y-70900D01*
X-256697Y-80100D02*
Y-70900D01*
X-67823Y-52787D02*
Y-48787D01*
X-66823Y-52787D02*
Y-48787D01*
X-71923Y-53740D02*
X-62723D01*
X-71923Y-47835D02*
X-62723D01*
D88*
X161516Y-27343D02*
G03*
X161516Y-27343I-492J0D01*
G01*
X211571Y-89795D02*
G03*
X211571Y-89795I-492J0D01*
G01*
X160268Y-87315D02*
G03*
X160268Y-87315I-492J0D01*
G01*
X-28248Y49902D02*
G03*
X-28248Y49902I-492J0D01*
G01*
X-95087Y50071D02*
G03*
X-95087Y50071I-492J0D01*
G01*
X-237890Y-59913D02*
G03*
X-237890Y-59913I-492J0D01*
G01*
X-240571Y-71268D02*
G03*
X-240571Y-71268I-492J0D01*
G01*
X-249433Y-98185D02*
G03*
X-249433Y-98185I-492J0D01*
G01*
D89*
X203402Y-84480D02*
G03*
X203402Y-84480I-1181J0D01*
G01*
D90*
X-115472Y-107188D02*
X-102036D01*
X-115417Y-100298D02*
X-102321D01*
X-137757Y-100412D02*
X-124321D01*
X-137473Y-107302D02*
X-124377D01*
X96768Y-108112D02*
X110204D01*
X96824Y-101222D02*
X109920D01*
D91*
X-121628Y-106022D02*
X-119305D01*
X-120628Y-107022D02*
Y-105022D01*
X-120488Y-101578D02*
X-118165D01*
X-119165Y-102578D02*
Y-100578D01*
X176459Y-99219D02*
X181189D01*
X176359Y-97819D02*
X181189D01*
X222841Y-96495D02*
Y-91765D01*
X221441Y-96595D02*
Y-91765D01*
X208153Y-58825D02*
Y-54095D01*
X206753Y-58925D02*
Y-54095D01*
X177558Y-56660D02*
Y-51931D01*
X178958Y-56660D02*
Y-51831D01*
X172653Y-84825D02*
Y-80095D01*
X171253Y-84925D02*
Y-80095D01*
X154170Y-77706D02*
X158900D01*
X154170Y-79106D02*
X159000D01*
X90612Y-106947D02*
X92935D01*
X91612Y-107947D02*
Y-105947D01*
X47243Y-106660D02*
Y-101931D01*
X48643Y-106660D02*
Y-101831D01*
X43339Y12211D02*
X48069D01*
X43339Y10811D02*
X48169D01*
X-49250Y56687D02*
X-44521D01*
X-49350Y58087D02*
X-44521D01*
X-116180Y56681D02*
X-111450D01*
X-116279Y58081D02*
X-111450D01*
X-270979Y-88706D02*
X-266250D01*
X-270979Y-90106D02*
X-266150D01*
X-242979Y-96206D02*
X-238250D01*
X-242979Y-97606D02*
X-238150D01*
X-196794Y-44330D02*
Y-39600D01*
X-195394Y-44330D02*
Y-39500D01*
X90151Y-3117D02*
Y1613D01*
X91551Y-3117D02*
Y1713D01*
D92*
X191500Y-102000D02*
Y-97750D01*
Y-102000D02*
X197500D01*
Y-97750D01*
Y-95250D02*
Y-91000D01*
X191500D02*
X197500D01*
X191500Y-95250D02*
Y-91000D01*
X219358Y-70425D02*
X223609D01*
X219358Y-76425D02*
Y-70425D01*
Y-76425D02*
X223609D01*
X226109D02*
X230359D01*
Y-70425D01*
X226109D02*
X230359D01*
X219358Y-63925D02*
X223609D01*
X219358Y-69925D02*
Y-63925D01*
Y-69925D02*
X223609D01*
X226109D02*
X230359D01*
Y-63925D01*
X226109D02*
X230359D01*
X187157Y-31485D02*
Y-27234D01*
Y-31485D02*
X193157D01*
Y-27234D01*
Y-24734D02*
Y-20484D01*
X187157D02*
X193157D01*
X187157Y-24734D02*
Y-20484D01*
X158024Y-23217D02*
Y-18967D01*
Y-23217D02*
X164024D01*
Y-18967D01*
Y-16466D02*
Y-12216D01*
X158024D02*
X164024D01*
X158024Y-16466D02*
Y-12216D01*
X164636Y-56937D02*
X168886D01*
Y-50937D01*
X164636D02*
X168886D01*
X157885D02*
X162136D01*
X157885Y-56937D02*
Y-50937D01*
Y-56937D02*
X162136D01*
X86683Y-107724D02*
X90934D01*
Y-101724D01*
X86683D02*
X90934D01*
X79933D02*
X84183D01*
X79933Y-107724D02*
Y-101724D01*
Y-107724D02*
X84183D01*
X100543Y-8650D02*
Y-4400D01*
Y-8650D02*
X106543D01*
Y-4400D01*
Y-1900D02*
Y2351D01*
X100543D02*
X106543D01*
X100543Y-1900D02*
Y2351D01*
X74872Y-2213D02*
X79123D01*
Y3787D01*
X74872D02*
X79123D01*
X68122D02*
X72372D01*
X68122Y-2213D02*
Y3787D01*
Y-2213D02*
X72372D01*
X56704Y3787D02*
X60955D01*
X56704Y-2213D02*
Y3787D01*
Y-2213D02*
X60955D01*
X63455D02*
X67705D01*
Y3787D01*
X63455D02*
X67705D01*
X-19535Y-7469D02*
Y-3218D01*
Y-7469D02*
X-13535D01*
Y-3218D01*
Y-718D02*
Y3532D01*
X-19535D02*
X-13535D01*
X-19535Y-718D02*
Y3532D01*
X-12105Y-7469D02*
Y-3218D01*
Y-7469D02*
X-6105D01*
Y-3218D01*
Y-718D02*
Y3532D01*
X-12105D02*
X-6105D01*
X-12105Y-718D02*
Y3532D01*
X-52512Y55581D02*
Y59831D01*
X-58512D02*
X-52512D01*
X-58512Y55581D02*
Y59831D01*
Y48830D02*
Y53081D01*
Y48830D02*
X-52512D01*
Y53081D01*
X-39270Y36345D02*
Y40595D01*
Y36345D02*
X-33270D01*
Y40595D01*
Y43095D02*
Y47345D01*
X-39270D02*
X-33270D01*
X-39270Y43095D02*
Y47345D01*
X-46751Y36350D02*
Y40601D01*
Y36350D02*
X-40751D01*
Y40601D01*
Y43101D02*
Y47351D01*
X-46751D02*
X-40751D01*
X-46751Y43101D02*
Y47351D01*
X-106200Y36632D02*
Y40882D01*
Y36632D02*
X-100200D01*
Y40882D01*
Y43382D02*
Y47632D01*
X-106200D02*
X-100200D01*
X-106200Y43382D02*
Y47632D01*
X-113630Y36632D02*
Y40882D01*
Y36632D02*
X-107630D01*
Y40882D01*
Y43382D02*
Y47632D01*
X-113630D02*
X-107630D01*
X-113630Y43382D02*
Y47632D01*
X-116918Y73866D02*
X-112667D01*
X-116918Y67866D02*
Y73866D01*
Y67866D02*
X-112667D01*
X-110167D02*
X-105917D01*
Y73866D01*
X-110167D02*
X-105917D01*
X-247900Y-67500D02*
X-243649D01*
Y-61500D01*
X-247900D02*
X-243649D01*
X-254650D02*
X-250400D01*
X-254650Y-67500D02*
Y-61500D01*
Y-67500D02*
X-250400D01*
X-233650Y-98000D02*
X-229400D01*
X-233650Y-104000D02*
Y-98000D01*
Y-104000D02*
X-229400D01*
X-226900D02*
X-222649D01*
Y-98000D01*
X-226900D02*
X-222649D01*
X-226900Y-95500D02*
X-222649D01*
Y-89500D01*
X-226900D02*
X-222649D01*
X-233650D02*
X-229400D01*
X-233650Y-95500D02*
Y-89500D01*
Y-95500D02*
X-229400D01*
X-233784Y-82921D02*
X-229533D01*
Y-76921D01*
X-233784D02*
X-229533D01*
X-240534D02*
X-236283D01*
X-240534Y-82921D02*
Y-76921D01*
Y-82921D02*
X-236283D01*
X-107805Y-1819D02*
X-103555D01*
Y4181D01*
X-107805D02*
X-103555D01*
X-114556D02*
X-110305D01*
X-114556Y-1819D02*
Y4181D01*
Y-1819D02*
X-110305D01*
X47313Y-77409D02*
X51563D01*
Y-71409D01*
X47313D02*
X51563D01*
X40563D02*
X44813D01*
X40563Y-77409D02*
Y-71409D01*
Y-77409D02*
X44813D01*
X-226150Y-82250D02*
Y-78000D01*
Y-82250D02*
X-220150D01*
Y-78000D01*
Y-75500D02*
Y-71250D01*
X-226150D02*
X-220150D01*
X-226150Y-75500D02*
Y-71250D01*
X235070Y-53800D02*
X234570Y-53300D01*
X233571D01*
X233071Y-53800D01*
Y-55799D01*
X233571Y-56299D01*
X234570D01*
X235070Y-55799D01*
X236070Y-56299D02*
X237070D01*
X236570D01*
Y-53300D01*
X236070Y-53800D01*
X196713Y-42489D02*
X196214Y-42989D01*
Y-43988D01*
X196713Y-44488D01*
X198713D01*
X199213Y-43988D01*
Y-42989D01*
X198713Y-42489D01*
X199213Y-39490D02*
Y-41489D01*
X197213Y-39490D01*
X196713D01*
X196214Y-39990D01*
Y-40989D01*
X196713Y-41489D01*
X240582Y-77816D02*
X240082Y-77316D01*
X239083D01*
X238583Y-77816D01*
Y-79815D01*
X239083Y-80315D01*
X240082D01*
X240582Y-79815D01*
X243081Y-80315D02*
Y-77316D01*
X241582Y-78815D01*
X243581D01*
X154362Y-66005D02*
X153862Y-65505D01*
X152862D01*
X152362Y-66005D01*
Y-68004D01*
X152862Y-68504D01*
X153862D01*
X154362Y-68004D01*
X157361Y-65505D02*
X155361D01*
Y-67004D01*
X156361Y-66505D01*
X156861D01*
X157361Y-67004D01*
Y-68004D01*
X156861Y-68504D01*
X155861D01*
X155361Y-68004D01*
X153180Y-6162D02*
X152681Y-5662D01*
X151681D01*
X151181Y-6162D01*
Y-8162D01*
X151681Y-8661D01*
X152681D01*
X153180Y-8162D01*
X154180Y-6162D02*
X154680Y-5662D01*
X155680D01*
X156179Y-6162D01*
Y-6662D01*
X155680Y-7162D01*
X156179Y-7662D01*
Y-8162D01*
X155680Y-8661D01*
X154680D01*
X154180Y-8162D01*
Y-7662D01*
X154680Y-7162D01*
X154180Y-6662D01*
Y-6162D01*
X154680Y-7162D02*
X155680D01*
X188446Y-56268D02*
X187946Y-56768D01*
Y-57768D01*
X188446Y-58268D01*
X190445D01*
X190945Y-57768D01*
Y-56768D01*
X190445Y-56268D01*
X190945Y-55269D02*
Y-54269D01*
Y-54769D01*
X187946D01*
X188446Y-55269D01*
X190945Y-50770D02*
Y-52770D01*
X188945Y-50770D01*
X188446D01*
X187946Y-51270D01*
Y-52270D01*
X188446Y-52770D01*
X150818Y-60887D02*
X150318Y-60387D01*
X149319D01*
X148819Y-60887D01*
Y-62886D01*
X149319Y-63386D01*
X150318D01*
X150818Y-62886D01*
X151818Y-63386D02*
X152818D01*
X152318D01*
Y-60387D01*
X151818Y-60887D01*
X154317D02*
X154817Y-60387D01*
X155817D01*
X156316Y-60887D01*
Y-61387D01*
X155817Y-61886D01*
X155317D01*
X155817D01*
X156316Y-62386D01*
Y-62886D01*
X155817Y-63386D01*
X154817D01*
X154317Y-62886D01*
X185464Y-59706D02*
X184964Y-59206D01*
X183964D01*
X183465Y-59706D01*
Y-61705D01*
X183964Y-62205D01*
X184964D01*
X185464Y-61705D01*
X186464Y-62205D02*
X187463D01*
X186963D01*
Y-59206D01*
X186464Y-59706D01*
X190462Y-62205D02*
Y-59206D01*
X188963Y-60705D01*
X190962D01*
X-251150Y-103406D02*
X-251650Y-102907D01*
X-252650D01*
X-253150Y-103406D01*
Y-105406D01*
X-252650Y-105905D01*
X-251650D01*
X-251150Y-105406D01*
X-250151Y-105905D02*
X-249151D01*
X-249651D01*
Y-102907D01*
X-250151Y-103406D01*
X-245652Y-102907D02*
X-247651D01*
Y-104406D01*
X-246652Y-103906D01*
X-246152D01*
X-245652Y-104406D01*
Y-105406D01*
X-246152Y-105905D01*
X-247151D01*
X-247651Y-105406D01*
X-270442Y-75454D02*
X-270941Y-74954D01*
X-271941D01*
X-272441Y-75454D01*
Y-77453D01*
X-271941Y-77953D01*
X-270941D01*
X-270442Y-77453D01*
X-269442Y-77953D02*
X-268442D01*
X-268942D01*
Y-74954D01*
X-269442Y-75454D01*
X-264943Y-74954D02*
X-265943Y-75454D01*
X-266943Y-76453D01*
Y-77453D01*
X-266443Y-77953D01*
X-265443D01*
X-264943Y-77453D01*
Y-76953D01*
X-265443Y-76453D01*
X-266943D01*
X-262174Y-65611D02*
X-262674Y-65111D01*
X-263673D01*
X-264173Y-65611D01*
Y-67610D01*
X-263673Y-68110D01*
X-262674D01*
X-262174Y-67610D01*
X-261174Y-68110D02*
X-260174D01*
X-260674D01*
Y-65111D01*
X-261174Y-65611D01*
X-258675Y-65111D02*
X-256676D01*
Y-65611D01*
X-258675Y-67610D01*
Y-68110D01*
X139233Y-22804D02*
X138733Y-23304D01*
Y-24303D01*
X139233Y-24803D01*
X141232D01*
X141732Y-24303D01*
Y-23304D01*
X141232Y-22804D01*
X141732Y-19805D02*
Y-21804D01*
X139733Y-19805D01*
X139233D01*
X138733Y-20305D01*
Y-21304D01*
X139233Y-21804D01*
X141732Y-18805D02*
Y-17805D01*
Y-18305D01*
X138733D01*
X139233Y-18805D01*
X144942Y-52994D02*
X144442Y-53494D01*
Y-54494D01*
X144942Y-54994D01*
X146941D01*
X147441Y-54494D01*
Y-53494D01*
X146941Y-52994D01*
X147441Y-49995D02*
Y-51995D01*
X145442Y-49995D01*
X144942D01*
X144442Y-50495D01*
Y-51495D01*
X144942Y-51995D01*
X147441Y-47496D02*
X144442D01*
X145941Y-48996D01*
Y-46996D01*
X32314Y-104194D02*
X31815Y-103694D01*
X30815D01*
X30315Y-104194D01*
Y-106193D01*
X30815Y-106693D01*
X31815D01*
X32314Y-106193D01*
X35313Y-106693D02*
X33314D01*
X35313Y-104694D01*
Y-104194D01*
X34813Y-103694D01*
X33814D01*
X33314Y-104194D01*
X38312Y-103694D02*
X37313Y-104194D01*
X36313Y-105193D01*
Y-106193D01*
X36813Y-106693D01*
X37813D01*
X38312Y-106193D01*
Y-105693D01*
X37813Y-105193D01*
X36313D01*
X-70628Y-42277D02*
X-71128Y-41777D01*
X-72128D01*
X-72628Y-42277D01*
Y-44277D01*
X-72128Y-44776D01*
X-71128D01*
X-70628Y-44277D01*
X-67629Y-44776D02*
X-69629D01*
X-67629Y-42777D01*
Y-42277D01*
X-68129Y-41777D01*
X-69129D01*
X-69629Y-42277D01*
X-66629Y-44277D02*
X-66130Y-44776D01*
X-65130D01*
X-64630Y-44277D01*
Y-42277D01*
X-65130Y-41777D01*
X-66130D01*
X-66629Y-42277D01*
Y-42777D01*
X-66130Y-43277D01*
X-64630D01*
X-71229Y27302D02*
X-71729Y27802D01*
X-72729D01*
X-73228Y27302D01*
Y25303D01*
X-72729Y24803D01*
X-71729D01*
X-71229Y25303D01*
X-70229Y27302D02*
X-69730Y27802D01*
X-68730D01*
X-68230Y27302D01*
Y26803D01*
X-68730Y26303D01*
X-69230D01*
X-68730D01*
X-68230Y25803D01*
Y25303D01*
X-68730Y24803D01*
X-69730D01*
X-70229Y25303D01*
X-65231Y24803D02*
X-67230D01*
X-65231Y26803D01*
Y27302D01*
X-65731Y27802D01*
X-66730D01*
X-67230Y27302D01*
X-3119D02*
X-3619Y27802D01*
X-4618D01*
X-5118Y27302D01*
Y25303D01*
X-4618Y24803D01*
X-3619D01*
X-3119Y25303D01*
X-2119Y27302D02*
X-1619Y27802D01*
X-620D01*
X-120Y27302D01*
Y26803D01*
X-620Y26303D01*
X-1119D01*
X-620D01*
X-120Y25803D01*
Y25303D01*
X-620Y24803D01*
X-1619D01*
X-2119Y25303D01*
X880Y27302D02*
X1380Y27802D01*
X2379D01*
X2879Y27302D01*
Y26803D01*
X2379Y26303D01*
X1880D01*
X2379D01*
X2879Y25803D01*
Y25303D01*
X2379Y24803D01*
X1380D01*
X880Y25303D01*
X-96987Y29558D02*
X-97487Y29059D01*
Y28059D01*
X-96987Y27559D01*
X-94988D01*
X-94488Y28059D01*
Y29059D01*
X-94988Y29558D01*
X-96987Y30558D02*
X-97487Y31058D01*
Y32058D01*
X-96987Y32557D01*
X-96487D01*
X-95988Y32058D01*
Y31558D01*
Y32058D01*
X-95488Y32557D01*
X-94988D01*
X-94488Y32058D01*
Y31058D01*
X-94988Y30558D01*
X-94488Y35057D02*
X-97487D01*
X-95988Y33557D01*
Y35557D01*
X-30452Y28771D02*
X-30952Y28271D01*
Y27272D01*
X-30452Y26772D01*
X-28453D01*
X-27953Y27272D01*
Y28271D01*
X-28453Y28771D01*
X-30452Y29771D02*
X-30952Y30270D01*
Y31270D01*
X-30452Y31770D01*
X-29952D01*
X-29452Y31270D01*
Y30770D01*
Y31270D01*
X-28952Y31770D01*
X-28453D01*
X-27953Y31270D01*
Y30270D01*
X-28453Y29771D01*
X-30952Y34769D02*
X-30452Y33769D01*
X-29452Y32770D01*
X-28453D01*
X-27953Y33270D01*
Y34269D01*
X-28453Y34769D01*
X-28952D01*
X-29452Y34269D01*
Y32770D01*
X-52050Y84555D02*
X-52550Y85055D01*
X-53550D01*
X-54050Y84555D01*
Y82556D01*
X-53550Y82056D01*
X-52550D01*
X-52050Y82556D01*
X-51051Y84555D02*
X-50551Y85055D01*
X-49551D01*
X-49051Y84555D01*
Y84055D01*
X-49551Y83555D01*
X-50051D01*
X-49551D01*
X-49051Y83056D01*
Y82556D01*
X-49551Y82056D01*
X-50551D01*
X-51051Y82556D01*
X-48052Y84555D02*
X-47552Y85055D01*
X-46552D01*
X-46052Y84555D01*
Y84055D01*
X-46552Y83555D01*
X-46052Y83056D01*
Y82556D01*
X-46552Y82056D01*
X-47552D01*
X-48052Y82556D01*
Y83056D01*
X-47552Y83555D01*
X-48052Y84055D01*
Y84555D01*
X-47552Y83555D02*
X-46552D01*
X-122184Y53574D02*
X-122684Y53074D01*
Y52075D01*
X-122184Y51575D01*
X-120185D01*
X-119685Y52075D01*
Y53074D01*
X-120185Y53574D01*
X-119685Y56073D02*
X-122684D01*
X-121185Y54574D01*
Y56573D01*
X-122184Y57573D02*
X-122684Y58073D01*
Y59072D01*
X-122184Y59572D01*
X-120185D01*
X-119685Y59072D01*
Y58073D01*
X-120185Y57573D01*
X-122184D01*
X-33827Y82027D02*
X-34327Y82527D01*
X-35327D01*
X-35827Y82027D01*
Y80027D01*
X-35327Y79528D01*
X-34327D01*
X-33827Y80027D01*
X-31328Y79528D02*
Y82527D01*
X-32828Y81027D01*
X-30828D01*
X-29829Y79528D02*
X-28829D01*
X-29329D01*
Y82527D01*
X-29829Y82027D01*
X-194001Y-33989D02*
X-194501Y-33489D01*
X-195500D01*
X-196000Y-33989D01*
Y-35988D01*
X-195500Y-36488D01*
X-194501D01*
X-194001Y-35988D01*
X-191501Y-36488D02*
Y-33489D01*
X-193001Y-34989D01*
X-191002D01*
X-190002Y-33989D02*
X-189502Y-33489D01*
X-188502D01*
X-188003Y-33989D01*
Y-34489D01*
X-188502Y-34989D01*
X-189002D01*
X-188502D01*
X-188003Y-35489D01*
Y-35988D01*
X-188502Y-36488D01*
X-189502D01*
X-190002Y-35988D01*
X85003Y8392D02*
X84503Y8892D01*
X83504D01*
X83004Y8392D01*
Y6393D01*
X83504Y5893D01*
X84503D01*
X85003Y6393D01*
X87502Y5893D02*
Y8892D01*
X86003Y7392D01*
X88002D01*
X90501Y5893D02*
Y8892D01*
X89002Y7392D01*
X91001D01*
X-128316Y30058D02*
X-128815Y30558D01*
X-129815D01*
X-130315Y30058D01*
Y28059D01*
X-129815Y27559D01*
X-128815D01*
X-128316Y28059D01*
X-125816Y27559D02*
Y30558D01*
X-127316Y29059D01*
X-125317D01*
X-122318Y30558D02*
X-124317D01*
Y29059D01*
X-123317Y29558D01*
X-122817D01*
X-122318Y29059D01*
Y28059D01*
X-122817Y27559D01*
X-123817D01*
X-124317Y28059D01*
X-142095Y30058D02*
X-142595Y30558D01*
X-143595D01*
X-144095Y30058D01*
Y28059D01*
X-143595Y27559D01*
X-142595D01*
X-142095Y28059D01*
X-139596Y27559D02*
Y30558D01*
X-141095Y29059D01*
X-139096D01*
X-136097Y30558D02*
X-137097Y30058D01*
X-138096Y29059D01*
Y28059D01*
X-137597Y27559D01*
X-136597D01*
X-136097Y28059D01*
Y28559D01*
X-136597Y29059D01*
X-138096D01*
X-151938Y30452D02*
X-152437Y30952D01*
X-153437D01*
X-153937Y30452D01*
Y28453D01*
X-153437Y27953D01*
X-152437D01*
X-151938Y28453D01*
X-149439Y27953D02*
Y30952D01*
X-150938Y29452D01*
X-148939D01*
X-147939Y30452D02*
X-147439Y30952D01*
X-146439D01*
X-145940Y30452D01*
Y29952D01*
X-146439Y29452D01*
X-145940Y28952D01*
Y28453D01*
X-146439Y27953D01*
X-147439D01*
X-147939Y28453D01*
Y28952D01*
X-147439Y29452D01*
X-147939Y29952D01*
Y30452D01*
X-147439Y29452D02*
X-146439D01*
X152787Y-104587D02*
X152287Y-104088D01*
X151287D01*
X150787Y-104587D01*
Y-106587D01*
X151287Y-107087D01*
X152287D01*
X152787Y-106587D01*
X155286Y-107087D02*
Y-104088D01*
X153786Y-105587D01*
X155786D01*
X156786Y-106587D02*
X157285Y-107087D01*
X158285D01*
X158785Y-106587D01*
Y-104587D01*
X158285Y-104088D01*
X157285D01*
X156786Y-104587D01*
Y-105087D01*
X157285Y-105587D01*
X158785D01*
X202787Y-48288D02*
X202287Y-47788D01*
X201287D01*
X200787Y-48288D01*
Y-50288D01*
X201287Y-50787D01*
X202287D01*
X202787Y-50288D01*
X205786Y-47788D02*
X203786D01*
Y-49288D01*
X204786Y-48788D01*
X205286D01*
X205786Y-49288D01*
Y-50288D01*
X205286Y-50787D01*
X204286D01*
X203786Y-50288D01*
X206785Y-50787D02*
X207785D01*
X207285D01*
Y-47788D01*
X206785Y-48288D01*
X209480Y-104194D02*
X208980Y-103694D01*
X207980D01*
X207480Y-104194D01*
Y-106193D01*
X207980Y-106693D01*
X208980D01*
X209480Y-106193D01*
X212479Y-103694D02*
X210479D01*
Y-105193D01*
X211479Y-104694D01*
X211979D01*
X212479Y-105193D01*
Y-106193D01*
X211979Y-106693D01*
X210979D01*
X210479Y-106193D01*
X215478Y-106693D02*
X213478D01*
X215478Y-104694D01*
Y-104194D01*
X214978Y-103694D01*
X213978D01*
X213478Y-104194D01*
X200425Y-103800D02*
X199925Y-103300D01*
X198925D01*
X198425Y-103800D01*
Y-105799D01*
X198925Y-106299D01*
X199925D01*
X200425Y-105799D01*
X203424Y-103300D02*
X201424D01*
Y-104800D01*
X202424Y-104300D01*
X202924D01*
X203424Y-104800D01*
Y-105799D01*
X202924Y-106299D01*
X201924D01*
X201424Y-105799D01*
X204423Y-103800D02*
X204923Y-103300D01*
X205923D01*
X206423Y-103800D01*
Y-104300D01*
X205923Y-104800D01*
X205423D01*
X205923D01*
X206423Y-105299D01*
Y-105799D01*
X205923Y-106299D01*
X204923D01*
X204423Y-105799D01*
X246094Y-54194D02*
X245594Y-53694D01*
X244594D01*
X244094Y-54194D01*
Y-56193D01*
X244594Y-56693D01*
X245594D01*
X246094Y-56193D01*
X249093Y-53694D02*
X247094D01*
Y-55193D01*
X248093Y-54694D01*
X248593D01*
X249093Y-55193D01*
Y-56193D01*
X248593Y-56693D01*
X247593D01*
X247094Y-56193D01*
X251592Y-56693D02*
Y-53694D01*
X250093Y-55193D01*
X252092D01*
X163643Y-75560D02*
X163143Y-76060D01*
Y-77059D01*
X163643Y-77559D01*
X165642D01*
X166142Y-77059D01*
Y-76060D01*
X165642Y-75560D01*
X163143Y-72561D02*
Y-74560D01*
X164642D01*
X164142Y-73560D01*
Y-73061D01*
X164642Y-72561D01*
X165642D01*
X166142Y-73061D01*
Y-74060D01*
X165642Y-74560D01*
X163143Y-69562D02*
Y-71561D01*
X164642D01*
X164142Y-70561D01*
Y-70061D01*
X164642Y-69562D01*
X165642D01*
X166142Y-70061D01*
Y-71061D01*
X165642Y-71561D01*
X172865Y-68367D02*
X172366Y-67867D01*
X171366D01*
X170866Y-68367D01*
Y-70366D01*
X171366Y-70866D01*
X172366D01*
X172865Y-70366D01*
X175865Y-67867D02*
X173865D01*
Y-69367D01*
X174865Y-68867D01*
X175365D01*
X175865Y-69367D01*
Y-70366D01*
X175365Y-70866D01*
X174365D01*
X173865Y-70366D01*
X178864Y-67867D02*
X177864Y-68367D01*
X176864Y-69367D01*
Y-70366D01*
X177364Y-70866D01*
X178364D01*
X178864Y-70366D01*
Y-69867D01*
X178364Y-69367D01*
X176864D01*
X246094Y-58131D02*
X245594Y-57631D01*
X244594D01*
X244094Y-58131D01*
Y-60130D01*
X244594Y-60630D01*
X245594D01*
X246094Y-60130D01*
X249093Y-57631D02*
X247094D01*
Y-59130D01*
X248093Y-58631D01*
X248593D01*
X249093Y-59130D01*
Y-60130D01*
X248593Y-60630D01*
X247593D01*
X247094Y-60130D01*
X250093Y-57631D02*
X252092D01*
Y-58131D01*
X250093Y-60130D01*
Y-60630D01*
X231753Y-96426D02*
X231253Y-96926D01*
Y-97925D01*
X231753Y-98425D01*
X233752D01*
X234252Y-97925D01*
Y-96926D01*
X233752Y-96426D01*
X231253Y-93427D02*
Y-95426D01*
X232752D01*
X232253Y-94427D01*
Y-93927D01*
X232752Y-93427D01*
X233752D01*
X234252Y-93927D01*
Y-94926D01*
X233752Y-95426D01*
X231753Y-92427D02*
X231253Y-91927D01*
Y-90928D01*
X231753Y-90428D01*
X232253D01*
X232752Y-90928D01*
X233252Y-90428D01*
X233752D01*
X234252Y-90928D01*
Y-91927D01*
X233752Y-92427D01*
X233252D01*
X232752Y-91927D01*
X232253Y-92427D01*
X231753D01*
X232752Y-91927D02*
Y-90928D01*
X246094Y-42383D02*
X245594Y-41883D01*
X244594D01*
X244094Y-42383D01*
Y-44382D01*
X244594Y-44882D01*
X245594D01*
X246094Y-44382D01*
X249093Y-41883D02*
X247094D01*
Y-43382D01*
X248093Y-42882D01*
X248593D01*
X249093Y-43382D01*
Y-44382D01*
X248593Y-44882D01*
X247593D01*
X247094Y-44382D01*
X250093D02*
X250592Y-44882D01*
X251592D01*
X252092Y-44382D01*
Y-42383D01*
X251592Y-41883D01*
X250592D01*
X250093Y-42383D01*
Y-42882D01*
X250592Y-43382D01*
X252092D01*
X185464Y-103406D02*
X184964Y-102907D01*
X183964D01*
X183465Y-103406D01*
Y-105406D01*
X183964Y-105905D01*
X184964D01*
X185464Y-105406D01*
X188463Y-102907D02*
X187463Y-103406D01*
X186464Y-104406D01*
Y-105406D01*
X186963Y-105905D01*
X187963D01*
X188463Y-105406D01*
Y-104906D01*
X187963Y-104406D01*
X186464D01*
X189463Y-105905D02*
X190462D01*
X189962D01*
Y-102907D01*
X189463Y-103406D01*
X-52618Y-63608D02*
X-53118Y-64108D01*
Y-65107D01*
X-52618Y-65607D01*
X-50619D01*
X-50119Y-65107D01*
Y-64108D01*
X-50619Y-63608D01*
X-53118Y-60609D02*
X-52618Y-61608D01*
X-51618Y-62608D01*
X-50619D01*
X-50119Y-62108D01*
Y-61108D01*
X-50619Y-60609D01*
X-51119D01*
X-51618Y-61108D01*
Y-62608D01*
X-50119Y-57610D02*
Y-59609D01*
X-52118Y-57610D01*
X-52618D01*
X-53118Y-58109D01*
Y-59109D01*
X-52618Y-59609D01*
X-144488Y-102119D02*
Y-105118D01*
X-142989D01*
X-142489Y-104618D01*
Y-102619D01*
X-142989Y-102119D01*
X-144488D01*
X-141489Y-105118D02*
X-140489D01*
X-140989D01*
Y-102119D01*
X-141489Y-102619D01*
X114173Y-103300D02*
Y-106299D01*
X115673D01*
X116173Y-105799D01*
Y-103800D01*
X115673Y-103300D01*
X114173D01*
X119172Y-106299D02*
X117172D01*
X119172Y-104300D01*
Y-103800D01*
X118672Y-103300D01*
X117672D01*
X117172Y-103800D01*
X-98819Y-101725D02*
Y-104724D01*
X-97319D01*
X-96820Y-104225D01*
Y-102225D01*
X-97319Y-101725D01*
X-98819D01*
X-95820Y-102225D02*
X-95320Y-101725D01*
X-94320D01*
X-93821Y-102225D01*
Y-102725D01*
X-94320Y-103225D01*
X-94820D01*
X-94320D01*
X-93821Y-103725D01*
Y-104225D01*
X-94320Y-104724D01*
X-95320D01*
X-95820Y-104225D01*
X-255906Y-80072D02*
Y-83071D01*
X-254406D01*
X-253906Y-82571D01*
Y-80572D01*
X-254406Y-80072D01*
X-255906D01*
X-251407Y-83071D02*
Y-80072D01*
X-252906Y-81571D01*
X-250907D01*
X275796Y-79665D02*
X274797D01*
X275296D01*
Y-82165D01*
X274797Y-82665D01*
X274297D01*
X273797Y-82165D01*
X276796Y-82665D02*
X277796D01*
X277296D01*
Y-79665D01*
X276796Y-80165D01*
X-89363Y73705D02*
Y70706D01*
X-87364D01*
X-86364Y73206D02*
X-85864Y73705D01*
X-84864D01*
X-84365Y73206D01*
Y72706D01*
X-84864Y72206D01*
X-85364D01*
X-84864D01*
X-84365Y71706D01*
Y71206D01*
X-84864Y70706D01*
X-85864D01*
X-86364Y71206D01*
X-22416Y73773D02*
Y70774D01*
X-20416D01*
X-17917D02*
Y73773D01*
X-19417Y72273D01*
X-17417D01*
X-228316Y-61705D02*
Y-59706D01*
X-228815Y-59206D01*
X-229815D01*
X-230315Y-59706D01*
Y-61705D01*
X-229815Y-62205D01*
X-228815D01*
X-229315Y-61205D02*
X-228316Y-62205D01*
X-228815D02*
X-228316Y-61705D01*
X-227316Y-62205D02*
X-226316D01*
X-226816D01*
Y-59206D01*
X-227316Y-59706D01*
X192126Y-106299D02*
Y-103300D01*
X193625D01*
X194125Y-103800D01*
Y-104800D01*
X193625Y-105299D01*
X192126D01*
X193126D02*
X194125Y-106299D01*
X197124D02*
X195125D01*
X197124Y-104300D01*
Y-103800D01*
X196625Y-103300D01*
X195625D01*
X195125Y-103800D01*
X244094Y-48819D02*
Y-45820D01*
X245594D01*
X246094Y-46320D01*
Y-47319D01*
X245594Y-47819D01*
X244094D01*
X245094D02*
X246094Y-48819D01*
X247094Y-46320D02*
X247593Y-45820D01*
X248593D01*
X249093Y-46320D01*
Y-46819D01*
X248593Y-47319D01*
X248093D01*
X248593D01*
X249093Y-47819D01*
Y-48319D01*
X248593Y-48819D01*
X247593D01*
X247094Y-48319D01*
X244094Y-52756D02*
Y-49757D01*
X245594D01*
X246094Y-50257D01*
Y-51256D01*
X245594Y-51756D01*
X244094D01*
X245094D02*
X246094Y-52756D01*
X248593D02*
Y-49757D01*
X247094Y-51256D01*
X249093D01*
X68504Y-7087D02*
Y-4088D01*
X70003D01*
X70503Y-4587D01*
Y-5587D01*
X70003Y-6087D01*
X68504D01*
X69504D02*
X70503Y-7087D01*
X73502Y-4088D02*
X71503D01*
Y-5587D01*
X72503Y-5087D01*
X73002D01*
X73502Y-5587D01*
Y-6587D01*
X73002Y-7087D01*
X72003D01*
X71503Y-6587D01*
X57087Y-7087D02*
Y-4088D01*
X58586D01*
X59086Y-4587D01*
Y-5587D01*
X58586Y-6087D01*
X57087D01*
X58086D02*
X59086Y-7087D01*
X62085Y-4088D02*
X61085Y-4587D01*
X60086Y-5587D01*
Y-6587D01*
X60585Y-7087D01*
X61585D01*
X62085Y-6587D01*
Y-6087D01*
X61585Y-5587D01*
X60086D01*
X-15748Y-13780D02*
X-18747D01*
Y-12280D01*
X-18247Y-11780D01*
X-17248D01*
X-16748Y-12280D01*
Y-13780D01*
Y-12780D02*
X-15748Y-11780D01*
X-18747Y-10780D02*
Y-8781D01*
X-18247D01*
X-16248Y-10780D01*
X-15748D01*
X-8268Y-13386D02*
X-11267D01*
Y-11886D01*
X-10767Y-11387D01*
X-9767D01*
X-9267Y-11886D01*
Y-13386D01*
Y-12386D02*
X-8268Y-11387D01*
X-10767Y-10387D02*
X-11267Y-9887D01*
Y-8887D01*
X-10767Y-8387D01*
X-10267D01*
X-9767Y-8887D01*
X-9267Y-8387D01*
X-8768D01*
X-8268Y-8887D01*
Y-9887D01*
X-8768Y-10387D01*
X-9267D01*
X-9767Y-9887D01*
X-10267Y-10387D01*
X-10767D01*
X-9767Y-9887D02*
Y-8887D01*
X-233465Y-108268D02*
Y-105269D01*
X-231965D01*
X-231465Y-105769D01*
Y-106768D01*
X-231965Y-107268D01*
X-233465D01*
X-232465D02*
X-231465Y-108268D01*
X-230466D02*
X-229466D01*
X-229966D01*
Y-105269D01*
X-230466Y-105769D01*
X-227966D02*
X-227467Y-105269D01*
X-226467D01*
X-225967Y-105769D01*
Y-107768D01*
X-226467Y-108268D01*
X-227467D01*
X-227966Y-107768D01*
Y-105769D01*
X-233465Y-87795D02*
Y-84796D01*
X-231965D01*
X-231465Y-85296D01*
Y-86296D01*
X-231965Y-86796D01*
X-233465D01*
X-232465D02*
X-231465Y-87795D01*
X-230466D02*
X-229466D01*
X-229966D01*
Y-84796D01*
X-230466Y-85296D01*
X-227966Y-87795D02*
X-226967D01*
X-227467D01*
Y-84796D01*
X-227966Y-85296D01*
X168504Y-19685D02*
X165505D01*
Y-18185D01*
X166005Y-17686D01*
X167004D01*
X167504Y-18185D01*
Y-19685D01*
Y-18685D02*
X168504Y-17686D01*
Y-16686D02*
Y-15686D01*
Y-16186D01*
X165505D01*
X166005Y-16686D01*
X168504Y-12687D02*
X165505D01*
X167004Y-14187D01*
Y-12188D01*
X187008Y-19685D02*
Y-16686D01*
X188507D01*
X189007Y-17186D01*
Y-18185D01*
X188507Y-18685D01*
X187008D01*
X188007D02*
X189007Y-19685D01*
X190007D02*
X191007D01*
X190507D01*
Y-16686D01*
X190007Y-17186D01*
X194505Y-16686D02*
X192506D01*
Y-18185D01*
X193506Y-17686D01*
X194006D01*
X194505Y-18185D01*
Y-19185D01*
X194006Y-19685D01*
X193006D01*
X192506Y-19185D01*
X-116929Y75984D02*
Y78983D01*
X-115430D01*
X-114930Y78483D01*
Y77484D01*
X-115430Y76984D01*
X-116929D01*
X-115929D02*
X-114930Y75984D01*
X-113930D02*
X-112930D01*
X-113430D01*
Y78983D01*
X-113930Y78483D01*
X-109432Y78983D02*
X-110431Y78483D01*
X-111431Y77484D01*
Y76484D01*
X-110931Y75984D01*
X-109931D01*
X-109432Y76484D01*
Y76984D01*
X-109931Y77484D01*
X-111431D01*
X157087Y-56299D02*
X154088D01*
Y-54800D01*
X154587Y-54300D01*
X155587D01*
X156087Y-54800D01*
Y-56299D01*
Y-55300D02*
X157087Y-54300D01*
Y-53300D02*
Y-52301D01*
Y-52800D01*
X154088D01*
X154587Y-53300D01*
X154088Y-50801D02*
Y-48802D01*
X154587D01*
X156587Y-50801D01*
X157087D01*
X-106299Y32283D02*
Y35282D01*
X-104800D01*
X-104300Y34783D01*
Y33783D01*
X-104800Y33283D01*
X-106299D01*
X-105299D02*
X-104300Y32283D01*
X-103300D02*
X-102301D01*
X-102800D01*
Y35282D01*
X-103300Y34783D01*
X-100801D02*
X-100301Y35282D01*
X-99301D01*
X-98802Y34783D01*
Y34283D01*
X-99301Y33783D01*
X-98802Y33283D01*
Y32783D01*
X-99301Y32283D01*
X-100301D01*
X-100801Y32783D01*
Y33283D01*
X-100301Y33783D01*
X-100801Y34283D01*
Y34783D01*
X-100301Y33783D02*
X-99301D01*
X-225733Y-68050D02*
Y-65051D01*
X-224234D01*
X-223734Y-65551D01*
Y-66550D01*
X-224234Y-67050D01*
X-225733D01*
X-224734D02*
X-223734Y-68050D01*
X-222734D02*
X-221735D01*
X-222235D01*
Y-65051D01*
X-222734Y-65551D01*
X-220235Y-67550D02*
X-219735Y-68050D01*
X-218736D01*
X-218236Y-67550D01*
Y-65551D01*
X-218736Y-65051D01*
X-219735D01*
X-220235Y-65551D01*
Y-66051D01*
X-219735Y-66550D01*
X-218236D01*
X-247244Y-85827D02*
Y-82828D01*
X-245745D01*
X-245245Y-83328D01*
Y-84327D01*
X-245745Y-84827D01*
X-247244D01*
X-246244D02*
X-245245Y-85827D01*
X-242246D02*
X-244245D01*
X-242246Y-83827D01*
Y-83328D01*
X-242745Y-82828D01*
X-243745D01*
X-244245Y-83328D01*
X-241246Y-85827D02*
X-240246D01*
X-240746D01*
Y-82828D01*
X-241246Y-83328D01*
X-255512Y-60236D02*
Y-57237D01*
X-254012D01*
X-253513Y-57737D01*
Y-58737D01*
X-254012Y-59237D01*
X-255512D01*
X-254512D02*
X-253513Y-60236D01*
X-250513D02*
X-252513D01*
X-250513Y-58237D01*
Y-57737D01*
X-251013Y-57237D01*
X-252013D01*
X-252513Y-57737D01*
X-248014Y-60236D02*
Y-57237D01*
X-249514Y-58737D01*
X-247514D01*
X40930Y-68199D02*
Y-65200D01*
X42430D01*
X42929Y-65700D01*
Y-66700D01*
X42430Y-67199D01*
X40930D01*
X41930D02*
X42929Y-68199D01*
X45928D02*
X43929D01*
X45928Y-66200D01*
Y-65700D01*
X45428Y-65200D01*
X44429D01*
X43929Y-65700D01*
X48927Y-65200D02*
X46928D01*
Y-66700D01*
X47928Y-66200D01*
X48428D01*
X48927Y-66700D01*
Y-67699D01*
X48428Y-68199D01*
X47428D01*
X46928Y-67699D01*
X68110Y-107087D02*
Y-104088D01*
X69610D01*
X70110Y-104587D01*
Y-105587D01*
X69610Y-106087D01*
X68110D01*
X69110D02*
X70110Y-107087D01*
X73109D02*
X71109D01*
X73109Y-105087D01*
Y-104587D01*
X72609Y-104088D01*
X71609D01*
X71109Y-104587D01*
X74108D02*
X74608Y-104088D01*
X75608D01*
X76108Y-104587D01*
Y-105087D01*
X75608Y-105587D01*
X76108Y-106087D01*
Y-106587D01*
X75608Y-107087D01*
X74608D01*
X74108Y-106587D01*
Y-106087D01*
X74608Y-105587D01*
X74108Y-105087D01*
Y-104587D01*
X74608Y-105587D02*
X75608D01*
X-59055Y62205D02*
Y65204D01*
X-57556D01*
X-57056Y64704D01*
Y63704D01*
X-57556Y63204D01*
X-59055D01*
X-58055D02*
X-57056Y62205D01*
X-56056Y64704D02*
X-55556Y65204D01*
X-54557D01*
X-54057Y64704D01*
Y64204D01*
X-54557Y63704D01*
X-55056D01*
X-54557D01*
X-54057Y63204D01*
Y62705D01*
X-54557Y62205D01*
X-55556D01*
X-56056Y62705D01*
X-51557Y62205D02*
Y65204D01*
X-53057Y63704D01*
X-51058D01*
X-40551Y31890D02*
Y34889D01*
X-39052D01*
X-38552Y34389D01*
Y33389D01*
X-39052Y32889D01*
X-40551D01*
X-39551D02*
X-38552Y31890D01*
X-37552Y34389D02*
X-37052Y34889D01*
X-36053D01*
X-35553Y34389D01*
Y33889D01*
X-36053Y33389D01*
X-36553D01*
X-36053D01*
X-35553Y32889D01*
Y32390D01*
X-36053Y31890D01*
X-37052D01*
X-37552Y32390D01*
X-32554Y34889D02*
X-34553D01*
Y33389D01*
X-33553Y33889D01*
X-33054D01*
X-32554Y33389D01*
Y32390D01*
X-33054Y31890D01*
X-34053D01*
X-34553Y32390D01*
X-115748Y32283D02*
Y35282D01*
X-114249D01*
X-113749Y34783D01*
Y33783D01*
X-114249Y33283D01*
X-115748D01*
X-114748D02*
X-113749Y32283D01*
X-112749Y34783D02*
X-112249Y35282D01*
X-111249D01*
X-110750Y34783D01*
Y34283D01*
X-111249Y33783D01*
X-111749D01*
X-111249D01*
X-110750Y33283D01*
Y32783D01*
X-111249Y32283D01*
X-112249D01*
X-112749Y32783D01*
X-107751Y35282D02*
X-108750Y34783D01*
X-109750Y33783D01*
Y32783D01*
X-109250Y32283D01*
X-108250D01*
X-107751Y32783D01*
Y33283D01*
X-108250Y33783D01*
X-109750D01*
X-49606Y31890D02*
Y34889D01*
X-48107D01*
X-47607Y34389D01*
Y33389D01*
X-48107Y32889D01*
X-49606D01*
X-48607D02*
X-47607Y31890D01*
X-46607Y34389D02*
X-46107Y34889D01*
X-45108D01*
X-44608Y34389D01*
Y33889D01*
X-45108Y33389D01*
X-45608D01*
X-45108D01*
X-44608Y32889D01*
Y32390D01*
X-45108Y31890D01*
X-46107D01*
X-46607Y32390D01*
X-43608Y34889D02*
X-41609D01*
Y34389D01*
X-43608Y32390D01*
Y31890D01*
X-114184Y7398D02*
Y10397D01*
X-112685D01*
X-112185Y9898D01*
Y8898D01*
X-112685Y8398D01*
X-114184D01*
X-113185D02*
X-112185Y7398D01*
X-109686D02*
Y10397D01*
X-111185Y8898D01*
X-109186D01*
X-106687Y7398D02*
Y10397D01*
X-108186Y8898D01*
X-106187D01*
X100394Y5512D02*
Y8511D01*
X101893D01*
X102393Y8011D01*
Y7011D01*
X101893Y6511D01*
X100394D01*
X101393D02*
X102393Y5512D01*
X104892D02*
Y8511D01*
X103393Y7011D01*
X105392D01*
X108391Y8511D02*
X106392D01*
Y7011D01*
X107391Y7511D01*
X107891D01*
X108391Y7011D01*
Y6012D01*
X107891Y5512D01*
X106892D01*
X106392Y6012D01*
X-212145Y-110599D02*
X-212645Y-111099D01*
Y-112099D01*
X-212145Y-112598D01*
X-211645D01*
X-211145Y-112099D01*
Y-111099D01*
X-210645Y-110599D01*
X-210145D01*
X-209646Y-111099D01*
Y-112099D01*
X-210145Y-112598D01*
X-212645Y-107600D02*
Y-109599D01*
X-209646D01*
Y-107600D01*
X-211145Y-109599D02*
Y-108600D01*
X-212645Y-106600D02*
X-209646D01*
Y-104601D01*
X-213129Y-77528D02*
X-213629Y-78028D01*
Y-79028D01*
X-213129Y-79528D01*
X-212629D01*
X-212129Y-79028D01*
Y-78028D01*
X-211630Y-77528D01*
X-211130D01*
X-210630Y-78028D01*
Y-79028D01*
X-211130Y-79528D01*
X-213629Y-76529D02*
Y-74529D01*
Y-75529D01*
X-210630D01*
Y-73529D02*
X-212629D01*
X-213629Y-72530D01*
X-212629Y-71530D01*
X-210630D01*
X-212129D01*
Y-73529D01*
X178740Y-22591D02*
Y-25091D01*
X179240Y-25591D01*
X180240D01*
X180739Y-25091D01*
Y-22591D01*
X181739Y-23091D02*
X182239Y-22591D01*
X183239D01*
X183739Y-23091D01*
Y-23591D01*
X183239Y-24091D01*
X182739D01*
X183239D01*
X183739Y-24591D01*
Y-25091D01*
X183239Y-25591D01*
X182239D01*
X181739Y-25091D01*
X-103543Y67960D02*
Y65460D01*
X-103043Y64961D01*
X-102044D01*
X-101544Y65460D01*
Y67960D01*
X-99045Y64961D02*
Y67960D01*
X-100544Y66460D01*
X-98545D01*
X-261811Y-98970D02*
Y-101469D01*
X-261311Y-101969D01*
X-260312D01*
X-259812Y-101469D01*
Y-98970D01*
X-256813D02*
X-258812D01*
Y-100469D01*
X-257812Y-99969D01*
X-257312D01*
X-256813Y-100469D01*
Y-101469D01*
X-257312Y-101969D01*
X-258312D01*
X-258812Y-101469D01*
X-41732Y66779D02*
Y64279D01*
X-41232Y63779D01*
X-40233D01*
X-39733Y64279D01*
Y66779D01*
X-36734D02*
X-37734Y66279D01*
X-38733Y65279D01*
Y64279D01*
X-38233Y63779D01*
X-37234D01*
X-36734Y64279D01*
Y64779D01*
X-37234Y65279D01*
X-38733D01*
X151181Y-97001D02*
Y-99500D01*
X151681Y-100000D01*
X152681D01*
X153180Y-99500D01*
Y-97001D01*
X154180D02*
X156179D01*
Y-97501D01*
X154180Y-99500D01*
Y-100000D01*
X195426Y-60236D02*
X197925D01*
X198425Y-59736D01*
Y-58737D01*
X197925Y-58237D01*
X195426D01*
X198425Y-57237D02*
Y-56238D01*
Y-56737D01*
X195426D01*
X195926Y-57237D01*
Y-54738D02*
X195426Y-54238D01*
Y-53238D01*
X195926Y-52739D01*
X197925D01*
X198425Y-53238D01*
Y-54238D01*
X197925Y-54738D01*
X195926D01*
X-165434Y105148D02*
Y102649D01*
X-164934Y102149D01*
X-163934D01*
X-163435Y102649D01*
Y105148D01*
X-162435Y102149D02*
X-161435D01*
X-161935D01*
Y105148D01*
X-162435Y104648D01*
X-157936Y102149D02*
X-159936D01*
X-157936Y104148D01*
Y104648D01*
X-158436Y105148D01*
X-159436D01*
X-159936Y104648D01*
X172304Y-100757D02*
X171804Y-101256D01*
Y-102256D01*
X172304Y-102756D01*
X174303D01*
X174803Y-102256D01*
Y-101256D01*
X174303Y-100757D01*
X171804Y-97758D02*
X172304Y-98757D01*
X173304Y-99757D01*
X174303D01*
X174803Y-99257D01*
Y-98257D01*
X174303Y-97758D01*
X173803D01*
X173304Y-98257D01*
Y-99757D01*
X172304Y-96758D02*
X171804Y-96258D01*
Y-95258D01*
X172304Y-94758D01*
X174303D01*
X174803Y-95258D01*
Y-96258D01*
X174303Y-96758D01*
X172304D01*
X44125Y24546D02*
X43626Y25046D01*
X42626D01*
X42126Y24546D01*
Y22547D01*
X42626Y22047D01*
X43626D01*
X44125Y22547D01*
X47124Y22047D02*
X45125D01*
X47124Y24047D01*
Y24546D01*
X46624Y25046D01*
X45625D01*
X45125Y24546D01*
X48124D02*
X48624Y25046D01*
X49624D01*
X50123Y24546D01*
Y24047D01*
X49624Y23547D01*
X50123Y23047D01*
Y22547D01*
X49624Y22047D01*
X48624D01*
X48124Y22547D01*
Y23047D01*
X48624Y23547D01*
X48124Y24047D01*
Y24546D01*
X48624Y23547D02*
X49624D01*
X-223425Y-34402D02*
Y-37402D01*
X-221926D01*
X-221426Y-36902D01*
Y-34902D01*
X-221926Y-34402D01*
X-223425D01*
X-218927D02*
X-219926D01*
X-220426Y-34902D01*
Y-36902D01*
X-219926Y-37402D01*
X-218927D01*
X-218427Y-36902D01*
Y-34902D01*
X-218927Y-34402D01*
X-217427D02*
Y-37402D01*
X-216427Y-36402D01*
X-215428Y-37402D01*
Y-34402D01*
X-214428Y-37402D02*
Y-34402D01*
X-212429Y-37402D01*
Y-34402D01*
X-262734Y27548D02*
Y24549D01*
X-260735D01*
X-257735Y27548D02*
X-259735D01*
Y24549D01*
X-257735D01*
X-259735Y26048D02*
X-258735D01*
X-254736Y27548D02*
X-256736D01*
Y26048D01*
X-255736D01*
X-256736D01*
Y24549D01*
X-253737Y27548D02*
X-251737D01*
X-252737D01*
Y24549D01*
X-196850Y22638D02*
Y25637D01*
X-195351D01*
X-194851Y25137D01*
Y24137D01*
X-195351Y23638D01*
X-196850D01*
X-195851D02*
X-194851Y22638D01*
X-193851Y25637D02*
X-192852D01*
X-193351D01*
Y22638D01*
X-193851D01*
X-192852D01*
X-189353Y25137D02*
X-189853Y25637D01*
X-190852D01*
X-191352Y25137D01*
Y23138D01*
X-190852Y22638D01*
X-189853D01*
X-189353Y23138D01*
Y24137D01*
X-190352D01*
X-188353Y25637D02*
Y22638D01*
Y24137D01*
X-186354D01*
Y25637D01*
Y22638D01*
X-185354Y25637D02*
X-183355D01*
X-184354D01*
Y22638D01*
X-234252Y56149D02*
Y53649D01*
X-233752Y53150D01*
X-232752D01*
X-232253Y53649D01*
Y56149D01*
X-231253Y53150D02*
Y56149D01*
X-229753D01*
X-229254Y55649D01*
Y54649D01*
X-229753Y54149D01*
X-231253D01*
X204366Y-9551D02*
Y-7552D01*
X205366Y-6552D01*
X206365Y-7552D01*
Y-9551D01*
Y-8052D01*
X204366D01*
X231966Y20948D02*
Y17949D01*
X233466D01*
X233965Y18449D01*
Y18948D01*
X233466Y19448D01*
X231966D01*
X233466D01*
X233965Y19948D01*
Y20448D01*
X233466Y20948D01*
X231966D01*
X170966D02*
X172966Y17949D01*
Y20948D02*
X170966Y17949D01*
X204366Y54448D02*
Y53948D01*
X205366Y52948D01*
X206365Y53948D01*
Y54448D01*
X205366Y52948D02*
Y51449D01*
X66142Y19534D02*
X68141D01*
X67141D01*
Y16535D01*
X69141Y19534D02*
X71140Y16535D01*
Y19534D02*
X69141Y16535D01*
X72140Y19534D02*
Y16535D01*
X73639D01*
X74139Y17035D01*
Y19035D01*
X73639Y19534D01*
X72140D01*
X66535Y24409D02*
Y27408D01*
X68035D01*
X68535Y26909D01*
Y25909D01*
X68035Y25409D01*
X66535D01*
X67535D02*
X68535Y24409D01*
X69534Y27408D02*
X71534Y24409D01*
Y27408D02*
X69534Y24409D01*
X72534Y27408D02*
Y24409D01*
X74033D01*
X74533Y24909D01*
Y26909D01*
X74033Y27408D01*
X72534D01*
X5118Y27559D02*
X6118D01*
X5618D01*
Y30558D01*
X5118Y30058D01*
X7617Y29558D02*
X8617Y27559D01*
X9617Y29558D01*
X10616Y30058D02*
X11116Y30558D01*
X12116D01*
X12616Y30058D01*
Y29558D01*
X12116Y29059D01*
X12616Y28559D01*
Y28059D01*
X12116Y27559D01*
X11116D01*
X10616Y28059D01*
Y28559D01*
X11116Y29059D01*
X10616Y29558D01*
Y30058D01*
X11116Y29059D02*
X12116D01*
X-58661Y28877D02*
X-58162Y29377D01*
X-57162D01*
X-56662Y28877D01*
Y28377D01*
X-57162Y27878D01*
X-57662D01*
X-57162D01*
X-56662Y27378D01*
Y26878D01*
X-57162Y26378D01*
X-58162D01*
X-58661Y26878D01*
X-55662Y28377D02*
X-54663Y26378D01*
X-53663Y28377D01*
X-52663Y28877D02*
X-52163Y29377D01*
X-51164D01*
X-50664Y28877D01*
Y28377D01*
X-51164Y27878D01*
X-51664D01*
X-51164D01*
X-50664Y27378D01*
Y26878D01*
X-51164Y26378D01*
X-52163D01*
X-52663Y26878D01*
D93*
X150763Y-42183D02*
D03*
D94*
X845Y34621D02*
D03*
X-66478Y34621D02*
D03*
X-52813Y73253D02*
D03*
D95*
X-236575Y9370D02*
D03*
X-259803Y9370D02*
D03*
X202717Y9370D02*
D03*
X179488Y9370D02*
D03*
X240512Y9370D02*
D03*
X263740Y9370D02*
D03*
X-206653Y9370D02*
D03*
X-183425D02*
D03*
D96*
X221614Y-9528D02*
D03*
X221614Y-32756D02*
D03*
X221614Y28268D02*
D03*
X221614Y51496D02*
D03*
X-221614Y24331D02*
D03*
Y47559D02*
D03*
X-221614Y-5590D02*
D03*
Y-28819D02*
D03*
M02*
