M48
;Layer_Color=9474304
;FILE_FORMAT=2:4
INCH,LZ
;TYPE=PLATED
T1F00S00C0.0120
T2F00S00C0.0240
T3F00S00C0.0315
T4F00S00C0.0354
T5F00S00C0.0394
T6F00S00C0.0433
T7F00S00C0.0472
T8F00S00C0.0591
T9F00S00C0.0630
T10F00S00C0.1063
%
T01
X-02748Y-007953
X-027008
X-026535
X-025079Y-005591
X-024685
X-024173
X-023339Y-00555
X-023386Y-00689
X-022362
X-02225Y-00595
X-022008Y-005709
X-021799Y-00487
X-022579
X-019685Y-005512
Y-00689
X-0187Y-00595
X-017126Y-005472
Y-005197
X-01637Y-005441
X-015394Y-005787
X-015512Y-006102
Y-007441
X-015846Y-00748
X-01622Y-007598
X-01533Y-0086
X-01565Y-009
X-015118Y-004921
X-015079Y-004094
X-015551Y-002795
X-01811Y-00315
Y-002362
X-018898Y-00315
X-01811Y-003937
X-01765Y-0046
X-017323Y-001575
X-020118Y-003543
X-02258Y-00124
X-024409Y-002362
X-025276Y-003819
X-026969Y-003031
Y-00252
X-022315Y-008535
X-02185Y-008858
X-013583Y-009882
X-01325Y-00965
X-012677Y-010748
X-011339
X-01101Y-00892
X-01115Y-0079
X-01067Y-00788
X-010193Y-00787
X-00972
X-009685Y-008504
X-009012Y-00787
X-008539
X-008067
X-007594
X-0078Y-008312
X-008307Y-008307
X-008303Y-00702
X-008776
X-009248
X-009957
X-010429
X-0109
X-01102Y-00563
X-01122Y-005118
Y-004528
X-01063
Y-005118
X-010827Y-004134
X-010236
X-010094Y-00222
X-01238Y-00198
X-012677Y-002126
X-014213Y-004134
X-014252Y-004921
X-01252Y-006102
X-012515Y-006613
X-012205Y-006614
X-012717Y-00685
X-01248Y-007992
X-011968
X-011575
X-01235Y-00877
X-01189Y-005591
X-007831Y-00702
X-007165Y-006732
X-006732Y-006701
X-005984Y-007008
Y-007323
X-006266Y-007605
X-004724Y-007874
X-003937
Y-007087
X-004724
X-00315
X-002362
X-001575
X-002362Y-009449
Y-010236
X-00315
X-003937
X-004724
X-00267Y-00463
X-00268Y-00417
X-00245Y-00394
X-00243Y-0044
X-00162Y-00214
X-00091
X-0002
X00051
X00098
X00169
X002402Y-002152
X00312Y-002126
X00293Y-00106
X006181Y-002232
X00689
X007598
X008307
X00878
X00909Y-00214
X009488Y-002232
X009724Y-003989
X008819Y-004409
X009724Y-007165
X011024Y-007874
X011811
X012598
X013386
X014173
X01378Y-00748
X014173Y-007087
X013386
X012992Y-00748
X012205
X011417
X013386Y-010236
X014173
X014961
Y-009449
X014567Y-005906
X014173Y-005512
X01378Y-005118
X014173Y-004724
X013386
X015354Y-005906
X012205Y-001614
X004764Y-004961
Y-005433
Y-005906
X004744Y-007028
X00435Y-007028
X003937Y-007087
Y-007402
X004646Y-007874
X004684Y-008663
X004055Y-009016
X00374Y-00937
X003386Y-009646
X005591Y-009055
X005472Y-007402
Y-007087
X007835Y-010551
X017886Y-008886
X01811Y-006969
X019528Y-007205
Y-006732
X019803Y-006378
X019764Y-007717
X020472Y-007874
Y-007402
X020483Y-008514
X022047Y-010236
X022835
X023622
Y-009449
Y-008661
X02412Y-00833
X02545Y-00591
X025591Y-005118
X026772
X026631Y-00591
X02767Y-00673
X027953Y-005118
X027165Y-001575
X025984
X024803
X024016Y-00315
Y-004331
X01968Y-00468
X01685Y-00437
X01752Y-001969
Y-000984
X019291Y006299
X020079
Y007087
X023701Y006394
X022102Y004079
X024803Y00315
X025984
X027165
X016142Y000591
X014764Y000394
X015157Y001378
X013976
X014173Y002362
X012795
Y001378
X011614Y002362
X011811Y004724
X014173
Y007087
X011811
Y009449
X009449
X007087
X004724
X002362
Y007087
X004724
X007087
X009449
Y004724
X007087
X004724
X002362
X001575Y004134
X001811Y000945
X001575Y000669
X002283
X00252Y000945
X003228
X002992Y000669
X003543Y000669
X003898
X005039Y000315
X005945Y000709
Y001063
X006496Y000945
X006772Y000669
X009488
X010354Y000315
X009291Y00185
X016535Y007087
X0
Y009449
X-002362
X-004724
X-007087
X-009449
X-011811
X-014173
X-012992Y008268
X-014173Y007087
X-0124Y00345
X-0117Y0026
X-01105Y00305
X-01035Y0026
X-00905Y00265
X-007874Y000787
X-007283
X-006693
X-006102
X-005512
X-004921
X-004331
X-00374
X-00315
X-002559
X-001969
X-00126Y000945
X-001024Y000669
X-000551Y000669
X-000315Y000945
X000394
X000157Y000669
X000866
X001102Y000945
X000866Y002362
X000512
X000197
X-000315
X-00063
X-000945
X-00126
X000787Y005118
X-003346Y005669
X-005984Y005984
X-006654Y004291
X-011181Y000669
X-01537Y00029
X-017677Y002362
X-017953Y002598
X-018898Y002806
X-019677Y003031
X-017362Y003386
X-016968Y004764
X-016772Y005512
X-016496Y005748
X-016535Y007087
Y009449
X-01844Y00761
X-0209Y0066
X-0215
X-022047Y004724
Y002362
X-022835Y001575
Y000787
X-022047Y0
X-02126
X-026575Y001181
X-02815Y000984
Y001575
Y000394
Y-000197
X-027559
X-026181Y002756
Y00315
Y003543
Y003937
Y004331
Y004724
Y005118
Y005512
Y005906
Y006299
Y006693
Y007087
Y00748
Y007874
Y008268
Y008661
Y009055
Y009449
X-023622
T02
X011024Y-009488
X010512Y-006535
Y-005984
X009921
Y-006535
X015276Y-00878
X004567Y-000039
X-013189Y000669
X-014016Y000669
X-015Y000669
T03
X-000965Y-009308
X000965
T04
X-027953Y-00848
Y-00748
Y-00648
Y-00548
X-027992Y-003356
Y-001683
T05
X020374Y008868
X022146
X-020374
X-022146
T06
X-01563Y-001654
X-001417Y-010351
X001417
T07
X01378Y-009299
Y009205
X-014961Y008024
T08
X019882Y007883
X022638
X-019882
X-022638
T09
X010669Y-001654
T10
X-025508Y-002409
X026098Y-003
X018224Y004874
X-018815Y004283
M30
